<svg id="aboutMap" xmlns="http://www.w3.org/2000/svg" width="655.625" height="614.344" viewBox="0 0 655.625 614.344">
  <g id="Group_359" data-name="Group 359" transform="translate(1686.027 -2223.949)">
    <g id="Group_355" data-name="Group 355">
      <path id="Path_1408" data-name="Path 1408" d="M-1645.741,2817.4l-10.45,3.2a2.7,2.7,0,0,1-1.4.045l-18.2-4.4a2.677,2.677,0,0,1-1.429-.9l-7.736-9.439a4.567,4.567,0,0,1-.8-4.312l3.258-9.857a7.262,7.262,0,0,1,2.632-3.6l9.452-6.851a2.656,2.656,0,0,1,1.726-.5l6.695.416-5.328,3.863a7.247,7.247,0,0,0-2.637,3.6l-3.253,9.859a4.533,4.533,0,0,0,.8,4.307l7.732,9.437a2.656,2.656,0,0,0,1.427.9Z" fill="#6dc54a"/>
      <path id="Path_1409" data-name="Path 1409" d="M-1611.966,2813.668l-.814,2.672a2.653,2.653,0,0,1-4.363,1.153l-3.121-2.962a1.259,1.259,0,0,0-.122-.109l-4.6-3.866-2.613-2.192a2.656,2.656,0,0,0-3.371-.03l-8.663,6.992a2.6,2.6,0,0,1-.886.472l-5.226,1.6-17.508-4.226a2.656,2.656,0,0,1-1.427-.9l-7.732-9.437a4.533,4.533,0,0,1-.8-4.307l3.253-9.859a7.247,7.247,0,0,1,2.637-3.6l5.328-3.863,12.371.771a16.185,16.185,0,0,1,3.676.665l18.944,5.771a2.688,2.688,0,0,1,1.305.885l2.111,2.655a2.654,2.654,0,0,1,.475.915l1.994,6.88a2.614,2.614,0,0,0,.455.887l3.213,4.132,5.046,6.5A2.66,2.66,0,0,1-1611.966,2813.668Z" fill="#82cd64"/>
      <g id="Group_354" data-name="Group 354">
        <path id="Path_1410" data-name="Path 1410" d="M-1647.652,2694.589v24.069a14.322,14.322,0,0,1,14.3,14.306,14.323,14.323,0,0,1-14.3,14.3v47.32l30.11-37.856a38.486,38.486,0,0,0,8.265-23.769A38.418,38.418,0,0,0-1647.652,2694.589Z" fill="#cd2a00"/>
        <path id="Path_1411" data-name="Path 1411" d="M-1633.347,2732.964a14.322,14.322,0,0,0-14.3-14.306v28.611A14.323,14.323,0,0,0-1633.347,2732.964Z" fill="#d8d7da"/>
        <path id="Path_1412" data-name="Path 1412" d="M-1661.958,2732.964a14.32,14.32,0,0,1,14.306-14.306v-24.069a38.416,38.416,0,0,0-38.375,38.375,38.493,38.493,0,0,0,8.279,23.786l30.1,37.839v-47.32A14.322,14.322,0,0,1-1661.958,2732.964Z" fill="#ff3501"/>
      </g>
    </g>
    <g id="Group_358" data-name="Group 358">
      <g id="Group_356" data-name="Group 356">
        <path id="Path_1413" data-name="Path 1413" d="M-1416.115,2525.1l-3.15,17.69a3.261,3.261,0,0,1-1.38,2.138l-22.369,15.238a3.274,3.274,0,0,1-.946.436l-9.319,2.56a3.273,3.273,0,0,0-2.373,3.168v5.678a3.274,3.274,0,0,0,1.589,2.824l8.245,4.914a3.271,3.271,0,0,1,1.584,2.508l2.438,26.164a3.284,3.284,0,0,1-1.926,3.325l-9.158,4.005a3.291,3.291,0,0,0-1.939,2.846l-.287,5.935a3.3,3.3,0,0,0,1.127,2.66l6.554,5.684a3.322,3.322,0,0,1,.973,3.5l-3.333,10.583a3.257,3.257,0,0,1-.784,1.316l-7.091,7.241a3.271,3.271,0,0,1-3.064.9l-13.5-3.066a3.254,3.254,0,0,0-3.69,4.376l11.363,30.175a3.207,3.207,0,0,0,2.108,1.966l9.417,2.753a3.26,3.26,0,0,1,2.317,2.968l.694,12.721a3.292,3.292,0,0,1-1.835,3.146l-2.891,1.394a3.3,3.3,0,0,0-1.429,4.577l4.607,8.287a3.258,3.258,0,0,1-3.465,4.82l-9.565-2.124a3.243,3.243,0,0,0-3.794,3.983l4.278,17.819a3.219,3.219,0,0,0,3.115,2.5h10.624s3.217,1.418,3.275,3.184l.3,9.51a3.276,3.276,0,0,1-1.909,3.089l-19.042,8.7a3.289,3.289,0,0,0-1.545,1.473l-5.613,10.812a3.3,3.3,0,0,0-.257,2.352l6.807,25.614a4.915,4.915,0,0,1,.143,1.787,5.07,5.07,0,0,1-2.6,3.99l-24.955,13.944a5.083,5.083,0,0,1-3.282.586l-54.33-8.487a5.118,5.118,0,0,1-4.269-5.835l12.706-81.846a3.279,3.279,0,0,0-3.568-3.761l-13.615,1.409a3.276,3.276,0,0,1-3.561-2.667l-1.043-5.742a3.269,3.269,0,0,1,1.065-3.046l18.384-16.139a3.286,3.286,0,0,0,.844-3.769l-2.6-5.977a3.281,3.281,0,0,0-4.154-1.767l-15.01,5.635a3.31,3.31,0,0,1-1.708.157l-8.638-1.5a3.27,3.27,0,0,1-2.632-3.933l5.885-26.686a4.526,4.526,0,0,1,3.2-3.081h4.048a2.428,2.428,0,0,0,3.132-1.817l31.584-104.5a3.22,3.22,0,0,0-.058-2.059l-11.026-30.433a3.287,3.287,0,0,1,.429-3.032l3.847-5.327a3.286,3.286,0,0,0,.015-3.811l-5.492-7.744a3.285,3.285,0,0,1-.043-3.726l12.12-18.033a3.28,3.28,0,0,1,3.111-1.423l6.857.829a3.3,3.3,0,0,0,2.06-.436l6.735-3.983a3.277,3.277,0,0,1,4.162.7l3.211,3.768a3.276,3.276,0,0,1,.229,3.933l-4.52,6.822-.128.207a3.279,3.279,0,0,0,.822,4.169l7.394,5.842a3.274,3.274,0,0,0,4.783-.794l3.833-5.949a3.283,3.283,0,0,1,2.91-1.5l7.723.379a3.276,3.276,0,0,1,3.118,3.268,3.28,3.28,0,0,0,3.275,3.282,3.394,3.394,0,0,0,.7-.078l13.107-2.882a3.149,3.149,0,0,0,2.508-3.2v-6.729a3.368,3.368,0,0,1,3.635-3.261l25.091,2.281c1.688.158,2.274,3.261,2.274,3.261v10.2a3.28,3.28,0,0,0,1.332,2.639l13.924,10.274a3.312,3.312,0,0,1,1.281,3.239Z" fill="#82cd64"/>
        <path id="Path_1414" data-name="Path 1414" d="M-1470.119,2819.71a5.069,5.069,0,0,1-2.6,3.99l-24.956,13.944a5.085,5.085,0,0,1-3.282.586l-54.33-8.488a5.118,5.118,0,0,1-4.269-5.834l12.707-81.846a3.279,3.279,0,0,0-3.568-3.761l-13.615,1.409a3.276,3.276,0,0,1-3.561-2.668l-1.044-5.741a3.272,3.272,0,0,1,1.066-3.047l18.384-16.138a3.288,3.288,0,0,0,.843-3.769l-2.6-5.978a3.282,3.282,0,0,0-4.155-1.766l-15.009,5.635a3.314,3.314,0,0,1-1.709.157l-8.638-1.5a3.27,3.27,0,0,1-2.631-3.933l5.885-26.686a3.267,3.267,0,0,1,3.2-2.567h4.047a3.264,3.264,0,0,0,3.132-2.331l31.584-104.5a3.219,3.219,0,0,0-.057-2.059l-11.026-30.433a3.284,3.284,0,0,1,.429-3.032l3.847-5.327a3.287,3.287,0,0,0,.014-3.811l-5.491-7.744a3.285,3.285,0,0,1-.043-3.726l12.12-18.034a3.281,3.281,0,0,1,3.11-1.423l6.858.83a3.3,3.3,0,0,0,2.059-.436l6.736-3.983a3.278,3.278,0,0,1,4.162.7l3.21,3.768a3.277,3.277,0,0,1,.229,3.933l-4.519,6.821-.129.208-14.081,21.954a12.677,12.677,0,0,0-1.4,10.71l8.454,26.39a12.7,12.7,0,0,1,.376,6.263l-19.181,99.662a38.151,38.151,0,0,0,2.126,21.589l6.973,17.137a38.152,38.152,0,0,1,2.814,14.379v21.036a38.307,38.307,0,0,1-.28,4.618l-7.392,60.612a8.91,8.91,0,0,0,8.179,9.963Z" fill="#6dc54a"/>
      </g>
      <g id="Group_357" data-name="Group 357">
        <path id="Path_1415" data-name="Path 1415" d="M-1496.652,2435.117v24.069a14.322,14.322,0,0,1,14.3,14.306,14.324,14.324,0,0,1-14.3,14.305v47.32l30.11-37.856a38.487,38.487,0,0,0,8.265-23.769A38.419,38.419,0,0,0-1496.652,2435.117Z" fill="#cd2a00"/>
        <path id="Path_1416" data-name="Path 1416" d="M-1482.347,2473.492a14.322,14.322,0,0,0-14.3-14.306V2487.8A14.324,14.324,0,0,0-1482.347,2473.492Z" fill="#d8d7da"/>
        <path id="Path_1417" data-name="Path 1417" d="M-1510.958,2473.492a14.32,14.32,0,0,1,14.306-14.306v-24.069a38.416,38.416,0,0,0-38.375,38.375,38.494,38.494,0,0,0,8.279,23.786l30.1,37.839V2487.8A14.322,14.322,0,0,1-1510.958,2473.492Z" fill="#ff3501"/>
      </g>
    </g>
    <path id="Path_1418" data-name="Path 1418" d="M-1511.282,2473.492a14.322,14.322,0,0,0,14.3,14.305v-28.611A14.324,14.324,0,0,0-1511.282,2473.492Z" fill="#fff"/>
    <path id="Path_1419" data-name="Path 1419" d="M-1661.958,2732.964a14.322,14.322,0,0,0,14.306,14.3v-28.611A14.325,14.325,0,0,0-1661.958,2732.964Z" fill="#fff"/>
  </g>
  <g id="Group_362" data-name="Group 362" transform="translate(1686.027 -2223.949)">
    <g id="Group_360" data-name="Group 360">
      <path id="Path_1420" data-name="Path 1420" d="M-1032.03,2391.48c-12.195-15.317-7.36-33.509-11.135-49.987-2.047-8.842-15.854-12.674-11.615-19.222,21.327-32.8-22.068-45.167-21.226-71.154.044-1.7-5.792-5.808-9.19-2.352-14.315,14.5-35.947,13.313-51.6,24.55-6.809,4.849-13.124,4.515-20.572,1.016,3.4-6.46,6.562-12.442,9.713-18.452-12.152,9.248-28.209,8.74-33.189-.32-12.646-23.127-31.97-12.122-51-14.562,15.985,7.071.74,17.872,5.488,25.2,4.079,6.3,8.072,12.152-1.031,15.3-7.332,2.585-5.56,18.279-21.632,10.047-19.484-9.945-27.774-1.176-26.728,20.921.392,8.159-.581,16.827-8.581,21.327-3.629,2.091-6.01,2.657-4.428,7.55,4.951,15.433,1.641,21.676-13.5,24.536-4.515.885-11.948,2.5-9.64,5.676,12.065,16.595-12.123,37.153,6.635,52.339,2.149,1.728,1.7,4.573,1.205,7.854-4.559,30.024,5.88,43.7,36.121,48.927,6.519,1.118,12.893,3.238,22.359,5.633-11.847,12.268-14.882,25.814-17.451,39.78-2.5,13.546,3.324,19.266,15.491,14.823,18.351-6.663,35.323-.754,52.919,2,6.62,1.045,13.4,9.524,14.2,8.479,13.357-17.19,33.174,3.15,48.1-9.2,7.157-5.894,19.73-6.359,29.7-1.379,11.891,5.923,13.11,1.481,8.9-8.522-4.036-9.67-4.7-14.693,7.825-20.878,24.594-12.21,23.723-14.736,1.089-32.288-5.241-4.007-11.469-7.027-16-11.746-9.364-9.771-18.975-27.367-9.6-34.045,18.307-13.038,42.03-25.364,63.4-25.2C-1027.413,2408.277-1029.431,2394.732-1032.03,2391.48Z" fill="#82cd64"/>
    </g>
    <g id="Group_361" data-name="Group 361">
      <path id="Path_1421" data-name="Path 1421" d="M-1223.351,2259.3v24.069a14.321,14.321,0,0,1,14.3,14.3,14.324,14.324,0,0,1-14.3,14.306v47.32l30.109-37.857a38.482,38.482,0,0,0,8.266-23.769A38.418,38.418,0,0,0-1223.351,2259.3Z" fill="#cd2a00"/>
      <path id="Path_1422" data-name="Path 1422" d="M-1209.046,2297.675a14.321,14.321,0,0,0-14.3-14.3v28.611A14.324,14.324,0,0,0-1209.046,2297.675Z" fill="#d8d7da"/>
      <path id="Path_1423" data-name="Path 1423" d="M-1237.657,2297.675a14.32,14.32,0,0,1,14.306-14.3V2259.3a38.416,38.416,0,0,0-38.375,38.374,38.5,38.5,0,0,0,8.279,23.787l30.1,37.839v-47.32A14.323,14.323,0,0,1-1237.657,2297.675Z" fill="#ff3501"/>
      <path id="Path_1424" data-name="Path 1424" d="M-1237.619,2297.675a14.322,14.322,0,0,0,14.305,14.306V2283.37A14.324,14.324,0,0,0-1237.619,2297.675Z" fill="#fff"/>
    </g>
  </g>
  <g id="Group_363" data-name="Group 363" transform="translate(1686.027 -2223.949)">
    <path id="Path_1425" data-name="Path 1425" d="M-1191.351,2259.1v20.507l-32.6,14.649-32.4-14.649V2259.1Z" fill="#5a5a5a"/>
    <path id="Path_1426" data-name="Path 1426" d="M-1191.351,2259.1v20.507l-32,14.649V2259.1Z" fill="#444"/>
    <path id="Path_1427" data-name="Path 1427" d="M-1179.351,2250.227V2297.1h-6v-43.946Z" fill="#fdbf00"/>
    <path id="Path_1428" data-name="Path 1428" d="M-1179.351,2250.227V2297.1h-3v-45.411Z" fill="#ff9f00"/>
    <path id="Path_1429" data-name="Path 1429" d="M-1182.351,2293.379l-9,8.789V2324.1h18v-21.934Z" fill="#ffd400"/>
    <path id="Path_1430" data-name="Path 1430" d="M-1173.351,2302.168V2324.1h-9v-30.723Z" fill="#fdbf00"/>
    <path id="Path_1431" data-name="Path 1431" d="M-1173.7,2250.511l-50,26.368-50-26.368,50-26.562Z" fill="#6e6e6e"/>
    <path id="Path_1432" data-name="Path 1432" d="M-1173.351,2250.511l-50,26.368v-52.93Z" fill="#5a5a5a"/>
    <path id="Path_1433" data-name="Path 1433" d="M-1223.7,2241.722c-6.563,0-11.719,3.868-11.719,8.789s5.156,8.79,11.719,8.79,11.718-3.868,11.718-8.79S-1217.14,2241.722-1223.7,2241.722Z" fill="#ffd400"/>
    <path id="Path_1434" data-name="Path 1434" d="M-1211.633,2250.511c0,4.922-5.156,8.79-11.718,8.79v-17.579C-1216.789,2241.722-1211.633,2245.59-1211.633,2250.511Z" fill="#fdbf00"/>
  </g>
  <g id="Group_364" data-name="Group 364" transform="translate(1686.027 -2223.949)">
    <path id="Path_1435" data-name="Path 1435" d="M-1464.477,2433.483v20.507l-32.6,14.649-32.4-14.649v-20.507Z" fill="#5a5a5a"/>
    <path id="Path_1436" data-name="Path 1436" d="M-1464.477,2433.483v20.507l-32,14.649v-35.156Z" fill="#444"/>
    <path id="Path_1437" data-name="Path 1437" d="M-1452.477,2424.608v46.875h-6v-43.946Z" fill="#fdbf00"/>
    <path id="Path_1438" data-name="Path 1438" d="M-1452.477,2424.608v46.875h-3v-45.41Z" fill="#ff9f00"/>
    <path id="Path_1439" data-name="Path 1439" d="M-1455.477,2467.76l-9,8.789v21.934h18v-21.934Z" fill="#ffd400"/>
    <path id="Path_1440" data-name="Path 1440" d="M-1446.477,2476.549v21.934h-9V2467.76Z" fill="#fdbf00"/>
    <path id="Path_1441" data-name="Path 1441" d="M-1446.828,2424.893l-50,26.367-50-26.367,50-26.563Z" fill="#6e6e6e"/>
    <path id="Path_1442" data-name="Path 1442" d="M-1446.477,2424.893l-50,26.367v-52.93Z" fill="#5a5a5a"/>
    <path id="Path_1443" data-name="Path 1443" d="M-1496.828,2416.1c-6.563,0-11.718,3.868-11.718,8.79s5.155,8.789,11.718,8.789,11.719-3.868,11.719-8.789S-1490.265,2416.1-1496.828,2416.1Z" fill="#ffd400"/>
    <path id="Path_1444" data-name="Path 1444" d="M-1484.758,2424.893c0,4.921-5.156,8.789-11.719,8.789V2416.1C-1489.914,2416.1-1484.758,2419.971-1484.758,2424.893Z" fill="#fdbf00"/>
  </g>
</svg>
