<svg id="aboutArticle" xmlns="http://www.w3.org/2000/svg" width="100" height="100" viewBox="0 0 100 100">
  <g id="Group_524" data-name="Group 524" transform="translate(-574 -2812)">
    <g id="Group_450" data-name="Group 450" transform="translate(29 1)">
      <g id="Group_448" data-name="Group 448" transform="translate(419 -3530)">
        <rect id="Rectangle_75" data-name="Rectangle 75" width="100" height="100" rx="25" transform="translate(126 6341)" fill="#fff"/>
      </g>
    </g>
  </g>
  <path id="Path_1129" data-name="Path 1129" d="M-1167.06,2684.772v33.1h-47.586v-33.1a2.075,2.075,0,0,1,2.069-2.069h43.448A2.075,2.075,0,0,1-1167.06,2684.772Z" transform="translate(1240.853 -2654.427)" fill="#5aaae7"/>
  <path id="Path_1130" data-name="Path 1130" d="M-1157.749,2687.875v26.9a2.076,2.076,0,0,1-2.069,2.069h-26.9a2.076,2.076,0,0,1-2.069-2.069h26.9a2.075,2.075,0,0,0,2.069-2.069v-24.828Z" transform="translate(1225.335 -2657.531)" fill="#3d9ae2"/>
  <path id="Path_1131" data-name="Path 1131" d="M-1176.37,2770.634h-47.586l-6.207,12.413h60Z" transform="translate(1250.163 -2707.186)" fill="#acabb1"/>
  <path id="Path_1132" data-name="Path 1132" d="M-1162.922,2670.289v26.9a2.075,2.075,0,0,1-2.069,2.069h-26.9a2.075,2.075,0,0,1-2.069-2.069v-33.1a2.075,2.075,0,0,1,2.069-2.069h22.759v7.241a1.035,1.035,0,0,0,1.034,1.034Z" transform="translate(1228.439 -2642.013)" fill="#e6e7e8"/>
  <path id="Path_1133" data-name="Path 1133" d="M-1116.122,2682.7l-.248.434v-.434Z" transform="translate(1181.887 -2654.427)" fill="#e6e7e8"/>
  <path id="Path_1134" data-name="Path 1134" d="M-1136.888,2733.057l-1.552,2.689a2.07,2.07,0,0,1-2.792.875,2.07,2.07,0,0,1-.875-2.792c.027-.052.056-.1.087-.151l1.552-2.689Z" transform="translate(1197.471 -2683.397)" fill="#bcbec0"/>
  <path id="Path_1135" data-name="Path 1135" d="M-1130.573,2723.591l-.517.89-3.342,1.655-3.579-2.069-.238-3.724.517-.89,3.579,2.069Z" transform="translate(1195.015 -2676.477)" fill="#ee8700"/>
  <path id="Path_1136" data-name="Path 1136" d="M-1128.722,2686.137l-.476-.279-7.759,13.438,3.579,2.069,3.58,2.069,1.076-1.872,6.683-11.566Z" transform="translate(1194.239 -2656.32)" fill="#ff9811"/>
  <path id="Path_1137" data-name="Path 1137" d="M-1107,2670.035a4.145,4.145,0,0,0-5.648,1.521l-1.034,1.79,2.473,1.427,4.686,2.71.042-.072.993-1.717a4.139,4.139,0,0,0-1.5-5.656l-.006,0Z" transform="translate(1180.273 -2646.497)" fill="#ff9811"/>
  <path id="Path_1138" data-name="Path 1138" d="M-1113.535,2680.562l-2.473-1.428-.827,1.428-.249.434-.476.828.476.279,6.683,3.859,1.552-2.689Z" transform="translate(1182.601 -2652.286)" fill="#e6e7e8"/>
  <path id="Path_1139" data-name="Path 1139" d="M-1161.37,2791.323l2.069,4.138h-16.552l2.069-4.138Z" transform="translate(1217.576 -2719.599)" fill="#c6c5ca"/>
  <path id="Path_1140" data-name="Path 1140" d="M-1170.163,2801.668v3.1a1.034,1.034,0,0,1-1.034,1.034h-57.931a1.034,1.034,0,0,1-1.034-1.034v-3.1Z" transform="translate(1250.163 -2725.806)" fill="#898890"/>
  <path id="Path_1141" data-name="Path 1141" d="M-1131.887,2662.013l6.207,8.276h-5.172a1.035,1.035,0,0,1-1.034-1.034Z" transform="translate(1191.197 -2642.013)" fill="#bcbec0"/>
  <g id="Group_260" data-name="Group 260" transform="translate(27.242 66.552)">
    <path id="Path_1142" data-name="Path 1142" d="M-1212.059,2788.737h2.069v2.069h-2.069Z" transform="translate(1212.059 -2784.599)" fill="#898890"/>
    <path id="Path_1143" data-name="Path 1143" d="M-1201.715,2788.737h2.069v2.069h-2.069Z" transform="translate(1205.853 -2784.599)" fill="#898890"/>
    <path id="Path_1144" data-name="Path 1144" d="M-1113.784,2788.737h2.069v2.069h-2.069Z" transform="translate(1153.094 -2784.599)" fill="#898890"/>
    <path id="Path_1145" data-name="Path 1145" d="M-1103.439,2788.737h2.069v2.069h-2.069Z" transform="translate(1146.887 -2784.599)" fill="#898890"/>
    <path id="Path_1146" data-name="Path 1146" d="M-1199.128,2778.392h2.069v2.069h-2.069Z" transform="translate(1204.301 -2778.392)" fill="#898890"/>
    <path id="Path_1147" data-name="Path 1147" d="M-1209.473,2778.392h2.069v2.069h-2.069Z" transform="translate(1210.507 -2778.392)" fill="#898890"/>
    <path id="Path_1148" data-name="Path 1148" d="M-1188.784,2778.392h2.069v2.069h-2.069Z" transform="translate(1198.094 -2778.392)" fill="#898890"/>
    <path id="Path_1149" data-name="Path 1149" d="M-1178.439,2778.392h2.069v2.069h-2.069Z" transform="translate(1191.887 -2778.392)" fill="#898890"/>
    <path id="Path_1150" data-name="Path 1150" d="M-1168.094,2778.392h2.069v2.069h-2.069Z" transform="translate(1185.68 -2778.392)" fill="#898890"/>
    <path id="Path_1151" data-name="Path 1151" d="M-1157.749,2778.392h2.069v2.069h-2.069Z" transform="translate(1179.473 -2778.392)" fill="#898890"/>
    <path id="Path_1152" data-name="Path 1152" d="M-1147.4,2778.392h2.069v2.069h-2.069Z" transform="translate(1173.266 -2778.392)" fill="#898890"/>
    <path id="Path_1153" data-name="Path 1153" d="M-1137.059,2778.392h2.069v2.069h-2.069Z" transform="translate(1167.059 -2778.392)" fill="#898890"/>
    <path id="Path_1154" data-name="Path 1154" d="M-1126.715,2778.392h2.069v2.069h-2.069Z" transform="translate(1160.853 -2778.392)" fill="#898890"/>
    <path id="Path_1155" data-name="Path 1155" d="M-1116.37,2778.392h2.069v2.069h-2.069Z" transform="translate(1154.646 -2778.392)" fill="#898890"/>
    <path id="Path_1156" data-name="Path 1156" d="M-1106.025,2778.392h2.069v2.069h-2.069Z" transform="translate(1148.439 -2778.392)" fill="#898890"/>
    <path id="Path_1157" data-name="Path 1157" d="M-1191.37,2788.737h4.138v2.069h-4.138Z" transform="translate(1199.646 -2784.599)" fill="#898890"/>
    <path id="Path_1158" data-name="Path 1158" d="M-1129.3,2788.737h4.138v2.069h-4.138Z" transform="translate(1162.404 -2784.599)" fill="#898890"/>
  </g>
  <path id="Path_1159" data-name="Path 1159" d="M-1181.025,2685.289h14.483v2.069h-14.483Z" transform="translate(1220.68 -2655.979)" fill="#bcbec0"/>
  <path id="Path_1160" data-name="Path 1160" d="M-1181.025,2674.944h2.069v2.069h-2.069Z" transform="translate(1220.68 -2649.772)" fill="#bcbec0"/>
  <path id="Path_1161" data-name="Path 1161" d="M-1170.68,2674.944h10.345v2.069h-10.345Z" transform="translate(1214.473 -2649.772)" fill="#bcbec0"/>
  <path id="Path_1162" data-name="Path 1162" d="M-1181.025,2695.634h18.621v2.068h-18.621Z" transform="translate(1220.68 -2662.186)" fill="#bcbec0"/>
  <path id="Path_1163" data-name="Path 1163" d="M-1181.025,2705.979h14.483v2.069h-14.483Z" transform="translate(1220.68 -2668.393)" fill="#bcbec0"/>
  <path id="Path_1164" data-name="Path 1164" d="M-1130.243,2707.208l6.207-10.75,1.792,1.035-6.207,10.75Z" transform="translate(1190.211 -2662.68)" fill="#ee8700"/>
  <path id="Path_1165" data-name="Path 1165" d="M-1181.025,2716.323h6.207v2.069h-6.207Z" transform="translate(1220.68 -2674.599)" fill="#bcbec0"/>
  <path id="Path_1166" data-name="Path 1166" d="M-1160.335,2716.323h2.069v2.069h-2.069Z" transform="translate(1208.266 -2674.599)" fill="#bcbec0"/>
  <path id="Path_1167" data-name="Path 1167" d="M-1149.99,2716.323h2.069v2.069h-2.069Z" transform="translate(1202.059 -2674.599)" fill="#bcbec0"/>
  <path id="Path_1168" data-name="Path 1168" d="M-1181.025,2726.668h4.138v2.069h-4.138Z" transform="translate(1220.68 -2680.806)" fill="#bcbec0"/>
  <path id="Path_1169" data-name="Path 1169" d="M-1165.508,2726.668h2.069v2.069h-2.069Z" transform="translate(1211.37 -2680.806)" fill="#bcbec0"/>
  <path id="Path_1170" data-name="Path 1170" d="M-1155.163,2726.668h4.138v2.069h-4.138Z" transform="translate(1205.163 -2680.806)" fill="#bcbec0"/>
  <path id="Path_1171" data-name="Path 1171" d="M-1181.025,2737.013h8.276v2.069h-8.276Z" transform="translate(1220.68 -2687.013)" fill="#bcbec0"/>
</svg>
