<svg id="aboutScheme" xmlns="http://www.w3.org/2000/svg" width="507.281" height="479.112" viewBox="0 0 507.281 479.112">
  <g id="Group_523" data-name="Group 523" transform="translate(-587 -1766)">
    <path id="Path_1408" data-name="Path 1408" d="M-1655.293,2808.707l-7.97,2.44a2.06,2.06,0,0,1-1.067.034l-13.879-3.353a2.043,2.043,0,0,1-1.09-.683l-5.9-7.2a3.482,3.482,0,0,1-.612-3.288l2.485-7.518a5.539,5.539,0,0,1,2.007-2.749l7.208-5.225a2.025,2.025,0,0,1,1.316-.381l5.106.317-4.063,2.946a5.526,5.526,0,0,0-2.011,2.746l-2.481,7.519a3.457,3.457,0,0,0,.613,3.285l5.9,7.2a2.027,2.027,0,0,0,1.088.687Z" transform="translate(2278.017 -566.124)" fill="#6dc54a"/>
    <path id="Path_1409" data-name="Path 1409" d="M-1626.559,2805.962l-.621,2.038a2.023,2.023,0,0,1-3.327.879l-2.38-2.259a.946.946,0,0,0-.093-.083l-3.505-2.948-1.993-1.672a2.026,2.026,0,0,0-2.571-.023l-6.607,5.332a1.982,1.982,0,0,1-.676.36l-3.985,1.22-13.352-3.223a2.027,2.027,0,0,1-1.088-.687l-5.9-7.2a3.457,3.457,0,0,1-.613-3.285l2.481-7.519a5.526,5.526,0,0,1,2.011-2.746l4.063-2.946,9.435.588a12.354,12.354,0,0,1,2.8.507l14.447,4.4a2.05,2.05,0,0,1,1,.675l1.61,2.025a2.023,2.023,0,0,1,.362.7l1.521,5.247a1.994,1.994,0,0,0,.347.677l2.45,3.151,3.848,4.959A2.028,2.028,0,0,1-1626.559,2805.962Z" transform="translate(2275.04 -566.224)" fill="#82cd64"/>
    <g id="Group_516" data-name="Group 516" transform="translate(25 13)">
      <path id="Path_1410" data-name="Path 1410" d="M-1647.652,2694.589v18.355a10.922,10.922,0,0,1,10.909,10.91,10.924,10.924,0,0,1-10.909,10.909v36.088l22.963-28.87a29.35,29.35,0,0,0,6.3-18.127A29.3,29.3,0,0,0-1647.652,2694.589Z" transform="translate(2238.918 -558.665)" fill="#cd2a00"/>
      <path id="Path_1411" data-name="Path 1411" d="M-1636.743,2729.568a10.922,10.922,0,0,0-10.909-10.91v21.82A10.924,10.924,0,0,0-1636.743,2729.568Z" transform="translate(2238.918 -564.377)" fill="#d8d7da"/>
      <path id="Path_1412" data-name="Path 1412" d="M-1667.671,2723.855a10.921,10.921,0,0,1,10.91-10.91v-18.355a29.3,29.3,0,0,0-29.266,29.266,29.357,29.357,0,0,0,6.314,18.14l22.952,28.857v-36.088A10.922,10.922,0,0,1-1667.671,2723.855Z" transform="translate(2248.027 -558.665)" fill="#ff3501"/>
      <path id="Path_1419" data-name="Path 1419" d="M-1661.958,2729.568a10.923,10.923,0,0,0,10.91,10.909v-21.82A10.925,10.925,0,0,0-1661.958,2729.568Z" transform="translate(2242.314 -564.378)" fill="#fff"/>
    </g>
  </g>
  <g id="Group_521" data-name="Group 521" transform="translate(-234 -1710)">
    <g id="Group_520" data-name="Group 520" transform="translate(-118.719 56.409)">
      <g id="Group_360" data-name="Group 360" transform="translate(644.719 1653.591)">
        <path id="Path_1420" data-name="Path 1420" d="M-1098.65,2355.632c-9.3-11.681-5.613-25.555-8.492-38.122-1.561-6.743-12.091-9.666-8.858-14.659,16.265-25.012-16.83-34.446-16.188-54.264.034-1.3-4.417-4.429-7.009-1.794-10.917,11.061-27.414,10.153-39.35,18.723-5.193,3.7-10.009,3.443-15.689.775,2.591-4.927,5-9.489,7.407-14.072-9.268,7.053-21.513,6.665-25.311-.244-9.644-17.637-24.381-9.245-38.9-11.105,12.191,5.393.564,13.629,4.185,19.221,3.111,4.805,6.156,9.268-.786,11.67-5.592,1.971-4.24,13.94-16.5,7.662-14.859-7.584-21.181-.9-20.384,15.955.3,6.222-.443,12.833-6.544,16.265-2.768,1.594-4.583,2.026-3.377,5.758,3.776,11.77,1.251,16.531-10.3,18.712-3.443.675-9.112,1.9-7.352,4.329,9.2,12.656-9.245,28.334,5.06,39.915,1.639,1.318,1.3,3.488.919,5.99-3.477,22.9,4.484,33.327,27.547,37.313,4.972.853,9.833,2.469,17.052,4.3-9.035,9.356-11.35,19.687-13.309,30.337-1.9,10.331,2.535,14.693,11.814,11.3,13.995-5.082,26.938-.575,40.358,1.528,5.049.8,10.219,7.263,10.828,6.466,10.187-13.11,25.3,2.4,36.682-7.02,5.458-4.5,15.047-4.85,22.653-1.052,9.068,4.517,10,1.13,6.787-6.5-3.078-7.375-3.587-11.205,5.968-15.922,18.756-9.312,18.092-11.238.831-24.624-4-3.056-8.747-5.359-12.2-8.958-7.141-7.452-14.471-20.871-7.318-25.964,13.962-9.943,32.053-19.343,48.352-19.221C-1095.129,2368.442-1096.668,2358.112-1098.65,2355.632Z" transform="translate(1312.69 -2240.458)" fill="#82cd64"/>
      </g>
      <g id="Group_518" data-name="Group 518" transform="translate(124 -466)">
        <path id="Path_1410-2" data-name="Path 1410" d="M-1647.652,2694.589v18.355a10.922,10.922,0,0,1,10.909,10.91,10.924,10.924,0,0,1-10.909,10.909v36.088l22.963-28.87a29.35,29.35,0,0,0,6.3-18.127A29.3,29.3,0,0,0-1647.652,2694.589Z" transform="translate(2238.918 -558.665)" fill="#cd2a00"/>
        <path id="Path_1411-2" data-name="Path 1411" d="M-1636.743,2729.568a10.922,10.922,0,0,0-10.909-10.91v21.82A10.924,10.924,0,0,0-1636.743,2729.568Z" transform="translate(2238.918 -564.377)" fill="#d8d7da"/>
        <path id="Path_1412-2" data-name="Path 1412" d="M-1667.671,2723.855a10.921,10.921,0,0,1,10.91-10.91v-18.355a29.3,29.3,0,0,0-29.266,29.266,29.357,29.357,0,0,0,6.314,18.14l22.952,28.857v-36.088A10.922,10.922,0,0,1-1667.671,2723.855Z" transform="translate(2248.027 -558.665)" fill="#ff3501"/>
        <path id="Path_1419-2" data-name="Path 1419" d="M-1661.958,2729.568a10.923,10.923,0,0,0,10.91,10.909v-21.82A10.925,10.925,0,0,0-1661.958,2729.568Z" transform="translate(2242.314 -564.378)" fill="#fff"/>
      </g>
    </g>
  </g>
  <g id="Group_522" data-name="Group 522" transform="translate(-335.375 -1642.925)">
    <g id="Group_358" data-name="Group 358" transform="translate(438.375 1802.043)">
      <g id="Group_356" data-name="Group 356" transform="translate(0 37.859)">
        <path id="Path_1413" data-name="Path 1413" d="M-1455.79,2515.523l-2.4,13.491a2.487,2.487,0,0,1-1.052,1.63l-17.059,11.621a2.5,2.5,0,0,1-.721.333l-7.107,1.952a2.5,2.5,0,0,0-1.81,2.416v4.33a2.5,2.5,0,0,0,1.212,2.154l6.288,3.748a2.494,2.494,0,0,1,1.208,1.913l1.859,19.954a2.5,2.5,0,0,1-1.469,2.536l-6.984,3.055a2.509,2.509,0,0,0-1.479,2.17l-.219,4.526a2.519,2.519,0,0,0,.859,2.029l5,4.335a2.533,2.533,0,0,1,.742,2.672l-2.542,8.071a2.485,2.485,0,0,1-.6,1l-5.408,5.522a2.494,2.494,0,0,1-2.337.688l-10.3-2.338a2.481,2.481,0,0,0-2.814,3.337l8.666,23.013a2.446,2.446,0,0,0,1.608,1.5l7.182,2.1a2.487,2.487,0,0,1,1.767,2.264l.529,9.7a2.511,2.511,0,0,1-1.4,2.4l-2.2,1.063a2.521,2.521,0,0,0-1.09,3.491l3.513,6.32a2.485,2.485,0,0,1-2.642,3.676l-7.295-1.62a2.473,2.473,0,0,0-2.893,3.038l3.262,13.589a2.456,2.456,0,0,0,2.376,1.9h8.1s2.453,1.082,2.5,2.428l.229,7.253a2.5,2.5,0,0,1-1.456,2.355l-14.522,6.631a2.506,2.506,0,0,0-1.178,1.123l-4.281,8.246a2.52,2.52,0,0,0-.2,1.794l5.191,19.534a3.751,3.751,0,0,1,.109,1.363,3.866,3.866,0,0,1-1.98,3.043l-19.031,10.634a3.878,3.878,0,0,1-2.5.447l-41.434-6.472a3.9,3.9,0,0,1-3.256-4.45l9.69-62.418a2.5,2.5,0,0,0-2.721-2.868l-10.383,1.075a2.5,2.5,0,0,1-2.716-2.034l-.8-4.379a2.493,2.493,0,0,1,.812-2.323l14.02-12.309a2.506,2.506,0,0,0,.644-2.874l-1.985-4.558a2.5,2.5,0,0,0-3.168-1.348l-11.447,4.3a2.527,2.527,0,0,1-1.3.12l-6.588-1.145a2.494,2.494,0,0,1-2.007-3l4.488-20.352a3.451,3.451,0,0,1,2.437-2.35h3.087a1.851,1.851,0,0,0,2.389-1.386l24.087-79.694a2.455,2.455,0,0,0-.044-1.57l-8.409-23.209a2.506,2.506,0,0,1,.327-2.312l2.934-4.062a2.506,2.506,0,0,0,.011-2.906l-4.188-5.906a2.505,2.505,0,0,1-.033-2.842l9.243-13.752a2.5,2.5,0,0,1,2.373-1.085l5.229.632a2.516,2.516,0,0,0,1.571-.333l5.136-3.038a2.5,2.5,0,0,1,3.174.535l2.449,2.874a2.5,2.5,0,0,1,.175,3l-3.447,5.2-.1.158a2.5,2.5,0,0,0,.627,3.179l5.639,4.456a2.5,2.5,0,0,0,3.648-.605l2.923-4.537a2.5,2.5,0,0,1,2.219-1.14l5.89.289a2.5,2.5,0,0,1,2.378,2.492,2.5,2.5,0,0,0,2.5,2.5,2.578,2.578,0,0,0,.534-.059l10-2.2a2.4,2.4,0,0,0,1.913-2.437v-5.132a2.569,2.569,0,0,1,2.772-2.487l19.135,1.74c1.287.121,1.734,2.487,1.734,2.487v7.781a2.5,2.5,0,0,0,1.016,2.013l10.619,7.835a2.526,2.526,0,0,1,.977,2.47Z" transform="translate(1583.258 -2484.76)" fill="#82cd64"/>
        <path id="Path_1414" data-name="Path 1414" d="M-1496.952,2740.319a3.866,3.866,0,0,1-1.98,3.043L-1517.964,2754a3.878,3.878,0,0,1-2.5.447l-41.434-6.473a3.9,3.9,0,0,1-3.256-4.449l9.691-62.418a2.5,2.5,0,0,0-2.721-2.868l-10.383,1.074a2.5,2.5,0,0,1-2.716-2.035l-.8-4.378a2.5,2.5,0,0,1,.813-2.324l14.02-12.307a2.507,2.507,0,0,0,.643-2.875l-1.984-4.559a2.5,2.5,0,0,0-3.169-1.347l-11.446,4.3a2.527,2.527,0,0,1-1.3.12l-6.588-1.145a2.494,2.494,0,0,1-2.006-3l4.488-20.352a2.492,2.492,0,0,1,2.437-1.958h3.086a2.489,2.489,0,0,0,2.389-1.778l24.087-79.694a2.455,2.455,0,0,0-.044-1.57l-8.409-23.209a2.5,2.5,0,0,1,.327-2.312l2.934-4.062a2.507,2.507,0,0,0,.011-2.906l-4.188-5.906a2.505,2.505,0,0,1-.033-2.841l9.243-13.753a2.5,2.5,0,0,1,2.372-1.085l5.23.633a2.514,2.514,0,0,0,1.57-.333l5.137-3.038a2.5,2.5,0,0,1,3.174.535l2.448,2.874a2.5,2.5,0,0,1,.175,3l-3.446,5.2-.1.159-10.739,16.743a9.668,9.668,0,0,0-1.069,8.168l6.447,20.126a9.682,9.682,0,0,1,.287,4.776l-14.628,76.005a29.094,29.094,0,0,0,1.621,16.464l5.318,13.069a29.094,29.094,0,0,1,2.146,10.966v16.042a29.218,29.218,0,0,1-.214,3.522l-5.637,46.225a6.8,6.8,0,0,0,6.238,7.6Z" transform="translate(1583.236 -2484.875)" fill="#6dc54a"/>
      </g>
    </g>
    <g id="Group_517" data-name="Group 517" transform="translate(-89 -325)">
      <path id="Path_1410-3" data-name="Path 1410" d="M-1647.652,2694.589v18.355a10.922,10.922,0,0,1,10.909,10.91,10.924,10.924,0,0,1-10.909,10.909v36.088l22.963-28.87a29.35,29.35,0,0,0,6.3-18.127A29.3,29.3,0,0,0-1647.652,2694.589Z" transform="translate(2238.918 -558.665)" fill="#cd2a00"/>
      <path id="Path_1411-3" data-name="Path 1411" d="M-1636.743,2729.568a10.922,10.922,0,0,0-10.909-10.91v21.82A10.924,10.924,0,0,0-1636.743,2729.568Z" transform="translate(2238.918 -564.377)" fill="#d8d7da"/>
      <path id="Path_1412-3" data-name="Path 1412" d="M-1667.671,2723.855a10.921,10.921,0,0,1,10.91-10.91v-18.355a29.3,29.3,0,0,0-29.266,29.266,29.357,29.357,0,0,0,6.314,18.14l22.952,28.857v-36.088A10.922,10.922,0,0,1-1667.671,2723.855Z" transform="translate(2248.027 -558.665)" fill="#ff3501"/>
      <path id="Path_1419-3" data-name="Path 1419" d="M-1661.958,2729.568a10.923,10.923,0,0,0,10.91,10.909v-21.82A10.925,10.925,0,0,0-1661.958,2729.568Z" transform="translate(2242.314 -564.378)" fill="#fff"/>
    </g>
  </g>
  <g id="Group_531" data-name="Group 531" transform="translate(633.952 787.392) rotate(180)">
    <g id="Group_526" data-name="Group 526">
      <path id="Path_1612" data-name="Path 1612" d="M289.832,543.392a5,5,0,0,1-5-5v-7.5a5,5,0,0,1,10,0v7.5A5,5,0,0,1,289.832,543.392Z" fill="#fff"/>
    </g>
    <g id="Group_527" data-name="Group 527">
      <path id="Path_1613" data-name="Path 1613" d="M289.832,518.31a5,5,0,0,1-5-5V500.123a5,5,0,1,1,10,0V513.31A5,5,0,0,1,289.832,518.31Z" fill="#fff"/>
    </g>
    <g id="Group_528" data-name="Group 528">
      <path id="Path_1614" data-name="Path 1614" d="M289.832,487.541a5,5,0,0,1-5-5v-12.5h12.5a5,5,0,0,1,0,10h-2.5v2.5A5,5,0,0,1,289.832,487.541Z" fill="#fff"/>
    </g>
    <g id="Group_529" data-name="Group 529">
      <path id="Path_1615" data-name="Path 1615" d="M369.758,480.041H354.239a5,5,0,0,1,0-10h15.519a5,5,0,0,1,0,10Zm-36.213,0H318.026a5,5,0,0,1,0-10h15.519a5,5,0,0,1,0,10Z" fill="#fff"/>
    </g>
    <g id="Group_530" data-name="Group 530">
      <path id="Path_1616" data-name="Path 1616" d="M397.952,480.041h-7.5a5,5,0,0,1,0-10h7.5a5,5,0,0,1,0,10Z" fill="#fff"/>
    </g>
  </g>
  <g id="Group_532" data-name="Group 532" transform="translate(98.736 239.615) rotate(90)">
    <g id="Group_526-2" data-name="Group 526">
      <path id="Path_1612-2" data-name="Path 1612" d="M5,0A5,5,0,0,0,0,5v7.5a5,5,0,0,0,10,0V5A5,5,0,0,0,5,0Z" fill="#fff"/>
    </g>
    <g id="Group_527-2" data-name="Group 527" transform="translate(0 25.082)">
      <path id="Path_1613-2" data-name="Path 1613" d="M5,0A5,5,0,0,0,0,5V18.187a5,5,0,0,0,10,0V5A5,5,0,0,0,5,0Z" transform="translate(0 0)" fill="#fff"/>
    </g>
    <g id="Group_528-2" data-name="Group 528" transform="translate(0 55.851)">
      <path id="Path_1614-2" data-name="Path 1614" d="M5,0A5,5,0,0,0,0,5V17.5H12.5a5,5,0,1,0,0-10H10V5A5,5,0,0,0,5,0Z" transform="translate(0 0)" fill="#fff"/>
    </g>
    <g id="Group_529-2" data-name="Group 529" transform="translate(28.194 63.351)">
      <path id="Path_1615-2" data-name="Path 1615" d="M56.732,0H41.213a5,5,0,0,0,0,10H56.732a5,5,0,1,0,0-10ZM20.519,0H5A5,5,0,1,0,5,10H20.519a5,5,0,0,0,0-10Z" fill="#fff"/>
    </g>
    <g id="Group_530-2" data-name="Group 530" transform="translate(100.62 63.351)">
      <path id="Path_1616-2" data-name="Path 1616" d="M12.5,0H5A5,5,0,1,0,5,10h7.5a5,5,0,1,0,0-10Z" fill="#fff"/>
    </g>
  </g>
</svg>
