<svg id="aboutArticle" xmlns="http://www.w3.org/2000/svg" width="150" height="150" viewBox="0 0 150 150">
  <path id="Path_1129" data-name="Path 1129" d="M-1095.68,2687.875v82.759h-118.966v-82.759a5.188,5.188,0,0,1,5.173-5.172h108.621A5.187,5.187,0,0,1-1095.68,2687.875Z" transform="translate(1230.163 -2662.013)" fill="#5aaae7"/>
  <path id="Path_1130" data-name="Path 1130" d="M-1111.2,2687.875v67.242a5.189,5.189,0,0,1-5.173,5.172h-67.241a5.189,5.189,0,0,1-5.173-5.172h67.242a5.188,5.188,0,0,0,5.172-5.173v-62.069Z" transform="translate(1230.163 -2662.013)" fill="#3d9ae2"/>
  <path id="Path_1131" data-name="Path 1131" d="M-1095.68,2770.634h-118.966l-15.517,31.034h150Z" transform="translate(1230.163 -2662.013)" fill="#acabb1"/>
  <path id="Path_1132" data-name="Path 1132" d="M-1116.37,2682.7v67.241a5.188,5.188,0,0,1-5.172,5.173h-67.242a5.189,5.189,0,0,1-5.172-5.173v-82.758a5.188,5.188,0,0,1,5.172-5.173h56.9v18.1a2.586,2.586,0,0,0,2.586,2.586Z" transform="translate(1230.163 -2662.013)" fill="#e6e7e8"/>
  <path id="Path_1133" data-name="Path 1133" d="M-1115.749,2682.7l-.621,1.086V2682.7Z" transform="translate(1230.163 -2662.013)" fill="#e6e7e8"/>
  <path id="Path_1134" data-name="Path 1134" d="M-1128.706,2736.16l-3.879,6.724a5.173,5.173,0,0,1-6.981,2.186,5.173,5.173,0,0,1-2.186-6.981c.068-.129.14-.255.218-.378l3.88-6.724Z" transform="translate(1230.163 -2662.013)" fill="#bcbec0"/>
  <path id="Path_1135" data-name="Path 1135" d="M-1119.059,2729.8l-1.293,2.224-8.354,4.138-8.948-5.173-.595-9.31,1.293-2.224,8.948,5.172Z" transform="translate(1230.163 -2662.013)" fill="#ee8700"/>
  <path id="Path_1136" data-name="Path 1136" d="M-1116.37,2686.556l-1.189-.7-19.4,33.595,8.948,5.172,8.949,5.173,2.689-4.681,16.707-28.914Z" transform="translate(1230.163 -2662.013)" fill="#ff9811"/>
  <path id="Path_1137" data-name="Path 1137" d="M-1096.973,2670.858a10.363,10.363,0,0,0-14.121,3.8l-2.586,4.474,6.181,3.569,11.715,6.776.1-.181,2.483-4.293a10.347,10.347,0,0,0-3.761-14.139l-.015-.008Z" transform="translate(1230.163 -2662.013)" fill="#ff9811"/>
  <path id="Path_1138" data-name="Path 1138" d="M-1107.5,2682.7l-6.181-3.569-2.069,3.569-.621,1.086-1.189,2.069,1.189.7,16.707,9.647,3.879-6.724Z" transform="translate(1230.163 -2662.013)" fill="#e6e7e8"/>
  <path id="Path_1139" data-name="Path 1139" d="M-1139.646,2791.323l5.173,10.345h-41.379l5.172-10.345Z" transform="translate(1230.163 -2662.013)" fill="#c6c5ca"/>
  <path id="Path_1140" data-name="Path 1140" d="M-1080.163,2801.668v7.759a2.586,2.586,0,0,1-2.586,2.586h-144.828a2.586,2.586,0,0,1-2.586-2.586v-7.759Z" transform="translate(1230.163 -2662.013)" fill="#898890"/>
  <path id="Path_1141" data-name="Path 1141" d="M-1131.887,2662.013l15.517,20.69H-1129.3a2.586,2.586,0,0,1-2.586-2.586Z" transform="translate(1230.163 -2662.013)" fill="#bcbec0"/>
  <g id="Group_260" data-name="Group 260" transform="translate(1230.163 -2662.013)">
    <path id="Path_1142" data-name="Path 1142" d="M-1212.059,2788.737h5.172v5.173h-5.172Z" fill="#898890"/>
    <path id="Path_1143" data-name="Path 1143" d="M-1201.715,2788.737h5.173v5.173h-5.173Z" fill="#898890"/>
    <path id="Path_1144" data-name="Path 1144" d="M-1113.784,2788.737h5.173v5.173h-5.173Z" fill="#898890"/>
    <path id="Path_1145" data-name="Path 1145" d="M-1103.439,2788.737h5.173v5.173h-5.173Z" fill="#898890"/>
    <path id="Path_1146" data-name="Path 1146" d="M-1199.128,2778.392h5.172v5.173h-5.172Z" fill="#898890"/>
    <path id="Path_1147" data-name="Path 1147" d="M-1209.473,2778.392h5.172v5.173h-5.172Z" fill="#898890"/>
    <path id="Path_1148" data-name="Path 1148" d="M-1188.784,2778.392h5.173v5.173h-5.173Z" fill="#898890"/>
    <path id="Path_1149" data-name="Path 1149" d="M-1178.439,2778.392h5.173v5.173h-5.173Z" fill="#898890"/>
    <path id="Path_1150" data-name="Path 1150" d="M-1168.094,2778.392h5.173v5.173h-5.173Z" fill="#898890"/>
    <path id="Path_1151" data-name="Path 1151" d="M-1157.749,2778.392h5.172v5.173h-5.172Z" fill="#898890"/>
    <path id="Path_1152" data-name="Path 1152" d="M-1147.4,2778.392h5.172v5.173h-5.172Z" fill="#898890"/>
    <path id="Path_1153" data-name="Path 1153" d="M-1137.059,2778.392h5.172v5.173h-5.172Z" fill="#898890"/>
    <path id="Path_1154" data-name="Path 1154" d="M-1126.715,2778.392h5.173v5.173h-5.173Z" fill="#898890"/>
    <path id="Path_1155" data-name="Path 1155" d="M-1116.37,2778.392h5.173v5.173h-5.173Z" fill="#898890"/>
    <path id="Path_1156" data-name="Path 1156" d="M-1106.025,2778.392h5.173v5.173h-5.173Z" fill="#898890"/>
    <path id="Path_1157" data-name="Path 1157" d="M-1191.37,2788.737h10.345v5.173h-10.345Z" fill="#898890"/>
    <path id="Path_1158" data-name="Path 1158" d="M-1129.3,2788.737h10.345v5.173H-1129.3Z" fill="#898890"/>
  </g>
  <path id="Path_1159" data-name="Path 1159" d="M-1181.025,2685.289h36.207v5.172h-36.207Z" transform="translate(1230.163 -2662.013)" fill="#bcbec0"/>
  <path id="Path_1160" data-name="Path 1160" d="M-1181.025,2674.944h5.173v5.173h-5.173Z" transform="translate(1230.163 -2662.013)" fill="#bcbec0"/>
  <path id="Path_1161" data-name="Path 1161" d="M-1170.68,2674.944h25.862v5.173h-25.862Z" transform="translate(1230.163 -2662.013)" fill="#bcbec0"/>
  <path id="Path_1162" data-name="Path 1162" d="M-1181.025,2695.634h46.552v5.172h-46.552Z" transform="translate(1230.163 -2662.013)" fill="#bcbec0"/>
  <path id="Path_1163" data-name="Path 1163" d="M-1181.025,2705.979h36.207v5.172h-36.207Z" transform="translate(1230.163 -2662.013)" fill="#bcbec0"/>
  <path id="Path_1164" data-name="Path 1164" d="M-1130.243,2723.333l15.518-26.875,4.479,2.586-15.517,26.876Z" transform="translate(1230.163 -2662.013)" fill="#ee8700"/>
  <path id="Path_1165" data-name="Path 1165" d="M-1181.025,2716.323h15.517v5.173h-15.517Z" transform="translate(1230.163 -2662.013)" fill="#bcbec0"/>
  <path id="Path_1166" data-name="Path 1166" d="M-1160.335,2716.323h5.172v5.173h-5.172Z" transform="translate(1230.163 -2662.013)" fill="#bcbec0"/>
  <path id="Path_1167" data-name="Path 1167" d="M-1149.99,2716.323h5.172v5.173h-5.172Z" transform="translate(1230.163 -2662.013)" fill="#bcbec0"/>
  <path id="Path_1168" data-name="Path 1168" d="M-1181.025,2726.668h10.345v5.173h-10.345Z" transform="translate(1230.163 -2662.013)" fill="#bcbec0"/>
  <path id="Path_1169" data-name="Path 1169" d="M-1165.508,2726.668h5.173v5.173h-5.173Z" transform="translate(1230.163 -2662.013)" fill="#bcbec0"/>
  <path id="Path_1170" data-name="Path 1170" d="M-1155.163,2726.668h10.345v5.173h-10.345Z" transform="translate(1230.163 -2662.013)" fill="#bcbec0"/>
  <path id="Path_1171" data-name="Path 1171" d="M-1181.025,2737.013h20.69v5.173h-20.69Z" transform="translate(1230.163 -2662.013)" fill="#bcbec0"/>
</svg>
