<svg xmlns="http://www.w3.org/2000/svg" viewBox="0 0 1557.41992 378.96684"><defs><style>.cls-1{font-size:25px;fill:#414952;font-family:OpenSans-Bold, Open Sans;font-weight:700;}.cls-2{fill:#808285;}.cls-3{fill:#ccfc5c;}.cls-4{fill:#ffb655;}.cls-5{fill:#5eac24;}.cls-6{fill:#ff3051;}.cls-7{fill:#4e901e;}.cls-8{fill:#57a4ff;}.cls-9{fill:#2488ff;}.cls-10{fill:#f1f2f2;}.cls-11{fill:#006df0;}.cls-12{fill:#5a5a5a;}.cls-13{fill:#444;}.cls-14{fill:#fdbf00;}.cls-15{fill:#ff9f00;}.cls-16{fill:#ffd400;}.cls-17{fill:#6e6e6e;}.cls-18{fill:#ffda44;}.cls-19{fill:#005ece;}.cls-20{fill:#cd2a00;}.cls-21{fill:#d8d7da;}.cls-22{fill:#ff3501;}.cls-23{fill:#3c9bd4;}.cls-24{opacity:0.35;}.cls-25{fill:#9af4ef;}.cls-26{fill:#93dde8;}.cls-27{fill:#52c883;}.cls-28{fill:#926e79;}.cls-29{fill:#f2f2f2;}.cls-30{fill:#f9f9f9;}.cls-31{fill:#34be69;}.cls-32{fill:#53dc92;}.cls-33{fill:#a17988;}.cls-34{fill:#674447;}.cls-35{fill:#ff4b55;}.cls-36{fill:#73af00;}.cls-37{fill:#ffe15a;}.cls-38{fill:#f5f5f5;}.cls-39{fill:#41479b;}.cls-40{fill:#2e3033;}.cls-41{fill:#ffc89f;}.cls-42{fill:#464649;}.cls-43{fill:#f7b081;}.cls-44{fill:#ea8cc9;}.cls-45{fill:#e867bd;}.cls-46{fill:#eebf00;}.cls-47{fill:#ff7900;}.cls-48{fill:#df6a00;}</style></defs><title>Asset 2</title><g id="Layer_2" data-name="Layer 2"><g id="Items"><text class="cls-1" transform="translate(48.40112 259.47538)">BORN AND RAISED IN<tspan x="-48.40088" y="30">MADEIRA ISLAND, PORTUGAL</tspan></text><text class="cls-1" transform="translate(1086.14258 125.56232)">BSC - BIOMEDICAL ENGINEERING</text><text class="cls-1" transform="translate(1086.14282 169.74282)">MSC - BIOMATERIALS,<tspan x="0" y="30">REHABILITATION AND BIOMECHANICS</tspan></text><text class="cls-1" transform="translate(936.21643 308.18479)">MSC THESIS - ROBOTICS AND BIOMECHANICS</text><text class="cls-1" transform="translate(794.86462 49.99972)">MOVED TO BRAGA, PORTUGAL</text><text class="cls-1" transform="translate(375.16174 308.21938)">PASSION FOR<tspan x="-27.64893" y="30">DRAWING BEGINS</tspan></text><path class="cls-2" d="M804.88558,264.56006h10.16949v20.339H804.88558Z"/><path class="cls-3" d="M881.15677,246.76345a15.25424,15.25424,0,1,1-7.6001-13.16794A15.25424,15.25424,0,0,1,881.15677,246.76345Z"/><path class="cls-4" d="M921.83473,363.7126H789.63134a7.62712,7.62712,0,0,0,0,15.25424H921.83473a7.62712,7.62712,0,0,0,0-15.25424Z"/><path class="cls-5" d="M878.61439,343.37362a5.08475,5.08475,0,0,0-5.08474-5.08475H843.02117a5.08474,5.08474,0,0,0-5.08474,5.08475v20.339h40.678Z"/><path class="cls-3" d="M894.5271,312.20667a15.31526,15.31526,0,1,0-10.42372-11.15847A15.31526,15.31526,0,0,0,894.5271,312.20667Z"/><circle class="cls-6" cx="898.95338" cy="297.61091" r="7.62712"/><circle class="cls-6" cx="865.90253" cy="246.76345" r="7.62712"/><path class="cls-5" d="M799.80083,259.47531a5.08475,5.08475,0,0,0,5.08475,5.08475h10.16949a5.08475,5.08475,0,0,0,5.08475-5.08475v-5.08474h-20.339Z"/><path class="cls-7" d="M799.80083,254.39057h20.339v2.54237h-20.339Z"/><path class="cls-8" d="M852.70761,239.13633H794.71609a7.62712,7.62712,0,0,0-7.62712,7.62712h63.55932A14.89064,14.89064,0,0,1,852.70761,239.13633Z"/><path class="cls-9" d="M787.089,246.76345a7.62712,7.62712,0,0,0,7.62712,7.62712h57.99152a14.89064,14.89064,0,0,1-2.05932-7.62712Z"/><path class="cls-8" d="M898.31016,282.38972l-18.78305-28.80254a15.34327,15.34327,0,0,1-5.29322,5.9161l16.52542,25.26865A15.17284,15.17284,0,0,1,898.31016,282.38972Z"/><path class="cls-9" d="M874.23389,259.50328a15.10419,15.10419,0,0,1-6.94068,2.44322l18.37627,28.17966a15.28984,15.28984,0,0,1,5.08475-5.35423Z"/><path class="cls-9" d="M884.10084,301.04819l-37.289,37.24068h9.95594l31.22033-30.10423a15.25425,15.25425,0,0,1-3.88728-7.13644Z"/><path class="cls-8" d="M856.76779,338.28887H868.4449l26.0822-26.0822a15.1857,15.1857,0,0,1-6.539-4.022Z"/><path class="cls-10" d="M919.29236,373.88209h-5.08475a2.54237,2.54237,0,0,1,0-5.08474h5.08475a2.54237,2.54237,0,0,1,0,5.08474Z"/><path class="cls-10" d="M904.03812,368.79735H868.4449a2.54237,2.54237,0,0,0,0,5.08474h35.59322a2.54237,2.54237,0,0,0,0-5.08474Z"/><path class="cls-10" d="M797.25846,368.79735h-5.08475a2.54237,2.54237,0,0,0,0,5.08474h5.08475a2.54237,2.54237,0,0,0,0-5.08474Z"/><path class="cls-10" d="M843.02117,368.79735H807.428a2.54237,2.54237,0,0,0,0,5.08474h35.59322a2.54237,2.54237,0,1,0,0-5.08474Z"/><path class="cls-10" d="M858.27541,368.79735h-5.08475a2.54237,2.54237,0,0,0,0,5.08474h5.08475a2.54237,2.54237,0,1,0,0-5.08474Z"/><path class="cls-11" d="M898.95338,254.39057a7.62711,7.62711,0,0,1,7.62711,7.62712,2.54237,2.54237,0,0,0,5.08475,0,12.72712,12.72712,0,0,0-12.71186-12.71187,2.54237,2.54237,0,1,0,0,5.08475Z"/><path class="cls-2" d="M822.68219,330.66175a2.54237,2.54237,0,0,1-2.11271-3.95339l14.3161-21.47033-8.47373-12.71187h-6.272a2.54237,2.54237,0,1,1,0-5.08474h7.62712a2.54236,2.54236,0,0,1,2.11525,1.13135L840.05168,303.827a2.54236,2.54236,0,0,1,0,2.822L824.79745,329.5304A2.5424,2.5424,0,0,1,822.68219,330.66175Z"/><path class="cls-2" d="M797.25846,330.66175a2.54237,2.54237,0,0,1-2.1178-1.13135L779.88643,306.649a2.54236,2.54236,0,0,1,0-2.822l10.16949-15.25424a2.54237,2.54237,0,0,1,2.11779-1.13135h7.62712a2.54237,2.54237,0,1,1,0,5.08474h-6.267L785.05507,305.238l14.31356,21.47033a2.54237,2.54237,0,0,1-2.11017,3.95339Z"/><path class="cls-11" d="M898.95338,234.05159a27.99915,27.99915,0,0,1,27.9661,27.9661,2.54237,2.54237,0,0,0,5.08474,0,33.089,33.089,0,0,0-33.05084-33.05085,2.54237,2.54237,0,1,0,0,5.08475Z"/><path class="cls-11" d="M898.95338,244.22108A17.817,17.817,0,0,1,916.75,262.01769a2.54237,2.54237,0,0,0,5.08474,0,22.90932,22.90932,0,0,0-22.88135-22.88136,2.54237,2.54237,0,1,0,0,5.08475Z"/><circle class="cls-6" cx="809.97033" cy="289.98379" r="10.16949"/><path class="cls-12" d="M1041.25013,124.07172v27.54382l-43.54548,19.67417L954.4215,151.61554V124.07172Z"/><path class="cls-13" d="M1041.25013,124.07172v27.54382l-43.54548,19.67417v-47.218Z"/><path class="cls-14" d="M1056.98946,112.26722v62.95732h-7.86966V116.20205Z"/><path class="cls-15" d="M1056.98946,112.26722v62.95732h-3.93483v-60.9899Z"/><path class="cls-16" d="M1053.05463,169.63687l-11.8045,11.8045v29.459h23.609v-29.459Z"/><path class="cls-14" d="M1064.85913,181.44137v29.459h-11.8045V169.63687Z"/><path class="cls-17" d="M1064.85913,112.26722l-67.15448,35.41349-67.15447-35.41349L997.70465,76.5914Z"/><path class="cls-12" d="M1064.85913,112.26722l-67.15448,35.41349V76.5914Z"/><path class="cls-16" d="M997.70465,100.46272c-8.81443,0-15.73933,5.19419-15.73933,11.8045s6.9249,11.8045,15.73933,11.8045,15.73933-5.19419,15.73933-11.8045S1006.51909,100.46272,997.70465,100.46272Z"/><path class="cls-14" d="M1013.444,112.26722c0,6.61031-6.92489,11.8045-15.73933,11.8045v-23.609C1006.51909,100.46272,1013.444,105.65691,1013.444,112.26722Z"/><rect class="cls-18" x="450.70542" y="139.58993" width="14.51241" height="14.51241"/><rect class="cls-18" x="354.79177" y="120.07721" width="14.51241" height="14.51241"/><rect class="cls-18" x="373.42457" y="120.07721" width="14.51241" height="14.51241"/><rect class="cls-18" x="392.97392" y="120.07721" width="14.51241" height="14.51241"/><rect class="cls-18" x="412.52327" y="120.07721" width="14.51241" height="14.51241"/><rect class="cls-18" x="432.07262" y="120.07721" width="14.51241" height="14.51241"/><rect class="cls-18" x="450.70542" y="120.07721" width="14.51241" height="14.51241"/><rect class="cls-18" x="470.25477" y="120.07721" width="14.51241" height="14.51241"/><rect class="cls-18" x="489.80412" y="120.07721" width="14.51241" height="14.51241"/><rect class="cls-18" x="508.43692" y="120.07721" width="14.51241" height="14.51241"/><rect class="cls-18" x="527.98627" y="120.07721" width="14.51241" height="14.51241"/><rect class="cls-18" x="547.53561" y="120.07721" width="14.51241" height="14.51241"/><rect class="cls-18" x="567.08496" y="120.07721" width="14.51241" height="14.51241"/><rect class="cls-18" x="586.63431" y="120.07721" width="14.51241" height="14.51241"/><rect class="cls-18" x="606.18366" y="120.07721" width="14.51241" height="14.51241"/><rect class="cls-18" x="624.81646" y="120.07721" width="14.51241" height="14.51241"/><rect class="cls-18" x="644.36581" y="120.07721" width="14.51241" height="14.51241"/><rect class="cls-18" x="663.91516" y="120.07721" width="14.51241" height="14.51241"/><rect class="cls-18" x="682.54796" y="120.07721" width="14.51241" height="14.51241"/><rect class="cls-18" x="702.09731" y="120.07721" width="14.51241" height="14.51241"/><path class="cls-9" d="M330.20548,109.1929A18.1611,18.1611,0,0,0,312.065,127.33341h36.281A18.1611,18.1611,0,0,0,330.20548,109.1929Z"/><path class="cls-19" d="M348.346,127.33341H312.065a18.14051,18.14051,0,1,0,36.281,0Z"/><path class="cls-20" d="M739.78717,0V24.06924a14.30564,14.30564,0,1,1,0,28.61127V100l30.1098-37.8563A38.3581,38.3581,0,0,0,739.78717,0Z"/><path class="cls-21" d="M754.09281,38.37487a14.32233,14.32233,0,0,0-14.30564-14.30563V52.68051A14.32463,14.32463,0,0,0,754.09281,38.37487Z"/><path class="cls-22" d="M725.48153,38.37487a14.32,14.32,0,0,1,14.30564-14.30563V0a38.358,38.358,0,0,0-30.09549,62.16158L739.78717,100V52.68051A14.32233,14.32233,0,0,1,725.48153,38.37487Z"/><path class="cls-9" d="M721.64666,126.94985a18.1611,18.1611,0,0,0,18.14051,18.14051v-36.281A18.1611,18.1611,0,0,0,721.64666,126.94985Z"/><path class="cls-19" d="M739.78717,108.80933v36.281a18.14052,18.14052,0,1,0,0-36.281Z"/><rect class="cls-18" x="761.71905" y="120.07721" width="14.51241" height="14.51241"/><rect class="cls-18" x="780.35185" y="120.07721" width="14.51241" height="14.51241"/><rect class="cls-18" x="799.9012" y="120.07721" width="14.51241" height="14.51241"/><path class="cls-9" d="M819.45055,126.94985a18.1611,18.1611,0,0,0,18.14051,18.14051v-36.281A18.1611,18.1611,0,0,0,819.45055,126.94985Z"/><path class="cls-19" d="M837.59106,108.80933v36.281a18.14052,18.14052,0,1,0,0-36.281Z"/><rect class="cls-18" x="860.76888" y="120.07721" width="14.51241" height="14.51241"/><path class="cls-9" d="M880.31823,126.94985a18.1611,18.1611,0,0,0,18.14051,18.14051v-36.281A18.1611,18.1611,0,0,0,880.31823,126.94985Z"/><path class="cls-19" d="M898.45874,108.80933v36.281a18.14052,18.14052,0,1,0,0-36.281Z"/><rect class="cls-18" x="829.95129" y="149.33855" width="14.51241" height="14.51241"/><path class="cls-9" d="M837.59106,168.8879a18.1611,18.1611,0,0,0-18.14051,18.14052h36.281A18.16112,18.16112,0,0,0,837.59106,168.8879Z"/><path class="cls-19" d="M855.73158,187.02842h-36.281a18.14052,18.14052,0,1,0,36.281,0Z"/><path class="cls-9" d="M457.96162,159.81747A18.1611,18.1611,0,0,0,439.82111,177.958h36.281A18.1611,18.1611,0,0,0,457.96162,159.81747Z"/><path class="cls-19" d="M476.10213,177.958h-36.281a18.14051,18.14051,0,1,0,36.281,0Z"/><path class="cls-23" d="M79.60248,117.95859a99.98776,99.98776,0,0,0,199.09687,0Z"/><g class="cls-24"><path class="cls-25" d="M270.37943,149.55351a99.40681,99.40681,0,0,0,8.31993-31.59492H79.60248A99.5204,99.5204,0,0,0,84.579,141.09765C120.083,145.02305,213.60091,148.81054,270.37943,149.55351Z"/></g><path class="cls-26" d="M80.18138,122.64609H278.065c.21991-1.56015.48711-3.10508.63437-4.6875H79.60248C79.74935,119.53516,79.96224,121.09179,80.18138,122.64609Z"/><path class="cls-27" d="M163.52591,77.33359c-10.41679,4.1668-21.875,4.427-25,6.77071-2.36172,1.77148-19.60078,33.85429-39.132,33.85429h66.09336Z"/><path class="cls-28" d="M143.73411,101.55234c-4.1707-.66211-12.48594-1.557-14.45312-1.62773-.95586-.03437-5.30586-2.33867-7.4543-2.33867-2.96914,0-4.7414,6.31015-8.20312,10.18711-2.01211,2.25312-10.15625,10.18554-17.57813,10.18554h24.707Z"/><path class="cls-27" d="M263.52591,117.95859c-8.3332,0-22.53594-18.78867-31.25-28.125-7.29179-7.8125-19.541,4.6875-25.00976,4.6875v23.4375Z"/><path class="cls-29" d="M150.77552,50.49805a4.50864,4.50864,0,0,0-1.09336.14726,6.386,6.386,0,0,0-7.998-1.19687,6.78788,6.78788,0,0,0-5.96328-1.23789,10.06216,10.06216,0,0,0-17.47305,6.83438h37.075A4.547,4.547,0,0,0,150.77552,50.49805Z"/><path class="cls-30" d="M147.7556,72.13359a5.05448,5.05448,0,0,0-6.33866-4.94413,7.27956,7.27956,0,0,0-12.641,4.94453H147.7556Z"/><path class="cls-30" d="M244.20053,70.71367a4.94355,4.94355,0,0,0-1.19492.16094,7.04788,7.04788,0,0,0-10.29727-.11016,7.0645,7.0645,0,0,0-12.16875,4.91836h28.63047A4.96979,4.96979,0,0,0,244.20053,70.71367Z"/><path class="cls-29" d="M235.30326,57.37266a8.42635,8.42635,0,0,0-8.42617-8.42618,8.327,8.327,0,0,0-2.52031.42657,13.99048,13.99048,0,0,0-20.773-2.54258,11.14644,11.14644,0,0,0-16.94062-.584,7.76629,7.76629,0,0,0-9.73867,7.59649H191.1607a8.35726,8.35726,0,0,0-.79765,3.52969Z"/><path class="cls-30" d="M169.97123,33.01406h15.56015a4.44182,4.44182,0,0,0-4.4418-4.4418,4.38874,4.38874,0,0,0-1.32852.225,7.38345,7.38345,0,0,0-12.14844,0,4.2937,4.2937,0,0,0-4.64375,1.2875,8.79638,8.79638,0,0,0-4.91094-1.54648,8.93159,8.93159,0,0,0-7.34531,3.85273,5.31351,5.31351,0,0,0-1.60664-.27187,5.37106,5.37106,0,0,0-5.3711,5.37109h28.64571A5.36217,5.36217,0,0,0,169.97123,33.01406Z"/><path class="cls-27" d="M104.15091,117.95859c9.76563,0,27.08321-6.7707,31.25-12.5,2.56875-3.532,5.53906-10.8457,8.33321-13.12656,3.64414-2.97422,6.77071-3.01953,10.41679-5.62344s19.7918-21.875,25-21.875,15.23438,11.71875,21.875,15.625c7.25273,4.26641,10.49726,14.92539,18.75,18.75,10.677,4.948,15.1043,18.75,28.125,18.75"/><path class="cls-31" d="M178.35833,117.95859c3.60508-1.2371,5.87071-2.05078,5.87071-2.05078-5.9418-.91406-6.03829-8.76055-12.24922-11.29961s-12.02148.57734-15.62852-4.22773c-3.37226-4.49219-2.425-8.06524-6.10664-8.98438a5.93312,5.93312,0,0,1-2.56641-1.46718,17.35671,17.35671,0,0,0-3.94414,2.40312c-2.79414,2.28047-5.76445,9.59453-8.3332,13.12656-2.68437,3.69063-10.82539,7.80391-18.88984,10.27031q-.90117,1.20294-1.64609,2.22969Z"/><path class="cls-32" d="M219.77591,99.20859c-8.25274-3.82461-11.49765-14.484-18.75-18.75-6.64062-3.90625-16.66679-15.625-21.875-15.625-1.9832,0-5.55351,2.79883-9.41445,6.40274a25.756,25.756,0,0,1,8.6332-1.45469c5.33867.13008,4.427,4.55743,11.06758,8.80156s10.9375,10.99024,11.9793,15.41719,4.81758,6.64063,10.02617,8.61133c5.2082,1.9707,6.64062,3.62812,8.59375,6.8832,0,0,7.44531,1.38516,14.81836,2.74493C230.01146,107.84336,225.929,102.06016,219.77591,99.20859Z"/><path class="cls-28" d="M157.27591,127.33359s-6.38008-13.802-11.58867-13.802c-11.71875,0-12.10937,13.802-22.78632,13.802"/><path class="cls-28" d="M246.18256,117.95859c.041-.03242.12109-.09492.12109-.09492-6.075-1.76914-5.20429-10.63633-13.24649-9.93125-7.42187.65117-8.46367-2.0832-13.0207-.15938-4.46875,1.88672-5.7293,2.89375-12.23946,1.852s-11.44493,5.534-22.25234,5.40352c-3.35195-.04023-1.94493-.716-4.14766,2.92969h64.78556Z"/><path class="cls-28" d="M164.20482,91.39609c3.834,3.65078,12.50469-4.39453,14.2625-6.73828s6.543-2.832,10.25391-.1539,5.89531,3.60781,9.76562,1.81406c4.00391-1.85547,5.85313-1.18438,8.7414.02539a23.42875,23.42875,0,0,0-6.20234-5.88477c-6.64062-3.90625-16.66679-15.625-21.875-15.625-4.48437,0-17.05859,14.26289-22.79961,19.89649,2.19414-1.14649,4.02852-1.74063,6.29571.123C164.79232,86.61641,162.25638,89.54062,164.20482,91.39609Z"/><path class="cls-33" d="M177.91068,65.12461a7.22165,7.22165,0,0,0-.66875.28125c-.16016.0793-.33126.17851-.49962.27227-.2125.11835-.42617.23984-.65078.38086-.19843.125-.40312.26211-.61015.40351-.20938.143-.42149.291-.63907.44922-.23515.1711-.47265.34883-.7164.53672-.19414.15-.39219.30781-.59141.46758-.28164.22656-.56406.45469-.85469.69921-.14766.12383-.29844.25548-.448.384-.34727.29805-.69531.59765-1.05156.9164-.02695.02422-.0543.04961-.08125.07383q-.67325.60411-1.3625,1.24648a25.756,25.756,0,0,1,8.6332-1.45469c5.33867.13008,4.427,4.55742,11.06758,8.80157a30.652,30.652,0,0,1,8.3418,8.016c.23555-.093.45938-.16562.70743-.28086,4.0039-1.85547,5.85313-1.18437,8.7414.02539-.62734-.79179-1.27656-1.54414-1.94062-2.27031-.43242-.46914-.87266-.92617-1.33047-1.35273-.22851-.21485-.46368-.41992-.7-.62227a16.10841,16.10841,0,0,0-2.23125-1.63984c-6.64063-3.90625-16.66679-15.625-21.875-15.625a3.15751,3.15751,0,0,0-.882.15312C178.15638,65.02031,178.02943,65.08008,177.91068,65.12461Z"/><path class="cls-34" d="M126.41654,117.95859c-4.88281,0-5.27344-4.10156-10.74219-4.10156s-6.05469,4.10156-7.8125,4.10156Z"/><path class="cls-34" d="M206.104,117.95859c-2.92969,0-3.8086-2.73437-13.57422-3.22265-4.38906-.21954-3.066-.61953-8.59531-.61953s-7.15156,1.98007-9.97149,1.98007a12.09577,12.09577,0,0,0-5.65781,1.86211Z"/><path class="cls-32" d="M232.27591,89.83359c-3.96835-4.252-9.40234-2.48047-14.41562.01133,2.827,3.24415,7.65-1.3414,11.03008,1.55117,4.33984,3.71368,11.80273,14.71367,15.9625,19.82149,4.657,5.71875,4.87109,6.741,18.673,6.741C255.19271,117.95859,240.99,99.16992,232.27591,89.83359Z"/><path class="cls-33" d="M160.531,127.33359h-7.03125c-1.17188-9.8957-8.46875-14.6793-12.56485-12.88983,0,0,7.87735-5.01367,13.60665,1.46405S160.531,127.33359,160.531,127.33359Z"/><path class="cls-33" d="M246.30365,117.86367c-6.075-1.76914-5.20429-10.63633-13.24649-9.93125-7.42187.65117-8.46367-2.0832-13.0207-.159-2.5707,1.08516-4.09727,1.8621-6.1547,2.14257a2.90489,2.90489,0,0,0,.94649.34336c1.95937.24141,4.427,2.6207,8.72383.79765s4.427-.13008,7.94258,1.18242c2.918,1.08946,2.89961,4.28321,4.43907,5.71876h10.24883Z"/><path class="cls-35" d="M243.63224,192.46886,193.2414,142.078a1.27614,1.27614,0,0,1,0-1.80774l32.38873-32.38873a1.27614,1.27614,0,0,1,1.80774,0L277.818,158.26163a1.27614,1.27614,0,0,1,0,1.80774L245.42922,192.4581A1.26325,1.26325,0,0,1,243.63224,192.46886Z"/><path class="cls-36" d="M245.44,125.88366l-18.00211-18.00211a1.27614,1.27614,0,0,0-1.80774,0L193.23064,140.281a1.27614,1.27614,0,0,0,0,1.80774L211.222,160.08013l34.20723-34.20723.01076.01076Z"/><path class="cls-37" d="M236.70255,150.80468a11.442,11.442,0,1,1,0-15.64558A11.43262,11.43262,0,0,1,236.70255,150.80468Z"/><path class="cls-35" d="M233.75421,142.99265l-3.594,3.594a3.81959,3.81959,0,0,1-5.40171-5.40171l3.594-3.594,5.40171,5.40171m2.6901-.90387-7.1987-7.19869a1.27614,1.27614,0,0,0-1.80774,0L222.94,139.38793a6.3609,6.3609,0,0,0,8.99567,8.99567l4.49784-4.49784a1.25387,1.25387,0,0,0,.01076-1.797Z"/><path class="cls-38" d="M233.75421,142.99265l-3.594,3.594a3.81959,3.81959,0,0,1-5.40171-5.40171l3.594-3.594,5.40171,5.40171"/><path class="cls-37" d="M228.85824,136.15981a.63922.63922,0,1,1,0-.75322A.64561.64561,0,0,1,228.85824,136.15981Z"/><path class="cls-37" d="M236.05693,143.35851a.63922.63922,0,1,1,0-.75323A.64562.64562,0,0,1,236.05693,143.35851Z"/><path class="cls-37" d="M225.26428,139.75378a.63923.63923,0,1,1,0-.75323A.66452.66452,0,0,1,225.26428,139.75378Z"/><path class="cls-37" d="M232.463,146.95247a.63923.63923,0,1,1,0-.75323A.66452.66452,0,0,1,232.463,146.95247Z"/><path class="cls-37" d="M232.45221,139.75378a.63923.63923,0,1,1,0-.75323A.62946.62946,0,0,1,232.45221,139.75378Z"/><path class="cls-37" d="M228.23414,149.37355a.63922.63922,0,1,1,0-.75322A.62941.62941,0,0,1,228.23414,149.37355Z"/><path class="cls-37" d="M222.88623,144.02565a.63922.63922,0,1,1,0-.75323A.62943.62943,0,0,1,222.88623,144.02565Z"/><path class="cls-39" d="M229.15953,143.34774l-.77474.77475a.82174.82174,0,0,1-1.16212-1.16212l.77474-.77475,1.16212,1.16212"/><path class="cls-39" d="M230.99956,141.50772l-.77475.77475a.82174.82174,0,0,1-1.16212-1.16212l.77475-.77475,1.16212,1.16212"/><path class="cls-39" d="M227.30875,145.19853l-.77475.77474a.82174.82174,0,0,1-1.16212-1.16211l.77475-.77475,1.16212,1.16212"/><path class="cls-39" d="M230.71979,144.908l-.77475.77475a.82174.82174,0,1,1-1.16212-1.16212l.77475-.77475,1.16212,1.16212"/><path class="cls-39" d="M227.58852,141.77673l-.77475.77475a.82174.82174,0,0,1-1.16212-1.16212l.77475-.77475,1.16212,1.16212"/><path class="cls-40" d="M179.19911,152.61243h0a2.91607,2.91607,0,0,1,0-4.11047l45.85-45.84995a2.89,2.89,0,0,1,4.08894,0l.02152.02152a2.90626,2.90626,0,0,1,0,4.11046l-45.83919,45.8392A2.92916,2.92916,0,0,1,179.19911,152.61243Z"/><path class="cls-38" d="M112.85511,192.63094,80.4879,160.26373a1.29239,1.29239,0,0,1,0-1.82926l50.36932-50.36931a1.29239,1.29239,0,0,1,1.82926,0l32.36721,32.36721a1.29239,1.29239,0,0,1,0,1.82926l-50.35856,50.35856A1.31538,1.31538,0,0,1,112.85511,192.63094Z"/><rect class="cls-38" x="102.43357" y="126.16972" width="40.70673" height="48.3459" transform="translate(-70.34486 130.85782) rotate(-45)"/><path class="cls-35" d="M130.87874,108.06516l-10.80342,10.78189L154.261,153.03276l10.79266-10.79266a1.25995,1.25995,0,0,0,0-1.78622L132.665,108.06516a1.25993,1.25993,0,0,0-1.78622,0Z"/><path class="cls-35" d="M80.50943,160.24221l32.38873,32.38873a1.25993,1.25993,0,0,0,1.78622,0L125.477,181.83829,91.29132,147.65257,80.4879,158.456A1.2413,1.2413,0,0,0,80.50943,160.24221Z"/><path class="cls-35" d="M123.43256,160.791l.77474,1.67862,4.18579-4.98206a.588.588,0,0,1,.89311-.03228l4.75609,5.03586.89311-.89311-5.03586-4.75609a.59588.59588,0,0,1,.03228-.89311l4.9713-4.175-1.67862-.77475A1.84265,1.84265,0,0,1,132.213,148.847l2.2812-8.3931-1.84.61335a1.27885,1.27885,0,0,1-1.42037-.43042l-2.59325-3.38952-1.6033,2.91606a1.26077,1.26077,0,0,1-1.797.4627l-1.1944-.764.36585,4.60544a.63542.63542,0,0,1-1.15136.41966l-4.36871-6.17645-1.01147,1.7647a1.271,1.271,0,0,1-1.47418.59182l-4.18578-1.302-.01076-.01076h0l.01076.01076,1.26972,4.19655a1.28175,1.28175,0,0,1-.59182,1.47417l-1.77546,1.00072,6.17645,4.36871a.63542.63542,0,0,1-.41965,1.15136l-4.60544-.36586.764,1.19441a1.284,1.284,0,0,1-.46269,1.797l-2.91606,1.60329,3.38952,2.59325a1.30147,1.30147,0,0,1,.43041,1.42037l-.61334,1.84,8.39309-2.2812A1.85211,1.85211,0,0,1,123.43256,160.791Z"/><path class="cls-40" d="M175.007,152.77451l-45.83919-45.83919a2.90627,2.90627,0,0,1,0-4.11047l.01076-.01076a2.87379,2.87379,0,0,1,4.06742,0l45.86072,45.86072a2.90626,2.90626,0,0,1,0,4.11046h0A2.87408,2.87408,0,0,1,175.007,152.77451Z"/><path class="cls-41" d="M181.42228,136.88413A21.69941,21.69941,0,0,0,159.74742,158.559v6.6583a1.37949,1.37949,0,0,0,.7969,1.25054l20.29519,9.45629a1.3791,1.3791,0,0,0,1.16536,0l20.29519-9.45629a1.37966,1.37966,0,0,0,.79709-1.25054V158.559A21.69941,21.69941,0,0,0,181.42228,136.88413Z"/><path class="cls-42" d="M173.39258,160.81173a2.55571,2.55571,0,1,1,2.55589-2.55571A2.55868,2.55868,0,0,1,173.39258,160.81173Z"/><path class="cls-42" d="M189.452,160.81173a2.55571,2.55571,0,1,1,2.55589-2.55571A2.55851,2.55851,0,0,1,189.452,160.81173Z"/><path class="cls-43" d="M181.42228,136.88413a21.75612,21.75612,0,0,0-3.01836.21118A21.707,21.707,0,0,1,197.06043,158.559v3.07189l-23.33508,10.97852,7.11434,3.3149a1.3791,1.3791,0,0,0,1.16536,0l20.29519-9.45629a1.37966,1.37966,0,0,0,.79709-1.25053V158.559A21.69968,21.69968,0,0,0,181.42228,136.88413Z"/><path class="cls-44" d="M205.46541,164.061a4.12026,4.12026,0,0,0-3.97236-.26121l-20.07059,9.35161-20.07076-9.35161a4.13891,4.13891,0,0,0-5.887,3.75179v18.5443c-.00055.02-.00055.04028,0,.06052v12.62347a25.95775,25.95775,0,0,0,51.91549,0V167.55153A4.121,4.121,0,0,0,205.46541,164.061Z"/><path class="cls-45" d="M205.46541,164.061a4.12026,4.12026,0,0,0-3.97236-.26121l-1.841.85779a4.11625,4.11625,0,0,1,1.18063,2.894v31.22828a25.99675,25.99675,0,0,1-22.684,25.75209A25.96959,25.96959,0,0,0,207.38,198.77981V167.55153A4.12045,4.12045,0,0,0,205.46541,164.061Z"/><polygon class="cls-45" points="155.465 181.143 155.465 185.487 181.422 173.151 177.019 171.1 155.465 181.143"/><path class="cls-42" d="M179.208,139.77869q-.05961,0-.11957-.00516c-6.84816-.58442-8.66749-5.65813-8.74162-5.87391a1.37968,1.37968,0,0,1,2.60611-.90672,6.57925,6.57925,0,0,0,4.31029,3.6405,9.03728,9.03728,0,0,1,.816-5.29979,1.37959,1.37959,0,1,1,2.48654,1.1959,6.188,6.188,0,0,0-.135,5.23485,1.37482,1.37482,0,0,1-1.22276,2.01433Z"/><path class="cls-18" d="M457.96162,270.02275c-6.29627,0-11.63008-2.1711-15.425-6.27911a21.79193,21.79193,0,0,1-5.43675-14.91375c0-8.19287,6.17875-15.58112,11.36159-20.33677a19.61224,19.61224,0,0,0,6.2062-14.4677,3.294,3.294,0,0,1,5.50023-2.44645c.76173.6871,18.65548,17.02823,18.65548,34.765C478.82337,260.28584,470.24449,270.02275,457.96162,270.02275Z"/><path class="cls-46" d="M460.16789,211.579a3.29529,3.29529,0,0,0-2.20627-.84579v59.28957c12.28287,0,20.86175-9.73691,20.86175-23.67877C478.82337,228.6072,460.92962,212.26607,460.16789,211.579Z"/><path class="cls-47" d="M457.96162,270.02275a12.31716,12.31716,0,0,1-12.07785-12.517c0-1.75935.50439-4.93579,4.86459-12.17393,2.24487-3.72715,4.45972-6.76891,4.55236-6.89673a3.29465,3.29465,0,0,1,5.3218,0c.09265.12782,2.30749,3.16958,4.55236,6.89673,4.36021,7.23814,4.8646,10.41458,4.8646,12.17393A12.31716,12.31716,0,0,1,457.96162,270.02275Z"/><path class="cls-48" d="M470.03948,257.5057c0-1.75935-.50439-4.93579-4.8646-12.17393-2.24487-3.72715-4.45971-6.76891-4.55236-6.89673a3.29585,3.29585,0,0,0-2.6609-1.35189v32.9396A12.31716,12.31716,0,0,0,470.03948,257.5057Z"/></g></g></svg>