<svg xmlns="http://www.w3.org/2000/svg" viewBox="0 0 1247.60545 699.09422"><defs><style>.cls-1{font-size:42.45836px;font-family:OpenSans-Semibold, Open Sans;font-weight:600;}.cls-1,.cls-3{fill:#232323;}.cls-2{fill:#e12649;}.cls-3{font-size:30px;font-family:OpenSans-Light, Open Sans;font-weight:300;}.cls-4{font-size:80px;fill:#f9f9f9;font-family:OpenSans-Bold, Open Sans;font-weight:700;}.cls-5{fill:#ffda44;}.cls-6{fill:#414952;}</style></defs><title>Asset 4</title><g id="Layer_2" data-name="Layer 2"><g id="Items"><text class="cls-1" transform="translate(56.24119 414.35033)">STRATEGY</text><text class="cls-1" transform="translate(386.8054 414.35033)">BRAND DEVELOPMENT</text><text class="cls-1" transform="translate(926.61582 414.34996)">VISUAL DESIGN</text><rect class="cls-2" width="1241.37724" height="215.18392" rx="107.59185"/><text class="cls-3" transform="translate(221.4661 624.49461)">ui/ux</text><text class="cls-3" transform="translate(670.78813 624.49474)">logos &amp;<tspan x="-26.85059" y="36">trademarks</tspan></text><text class="cls-3" transform="translate(1113.33763 624.49449)">packaging</text><text class="cls-4" transform="translate(159.68968 134.49522) scale(1.0107 1)">CORE QUALIFICATIONS</text><text class="cls-3" transform="translate(19.68797 617.99068)">brand<tspan x="-13.29297" y="36">strategy</tspan></text><text class="cls-3" transform="translate(445.68455 619.02319)">brand visual<tspan x="-16.01758" y="36">identity design</tspan></text><text class="cls-3" transform="translate(912.48972 624.49477)">illustration</text><rect class="cls-5" x="152.43329" y="311.32062" width="14.51241" height="14.51241"/><rect class="cls-5" x="152.43329" y="292.68782" width="14.51241" height="14.51241"/><rect class="cls-5" x="152.43329" y="271.97578" width="14.51241" height="14.51241"/><path class="cls-2" d="M141.549,350.41932a18.1611,18.1611,0,0,0,18.14052,18.14051v-36.281A18.1611,18.1611,0,0,0,141.549,350.41932Z"/><path class="cls-6" d="M159.68949,332.27881v36.281a18.14051,18.14051,0,1,0,0-36.281Z"/><path class="cls-2" d="M141.549,248.79833a18.1611,18.1611,0,0,0,18.14052,18.14051v-36.281A18.16111,18.16111,0,0,0,141.549,248.79833Z"/><path class="cls-6" d="M159.68949,230.65781v36.281a18.14052,18.14052,0,1,0,0-36.281Z"/><rect class="cls-5" x="152.43329" y="495.92981" width="14.51241" height="14.51241"/><rect class="cls-5" x="152.43329" y="475.21776" width="14.51241" height="14.51241"/><path class="cls-2" d="M238.379,573.49338a18.1611,18.1611,0,0,0,18.14051,18.14051v-36.281A18.1611,18.1611,0,0,0,238.379,573.49338Z"/><path class="cls-6" d="M256.51951,555.35287v36.281a18.14051,18.14051,0,1,0,0-36.281Z"/><rect class="cls-5" x="55.60309" y="535.4126" width="14.51241" height="14.51241"/><path class="cls-2" d="M44.7186,573.49338a18.1611,18.1611,0,0,0,18.14052,18.14051v-36.281A18.1611,18.1611,0,0,0,44.7186,573.49338Z"/><path class="cls-6" d="M62.85911,555.35287v36.281a18.14051,18.14051,0,1,0,0-36.281Z"/><path class="cls-2" d="M141.549,452.04031a18.16111,18.16111,0,0,0,18.14052,18.14052v-36.281A18.1611,18.1611,0,0,0,141.549,452.04031Z"/><path class="cls-6" d="M159.68949,433.8998v36.281a18.14052,18.14052,0,1,0,0-36.281Z"/><rect class="cls-5" x="613.43223" y="311.32062" width="14.51241" height="14.51241"/><rect class="cls-5" x="613.43223" y="292.68782" width="14.51241" height="14.51241"/><rect class="cls-5" x="613.43223" y="271.97578" width="14.51241" height="14.51241"/><path class="cls-2" d="M602.54793,350.41932a18.1611,18.1611,0,0,0,18.14051,18.14051v-36.281A18.1611,18.1611,0,0,0,602.54793,350.41932Z"/><path class="cls-6" d="M620.68844,332.27881v36.281a18.14051,18.14051,0,1,0,0-36.281Z"/><path class="cls-2" d="M602.54793,248.79833a18.1611,18.1611,0,0,0,18.14051,18.14051v-36.281A18.1611,18.1611,0,0,0,602.54793,248.79833Z"/><path class="cls-6" d="M620.68844,230.65781v36.281a18.14052,18.14052,0,1,0,0-36.281Z"/><rect class="cls-5" x="1075.15521" y="311.32062" width="14.51241" height="14.51241"/><rect class="cls-5" x="1075.15521" y="292.68782" width="14.51241" height="14.51241"/><rect class="cls-5" x="1075.15521" y="271.97578" width="14.51241" height="14.51241"/><path class="cls-2" d="M1064.27091,350.41932a18.1611,18.1611,0,0,0,18.14051,18.14051v-36.281A18.1611,18.1611,0,0,0,1064.27091,350.41932Z"/><path class="cls-6" d="M1082.41142,332.27881v36.281a18.14051,18.14051,0,1,0,0-36.281Z"/><path class="cls-2" d="M1064.27091,248.79833a18.1611,18.1611,0,0,0,18.14051,18.14051v-36.281A18.1611,18.1611,0,0,0,1064.27091,248.79833Z"/><path class="cls-6" d="M1082.41142,230.65781v36.281a18.14052,18.14052,0,1,0,0-36.281Z"/><rect class="cls-5" x="94.70179" y="514.48335" width="14.51241" height="14.51241"/><rect class="cls-5" x="114.25114" y="514.48335" width="14.51241" height="14.51241"/><rect class="cls-5" x="55.60309" y="514.48335" width="14.51241" height="14.51241"/><rect class="cls-5" x="75.15244" y="514.48335" width="14.51241" height="14.51241"/><rect class="cls-5" x="132.88394" y="514.48335" width="14.51241" height="14.51241"/><rect class="cls-5" x="152.43329" y="514.48335" width="14.51241" height="14.51241"/><rect class="cls-5" x="171.98264" y="514.48335" width="14.51241" height="14.51241"/><rect class="cls-5" x="190.61544" y="514.48335" width="14.51241" height="14.51241"/><rect class="cls-5" x="210.16479" y="514.48335" width="14.51241" height="14.51241"/><rect class="cls-5" x="229.71414" y="514.48335" width="14.51241" height="14.51241"/><rect class="cls-5" x="249.26349" y="514.48335" width="14.51241" height="14.51241"/><rect class="cls-5" x="249.26349" y="535.4126" width="14.51241" height="14.51241"/><rect class="cls-5" x="617.0929" y="495.72813" width="14.51241" height="14.51241"/><rect class="cls-5" x="617.0929" y="475.01608" width="14.51241" height="14.51241"/><path class="cls-2" d="M703.0386,573.2917a18.1611,18.1611,0,0,0,18.14052,18.14051v-36.281A18.1611,18.1611,0,0,0,703.0386,573.2917Z"/><path class="cls-6" d="M721.17911,555.15119v36.281a18.14051,18.14051,0,1,0,0-36.281Z"/><rect class="cls-5" x="520.2627" y="535.21092" width="14.51241" height="14.51241"/><path class="cls-2" d="M509.37821,573.2917a18.1611,18.1611,0,0,0,18.14051,18.14051v-36.281A18.1611,18.1611,0,0,0,509.37821,573.2917Z"/><path class="cls-6" d="M527.51872,555.15119v36.281a18.14051,18.14051,0,1,0,0-36.281Z"/><path class="cls-2" d="M606.20859,451.83863a18.1611,18.1611,0,0,0,18.14051,18.14051v-36.281A18.1611,18.1611,0,0,0,606.20859,451.83863Z"/><path class="cls-6" d="M624.3491,433.69812v36.281a18.14051,18.14051,0,1,0,0-36.281Z"/><rect class="cls-5" x="559.3614" y="514.28167" width="14.51241" height="14.51241"/><rect class="cls-5" x="578.91075" y="514.28167" width="14.51241" height="14.51241"/><rect class="cls-5" x="520.2627" y="514.28167" width="14.51241" height="14.51241"/><rect class="cls-5" x="539.81205" y="514.28167" width="14.51241" height="14.51241"/><rect class="cls-5" x="597.54355" y="514.28167" width="14.51241" height="14.51241"/><rect class="cls-5" x="617.0929" y="514.28167" width="14.51241" height="14.51241"/><rect class="cls-5" x="636.64224" y="514.28167" width="14.51241" height="14.51241"/><rect class="cls-5" x="655.27504" y="514.28167" width="14.51241" height="14.51241"/><rect class="cls-5" x="674.82439" y="514.28167" width="14.51241" height="14.51241"/><rect class="cls-5" x="694.37374" y="514.28167" width="14.51241" height="14.51241"/><rect class="cls-5" x="713.92309" y="514.28167" width="14.51241" height="14.51241"/><rect class="cls-5" x="713.92309" y="535.21092" width="14.51241" height="14.51241"/><rect class="cls-5" x="1075.1554" y="495.72813" width="14.51241" height="14.51241"/><rect class="cls-5" x="1075.1554" y="475.01608" width="14.51241" height="14.51241"/><path class="cls-2" d="M1161.1011,573.2917a18.1611,18.1611,0,0,0,18.14052,18.14051v-36.281A18.1611,18.1611,0,0,0,1161.1011,573.2917Z"/><path class="cls-6" d="M1179.24161,555.15119v36.281a18.14051,18.14051,0,1,0,0-36.281Z"/><rect class="cls-5" x="978.3252" y="535.21092" width="14.51241" height="14.51241"/><path class="cls-2" d="M967.44071,573.2917a18.1611,18.1611,0,0,0,18.14051,18.14051v-36.281A18.1611,18.1611,0,0,0,967.44071,573.2917Z"/><path class="cls-6" d="M985.58122,555.15119v36.281a18.14051,18.14051,0,1,0,0-36.281Z"/><path class="cls-2" d="M1064.27109,451.83863a18.1611,18.1611,0,0,0,18.14051,18.14051v-36.281A18.1611,18.1611,0,0,0,1064.27109,451.83863Z"/><path class="cls-6" d="M1082.4116,433.69812v36.281a18.14051,18.14051,0,1,0,0-36.281Z"/><rect class="cls-5" x="1017.4239" y="514.28167" width="14.51241" height="14.51241"/><rect class="cls-5" x="1036.97325" y="514.28167" width="14.51241" height="14.51241"/><rect class="cls-5" x="978.3252" y="514.28167" width="14.51241" height="14.51241"/><rect class="cls-5" x="997.87455" y="514.28167" width="14.51241" height="14.51241"/><rect class="cls-5" x="1055.60605" y="514.28167" width="14.51241" height="14.51241"/><rect class="cls-5" x="1075.1554" y="514.28167" width="14.51241" height="14.51241"/><rect class="cls-5" x="1094.70474" y="514.28167" width="14.51241" height="14.51241"/><rect class="cls-5" x="1113.33754" y="514.28167" width="14.51241" height="14.51241"/><rect class="cls-5" x="1132.88689" y="514.28167" width="14.51241" height="14.51241"/><rect class="cls-5" x="1152.43624" y="514.28167" width="14.51241" height="14.51241"/><rect class="cls-5" x="1171.98559" y="514.28167" width="14.51241" height="14.51241"/><rect class="cls-5" x="1171.98559" y="535.21092" width="14.51241" height="14.51241"/></g></g></svg>