<svg xmlns="http://www.w3.org/2000/svg" viewBox="0 0 1391.22949 210.43078"><defs><style>.cls-1{font-size:30px;fill:#383838;font-family:MyriadPro-Regular, Myriad Pro;}.cls-2{letter-spacing:-0.036em;}.cls-3{letter-spacing:0.005em;}.cls-4{letter-spacing:-0.077em;}.cls-5{letter-spacing:-0.02699em;}.cls-6{fill:#efce4a;}.cls-7{fill:#ed8a19;}.cls-8{fill:#ea6248;}.cls-9{letter-spacing:0.03999em;}.cls-10{letter-spacing:-0.05698em;}.cls-11{letter-spacing:-0.014em;}.cls-12{letter-spacing:-0.00999em;}.cls-13{letter-spacing:-0.01499em;}.cls-14{fill:#868491;}.cls-15{fill:#5c546a;}.cls-16{fill:#ffcd00;}.cls-17{fill:#ffe671;}.cls-18{fill:#fff;}.cls-19{fill:#b4b6bc;}.cls-20{fill:#126099;}.cls-21{fill:#4398d1;}.cls-22{fill:#3e8cc7;}.cls-23{fill:#3181bd;}.cls-24{fill:#fec9a3;}.cls-25{fill:#e3584b;}.cls-26{fill:#87ced9;}.cls-27{fill:#5eb3d1;}.cls-28{fill:#464655;}.cls-29{fill:#bec8dc;}.cls-30{fill:#afbbd0;}.cls-31{fill:#96a5b9;}.cls-32{fill:#e4eaf6;}.cls-33{fill:#ff6469;}.cls-34{letter-spacing:-0.021em;}.cls-35{letter-spacing:0.004em;}.cls-36{letter-spacing:-0.07699em;}.cls-37{fill:#445ea0;}.cls-38{fill:#293d7c;}.cls-39{fill:#eef6ff;}.cls-40{fill:#fe3745;}.cls-41{fill:#b7092b;}.cls-42{fill:#d9eafc;}.cls-43{fill:#52bbef;}.cls-44{fill:#1e99d6;}.cls-45{fill:#ffe2b8;}.cls-46{fill:#ffc987;}.cls-47{fill:#1a2b63;}.cls-48{fill:#aec1ed;}.cls-49{fill:#ffaf10;}.cls-50{fill:#ef9614;}.cls-51{fill:#ffd00d;}</style></defs><title>Asset 3</title><g id="Layer_2" data-name="Layer 2"><g id="Items"><text class="cls-1" transform="translate(0.00006 166.93053)">IL<tspan class="cls-2" x="21.32959" y="0">L</tspan><tspan x="34.40918" y="0">UST</tspan><tspan class="cls-3" x="83.51855" y="0">R</tspan><tspan class="cls-4" x="99.80811" y="0">A</tspan><tspan class="cls-5" x="115.85791" y="0">T</tspan><tspan x="129.95801" y="0">OR</tspan></text><polygon class="cls-6" points="136.187 36.92 86.273 65.438 36.359 36.92 86.273 8.575 136.187 36.92"/><polygon class="cls-7" points="86.273 65.438 55.293 47.738 36.359 58.489 86.273 87.007 136.187 58.489 117.254 47.738 86.273 65.438"/><polygon class="cls-8" points="86.273 87.007 55.293 69.307 36.359 80.058 86.273 108.575 136.187 80.058 117.254 69.307 86.273 87.007"/><text class="cls-1" transform="translate(1207.15088 166.93084)">SOF<tspan class="cls-9" x="50.06982" y="0">T</tspan><tspan class="cls-10" x="66.1792" y="0">W</tspan><tspan x="89.84961" y="0">ARE </tspan><tspan class="cls-11" x="145.46875" y="0">Q</tspan><tspan x="165.71875" y="0">A</tspan><tspan class="cls-12" x="26.98535" y="36">M</tspan><tspan x="50.80518" y="36">AN</tspan><tspan class="cls-13" x="88.90479" y="36">A</tspan><tspan x="106.81494" y="36">GER</tspan></text><path class="cls-14" d="M1303.8787,90.62515h-9.37485a1.56154,1.56154,0,0,0-1.56247,1.56248V93.7501a6.2499,6.2499,0,1,0,12.49979,0V92.18763A1.56155,1.56155,0,0,0,1303.8787,90.62515Z"/><path class="cls-15" d="M1299.18971,90.62515h-4.68586a1.56155,1.56155,0,0,0-1.56248,1.56248V93.7501a6.25583,6.25583,0,0,0,6.24834,6.24971V90.62515Z"/><path class="cls-16" d="M1323.795,9.745A35.65449,35.65449,0,0,0,1296.89424.07333,35.93467,35.93467,0,0,0,1281.892,67.43374a9.31016,9.31016,0,0,1,4.79875,8.1694V87.50021a6.25618,6.25618,0,0,0,6.2499,6.24989h12.49979a6.25618,6.25618,0,0,0,6.2499-6.24989V75.60314a9.34944,9.34944,0,0,1,4.837-8.18932A35.93411,35.93411,0,0,0,1323.795,9.745Z"/><circle class="cls-17" cx="1299.18971" cy="35.93856" r="24.99959"/><path class="cls-18" d="M1304.65524,45.3134a4.90621,4.90621,0,0,1-3.91224-2.09508c-.682-.77811-.95369-1.02987-1.56247-1.02987-.60585,0-.87577.25176-1.55486,1.0285a4.69167,4.69167,0,0,1-7.81706,0c-.67909-.77674-.949-1.0285-1.55485-1.0285a1.56247,1.56247,0,1,1,0-3.125A4.95978,4.95978,0,0,1,1292.1615,41.16c.67909.77675.949,1.0285,1.55486,1.0285s.87733-.25175,1.55642-1.0285a4.95944,4.95944,0,0,1,3.90775-2.09645,4.90619,4.90619,0,0,1,3.91223,2.09509c.682.77811.9537,1.02986,1.56248,1.02986.60722,0,.87889-.25175,1.56091-1.0285a4.96676,4.96676,0,0,1,3.91224-2.09645,1.56248,1.56248,0,1,1,0,3.125c-.60878,0-.88045.25176-1.56247,1.02987A4.96439,4.96439,0,0,1,1304.65524,45.3134Z"/><path class="cls-15" d="M1294.50229,75.00041a1.56484,1.56484,0,0,1-1.52595-1.22986L1285.164,37.83364a1.56312,1.56312,0,1,1,3.05464-.66522l7.81237,35.93691a1.56039,1.56039,0,0,1-1.52868,1.89508Z"/><path class="cls-15" d="M1303.88006,75.00041a1.56039,1.56039,0,0,1-1.52888-1.89508l7.81237-35.93691a1.56312,1.56312,0,0,1,3.05464.66522l-7.81237,35.93691A1.56411,1.56411,0,0,1,1303.88006,75.00041Z"/><path class="cls-19" d="M1286.42254,73.43794a9.37909,9.37909,0,0,1,.26835,2.1652V87.50021a6.25618,6.25618,0,0,0,6.2499,6.24989h12.49979a6.25618,6.25618,0,0,0,6.2499-6.24989V75.60314a9.32308,9.32308,0,0,1,.27031-2.1652Z"/><path class="cls-14" d="M1299.18971,73.43794h-12.76717a9.37855,9.37855,0,0,1,.26835,2.1652V87.50021a6.25618,6.25618,0,0,0,6.2499,6.24989h6.24892Z"/><rect class="cls-14" x="1299.18971" y="78.12536" width="12.49979" height="3.12495"/><rect class="cls-14" x="1299.19049" y="84.37526" width="12.49979" height="3.12495"/><rect class="cls-15" x="1286.68992" y="78.12536" width="12.4998" height="3.12495"/><rect class="cls-15" x="1286.68992" y="84.37526" width="12.4998" height="3.12495"/><text class="cls-1" transform="translate(925.19006 166.93065)">WEB/UI/UX<tspan x="6.68994" y="36">DESIGNER</tspan></text><path class="cls-20" d="M1024.95739,5.46811h-37.931a6.8969,6.8969,0,0,0-6.89655,6.89656v3.44827h51.72414V12.36467A6.8969,6.8969,0,0,0,1024.95739,5.46811Z"/><path class="cls-20" d="M980.1298,98.57156a6.89689,6.89689,0,0,0,6.89655,6.89655h37.931a6.89689,6.89689,0,0,0,6.89655-6.89655V91.675H980.1298Z"/><path class="cls-21" d="M980.1298,15.81294h51.72414V91.675H980.1298Z"/><path class="cls-22" d="M1007.716,51.15777a23.2138,23.2138,0,0,0-27.58621-22.86v45.72a23.36831,23.36831,0,0,0,4.31035.41588c.29128,0,.57415-.03283.86207-.04293v3.49121h5.17241V73.6145A23.26377,23.26377,0,0,0,1007.716,51.15777Z"/><path class="cls-22" d="M980.1298,88.22673V91.675h51.72414V36.5026Z"/><path class="cls-23" d="M1004.26773,96.84742h3.44828v3.44828h-3.44828Z"/><path class="cls-20" d="M1007.716,48.57156a20.61781,20.61781,0,1,1-6.03869-14.651A20.68961,20.68961,0,0,1,1007.716,48.57156Z"/><path class="cls-24" d="M993.92291,45.12329a6.89656,6.89656,0,1,1-6.89656-6.89656A6.8969,6.8969,0,0,1,993.92291,45.12329Z"/><path class="cls-25" d="M1021.50911,65.81294l28.24623-24.92255a3.75279,3.75279,0,0,1,5.297,5.297L1030.1298,74.43363Z"/><path class="cls-26" d="M1021.50911,65.81294a10.34534,10.34534,0,0,0-10.34482,10.34483v3.04165a6.2383,6.2383,0,0,1-3.44828,5.579h12.069a10.34534,10.34534,0,0,0,10.34482-10.34483Z"/><path class="cls-26" d="M955.99187,83.05432h37.931v13.7931h-37.931Z"/><path class="cls-27" d="M961.16429,88.22673H969.785V91.675h-8.62069Z"/><path class="cls-27" d="M973.23325,88.22673h15.51724V91.675H973.23325Z"/><path class="cls-26" d="M955.99187,12.36467h17.24138v13.7931H955.99187Z"/><path class="cls-27" d="M961.16429,17.53708h6.89655v3.44827h-6.89655Z"/><path class="cls-25" d="M987.02635,52.01984a10.34533,10.34533,0,0,0-10.34482,10.34483v4.11924a20.65332,20.65332,0,0,0,20.68965,0V62.36467A10.34533,10.34533,0,0,0,987.02635,52.01984Z"/><path class="cls-25" d="M1014.61256,46.84742h-5.26a22.41645,22.41645,0,0,0-20.6021-20.6021v-5.26h-3.44827v5.26a22.41645,22.41645,0,0,0-20.6021,20.6021h-5.26V50.2957h5.26417a22.31378,22.31378,0,0,0,20.5979,20.61052v5.25155h3.44827V70.90622a22.31377,22.31377,0,0,0,20.59789-20.61052h5.26418ZM999.66947,62.70983a18.87848,18.87848,0,0,1-10.919,4.74811V64.0888h-3.44827v3.36914A18.913,18.913,0,0,1,968.1526,50.2957h3.35651V46.84742h-3.36072A18.98438,18.98438,0,0,1,985.30222,29.6936v3.36072h3.44827V29.6936a18.98438,18.98438,0,0,1,17.15383,17.15382h-3.36072V50.2957h3.35651a18.97525,18.97525,0,0,1-6.23064,12.42255Z"/><path class="cls-22" d="M1011.16429,15.81294h20.68965V36.5026h-20.68965Z"/><path class="cls-26" d="M1014.61256,12.36467h37.931V33.05432h-37.931Z"/><path class="cls-27" d="M1019.785,17.53708h6.89655v3.44827H1019.785Z"/><path class="cls-27" d="M1030.1298,17.53708h17.24138v3.44827H1030.1298Z"/><path class="cls-27" d="M1019.785,24.43363h27.5862v3.44828H1019.785Z"/><text class="cls-1" transform="translate(335.67834 166.93078)">G<tspan class="cls-3" x="19.37988" y="0">R</tspan><tspan x="35.66943" y="0">APHIC</tspan><tspan x="-6.2998" y="36">DESIGNER</tspan></text><path class="cls-28" d="M449.19984,10.64065H338.996a4.08146,4.08146,0,0,0-4.08158,4.08158v65.306h118.367v-65.306A4.08145,4.08145,0,0,0,449.19984,10.64065Zm-2.0409,63.26508h-106.122V16.76314h106.122Z"/><path class="cls-18" d="M381.85272,42.27331a1.0198,1.0198,0,0,1,1.02046,1.02045h3.06112V40.23263h-4.08158a1.02045,1.02045,0,1,1,0-2.0409h4.08158V24.92653H367.56708V43.29376h13.26519A1.02009,1.02009,0,0,1,381.85272,42.27331Z"/><path class="cls-18" d="M341.03692,73.90573h106.122V16.76314h-106.122Zm44.89761-5.102H381.853a1.02046,1.02046,0,0,1,0-2.04091h4.08158a1.02046,1.02046,0,1,1,0,2.04091Zm-4.08181-10.20407a1.0198,1.0198,0,0,1,1.02046,1.02045v4.08158a1.02046,1.02046,0,1,1-2.04091,0V59.62008A1.02009,1.02009,0,0,1,381.85272,58.59963ZM380.8325,55.5385V51.45692a1.02046,1.02046,0,0,1,2.04091,0V55.5385a1.02046,1.02046,0,0,1-2.04091,0Zm13.26519,13.2652h-4.08158a1.02046,1.02046,0,0,1,0-2.04091h4.08158a1.02046,1.02046,0,1,1,0,2.04091Zm17.34678-5.102a1.02046,1.02046,0,1,1-2.04091,0V59.62008a1.02046,1.02046,0,0,1,2.04091,0Zm0-8.16316a1.02046,1.02046,0,0,1-2.04091,0V51.45692a1.02046,1.02046,0,0,1,2.04091,0Zm0-8.16316a1.02046,1.02046,0,0,1-2.04091,0V43.29376a1.02046,1.02046,0,0,1,2.04091,0Zm9.18408,2.04067V22.88563a2.04108,2.04108,0,0,1,2.04091-2.04091h18.36722a2.04108,2.04108,0,0,1,2.04091,2.04091V67.78348a2.04108,2.04108,0,0,1-2.04091,2.0409H422.66946a2.04108,2.04108,0,0,1-2.04091-2.0409ZM406.34244,38.19173H410.424a1.02045,1.02045,0,0,1,0,2.0409h-4.08158a1.02045,1.02045,0,1,1,0-2.0409Zm0,28.57129H410.424a1.02046,1.02046,0,0,1,0,2.04091h-4.08158a1.02046,1.02046,0,1,1,0-2.04091Zm-8.16317-28.57129h4.08158a1.02045,1.02045,0,1,1,0,2.0409h-4.08158a1.02045,1.02045,0,1,1,0-2.0409Zm0,28.57129h4.08158a1.02046,1.02046,0,1,1,0,2.04091h-4.08158a1.02046,1.02046,0,0,1,0-2.04091ZM363.48549,22.88563a2.04049,2.04049,0,0,1,2.04091-2.04091h22.44881a2.04033,2.04033,0,0,1,2.0409,2.04091v15.3061h4.08158a1.02045,1.02045,0,1,1,0,2.0409h-4.08158v5.102a2.0393,2.0393,0,0,1-.10126.63321l5.35541,4.798a.81937.81937,0,0,1-.21731,1.36029l-2.02935.89076,1.8125,4.12828a1.02084,1.02084,0,0,1-1.86937.82094L391.154,53.83744l-2.03.891a.81913.81913,0,0,1-1.1483-.7606l.08577-6.59665c-.0289.00139-.0571.00439-.08623.00439h-5.102a1.02045,1.02045,0,1,1-2.0409,0h-15.3061a2.04034,2.04034,0,0,1-2.04091-2.0409v-22.449Zm-18.367,0a2.04107,2.04107,0,0,1,2.0409-2.04091h6.12249a2.04107,2.04107,0,0,1,2.0409,2.04091V67.78348a2.04107,2.04107,0,0,1-2.0409,2.0409H347.1594a2.04107,2.04107,0,0,1-2.0409-2.0409Z"/><path class="cls-29" d="M334.91443,88.19138A4.08146,4.08146,0,0,0,338.996,92.273h110.2036a4.08146,4.08146,0,0,0,4.08158-4.08158V80.02822H334.91443Zm59.1835-5.102a3.06113,3.06113,0,1,1-3.06113,3.06113A3.06122,3.06122,0,0,1,394.09793,83.08934Z"/><polygon class="cls-30" points="375.986 106.559 412.21 106.559 410.935 96.355 377.261 96.355 375.986 106.559"/><path class="cls-29" d="M375.7307,106.55884a2.04091,2.04091,0,1,0,0,4.08181h36.73469a2.04091,2.04091,0,0,0,0-4.08181H375.7307Z"/><polygon class="cls-31" points="377.261 96.355 410.935 96.355 410.424 92.273 377.771 92.273 377.261 96.355"/><circle class="cls-31" cx="394.09793" cy="86.1507" r="3.06113"/><path class="cls-29" d="M347.1594,69.82415h6.12249a2.04107,2.04107,0,0,0,2.0409-2.04091V22.88563a2.04107,2.04107,0,0,0-2.0409-2.04091H347.1594a2.04107,2.04107,0,0,0-2.0409,2.04091V67.78348A2.04073,2.04073,0,0,0,347.1594,69.82415Zm2.04068-44.89785h2.0409a2.04091,2.04091,0,1,1,0,4.08181h-2.0409a2.04091,2.04091,0,1,1,0-4.08181Zm0,6.12249h2.0409a2.04091,2.04091,0,1,1,0,4.08181h-2.0409a2.04091,2.04091,0,1,1,0-4.08181Zm0,6.12248h2.0409a2.04091,2.04091,0,0,1,0,4.08182h-2.0409a2.04091,2.04091,0,1,1,0-4.08182Zm0,6.12249h2.0409a2.04091,2.04091,0,1,1,0,4.08181h-2.0409a2.04091,2.04091,0,1,1,0-4.08181Zm0,6.12225h2.0409a2.04091,2.04091,0,0,1,0,4.08182h-2.0409a2.04091,2.04091,0,1,1,0-4.08182ZM347.1594,59.62008a2.04107,2.04107,0,0,1,2.04091-2.0409h2.0409a2.04107,2.04107,0,0,1,2.04091,2.0409v4.08158a2.04108,2.04108,0,0,1-2.04091,2.04091h-2.0409a2.04108,2.04108,0,0,1-2.04091-2.04091Z"/><path class="cls-32" d="M349.20008,29.00788h2.0409a2.04091,2.04091,0,1,0,0-4.08181h-2.0409a2.04091,2.04091,0,1,0,0,4.08181Z"/><path class="cls-31" d="M349.20008,35.13037h2.0409a2.04091,2.04091,0,0,0,0-4.08182h-2.0409a2.04091,2.04091,0,1,0,0,4.08182Z"/><path class="cls-32" d="M349.20008,41.25285h2.0409a2.04091,2.04091,0,1,0,0-4.08181h-2.0409a2.04091,2.04091,0,1,0,0,4.08181Z"/><path class="cls-32" d="M349.20008,47.37534h2.0409a2.04091,2.04091,0,1,0,0-4.08181h-2.0409a2.04091,2.04091,0,1,0,0,4.08181Z"/><path class="cls-32" d="M349.20008,53.49759h2.0409a2.04091,2.04091,0,1,0,0-4.08181h-2.0409a2.04091,2.04091,0,1,0,0,4.08181Z"/><path class="cls-31" d="M349.20008,65.74257h2.0409a2.04108,2.04108,0,0,0,2.04091-2.04091V59.62008a2.04107,2.04107,0,0,0-2.04091-2.0409h-2.0409a2.04107,2.04107,0,0,0-2.04091,2.0409v4.08158A2.04108,2.04108,0,0,0,349.20008,65.74257Z"/><path class="cls-29" d="M443.07736,22.88563a2.04108,2.04108,0,0,0-2.04091-2.04091H422.66922a2.04107,2.04107,0,0,0-2.0409,2.04091v12.245h22.4488v-12.245Zm-3.06113,10.20406H423.68968a1.02045,1.02045,0,1,1,0-2.0409h16.32655a1.02045,1.02045,0,0,1,0,2.0409Zm0-4.08181H423.68968a1.02046,1.02046,0,1,1,0-2.04091h16.32678a1.02046,1.02046,0,1,1-.00023,2.04091Zm0-4.08158H423.68968a1.02046,1.02046,0,1,1,0-2.04091h16.32678a1.02046,1.02046,0,1,1-.00023,2.04091Z"/><path class="cls-29" d="M422.66922,69.82415h18.36723a2.04108,2.04108,0,0,0,2.04091-2.04091V49.416H420.62855V67.78324A2.04073,2.04073,0,0,0,422.66922,69.82415Zm9.18362-18.36723H440.016a1.02046,1.02046,0,0,1,0,2.04091h-8.16316a1.02046,1.02046,0,1,1,0-2.04091Zm0,4.08158H440.016a1.02046,1.02046,0,0,1,0,2.04091h-8.16316a1.02046,1.02046,0,1,1,0-2.04091Zm0,4.08158H440.016a1.02046,1.02046,0,0,1,0,2.04091h-8.16316a1.02046,1.02046,0,1,1,0-2.04091Zm0,4.08158H440.016a1.02046,1.02046,0,0,1,0,2.04091h-8.16316a1.02046,1.02046,0,1,1,0-2.04091Zm-4.08158-12.24474h0a1.02046,1.02046,0,0,1,0,2.04091h0a1.02046,1.02046,0,1,1,0-2.04091Zm0,4.08158h0a1.02046,1.02046,0,0,1,0,2.04091h0a1.02046,1.02046,0,1,1,0-2.04091Zm0,4.08158h0a1.02046,1.02046,0,0,1,0,2.04091h0a1.02046,1.02046,0,1,1,0-2.04091Zm0,4.08158h0a1.02046,1.02046,0,0,1,0,2.04091h0a1.02046,1.02046,0,1,1,0-2.04091Zm-4.08158-12.24474h0a1.02046,1.02046,0,0,1,0,2.04091h0a1.02046,1.02046,0,1,1,0-2.04091Zm0,4.08158h0a1.02046,1.02046,0,0,1,0,2.04091h0a1.02046,1.02046,0,1,1,0-2.04091Zm0,4.08158h0a1.02046,1.02046,0,0,1,0,2.04091h0a1.02046,1.02046,0,1,1,0-2.04091Zm0,4.08158h0a1.02046,1.02046,0,0,1,0,2.04091h0a1.02046,1.02046,0,1,1,0-2.04091Z"/><path class="cls-31" d="M443.07736,35.13037H420.62855V49.416h22.44881Zm-17.34678,12.245h-2.0409a1.02046,1.02046,0,1,1,0-2.04091h2.0409a1.02046,1.02046,0,1,1,0,2.04091Zm0-4.08158h-2.0409a1.02046,1.02046,0,1,1,0-2.04091h2.0409a1.02046,1.02046,0,1,1,0,2.04091Zm0-4.08181h-2.0409a1.02046,1.02046,0,1,1,0-2.04091h2.0409a1.02046,1.02046,0,1,1,0,2.04091Zm14.28565,8.16339H429.81216a1.02046,1.02046,0,0,1,0-2.04091h10.20407a1.02046,1.02046,0,0,1,0,2.04091Zm0-4.08158H429.81216a1.02046,1.02046,0,0,1,0-2.04091h10.20407a1.02046,1.02046,0,0,1,0,2.04091Zm0-4.08181H429.81216a1.02046,1.02046,0,0,1,0-2.04091h10.20407a1.02046,1.02046,0,0,1,0,2.04091Z"/><path class="cls-31" d="M440.01623,22.88563h-12.245a1.02045,1.02045,0,0,1,0,2.0409h12.245a1.02045,1.02045,0,0,0,0-2.0409Z"/><path class="cls-31" d="M424.71013,23.90585a1.02039,1.02039,0,0,1,1.02045-1.02046h-2.0409a1.02046,1.02046,0,1,0,0,2.04091h2.0409A1.02038,1.02038,0,0,1,424.71013,23.90585Z"/><path class="cls-31" d="M440.01623,31.04879h-8.16316a1.02045,1.02045,0,0,1,0,2.0409h8.16316a1.02045,1.02045,0,0,0,0-2.0409Z"/><path class="cls-31" d="M428.79171,32.06924a1.02039,1.02039,0,0,1,1.02045-1.02045h-6.12248a1.02045,1.02045,0,1,0,0,2.0409h6.12248A1.02054,1.02054,0,0,1,428.79171,32.06924Z"/><path class="cls-29" d="M440.01623,37.17127H429.81216a1.02046,1.02046,0,0,0,0,2.04091h10.20407a1.02046,1.02046,0,0,0,0-2.04091Z"/><path class="cls-31" d="M434.9142,27.98766a1.02038,1.02038,0,0,1,1.02045-1.02045h-12.245a1.02045,1.02045,0,1,0,0,2.0409h12.245A1.02068,1.02068,0,0,1,434.9142,27.98766Z"/><path class="cls-31" d="M440.01623,26.96721h-2.04091a1.02045,1.02045,0,1,1,0,2.0409h2.04091a1.02045,1.02045,0,0,0,0-2.0409Z"/><path class="cls-32" d="M428.79171,23.90585a1.02039,1.02039,0,0,0-1.02045-1.02046h-2.04091a1.02046,1.02046,0,0,0,0,2.04091h2.04091A1.02039,1.02039,0,0,0,428.79171,23.90585Z"/><path class="cls-32" d="M432.87329,32.06924a1.02039,1.02039,0,0,0-1.02045-1.02045h-2.04091a1.02045,1.02045,0,1,0,0,2.0409h2.04091A1.02054,1.02054,0,0,0,432.87329,32.06924Z"/><path class="cls-32" d="M425.73058,37.17127h-2.0409a1.02046,1.02046,0,1,0,0,2.04091h2.0409a1.02046,1.02046,0,1,0,0-2.04091Z"/><path class="cls-29" d="M440.01623,41.25285H429.81216a1.02046,1.02046,0,0,0,0,2.04091h10.20407a1.02046,1.02046,0,0,0,0-2.04091Z"/><path class="cls-32" d="M425.73058,41.25285h-2.0409a1.02046,1.02046,0,1,0,0,2.04091h2.0409a1.02046,1.02046,0,1,0,0-2.04091Z"/><path class="cls-29" d="M440.01623,45.33443H429.81216a1.02046,1.02046,0,0,0,0,2.04091h10.20407a1.02046,1.02046,0,0,0,0-2.04091Z"/><path class="cls-32" d="M425.73058,45.33443h-2.0409a1.02046,1.02046,0,1,0,0,2.04091h2.0409a1.02046,1.02046,0,1,0,0-2.04091Z"/><path class="cls-32" d="M423.68968,57.57941h0a1.02046,1.02046,0,0,0,0-2.04091h0a1.02046,1.02046,0,1,0,0,2.04091Z"/><path class="cls-32" d="M423.68968,53.49759h0a1.02045,1.02045,0,0,0,0-2.0409h0a1.02045,1.02045,0,1,0,0,2.0409Z"/><path class="cls-32" d="M423.68968,65.74257h0a1.02046,1.02046,0,0,0,0-2.04091h0a1.02046,1.02046,0,1,0,0,2.04091Z"/><path class="cls-32" d="M423.68968,61.661h0a1.02046,1.02046,0,0,0,0-2.04091h0a1.02046,1.02046,0,1,0,0,2.04091Z"/><path class="cls-31" d="M427.77126,57.57941h0a1.02046,1.02046,0,0,0,0-2.04091h0a1.02046,1.02046,0,1,0,0,2.04091Z"/><path class="cls-31" d="M427.77126,53.49759h0a1.02045,1.02045,0,0,0,0-2.0409h0a1.02045,1.02045,0,1,0,0,2.0409Z"/><path class="cls-31" d="M427.77126,65.74257h0a1.02046,1.02046,0,0,0,0-2.04091h0a1.02046,1.02046,0,1,0,0,2.04091Z"/><path class="cls-31" d="M427.77126,61.661h0a1.02046,1.02046,0,0,0,0-2.04091h0a1.02046,1.02046,0,1,0,0,2.04091Z"/><path class="cls-31" d="M431.85284,57.57941H440.016a1.02046,1.02046,0,0,0,0-2.04091h-8.16316a1.02046,1.02046,0,1,0,0,2.04091Z"/><path class="cls-31" d="M431.85284,53.49759H440.016a1.02045,1.02045,0,0,0,0-2.0409h-8.16316a1.02045,1.02045,0,1,0,0,2.0409Z"/><path class="cls-31" d="M431.85284,65.74257H440.016a1.02046,1.02046,0,0,0,0-2.04091h-8.16316a1.02046,1.02046,0,1,0,0,2.04091Z"/><path class="cls-31" d="M431.85284,61.661H440.016a1.02046,1.02046,0,0,0,0-2.04091h-8.16316a1.02046,1.02046,0,1,0,0,2.04091Z"/><path class="cls-32" d="M438.99578,27.98766a1.02039,1.02039,0,0,0-1.02046-1.02045h-2.0409a1.02045,1.02045,0,1,0,0,2.0409h2.0409A1.02069,1.02069,0,0,0,438.99578,27.98766Z"/><path class="cls-33" d="M365.5264,47.37534h15.3061V43.29376H367.56708V24.92653H385.9343v13.2652a1.02045,1.02045,0,1,1,0,2.0409v3.06113h-3.06112v4.08158h5.102c.02913,0,.05733-.003.08623-.00439l.01619-1.22644a.81914.81914,0,0,1,1.36561-.59946l.47185.4226a2.04069,2.04069,0,0,0,.10126-.63321v-5.102a1.02045,1.02045,0,1,1,0-2.0409V22.88563a2.04049,2.04049,0,0,0-2.04091-2.04091H365.52663a2.04034,2.04034,0,0,0-2.0409,2.04091v22.4488A2.04,2.04,0,0,0,365.5264,47.37534Z"/><path class="cls-31" d="M381.85272,56.559a1.0198,1.0198,0,0,0,1.02046-1.02045V51.45692a1.02046,1.02046,0,0,0-2.04091,0V55.5385A1.02009,1.02009,0,0,0,381.85272,56.559Z"/><path class="cls-31" d="M406.34244,68.8037H410.424a1.02046,1.02046,0,0,0,0-2.04091h-4.08158a1.02046,1.02046,0,1,0,0,2.04091Z"/><path class="cls-31" d="M410.42425,58.59963a1.0198,1.0198,0,0,0-1.02045,1.02045v4.08158a1.02045,1.02045,0,1,0,2.0409,0V59.62008A1.02009,1.02009,0,0,0,410.42425,58.59963Z"/><path class="cls-31" d="M406.34244,40.2324H410.424a1.02046,1.02046,0,0,0,0-2.04091h-4.08158a1.02046,1.02046,0,1,0,0,2.04091Z"/><path class="cls-31" d="M410.42425,42.27331a1.0198,1.0198,0,0,0-1.02045,1.02045v4.08158a1.02045,1.02045,0,1,0,2.0409,0V43.29376A1.02009,1.02009,0,0,0,410.42425,42.27331Z"/><path class="cls-31" d="M394.09769,66.763h-4.08158a1.02046,1.02046,0,0,0,0,2.04091h4.08158a1.02046,1.02046,0,1,0,0-2.04091Z"/><path class="cls-31" d="M381.85272,42.27331a1.0198,1.0198,0,0,0-1.02045,1.02045v4.08158a1.02046,1.02046,0,0,0,2.04091,0V43.29376A1.0198,1.0198,0,0,0,381.85272,42.27331Z"/><path class="cls-31" d="M385.93453,66.763H381.853a1.02046,1.02046,0,0,0,0,2.04091h4.08158a1.02046,1.02046,0,1,0,0-2.04091Z"/><path class="cls-31" d="M380.8325,63.70166a1.02046,1.02046,0,1,0,2.04091,0V59.62008a1.02046,1.02046,0,0,0-2.04091,0Z"/><path class="cls-31" d="M410.42425,50.43647a1.0198,1.0198,0,0,0-1.02045,1.02045V55.5385a1.02045,1.02045,0,1,0,2.0409,0V51.45692A1.02009,1.02009,0,0,0,410.42425,50.43647Z"/><path class="cls-31" d="M398.17927,40.2324h4.08158a1.02046,1.02046,0,1,0,0-2.04091h-4.08158a1.02046,1.02046,0,0,0,0,2.04091Z"/><path class="cls-31" d="M380.8325,39.212A1.0198,1.0198,0,0,0,381.853,40.2324h4.08158a1.02046,1.02046,0,1,0,0-2.04091H381.853A1.02011,1.02011,0,0,0,380.8325,39.212Z"/><path class="cls-31" d="M398.17927,68.8037h4.08158a1.02046,1.02046,0,1,0,0-2.04091h-4.08158a1.02046,1.02046,0,0,0,0,2.04091Z"/><path class="cls-31" d="M388.99566,39.212a1.0198,1.0198,0,0,0,1.02045,1.02045h4.08158a1.02046,1.02046,0,1,0,0-2.04091h-4.08158A1.02011,1.02011,0,0,0,388.99566,39.212Z"/><path class="cls-28" d="M388.07739,46.14451l-.01618,1.22644-.08577,6.59664a.819.819,0,0,0,1.14829.7606l2.03-.891,1.81272,4.12874a1.02084,1.02084,0,0,0,1.86937-.82094l-1.8125-4.12828,2.02935-.89075a.81933.81933,0,0,0,.21732-1.3603l-5.35542-4.798-.47185-.42261A.81893.81893,0,0,0,388.07739,46.14451Z"/><text class="cls-1" transform="translate(577.25842 166.93114)"><tspan class="cls-34">C</tspan><tspan x="16.76953" y="0">OMMUNI</tspan><tspan class="cls-35" x="131.99805" y="0">C</tspan><tspan class="cls-36" x="149.51758" y="0">A</tspan><tspan x="165.56787" y="0">TION</tspan><tspan class="cls-12" x="48.97412" y="36">M</tspan><tspan x="72.79395" y="36">AN</tspan><tspan class="cls-13" x="110.89355" y="36">A</tspan><tspan x="128.80371" y="36">GER</tspan></text><path class="cls-37" d="M662.89059,37.73515h-6.85825a48.52043,48.52043,0,0,0-4.47376,20.41133q0,1.29812.068,2.58012h11.264Z"/><path class="cls-38" d="M734.1385,73.30553h-4.27356V89.38365h4.27356a1.99392,1.99392,0,0,0,1.98808-1.98807V75.2936A1.99392,1.99392,0,0,0,734.1385,73.30553Z"/><polygon class="cls-39" points="707.564 72.558 707.564 90.131 724.012 99.945 724.012 62.744 707.564 72.558"/><path class="cls-40" d="M730.06375,103.08982a.997.997,0,0,1-.994.994h-4.26243a.997.997,0,0,1-.994-.994V59.59917a.997.997,0,0,1,.994-.994h4.26243a.997.997,0,0,1,.994.994Z"/><path class="cls-41" d="M727.22776,103.08982V59.59917a.997.997,0,0,1,.994-.994h-3.41471a.997.997,0,0,0-.994.994V103.09a.997.997,0,0,0,.994.994h3.41471A.99727.99727,0,0,1,727.22776,103.08982Z"/><path class="cls-39" d="M689.51445,73.98167H684.9059a.997.997,0,0,0-.994.994V87.71288a.997.997,0,0,0,.994.994h4.60855Z"/><path class="cls-42" d="M686.79655,87.71308V74.97591a.997.997,0,0,1,.994-.994H684.9059a.997.997,0,0,0-.994.994V87.71308a.997.997,0,0,0,.994.994h2.88469A.997.997,0,0,1,686.79655,87.71308Z"/><path class="cls-40" d="M707.76276,90.2266a.997.997,0,0,1-.994.994H690.30967a.997.997,0,0,1-.994-.994V72.46179a.997.997,0,0,1,.994-.994h16.45905a.997.997,0,0,1,.994.994Z"/><path class="cls-41" d="M693.26057,90.2266V72.46179a.997.997,0,0,1,.994-.994h-3.94493a.997.997,0,0,0-.994.994V90.2266a.997.997,0,0,0,.994.994h3.94493A.997.997,0,0,1,693.26057,90.2266Z"/><path class="cls-43" d="M747.88582,22.88624a.997.997,0,0,0-.994-.994H719.76435a.997.997,0,0,0-.994.994V41.76417a.997.997,0,0,0,.994.994H727.953a2.24217,2.24217,0,0,1,1.58926.79622l3.19046,4.268a.70353.70353,0,0,0,1.19045,0l3.19046-4.268a2.24219,2.24219,0,0,1,1.58926-.79622h8.18867a.997.997,0,0,0,.994-.994V22.88624Z"/><path class="cls-44" d="M722.71524,41.76417V22.88624a.997.997,0,0,1,.994-.994h-3.94493a.997.997,0,0,0-.994.994V41.76417a.997.997,0,0,0,.994.994h3.94493A.997.997,0,0,1,722.71524,41.76417Z"/><path class="cls-18" d="M741.84546,29.26775H724.81087a1.491,1.491,0,1,1,0-2.9821h17.03459a1.491,1.491,0,0,1,0,2.9821Z"/><path class="cls-18" d="M741.84546,33.89042H724.81087a1.49105,1.49105,0,0,1,0-2.98211h17.03459a1.49105,1.49105,0,0,1,0,2.98211Z"/><path class="cls-18" d="M733.36216,38.51288h-8.5513a1.49106,1.49106,0,0,1,0-2.98211h8.5513a1.49106,1.49106,0,0,1,0,2.98211Z"/><circle class="cls-40" cx="704.84089" cy="17.9099" r="11.05487"/><path class="cls-41" d="M697.73015,17.90911a11.05577,11.05577,0,0,1,9.08251-10.87595,11.05478,11.05478,0,1,0,0,21.75169A11.0554,11.0554,0,0,1,697.73015,17.90911Z"/><path class="cls-18" d="M704.82041,23.99459a.66653.66653,0,0,1-.47554-.19841l-5.22207-5.266a3.38878,3.38878,0,0,1,0-4.76024,3.31867,3.31867,0,0,1,4.72087,0l.99582,1.00417.99662-1.00417a3.31844,3.31844,0,0,1,4.72068,0,3.38636,3.38636,0,0,1-.0004,4.76024l-5.26282,5.26759A.66413.66413,0,0,1,704.82041,23.99459Z"/><path class="cls-40" d="M666.90093,79.20533a.56294.56294,0,0,1-.40139-.1676l-4.408-4.44473a2.86057,2.86057,0,0,1,0-4.01809,2.80149,2.80149,0,0,1,3.9847,0l.84055.84772.84115-.84772a2.80149,2.80149,0,0,1,3.9847,0,2.85835,2.85835,0,0,1-.0002,4.01809l-4.44235,4.44632A.55984.55984,0,0,1,666.90093,79.20533Z"/><path class="cls-41" d="M664.31365,73.66537a2.8545,2.8545,0,0,1-.09205-3.91591c-.04572-.00238-.09125-.00675-.13757-.00675a2.78569,2.78569,0,0,0-1.99225.832,2.86057,2.86057,0,0,0,0,4.01809l4.408,4.44473a.564.564,0,0,0,.8008.00159l1.17574-1.17694Z"/><path class="cls-45" d="M688.57091,62.07014V59.326a2.78635,2.78635,0,0,1,2.7833-2.7833h.64333a.19881.19881,0,1,0,0-.39761,2.78636,2.78636,0,0,1-2.7833-2.7833V50.61765a2.78636,2.78636,0,0,1,2.7833-2.7833.19881.19881,0,1,0,0-.39761,2.78636,2.78636,0,0,1-2.7833-2.7833V41.90891a2.78636,2.78636,0,0,1,2.7833-2.7833.19881.19881,0,1,0,0-.39762h-1.22842a2.78635,2.78635,0,0,1-2.7833-2.7833V33.20016a2.78636,2.78636,0,0,1,2.2821-2.73579V19.78068a2.99088,2.99088,0,0,0-2.9821-2.98211l-4.63837.0002a3.52406,3.52406,0,0,0-3.38489,2.95467l-1.86839,13.70934c-.22088,1.61889-1.39006,2.94394-2.60259,2.95368V62.262h13.78887C688.57628,62.19837,688.57091,62.13515,688.57091,62.07014Z"/><path class="cls-46" d="M687.286,16.79857l-4.63837.0002a3.52406,3.52406,0,0,0-3.38489,2.95467l-1.86839,13.70934c-.22088,1.61889-1.39006,2.94394-2.60259,2.95368v3.94612c2.13519-.0002,3.906-.0002,3.931-.0002,1.21729,0,2.39463-1.32962,2.6163-2.95467l1.86839-13.70934a3.52406,3.52406,0,0,1,3.38489-2.95467l3.67555-.0002v-.96282A2.99058,2.99058,0,0,0,687.286,16.79857Z"/><path class="cls-45" d="M691.35421,65.05224a2.99087,2.99087,0,0,1-2.98211-2.9821V59.326a2.99088,2.99088,0,0,1,2.98211-2.98211h16.173a2.99088,2.99088,0,0,1,2.98211,2.98211v2.74414a2.99087,2.99087,0,0,1-2.98211,2.9821Z"/><path class="cls-38" d="M663.68582,65.498a.997.997,0,0,1-.994-.994V33.95761a.997.997,0,0,1,.994-.994h10.31053a.997.997,0,0,1,.994.994V64.50374a.997.997,0,0,1-.994.994H663.68582Z"/><path class="cls-47" d="M666.63671,64.50394V33.95761a.997.997,0,0,1,.994-.994h-3.94493a.997.997,0,0,0-.994.994V64.50374a.997.997,0,0,0,.994.994h3.94493A.99666.99666,0,0,1,666.63671,64.50394Z"/><circle class="cls-48" cx="668.84089" cy="37.83237" r="2.66123"/><path class="cls-45" d="M690.76932,38.927a2.99088,2.99088,0,0,1-2.98211-2.98211V33.20036a2.99088,2.99088,0,0,1,2.98211-2.98211h16.75785a2.99088,2.99088,0,0,1,2.98211,2.98211v2.74453a2.99088,2.99088,0,0,1-2.98211,2.98211Z"/><path class="cls-45" d="M691.99755,47.63574a2.99087,2.99087,0,0,1-2.98211-2.9821V41.9091a2.99087,2.99087,0,0,1,2.98211-2.9821H708.253a2.99087,2.99087,0,0,1,2.98211,2.9821v2.74453a2.99088,2.99088,0,0,1-2.98211,2.98211Z"/><path class="cls-45" d="M691.99755,56.3441a2.99088,2.99088,0,0,1-2.98211-2.98211V50.61786a2.99088,2.99088,0,0,1,2.98211-2.98211H708.253a2.99088,2.99088,0,0,1,2.98211,2.98211V53.362A2.99088,2.99088,0,0,1,708.253,56.3441Z"/><path class="cls-46" d="M694.424,61.98247a2.99088,2.99088,0,0,1-2.98211-2.98211V56.3441h-.08767a2.99088,2.99088,0,0,0-2.98211,2.98211v2.74413a2.99088,2.99088,0,0,0,2.98211,2.98211h16.173a2.99088,2.99088,0,0,0,2.98211-2.98211v-.08767H694.424Z"/><path class="cls-46" d="M693.8391,35.85722a2.99088,2.99088,0,0,1-2.98211-2.98211V30.21845h-.08767a2.99088,2.99088,0,0,0-2.98211,2.98211v2.74453a2.99088,2.99088,0,0,0,2.98211,2.98211h16.75785a2.99088,2.99088,0,0,0,2.98211-2.98211v-.08767H693.8391Z"/><path class="cls-46" d="M695.06753,44.56576a2.99087,2.99087,0,0,1-2.98211-2.9821V38.927h-.08767a2.99087,2.99087,0,0,0-2.98211,2.9821v2.74453a2.99088,2.99088,0,0,0,2.98211,2.98211h16.25547a2.99088,2.99088,0,0,0,2.9821-2.98211V44.566l-16.16779-.0002Z"/><path class="cls-46" d="M695.06753,53.27412a2.99088,2.99088,0,0,1-2.98211-2.98211V47.63575h-.08767a2.99088,2.99088,0,0,0-2.98211,2.98211V53.362a2.99088,2.99088,0,0,0,2.98211,2.98211h16.25547a2.99088,2.99088,0,0,0,2.9821-2.98211v-.08767H695.06753Z"/><path class="cls-49" d="M675.80987,83.424H658.02518a.39714.39714,0,0,0-.39523.397V95.23256a.39714.39714,0,0,0,.39523.397h17.78469a.39713.39713,0,0,0,.39523-.397V83.821A.397.397,0,0,0,675.80987,83.424Z"/><path class="cls-50" d="M661.57488,95.23256V86.54092l-3.8495-2.97515a.39768.39768,0,0,1,.05964-.05746.39535.39535,0,0,0-.15487.31252V95.23236a.39713.39713,0,0,0,.39523.397h3.94473A.39684.39684,0,0,1,661.57488,95.23256Z"/><path class="cls-51" d="M675.80987,83.424H658.02518a.39219.39219,0,0,0-.3.142l8.87913,6.86243a.541.541,0,0,0,.62644,0l8.87893-6.86243A.39117.39117,0,0,0,675.80987,83.424Z"/><path class="cls-49" d="M752.95261,52.11328H735.16792a.39714.39714,0,0,0-.39523.397V63.92183a.39726.39726,0,0,0,.39523.397h17.78469a.39713.39713,0,0,0,.39523-.397V52.5103A.39739.39739,0,0,0,752.95261,52.11328Z"/><path class="cls-50" d="M738.71743,63.922V55.23038l-3.84951-2.97515a.39816.39816,0,0,1,.05964-.05746.39537.39537,0,0,0-.15487.31253V63.92183a.39726.39726,0,0,0,.39523.397h3.94493A.39713.39713,0,0,1,738.71743,63.922Z"/><path class="cls-51" d="M752.95261,52.11328H735.16792a.39219.39219,0,0,0-.3.14195l8.87913,6.86243a.541.541,0,0,0,.62644,0l8.87893-6.86243A.3924.3924,0,0,0,752.95261,52.11328Z"/></g></g></svg>