<svg xmlns="http://www.w3.org/2000/svg" viewBox="0 0 150 150"><defs><style>.cls-1{fill:#414952;}.cls-2{fill:#fff;}.cls-3{fill:#ffc612;}</style></defs><title>Asset 1</title><g id="Layer_2" data-name="Layer 2"><g id="Items"><path class="cls-1" d="M150,75A75,75,0,1,1,75,0,74.99932,74.99932,0,0,1,150,75Z"/><path class="cls-2" d="M61.734,121.73424H43.055a13.62305,13.62305,0,0,1,0-27.2461H50.0988l51.18141-53.4645h18.67905a13.623,13.623,0,1,1,0,27.24609h-7.04384Z"/><polygon class="cls-3" points="34.591 69.682 34.591 43.322 43.381 43.322 43.381 54.682 68.791 29.272 71.811 32.302 75.001 35.492 55.281 55.222 49.601 60.902 60.961 60.902 60.961 69.682 34.591 69.682"/></g></g></svg>