<svg xmlns="http://www.w3.org/2000/svg" viewBox="0 0 1566.70389 301.96784"><defs><style>.cls-1{font-size:42.45836px;fill:#232323;font-family:OpenSans-Semibold, Open Sans;font-weight:600;}.cls-2{fill:#f9f9f9;}.cls-3{fill:#e12649;}.cls-4{fill:#ae1d4f;}.cls-5{fill:#fc4;}.cls-6{fill:#732058;}.cls-7{fill:#ff5f34;}</style></defs><title>Asset 5</title><g id="Layer_2" data-name="Layer 2"><g id="Items"><text class="cls-1" transform="translate(662.38062 289.98542)">PHOTOSHOP</text><path class="cls-2" d="M794.20389,0V32.77a73.53087,73.53087,0,0,0-52.14,21.58984l-23.17-23.16992A106.54371,106.54371,0,0,1,794.20389,0Z"/><path class="cls-3" d="M900.70389,106.5c0,58.41992-48.08,106.5-106.5,106.5-58.43,0-106.5-48.08008-106.5-106.5a106.53782,106.53782,0,0,1,31.19-75.31006l23.17,23.16992a73.73721,73.73721,0,1,0,52.14-21.58984V0C852.62387,0,900.70389,48.08008,900.70389,106.5Z"/><text class="cls-1" transform="translate(988.37277 289.9859)">ILLUSTRATOR</text><path class="cls-4" d="M1233.70389,106.5c0,58.41992-48.07,106.5-106.5,106.5-58.41992,0-106.5-48.08008-106.5-106.5a106.61364,106.61364,0,0,1,53.25-92.23l16.38,28.37012a73.74462,73.74462,0,1,0,36.87-9.87012V0C1185.63394,0,1233.70389,48.08008,1233.70389,106.5Z"/><path class="cls-2" d="M1127.20389,0V32.77a73.35669,73.35669,0,0,0-36.87,9.87012l-16.38-28.37012a106.53552,106.53552,0,0,1,53.25-14.27Z"/><text class="cls-1" transform="translate(0.00024 289.98493)">3D BLENDER</text><path class="cls-5" d="M234.70389,106.5c0,58.41992-48.07,106.5-106.5,106.5a106.44246,106.44246,0,0,1-36.42-6.41992l11.2-30.77a73.74135,73.74135,0,1,0,25.22-143.04V0C186.63388,0,234.70389,48.08008,234.70389,106.5Z"/><path class="cls-2" d="M54.47385,106.5a73.7785,73.7785,0,0,0,48.51,69.31006l-11.2,30.77A106.705,106.705,0,0,1,21.70389,106.5c0-58.41992,48.08-106.5,106.5-106.5V32.77A73.73,73.73,0,0,0,54.47385,106.5Z"/><text class="cls-1" transform="translate(1431.41788 289.98493)">XD</text><path class="cls-2" d="M1460.20389,0V32.77q-3.25506,0-6.43.28l-2.85-32.64014c1.54-.13989,3.09-.24,4.62988-.30981C1457.10379.03,1458.65384,0,1460.20389,0Z"/><path class="cls-6" d="M1566.70389,106.5c0,58.41992-48.08008,106.5-106.5,106.5-58.43,0-106.5-48.08008-106.5-106.5,0-54.92993,42.5-101.31006,97.22-106.09009l2.85,32.64014a73.73972,73.73972,0,1,0,6.43-.28V0C1518.62381,0,1566.70389,48.08008,1566.70389,106.5Z"/><text class="cls-1" transform="translate(360.47839 289.98542)">INDESIGN</text><path class="cls-7" d="M567.70389,106.5c0,58.41992-48.06995,106.5-106.5,106.5A106.84,106.84,0,0,1,356.324,124.99l32.25994-5.68994a73.73439,73.73439,0,1,0,72.62-86.53V0C519.63394,0,567.70389,48.08008,567.70389,106.5Z"/><path class="cls-2" d="M461.20389,0V32.77a73.78017,73.78017,0,0,0-72.62,86.53L356.324,124.99a106.07746,106.07746,0,0,1-1.62006-18.49C354.70389,48.08008,402.78391,0,461.20389,0Z"/></g></g></svg>