<svg xmlns="http://www.w3.org/2000/svg" viewBox="0 0 738.38854 311.21856"><defs><style>.cls-1{font-size:42.45836px;fill:#383838;font-family:HelveticaNeue, Helvetica Neue;}.cls-2{fill:#d80027;}.cls-3{fill:#ff5023;}.cls-4{fill:#a2001d;}.cls-5{fill:#dedde0;}.cls-6{fill:#fff;}</style></defs><title>Asset 7</title><g id="Layer_2" data-name="Layer 2"><g id="Items"><text class="cls-1" transform="translate(186.95068 123.95794)">design@catalinaalmeida.com</text><text class="cls-1" transform="translate(186.95068 282.57122)">catalinaalmeida</text><path id="Behance" class="cls-2" d="M135.46076,231.0937H97.87628V221.758h37.58761v9.3357ZM72.85542,269.37634a24.6808,24.6808,0,0,1,3.637,13.67155,27.22749,27.22749,0,0,1-4.14615,14.89249,25.82225,25.82225,0,0,1-6.60229,7.3308,25.51267,25.51267,0,0,1-10.53292,4.686,65.12115,65.12115,0,0,1-13.17774,1.26139H0V217.886H45.07431c11.36151.18483,19.4163,3.47656,24.17273,9.94111a23.74974,23.74974,0,0,1,4.26819,14.25219c0,5.70605-1.43122,10.27171-4.31318,13.74061a22.00369,22.00369,0,0,1-7.10657,5.31092A20.72357,20.72357,0,0,1,72.85542,269.37634ZM21.52477,254.68229H41.27446a18.71446,18.71446,0,0,0,9.86648-2.31352q3.78782-2.30952,3.7852-8.20614c0-4.34144-1.66836-7.223-5.0131-8.61a35.25637,35.25637,0,0,0-11.017-1.45981H21.52477Zm35.303,27.03238c0-4.84815-1.98153-8.19986-5.93655-9.9983-2.21169-1.02215-5.33219-1.54456-9.33326-1.58187H21.52477v24.87264H41.248c4.052,0,7.18817-.53043,9.45148-1.637C54.78106,291.33564,56.8278,287.46361,56.8278,281.71467ZM149.40572,266.531a87.79389,87.79389,0,0,1,.57612,13.27469H101.30577q.40278,10.07815,6.987,14.10608a17.59963,17.59963,0,0,0,9.63562,2.50952,13.57572,13.57572,0,0,0,13.29073-7.65444h17.8414c-.4673,3.96828-2.61553,7.99307-6.47605,12.08306q-8.9718,9.75122-25.14292,9.76046A36.48935,36.48935,0,0,1,93.89023,302.383q-10.1781-8.24625-10.19326-26.7813,0-17.39694,9.199-26.654c6.16219-6.19044,14.1148-9.27153,23.91746-9.27153a38.11665,38.11665,0,0,1,15.72073,3.12643,27.07507,27.07507,0,0,1,11.53972,9.89995A32.99852,32.99852,0,0,1,149.40572,266.531Zm-17.56137,1.7416q-.49067-6.96882-4.67133-10.56535a15.23567,15.23567,0,0,0-10.35959-3.61955c-4.49383,0-7.96377,1.29312-10.42934,3.83472a18.01772,18.01772,0,0,0-4.65983,10.35052h30.12009Z"/><polygon class="cls-2" points="133.338 86.57 133.338 86.571 93.75 123.958 150 170.833 150 70.833 133.338 86.57"/><polygon class="cls-3" points="0 70.833 0 170.833 56.25 123.958 0 70.833"/><polygon class="cls-2" points="56.25 123.958 0 170.833 75 170.833 75 141.667 56.25 123.958"/><polygon class="cls-4" points="75 141.667 75 170.833 150 170.833 93.75 123.958 75 141.667"/><polygon class="cls-3" points="16.664 55.095 0 70.833 16.662 70.833 16.664 55.095"/><polygon class="cls-3" points="150 70.833 133.335 55.095 133.337 70.833 150 70.833"/><polygon class="cls-3" points="75 0 48.422 25.101 101.511 25.038 75 0"/><polygon class="cls-4" points="133.338 86.57 150 70.833 133.337 70.833 133.338 86.57"/><polygon class="cls-4" points="75 141.667 16.661 86.569 16.662 70.833 0 70.833 56.25 123.958 75 141.667"/><path class="cls-5" d="M16.66083,86.56875,75,141.66667l18.75-17.70834,39.5875-37.3875v-.00042l-.00084-15.73708-.00124-15.73874L133.33333,25l-31.82249.03833-53.08875.06292-31.75542.03792-.00292,29.95625L16.6625,70.83333ZM37.5,75h75V87.5h-75Zm0-12.5V50h75V62.5Z"/><rect class="cls-6" x="37.5" y="50" width="75" height="12.5"/><rect class="cls-6" x="37.5" y="75" width="75" height="12.5"/></g></g></svg>