<svg xmlns="http://www.w3.org/2000/svg" viewBox="0 0 500 500"><title>CATALINA LOGO v1.1</title><g id="A"><path d="M250,500a14.15,14.15,0,0,1,0-28.3,221.48,221.48,0,0,0,184.12-98.17L363.65,162.1,144,462.91A14.15,14.15,0,0,1,128.16,468a13.85,13.85,0,0,1-3-1.35,250.94,250.94,0,0,1-41.7-30.17L24.63,495.38a14.15,14.15,0,0,1-20-20L73.19,406.8a14.16,14.16,0,0,1,20.06,0,221.45,221.45,0,0,0,35.57,28.92L357,123.26a14.15,14.15,0,0,1,24.85,3.87l81.31,243.92a14.19,14.19,0,0,1-1.62,12.3A249.83,249.83,0,0,1,250,500Z" fill="#f2cc00"/></g><g id="C"><path d="M46.83,384a14.14,14.14,0,0,1-12.2-7A250,250,0,1,1,500,250a14.15,14.15,0,1,1-28.3,0A221.69,221.69,0,0,0,93.24,93.24,221.78,221.78,0,0,0,59,362.63,14.15,14.15,0,0,1,46.83,384Z" fill="#f2cc00"/></g></svg>