<svg id="contactsLinkedin" xmlns="http://www.w3.org/2000/svg" width="100" height="100" viewBox="0 0 100 100">
  <rect id="Rectangle_77" data-name="Rectangle 77" width="100" height="100" rx="25" fill="#fff"/>
  <g id="Group_442" data-name="Group 442" transform="translate(16.667 18.333)">
    <path id="LinkedIn" d="M66.667,48.615V73.262H52.378v-23c0-5.777-2.067-9.719-7.239-9.719a7.819,7.819,0,0,0-7.331,5.227,9.777,9.777,0,0,0-.474,3.484v24H23.04s.193-38.948,0-42.984H37.332v6.093c-.029.046-.067.095-.094.139h.094v-.139a14.191,14.191,0,0,1,12.881-7.1C59.617,29.268,66.667,35.412,66.667,48.615ZM8.088,9.558C3.2,9.558,0,12.765,0,16.983c0,4.126,3.106,7.431,7.9,7.431h.1c4.985,0,8.084-3.3,8.084-7.431C15.984,12.765,12.978,9.558,8.088,9.558ZM.849,73.262H15.137V30.278H.849Z" transform="translate(0 -9.558)" fill="#ffc850"/>
  </g>
</svg>
