<svg id="contactsEmail" xmlns="http://www.w3.org/2000/svg" width="149.999" height="93.332" viewBox="0 0 149.999 93.332">
  <g id="Group_218" data-name="Group 218" transform="translate(895.643 -7404.966)">
    <path id="Behance" d="M-760.183,7418.174h-37.584v-9.336h37.587v9.336Zm-62.605,38.282a24.683,24.683,0,0,1,3.637,13.672,27.226,27.226,0,0,1-4.146,14.892,25.824,25.824,0,0,1-6.6,7.331,25.519,25.519,0,0,1-10.533,4.686,65.135,65.135,0,0,1-13.178,1.261h-42.033v-93.332h45.074c11.361.185,19.416,3.476,24.173,9.941a23.749,23.749,0,0,1,4.268,14.252c0,5.706-1.431,10.272-4.313,13.741a22.016,22.016,0,0,1-7.107,5.311A20.723,20.723,0,0,1-822.788,7456.456Zm-51.331-14.694h19.75a18.717,18.717,0,0,0,9.867-2.313q3.788-2.31,3.785-8.206c0-4.342-1.669-7.224-5.013-8.61a35.249,35.249,0,0,0-11.017-1.46h-17.372Zm35.3,27.033c0-4.849-1.981-8.2-5.936-10-2.212-1.022-5.332-1.544-9.333-1.582h-20.034v24.873H-854.4c4.052,0,7.188-.53,9.451-1.637C-840.862,7478.416-838.816,7474.544-838.816,7468.795Zm92.578-15.184a87.728,87.728,0,0,1,.576,13.275h-48.676q.4,10.077,6.987,14.106a17.6,17.6,0,0,0,9.636,2.509,14.7,14.7,0,0,0,9.7-3.068,14.6,14.6,0,0,0,3.591-4.586h17.841c-.467,3.968-2.615,7.993-6.476,12.083q-8.971,9.751-25.143,9.76a36.489,36.489,0,0,1-23.551-8.227q-10.179-8.247-10.193-26.781,0-17.4,9.2-26.654c6.162-6.191,14.114-9.272,23.917-9.272a38.135,38.135,0,0,1,15.721,3.126,27.076,27.076,0,0,1,11.539,9.9A33,33,0,0,1-746.238,7453.611Zm-17.561,1.742q-.49-6.969-4.671-10.566a15.235,15.235,0,0,0-10.36-3.619c-4.494,0-7.964,1.293-10.429,3.834a18.016,18.016,0,0,0-4.66,10.351Z" fill="#d80027"/>
  </g>
</svg>
