<svg id="contactsBehance" xmlns="http://www.w3.org/2000/svg" width="100" height="100" viewBox="0 0 100 100">
  <rect id="Rectangle_76" data-name="Rectangle 76" width="100" height="100" rx="25" fill="#fff"/>
  <g id="Group_218" data-name="Group 218" transform="translate(16.667 29.167)">
    <path id="Behance" d="M-835.438,7410.836h-16.7v-4.149h16.705v4.149Zm-27.825,17.014a10.972,10.972,0,0,1,1.617,6.077,12.1,12.1,0,0,1-1.843,6.619,11.464,11.464,0,0,1-2.934,3.258,11.347,11.347,0,0,1-4.681,2.083,28.937,28.937,0,0,1-5.857.56h-18.681v-41.48h20.033c5.049.082,8.629,1.545,10.744,4.418a10.557,10.557,0,0,1,1.9,6.335,9.231,9.231,0,0,1-1.917,6.106,9.783,9.783,0,0,1-3.159,2.361A9.213,9.213,0,0,1-863.263,7427.85Zm-22.814-6.53h8.778a8.312,8.312,0,0,0,4.385-1.028,3.922,3.922,0,0,0,1.682-3.647c0-1.93-.742-3.21-2.228-3.827a15.673,15.673,0,0,0-4.9-.648h-7.721Zm15.69,12.014a4.448,4.448,0,0,0-2.638-4.443,10.39,10.39,0,0,0-4.148-.7h-8.9v11.055h8.766a9.731,9.731,0,0,0,4.2-.728C-871.3,7437.611-870.386,7435.89-870.386,7433.334Zm41.146-6.748a39.012,39.012,0,0,1,.256,5.9h-21.634q.179,4.479,3.105,6.269a7.814,7.814,0,0,0,4.283,1.116,6.53,6.53,0,0,0,4.311-1.364,6.473,6.473,0,0,0,1.6-2.038h7.929a9.659,9.659,0,0,1-2.878,5.371q-3.987,4.333-11.175,4.337a16.218,16.218,0,0,1-10.467-3.656q-4.524-3.666-4.53-11.9,0-7.732,4.088-11.847a14.329,14.329,0,0,1,10.63-4.121,16.946,16.946,0,0,1,6.987,1.389,12.038,12.038,0,0,1,5.128,4.4A14.661,14.661,0,0,1-829.24,7426.586Zm-7.805.775a6.491,6.491,0,0,0-2.076-4.7,6.775,6.775,0,0,0-4.6-1.608,6.156,6.156,0,0,0-4.635,1.7,8.006,8.006,0,0,0-2.071,4.6Z" transform="translate(895.643 -7404.966)" fill="#ff5023"/>
  </g>
</svg>
