<svg id="coreDesign" xmlns="http://www.w3.org/2000/svg" width="100" height="100" viewBox="0 0 100 100">
  <g id="Group_489" data-name="Group 489" transform="translate(-391 -2811)">
    <g id="Group_446" data-name="Group 446" transform="translate(265 -3530)">
      <rect id="Rectangle_75" data-name="Rectangle 75" width="100" height="100" rx="25" transform="translate(126 6341)" fill="#fff"/>
    </g>
  </g>
  <g id="Group_511" data-name="Group 511" transform="translate(-701.208 -486.397)">
    <path id="Path_1606" data-name="Path 1606" d="M779.919,541.843a29.467,29.467,0,1,1-23.265-34.573A29.467,29.467,0,0,1,779.919,541.843Z" fill="#4398d1"/>
    <path id="Path_1607" data-name="Path 1607" d="M765.783,510.727a31.678,31.678,0,0,1-37.157,44.6,29.448,29.448,0,1,0,37.157-44.6Z" fill="#368ec9"/>
    <path id="Path_1608" data-name="Path 1608" d="M762.333,536.189A11.333,11.333,0,1,1,751,524.855,11.334,11.334,0,0,1,762.333,536.189Z" fill="#414952"/>
    <g id="Group_510" data-name="Group 510">
      <path id="Path_1609" data-name="Path 1609" d="M743.183,517.488h0a2.281,2.281,0,0,1,1.48-3.067c.173-.05.347-.1.521-.145a2.28,2.28,0,0,1,2.854,1.858h0a2.282,2.282,0,0,1-1.7,2.527q-.194.052-.384.108A2.283,2.283,0,0,1,743.183,517.488Z" fill="#fff"/>
      <path id="Path_1610" data-name="Path 1610" d="M731.106,532.3h0a2.283,2.283,0,0,1-1.718-2.947,22.619,22.619,0,0,1,5.975-9.574,2.282,2.282,0,0,1,3.4.249h0a2.284,2.284,0,0,1-.284,3.04,18.1,18.1,0,0,0-4.769,7.641A2.284,2.284,0,0,1,731.106,532.3Z" fill="#fff"/>
    </g>
    <path id="Path_1611" data-name="Path 1611" d="M782.7,535.1h-2.213A29.545,29.545,0,0,0,752.093,506.7V504.49A1.093,1.093,0,0,0,751,503.4h0a1.093,1.093,0,0,0-1.093,1.093V506.7A29.545,29.545,0,0,0,721.514,535.1H719.3a1.093,1.093,0,0,0-1.093,1.093h0a1.093,1.093,0,0,0,1.093,1.093h2.213a29.545,29.545,0,0,0,28.393,28.392v2.214A1.093,1.093,0,0,0,751,568.981h0a1.093,1.093,0,0,0,1.093-1.093v-2.214a29.545,29.545,0,0,0,28.393-28.392H782.7a1.093,1.093,0,0,0,1.093-1.093h0A1.093,1.093,0,0,0,782.7,535.1Zm-30.606,28.392v-4.564A1.093,1.093,0,0,0,751,557.831h0a1.093,1.093,0,0,0-1.093,1.093v4.565A27.357,27.357,0,0,1,723.7,537.282h4.563a1.094,1.094,0,0,0,1.094-1.093h0a1.093,1.093,0,0,0-1.094-1.093H723.7a27.358,27.358,0,0,1,26.206-26.207v4.564A1.093,1.093,0,0,0,751,514.546h0a1.093,1.093,0,0,0,1.093-1.093v-4.564A27.358,27.358,0,0,1,778.3,535.1h-4.563a1.093,1.093,0,0,0-1.094,1.093h0a1.094,1.094,0,0,0,1.094,1.093H778.3A27.357,27.357,0,0,1,752.093,563.488Z" fill="#e8594a" stroke="#e8594a" stroke-miterlimit="10" stroke-width="1"/>
  </g>
</svg>
