<svg id="Component_15_1" data-name="Component 15 – 1" xmlns="http://www.w3.org/2000/svg" width="332.054" height="248.057" viewBox="0 0 332.054 248.057">
  <g id="Group_166" data-name="Group 166" transform="translate(757.294 -4901.343)">
    <path id="Path_627" data-name="Path 627" d="M-722.024,4901.779h5.142l-10.614,30.309h-5.225l-10.573-30.309h5.1l6.324,18.845q.5,1.347,1.057,3.472t.726,3.162q.27-1.575.829-3.649t.912-3.068Z" fill="#fff"/>
    <path id="Path_628" data-name="Path 628" d="M-712.881,4932.088v-30.309h4.955v30.309Z" fill="#fff"/>
    <path id="Path_629" data-name="Path 629" d="M-682.447,4923.858a7.628,7.628,0,0,1-2.923,6.344q-2.923,2.3-8.065,2.3a19.249,19.249,0,0,1-8.417-1.6v-4.686a22.782,22.782,0,0,0,4.406,1.534,18.677,18.677,0,0,0,4.343.56,6.911,6.911,0,0,0,4.343-1.119,3.648,3.648,0,0,0,1.4-3.006,3.767,3.767,0,0,0-1.285-2.882,19.345,19.345,0,0,0-5.307-2.8,14.008,14.008,0,0,1-5.846-3.836,8.106,8.106,0,0,1-1.7-5.182,7.257,7.257,0,0,1,2.7-5.971,11.177,11.177,0,0,1,7.235-2.177,21.252,21.252,0,0,1,8.666,1.908l-1.576,4.043a18.942,18.942,0,0,0-7.215-1.7,5.538,5.538,0,0,0-3.648,1.047,3.44,3.44,0,0,0-1.244,2.768,3.892,3.892,0,0,0,.5,2.021,5.064,5.064,0,0,0,1.638,1.586,27.638,27.638,0,0,0,4.1,1.97,22.411,22.411,0,0,1,4.893,2.592,7.6,7.6,0,0,1,2.28,2.716A8.161,8.161,0,0,1-682.447,4923.858Z" fill="#fff"/>
    <path id="Path_630" data-name="Path 630" d="M-652.821,4901.779v19.612a11.629,11.629,0,0,1-1.442,5.877,9.587,9.587,0,0,1-4.167,3.877,14.483,14.483,0,0,1-6.519,1.358q-5.64,0-8.77-2.985a10.805,10.805,0,0,1-3.131-8.21v-19.529h4.976v19.177q0,3.753,1.742,5.535t5.349,1.783q7.007,0,7.006-7.36v-19.135Z" fill="#fff"/>
    <path id="Path_631" data-name="Path 631" d="M-626.264,4932.088l-3.026-8.417h-11.589l-2.965,8.417h-5.225l11.34-30.433h5.391l11.34,30.433ZM-630.6,4919.4l-2.84-8.251q-.31-.829-.86-2.612t-.757-2.613a46.329,46.329,0,0,1-1.638,5.577l-2.736,7.9Z" fill="#fff"/>
    <path id="Path_632" data-name="Path 632" d="M-617,4932.088v-30.309h4.955v26.059h12.833v4.25Z" fill="#fff"/>
    <path id="Path_633" data-name="Path 633" d="M-558.306,4916.643q0,7.506-4.167,11.476t-12,3.969h-8.479v-30.309h9.371q7.234,0,11.257,3.9T-558.306,4916.643Zm-5.224.166q0-10.884-10.18-10.884H-578v22h3.524Q-563.53,4927.921-563.53,4916.809Z" fill="#fff"/>
    <path id="Path_634" data-name="Path 634" d="M-534.651,4932.088H-551.8v-30.309h17.145v4.187h-12.19v8.251h11.423v4.147h-11.423v9.515h12.19Z" fill="#fff"/>
    <path id="Path_635" data-name="Path 635" d="M-510.623,4923.858a7.628,7.628,0,0,1-2.923,6.344q-2.922,2.3-8.065,2.3a19.249,19.249,0,0,1-8.417-1.6v-4.686a22.782,22.782,0,0,0,4.406,1.534,18.685,18.685,0,0,0,4.344.56,6.908,6.908,0,0,0,4.342-1.119,3.649,3.649,0,0,0,1.4-3.006,3.77,3.77,0,0,0-1.285-2.882,19.356,19.356,0,0,0-5.308-2.8,14.008,14.008,0,0,1-5.846-3.836,8.105,8.105,0,0,1-1.7-5.182,7.257,7.257,0,0,1,2.7-5.971,11.178,11.178,0,0,1,7.236-2.177,21.251,21.251,0,0,1,8.665,1.908l-1.575,4.043a18.95,18.95,0,0,0-7.215-1.7,5.539,5.539,0,0,0-3.649,1.047,3.44,3.44,0,0,0-1.244,2.768,3.891,3.891,0,0,0,.5,2.021,5.063,5.063,0,0,0,1.638,1.586,27.685,27.685,0,0,0,4.1,1.97,22.41,22.41,0,0,1,4.893,2.592,7.6,7.6,0,0,1,2.28,2.716A8.146,8.146,0,0,1-510.623,4923.858Z" fill="#fff"/>
    <path id="Path_636" data-name="Path 636" d="M-504.756,4932.088v-30.309h4.955v30.309Z" fill="#fff"/>
    <path id="Path_637" data-name="Path 637" d="M-479.4,4915.648h11.155v15.217a32.155,32.155,0,0,1-5.256,1.264,37.17,37.17,0,0,1-5.442.374q-6.883,0-10.615-4.074t-3.731-11.5q0-7.317,4.208-11.454t11.589-4.136a22.582,22.582,0,0,1,9,1.825l-1.741,4.126a17.524,17.524,0,0,0-7.381-1.7,9.937,9.937,0,0,0-7.671,3.048q-2.82,3.046-2.82,8.334,0,5.556,2.54,8.448t7.308,2.892a23.993,23.993,0,0,0,5.142-.6V4919.9H-479.4Z" fill="#fff"/>
    <path id="Path_638" data-name="Path 638" d="M-435.72,4932.088h-6.074l-14.906-24.152h-.165l.1,1.348q.289,3.855.29,7.049v15.755h-4.5v-30.309h6.013l14.864,24.028h.124q-.041-.478-.165-3.472t-.125-4.676v-15.88h4.54Z" fill="#fff"/>
  </g>
  <g id="Group_352" data-name="Group 352" transform="translate(-1231.325 -3736.986)">
    <g id="Group_169" data-name="Group 169" transform="translate(1986.284 -1164.397)">
      <path id="Path_660" data-name="Path 660" d="M-547.094,5142.526a5.818,5.818,0,0,1-5.362-2.754h-.1l.044,1.231q.059,1.083.058,2.373v6.064h-1.45v-23.13h1.231l.278,2.271h.088a5.753,5.753,0,0,1,5.244-2.578,5.923,5.923,0,0,1,4.915,2.117,9.687,9.687,0,0,1,1.691,6.159,9.331,9.331,0,0,1-1.779,6.087A5.958,5.958,0,0,1-547.094,5142.526Zm-.03-1.289a4.427,4.427,0,0,0,3.786-1.817,8.409,8.409,0,0,0,1.341-5.083q0-7.015-5.068-7.016a5.081,5.081,0,0,0-4.087,1.531q-1.3,1.531-1.3,4.987v.469q0,3.735,1.253,5.332A4.869,4.869,0,0,0-547.124,5141.237Z" fill="#fff"/>
      <path id="Path_661" data-name="Path 661" d="M-526.382,5142.233l-.366-2.52h-.117a7.587,7.587,0,0,1-2.468,2.176,6.606,6.606,0,0,1-3,.637,5.182,5.182,0,0,1-3.647-1.2,4.3,4.3,0,0,1-1.3-3.325,4.105,4.105,0,0,1,1.941-3.619,10.555,10.555,0,0,1,5.618-1.362l3.032-.088v-1.054a5.414,5.414,0,0,0-.923-3.428,3.575,3.575,0,0,0-2.974-1.157,9.954,9.954,0,0,0-4.585,1.23l-.542-1.26a12.135,12.135,0,0,1,5.186-1.23,5.172,5.172,0,0,1,3.919,1.362,5.99,5.99,0,0,1,1.3,4.248v10.591Zm-5.859-1.025a5.472,5.472,0,0,0,4.022-1.457,5.451,5.451,0,0,0,1.471-4.051v-1.568l-2.783.118a10.515,10.515,0,0,0-4.782,1.047,3.016,3.016,0,0,0-1.429,2.761,2.966,2.966,0,0,0,.915,2.321A3.718,3.718,0,0,0-532.241,5141.208Z" fill="#fff"/>
      <path id="Path_662" data-name="Path 662" d="M-513.8,5142.526a6.819,6.819,0,0,1-5.346-2.153,8.675,8.675,0,0,1-1.934-6.006,8.814,8.814,0,0,1,2.007-6.159,7.055,7.055,0,0,1,5.493-2.205,11.051,11.051,0,0,1,3.955.717l-.4,1.289a11.606,11.606,0,0,0-3.589-.688,5.454,5.454,0,0,0-4.439,1.808,7.939,7.939,0,0,0-1.508,5.208,7.69,7.69,0,0,0,1.508,5.046,5.171,5.171,0,0,0,4.219,1.825,10.349,10.349,0,0,0,4.029-.777v1.348A9.133,9.133,0,0,1-513.8,5142.526Z" fill="#fff"/>
      <path id="Path_663" data-name="Path 663" d="M-504.482,5135.246l8.13-8.936h1.758l-6.27,6.8,6.812,9.126H-495.8l-6.049-8.042-2.608,2.373v5.669h-1.45V5119.44h1.45v11.426l-.1,4.38Z" fill="#fff"/>
      <path id="Path_664" data-name="Path 664" d="M-481.718,5142.233l-.367-2.52h-.117a7.586,7.586,0,0,1-2.468,2.176,6.606,6.606,0,0,1-3,.637,5.182,5.182,0,0,1-3.647-1.2,4.3,4.3,0,0,1-1.3-3.325,4.1,4.1,0,0,1,1.942-3.619,10.554,10.554,0,0,1,5.617-1.362l3.032-.088v-1.054a5.414,5.414,0,0,0-.923-3.428,3.575,3.575,0,0,0-2.974-1.157,9.95,9.95,0,0,0-4.584,1.23l-.542-1.26a12.131,12.131,0,0,1,5.185-1.23,5.171,5.171,0,0,1,3.919,1.362,5.989,5.989,0,0,1,1.3,4.248v10.591Zm-5.86-1.025a5.472,5.472,0,0,0,4.022-1.457,5.451,5.451,0,0,0,1.471-4.051v-1.568l-2.783.118a10.515,10.515,0,0,0-4.782,1.047,3.016,3.016,0,0,0-1.429,2.761,2.966,2.966,0,0,0,.915,2.321A3.718,3.718,0,0,0-487.578,5141.208Z" fill="#fff"/>
      <path id="Path_665" data-name="Path 665" d="M-463.071,5126.31v1.011l-3.3.205a5.624,5.624,0,0,1,1.318,3.6,4.866,4.866,0,0,1-1.53,3.729,5.787,5.787,0,0,1-4.109,1.428,9.044,9.044,0,0,1-1.524-.088,3.792,3.792,0,0,0-1.318,1.069,2.156,2.156,0,0,0-.454,1.3,1.2,1.2,0,0,0,.579,1.113,3.93,3.93,0,0,0,1.94.352h2.784a6.461,6.461,0,0,1,3.969,1.047,3.651,3.651,0,0,1,1.377,3.1,4.412,4.412,0,0,1-2.043,3.89,10.432,10.432,0,0,1-5.823,1.369,8.018,8.018,0,0,1-4.651-1.157,3.721,3.721,0,0,1-1.648-3.223,3.816,3.816,0,0,1,1.019-2.724,5.272,5.272,0,0,1,2.761-1.48,2.8,2.8,0,0,1-1.15-.871,2.07,2.07,0,0,1-.432-1.3q0-1.6,2.036-2.812a4.533,4.533,0,0,1-2.168-1.795,5.116,5.116,0,0,1-.777-2.805,5.037,5.037,0,0,1,1.517-3.83A5.691,5.691,0,0,1-470.6,5126a7.544,7.544,0,0,1,2.431.307Zm-12.891,18.618q0,3.282,4.878,3.282,6.27,0,6.27-4a2.3,2.3,0,0,0-.982-2.081,5.982,5.982,0,0,0-3.178-.644h-2.608Q-475.962,5141.486-475.962,5144.928Zm1.216-13.652a3.674,3.674,0,0,0,1.12,2.863,4.283,4.283,0,0,0,3,1.019,4.263,4.263,0,0,0,3.055-1.011,3.858,3.858,0,0,0,1.062-2.93,3.986,3.986,0,0,0-1.091-3.054,4.312,4.312,0,0,0-3.055-1.018,4.049,4.049,0,0,0-3,1.092A4.109,4.109,0,0,0-474.746,5131.276Z" fill="#fff"/>
      <path id="Path_666" data-name="Path 666" d="M-460.009,5121.886q0-1.406.922-1.406a.819.819,0,0,1,.71.366,1.8,1.8,0,0,1,.257,1.04,1.837,1.837,0,0,1-.257,1.04.809.809,0,0,1-.71.381Q-460.009,5123.307-460.009,5121.886Zm1.655,20.347h-1.45V5126.31h1.45Z" fill="#fff"/>
      <path id="Path_667" data-name="Path 667" d="M-441.919,5142.233v-10.327a5.037,5.037,0,0,0-1.01-3.493,4.079,4.079,0,0,0-3.135-1.092,5.428,5.428,0,0,0-4.183,1.443q-1.326,1.443-1.325,4.68v8.789h-1.45V5126.31h1.23l.279,2.183h.088q1.552-2.49,5.522-2.49,5.42,0,5.42,5.815v10.415Z" fill="#fff"/>
      <path id="Path_668" data-name="Path 668" d="M-422.9,5126.31v1.011l-3.3.205a5.625,5.625,0,0,1,1.319,3.6,4.867,4.867,0,0,1-1.531,3.729,5.787,5.787,0,0,1-4.109,1.428,9.044,9.044,0,0,1-1.524-.088,3.791,3.791,0,0,0-1.318,1.069,2.156,2.156,0,0,0-.454,1.3,1.2,1.2,0,0,0,.579,1.113,3.93,3.93,0,0,0,1.94.352h2.784a6.461,6.461,0,0,1,3.969,1.047,3.651,3.651,0,0,1,1.377,3.1,4.412,4.412,0,0,1-2.043,3.89,10.432,10.432,0,0,1-5.823,1.369,8.018,8.018,0,0,1-4.651-1.157,3.721,3.721,0,0,1-1.648-3.223,3.816,3.816,0,0,1,1.019-2.724,5.272,5.272,0,0,1,2.761-1.48,2.8,2.8,0,0,1-1.15-.871,2.07,2.07,0,0,1-.432-1.3q0-1.6,2.036-2.812a4.533,4.533,0,0,1-2.168-1.795,5.116,5.116,0,0,1-.777-2.805,5.037,5.037,0,0,1,1.517-3.83,5.691,5.691,0,0,1,4.094-1.443,7.545,7.545,0,0,1,2.431.307Zm-12.891,18.618q0,3.282,4.878,3.282,6.27,0,6.27-4a2.3,2.3,0,0,0-.982-2.081,5.982,5.982,0,0,0-3.178-.644h-2.608Q-435.8,5141.486-435.8,5144.928Zm1.216-13.652a3.674,3.674,0,0,0,1.12,2.863,4.283,4.283,0,0,0,3,1.019,4.263,4.263,0,0,0,3.055-1.011,3.858,3.858,0,0,0,1.062-2.93,3.986,3.986,0,0,0-1.091-3.054,4.312,4.312,0,0,0-3.055-1.018,4.049,4.049,0,0,0-3,1.092A4.109,4.109,0,0,0-434.58,5131.276Z" fill="#fff"/>
    </g>
    <g id="Group_172" data-name="Group 172" transform="translate(1986.284 -1164.397)">
      <path id="Path_707" data-name="Path 707" d="M-754.959,5121.886q0-1.406.923-1.406a.821.821,0,0,1,.71.367,1.793,1.793,0,0,1,.256,1.039,1.841,1.841,0,0,1-.256,1.041.81.81,0,0,1-.71.381Q-754.96,5123.308-754.959,5121.886Zm1.655,20.348h-1.45V5126.31h1.45Z" fill="#fff"/>
      <path id="Path_708" data-name="Path 708" d="M-746.522,5142.234h-1.45v-22.793h1.45Z" fill="#fff"/>
      <path id="Path_709" data-name="Path 709" d="M-739.739,5142.234h-1.451v-22.793h1.451Z" fill="#fff"/>
      <path id="Path_710" data-name="Path 710" d="M-733.148,5126.31v10.313a5.037,5.037,0,0,0,1.011,3.494,4.079,4.079,0,0,0,3.135,1.092,5.473,5.473,0,0,0,4.182-1.436q1.34-1.436,1.34-4.674v-8.789h1.436v15.924h-1.231l-.263-2.2h-.088q-1.553,2.49-5.523,2.49-5.434,0-5.434-5.816v-10.4Z" fill="#fff"/>
      <path id="Path_711" data-name="Path 711" d="M-706.839,5138.087a3.786,3.786,0,0,1-1.626,3.29,7.91,7.91,0,0,1-4.614,1.15,10.993,10.993,0,0,1-5.069-.983v-1.566a11.188,11.188,0,0,0,5.069,1.2,6.7,6.7,0,0,0,3.582-.783,2.386,2.386,0,0,0,1.222-2.088,2.543,2.543,0,0,0-.974-2.021,10.74,10.74,0,0,0-3.2-1.612,18.4,18.4,0,0,1-3.355-1.486,4.651,4.651,0,0,1-1.457-1.406,3.532,3.532,0,0,1-.491-1.912,3.266,3.266,0,0,1,1.5-2.828,7.291,7.291,0,0,1,4.2-1.04,12.576,12.576,0,0,1,4.893.967l-.542,1.319a11.47,11.47,0,0,0-4.351-.967,6.312,6.312,0,0,0-3.091.644,1.98,1.98,0,0,0-1.142,1.787,2.476,2.476,0,0,0,.885,1.993,12.4,12.4,0,0,0,3.465,1.67,17.069,17.069,0,0,1,3.135,1.4,4.588,4.588,0,0,1,1.473,1.414A3.463,3.463,0,0,1-706.839,5138.087Z" fill="#fff"/>
      <path id="Path_712" data-name="Path 712" d="M-698.533,5141.238a10.816,10.816,0,0,0,2.4-.235v1.172a7.66,7.66,0,0,1-2.432.352,3.957,3.957,0,0,1-3.112-1.129,5.231,5.231,0,0,1-1-3.545V5127.57h-2.358v-.85l2.358-.658.733-3.6h.747v3.851h4.672v1.26H-701.2v10.078a4.6,4.6,0,0,0,.644,2.711A2.341,2.341,0,0,0-698.533,5141.238Z" fill="#fff"/>
      <path id="Path_713" data-name="Path 713" d="M-686.419,5126a12.423,12.423,0,0,1,2.168.206l-.278,1.39a8.494,8.494,0,0,0-2.066-.248,4.009,4.009,0,0,0-3.34,1.729,7.044,7.044,0,0,0-1.3,4.365v8.789h-1.451V5126.31h1.231l.146,2.871h.1a6.729,6.729,0,0,1,2.095-2.467A4.9,4.9,0,0,1-686.419,5126Z" fill="#fff"/>
      <path id="Path_714" data-name="Path 714" d="M-671.346,5142.234l-.366-2.52h-.117a7.581,7.581,0,0,1-2.468,2.176,6.612,6.612,0,0,1-3,.637,5.184,5.184,0,0,1-3.648-1.2,4.3,4.3,0,0,1-1.3-3.326,4.1,4.1,0,0,1,1.941-3.618,10.553,10.553,0,0,1,5.617-1.363l3.033-.088v-1.054a5.414,5.414,0,0,0-.923-3.428,3.577,3.577,0,0,0-2.974-1.156,9.95,9.95,0,0,0-4.585,1.23l-.542-1.26a12.135,12.135,0,0,1,5.186-1.23,5.172,5.172,0,0,1,3.919,1.361,5.989,5.989,0,0,1,1.3,4.248v10.592Zm-5.859-1.025a5.471,5.471,0,0,0,4.021-1.457,5.449,5.449,0,0,0,1.472-4.051v-1.569l-2.783.118a10.505,10.505,0,0,0-4.783,1.048,3.013,3.013,0,0,0-1.428,2.76,2.965,2.965,0,0,0,.915,2.322A3.714,3.714,0,0,0-677.205,5141.209Z" fill="#fff"/>
      <path id="Path_715" data-name="Path 715" d="M-660.916,5141.238a10.81,10.81,0,0,0,2.4-.235v1.172a7.657,7.657,0,0,1-2.431.352,3.957,3.957,0,0,1-3.113-1.129,5.231,5.231,0,0,1-1-3.545V5127.57h-2.358v-.85l2.358-.658.733-3.6h.747v3.851h4.673v1.26h-4.673v10.078a4.607,4.607,0,0,0,.644,2.711A2.341,2.341,0,0,0-660.916,5141.238Z" fill="#fff"/>
      <path id="Path_716" data-name="Path 716" d="M-655.277,5121.886q0-1.406.923-1.406a.82.82,0,0,1,.71.367,1.793,1.793,0,0,1,.257,1.039,1.841,1.841,0,0,1-.257,1.041.809.809,0,0,1-.71.381Q-655.276,5123.308-655.277,5121.886Zm1.656,20.348h-1.45V5126.31h1.45Z" fill="#fff"/>
      <path id="Path_717" data-name="Path 717" d="M-635.12,5134.25a9.021,9.021,0,0,1-1.89,6.087,6.527,6.527,0,0,1-5.215,2.19,6.753,6.753,0,0,1-3.691-1.012,6.46,6.46,0,0,1-2.446-2.9,10.544,10.544,0,0,1-.85-4.365,8.954,8.954,0,0,1,1.89-6.071,6.506,6.506,0,0,1,5.185-2.176,6.383,6.383,0,0,1,5.149,2.206A9.041,9.041,0,0,1-635.12,5134.25Zm-12.569,0a8.111,8.111,0,0,0,1.443,5.121,4.89,4.89,0,0,0,4.08,1.838,4.892,4.892,0,0,0,4.08-1.838,8.117,8.117,0,0,0,1.442-5.121,7.971,7.971,0,0,0-1.458-5.112,4.948,4.948,0,0,0-4.093-1.816,4.878,4.878,0,0,0-4.065,1.808A8.085,8.085,0,0,0-647.689,5134.25Z" fill="#fff"/>
      <path id="Path_718" data-name="Path 718" d="M-619.608,5142.234v-10.328a5.032,5.032,0,0,0-1.01-3.492,4.075,4.075,0,0,0-3.135-1.092,5.424,5.424,0,0,0-4.183,1.443q-1.326,1.441-1.325,4.68v8.789h-1.45V5126.31h1.23l.279,2.184h.088q1.553-2.49,5.522-2.491,5.419,0,5.42,5.815v10.416Z" fill="#fff"/>
    </g>
    <rect id="Rectangle_46" data-name="Rectangle 46" width="14.512" height="14.512" transform="translate(1391.53 3849.07)" fill="#ffda44"/>
    <rect id="Rectangle_47" data-name="Rectangle 47" width="14.512" height="14.512" transform="translate(1391.53 3828.358)" fill="#ffda44"/>
    <path id="Path_743" data-name="Path 743" d="M-508.808,5091.03a18.161,18.161,0,0,0,18.14,18.141V5072.89A18.16,18.16,0,0,0-508.808,5091.03Z" transform="translate(1986.284 -1164.397)" fill="#fff"/>
    <path id="Path_744" data-name="Path 744" d="M-490.668,5072.89v36.281a18.161,18.161,0,0,0,18.141-18.141A18.161,18.161,0,0,0-490.668,5072.89Z" transform="translate(1986.284 -1164.397)" fill="#b4b6bc"/>
    <rect id="Rectangle_48" data-name="Rectangle 48" width="14.512" height="14.512" transform="translate(1294.7 3888.553)" fill="#ffda44"/>
    <path id="Path_745" data-name="Path 745" d="M-702.469,5091.03a18.161,18.161,0,0,0,18.141,18.141V5072.89A18.161,18.161,0,0,0-702.469,5091.03Z" transform="translate(1986.284 -1164.397)" fill="#fff"/>
    <path id="Path_746" data-name="Path 746" d="M-684.328,5072.89v36.281a18.162,18.162,0,0,0,18.141-18.141A18.162,18.162,0,0,0-684.328,5072.89Z" transform="translate(1986.284 -1164.397)" fill="#b4b6bc"/>
    <path id="Path_747" data-name="Path 747" d="M-605.638,4969.577a18.16,18.16,0,0,0,18.14,18.141v-36.281A18.161,18.161,0,0,0-605.638,4969.577Z" transform="translate(1986.284 -1164.397)" fill="#fff"/>
    <path id="Path_748" data-name="Path 748" d="M-587.5,4951.437v36.281a18.161,18.161,0,0,0,18.141-18.141A18.161,18.161,0,0,0-587.5,4951.437Z" transform="translate(1986.284 -1164.397)" fill="#b4b6bc"/>
    <rect id="Rectangle_49" data-name="Rectangle 49" width="14.512" height="14.512" transform="translate(1333.799 3867.624)" fill="#ffda44"/>
    <rect id="Rectangle_50" data-name="Rectangle 50" width="14.512" height="14.512" transform="translate(1353.348 3867.624)" fill="#ffda44"/>
    <rect id="Rectangle_51" data-name="Rectangle 51" width="14.512" height="14.512" transform="translate(1294.7 3867.624)" fill="#ffda44"/>
    <rect id="Rectangle_52" data-name="Rectangle 52" width="14.512" height="14.512" transform="translate(1314.249 3867.624)" fill="#ffda44"/>
    <rect id="Rectangle_53" data-name="Rectangle 53" width="14.512" height="14.512" transform="translate(1371.981 3867.624)" fill="#ffda44"/>
    <rect id="Rectangle_54" data-name="Rectangle 54" width="14.512" height="14.512" transform="translate(1391.53 3867.624)" fill="#ffda44"/>
    <rect id="Rectangle_55" data-name="Rectangle 55" width="14.512" height="14.512" transform="translate(1411.079 3867.624)" fill="#ffda44"/>
    <rect id="Rectangle_56" data-name="Rectangle 56" width="14.512" height="14.512" transform="translate(1429.712 3867.624)" fill="#ffda44"/>
    <rect id="Rectangle_57" data-name="Rectangle 57" width="14.512" height="14.512" transform="translate(1449.261 3867.624)" fill="#ffda44"/>
    <rect id="Rectangle_58" data-name="Rectangle 58" width="14.512" height="14.512" transform="translate(1468.811 3867.624)" fill="#ffda44"/>
    <rect id="Rectangle_59" data-name="Rectangle 59" width="14.512" height="14.512" transform="translate(1488.36 3867.624)" fill="#ffda44"/>
    <rect id="Rectangle_60" data-name="Rectangle 60" width="14.512" height="14.512" transform="translate(1488.36 3888.553)" fill="#ffda44"/>
  </g>
</svg>
