<svg id="Component_14_1" data-name="Component 14 – 1" xmlns="http://www.w3.org/2000/svg" width="461.715" height="278.626" viewBox="0 0 461.715 278.626">
  <g id="Group_165" data-name="Group 165" transform="translate(1279.103 -4901.303)">
    <path id="Path_611" data-name="Path 611" d="M-1279.1,4901.78h9q6.261,0,9.049,1.824a6.39,6.39,0,0,1,2.789,5.764,6.981,6.981,0,0,1-1.369,4.416,6.117,6.117,0,0,1-3.939,2.218v.207a7.818,7.818,0,0,1,4.695,2.374,7.18,7.18,0,0,1,1.5,4.8,7.782,7.782,0,0,1-2.85,6.4q-2.852,2.312-7.93,2.311H-1279.1Zm4.955,12.521h4.768a8.165,8.165,0,0,0,4.54-.984,3.772,3.772,0,0,0,1.431-3.349,3.354,3.354,0,0,0-1.545-3.089,9.667,9.667,0,0,0-4.9-.953h-4.291Zm0,4.023v9.6h5.266a7.752,7.752,0,0,0,4.7-1.192,4.4,4.4,0,0,0,1.586-3.763,4,4,0,0,0-1.617-3.5,8.586,8.586,0,0,0-4.915-1.139Z" fill="#fff"/>
    <path id="Path_612" data-name="Path 612" d="M-1246.119,4919.982v12.107h-4.955V4901.78h8.563q5.867,0,8.686,2.2t2.819,6.635q0,5.658-5.887,8.064l8.562,13.413h-5.639l-7.256-12.107Zm0-4.1h3.442q3.461,0,5.017-1.286a4.666,4.666,0,0,0,1.555-3.815,4.106,4.106,0,0,0-1.68-3.69,9.2,9.2,0,0,0-5.058-1.12h-3.276Z" fill="#fff"/>
    <path id="Path_613" data-name="Path 613" d="M-1205.132,4932.089l-3.027-8.417h-11.589l-2.965,8.417h-5.224l11.34-30.433h5.39l11.34,30.433Zm-4.333-12.687-2.84-8.251q-.31-.829-.861-2.612t-.757-2.613a46.3,46.3,0,0,1-1.637,5.577l-2.737,7.9Z" fill="#fff"/>
    <path id="Path_614" data-name="Path 614" d="M-1170.615,4932.089h-6.074l-14.906-24.152h-.165l.1,1.348q.289,3.855.29,7.049v15.755h-4.5V4901.78h6.013l14.864,24.028h.124q-.04-.477-.165-3.472t-.125-4.676v-15.88h4.54Z" fill="#fff"/>
    <path id="Path_615" data-name="Path 615" d="M-1137.962,4916.644q0,7.506-4.167,11.476t-12,3.969h-8.48V4901.78h9.371q7.234,0,11.257,3.9T-1137.962,4916.644Zm-5.224.166q0-10.884-10.18-10.884h-4.291v22h3.525Q-1143.186,4927.922-1143.186,4916.81Z" fill="#fff"/>
    <path id="Path_616" data-name="Path 616" d="M-1095.773,4916.644q0,7.506-4.167,11.476t-12,3.969h-8.48V4901.78h9.372q7.234,0,11.256,3.9T-1095.773,4916.644Zm-5.225.166q0-10.884-10.179-10.884h-4.291v22h3.524Q-1101,4927.922-1101,4916.81Z" fill="#fff"/>
    <path id="Path_617" data-name="Path 617" d="M-1072.118,4932.089h-17.145V4901.78h17.145v4.187h-12.19v8.251h11.423v4.147h-11.423v9.515h12.19Z" fill="#fff"/>
    <path id="Path_618" data-name="Path 618" d="M-1048.3,4901.78h5.142l-10.614,30.309H-1059l-10.573-30.309h5.1l6.323,18.845q.5,1.347,1.057,3.472t.726,3.162q.27-1.575.829-3.649t.912-3.068Z" fill="#fff"/>
    <path id="Path_619" data-name="Path 619" d="M-1022.01,4932.089h-17.146V4901.78h17.146v4.187H-1034.2v8.251h11.423v4.147H-1034.2v9.515h12.191Z" fill="#fff"/>
    <path id="Path_620" data-name="Path 620" d="M-1015.46,4932.089V4901.78h4.955v26.059h12.833v4.25Z" fill="#fff"/>
    <path id="Path_621" data-name="Path 621" d="M-965.537,4916.893q0,7.4-3.7,11.506t-10.479,4.1q-6.864,0-10.542-4.074t-3.68-11.578q0-7.506,3.7-11.527t10.563-4.022q6.758,0,10.449,4.084T-965.537,4916.893Zm-23.137,0q0,5.6,2.26,8.489a7.976,7.976,0,0,0,6.7,2.893,7.966,7.966,0,0,0,6.665-2.861q2.25-2.862,2.249-8.521,0-5.577-2.229-8.458t-6.644-2.882q-4.458,0-6.727,2.882T-988.674,4916.893Z" fill="#fff"/>
    <path id="Path_622" data-name="Path 622" d="M-938.96,4910.943a8.839,8.839,0,0,1-3.109,7.277q-3.11,2.531-8.853,2.53h-3.151v11.339h-4.955V4901.78h8.729q5.679,0,8.509,2.322T-938.96,4910.943Zm-15.113,5.64h2.633q3.815,0,5.6-1.328a4.829,4.829,0,0,0,1.783-4.146,4.706,4.706,0,0,0-1.6-3.9,7.891,7.891,0,0,0-4.976-1.285h-3.441Z" fill="#fff"/>
    <path id="Path_623" data-name="Path 623" d="M-919.8,4932.089l-8.79-25.313h-.166q.352,5.64.352,10.573v14.74h-4.5V4901.78h6.986l8.418,24.11h.124l8.666-24.11h7.007v30.309h-4.768V4917.1q0-2.259.114-5.888t.2-4.394h-.166l-9.1,25.271Z" fill="#fff"/>
    <path id="Path_624" data-name="Path 624" d="M-876.578,4932.089h-17.145V4901.78h17.145v4.187h-12.19v8.251h11.423v4.147h-11.423v9.515h12.19Z" fill="#fff"/>
    <path id="Path_625" data-name="Path 625" d="M-844.776,4932.089h-6.074l-14.907-24.152h-.165l.1,1.348q.289,3.855.29,7.049v15.755h-4.5V4901.78h6.013l14.864,24.028h.124q-.04-.477-.165-3.472t-.125-4.676v-15.88h4.54Z" fill="#fff"/>
    <path id="Path_626" data-name="Path 626" d="M-826.3,4932.089h-4.955V4906.03h-8.915v-4.25h22.785v4.25H-826.3Z" fill="#fff"/>
  </g>
  <g id="Group_350" data-name="Group 350" transform="translate(-709.683 -3736.946)">
    <g id="Group_168" data-name="Group 168" transform="translate(1986.284 -1164.397)">
      <path id="Path_644" data-name="Path 644" d="M-995.005,5142.234h-1.45v-22.793h1.45Z" fill="#fff"/>
      <path id="Path_645" data-name="Path 645" d="M-976.5,5134.25a9.021,9.021,0,0,1-1.89,6.087,6.526,6.526,0,0,1-5.215,2.19,6.752,6.752,0,0,1-3.691-1.012,6.466,6.466,0,0,1-2.446-2.9,10.544,10.544,0,0,1-.85-4.365,8.954,8.954,0,0,1,1.89-6.071,6.507,6.507,0,0,1,5.185-2.176,6.382,6.382,0,0,1,5.149,2.206A9.041,9.041,0,0,1-976.5,5134.25Zm-12.568,0a8.111,8.111,0,0,0,1.442,5.121,4.89,4.89,0,0,0,4.08,1.838,4.892,4.892,0,0,0,4.08-1.838,8.117,8.117,0,0,0,1.442-5.121,7.97,7.97,0,0,0-1.458-5.112,4.947,4.947,0,0,0-4.093-1.816,4.878,4.878,0,0,0-4.065,1.808A8.085,8.085,0,0,0-989.072,5134.25Z" fill="#fff"/>
      <path id="Path_646" data-name="Path 646" d="M-959.673,5126.31v1.012l-3.3.205a5.624,5.624,0,0,1,1.318,3.6,4.867,4.867,0,0,1-1.53,3.729,5.787,5.787,0,0,1-4.109,1.428,9.045,9.045,0,0,1-1.524-.088,3.79,3.79,0,0,0-1.318,1.068,2.159,2.159,0,0,0-.454,1.3,1.2,1.2,0,0,0,.579,1.113,3.941,3.941,0,0,0,1.94.352h2.784a6.464,6.464,0,0,1,3.969,1.047,3.649,3.649,0,0,1,1.377,3.1,4.414,4.414,0,0,1-2.043,3.891,10.432,10.432,0,0,1-5.823,1.369,8.017,8.017,0,0,1-4.651-1.158,3.721,3.721,0,0,1-1.648-3.223,3.816,3.816,0,0,1,1.019-2.724,5.267,5.267,0,0,1,2.761-1.479,2.8,2.8,0,0,1-1.15-.871,2.072,2.072,0,0,1-.432-1.3q0-1.6,2.036-2.812a4.533,4.533,0,0,1-2.168-1.795,5.116,5.116,0,0,1-.777-2.805,5.036,5.036,0,0,1,1.517-3.83A5.688,5.688,0,0,1-967.2,5126a7.544,7.544,0,0,1,2.431.307Zm-12.891,18.619q0,3.282,4.878,3.282,6.27,0,6.27-4a2.3,2.3,0,0,0-.982-2.081,5.982,5.982,0,0,0-3.178-.644h-2.608Q-972.564,5141.486-972.564,5144.929Zm1.216-13.652a3.675,3.675,0,0,0,1.12,2.863,4.282,4.282,0,0,0,3,1.018,4.263,4.263,0,0,0,3.055-1.01,3.858,3.858,0,0,0,1.062-2.93,3.986,3.986,0,0,0-1.091-3.054,4.312,4.312,0,0,0-3.055-1.018,4.045,4.045,0,0,0-3,1.092A4.1,4.1,0,0,0-971.348,5131.277Z" fill="#fff"/>
      <path id="Path_647" data-name="Path 647" d="M-943.237,5134.25a9.021,9.021,0,0,1-1.89,6.087,6.527,6.527,0,0,1-5.215,2.19,6.753,6.753,0,0,1-3.691-1.012,6.468,6.468,0,0,1-2.447-2.9,10.559,10.559,0,0,1-.849-4.365,8.959,8.959,0,0,1,1.889-6.071,6.509,6.509,0,0,1,5.186-2.176,6.381,6.381,0,0,1,5.148,2.206A9.041,9.041,0,0,1-943.237,5134.25Zm-12.569,0a8.111,8.111,0,0,0,1.443,5.121,4.889,4.889,0,0,0,4.08,1.838,4.893,4.893,0,0,0,4.08-1.838,8.117,8.117,0,0,0,1.442-5.121,7.971,7.971,0,0,0-1.458-5.112,4.95,4.95,0,0,0-4.094-1.816,4.877,4.877,0,0,0-4.064,1.808A8.085,8.085,0,0,0-955.806,5134.25Z" fill="#fff"/>
      <path id="Path_648" data-name="Path 648" d="M-928.955,5138.087a3.786,3.786,0,0,1-1.626,3.29,7.91,7.91,0,0,1-4.614,1.15,10.993,10.993,0,0,1-5.069-.983v-1.566a11.188,11.188,0,0,0,5.069,1.2,6.7,6.7,0,0,0,3.582-.783,2.386,2.386,0,0,0,1.222-2.088,2.543,2.543,0,0,0-.974-2.021,10.736,10.736,0,0,0-3.2-1.612,18.38,18.38,0,0,1-3.354-1.486,4.64,4.64,0,0,1-1.457-1.406,3.532,3.532,0,0,1-.491-1.912,3.266,3.266,0,0,1,1.5-2.828,7.292,7.292,0,0,1,4.2-1.04,12.567,12.567,0,0,1,4.892.967l-.542,1.319a11.461,11.461,0,0,0-4.35-.967,6.312,6.312,0,0,0-3.091.644,1.979,1.979,0,0,0-1.142,1.787,2.473,2.473,0,0,0,.885,1.993,12.388,12.388,0,0,0,3.465,1.67,17.07,17.07,0,0,1,3.135,1.4,4.6,4.6,0,0,1,1.473,1.414A3.463,3.463,0,0,1-928.955,5138.087Z" fill="#fff"/>
      <path id="Path_649" data-name="Path 649" d="M-917.925,5136.8a5.525,5.525,0,0,1,1.077-3.441,12.554,12.554,0,0,1,4.021-3l-1.1-1.2a8.136,8.136,0,0,1-1.435-2.035,4.825,4.825,0,0,1-.469-2.08,4.206,4.206,0,0,1,1.4-3.326,5.486,5.486,0,0,1,3.758-1.231,5.2,5.2,0,0,1,3.6,1.188,4.179,4.179,0,0,1,1.326,3.281,4.412,4.412,0,0,1-1.026,2.82,13.71,13.71,0,0,1-3.706,2.848l6.622,6.695a11.8,11.8,0,0,0,1.523-2.3,15.933,15.933,0,0,0,1.1-2.943h1.406a16.1,16.1,0,0,1-3.062,6.24l3.9,3.926h-1.978l-2.827-2.887a12.7,12.7,0,0,1-2.4,1.928,9.2,9.2,0,0,1-2.308.93,11.5,11.5,0,0,1-2.848.322,7.128,7.128,0,0,1-4.812-1.51A5.269,5.269,0,0,1-917.925,5136.8Zm6.665,4.411a9.019,9.019,0,0,0,3.436-.637,9.509,9.509,0,0,0,3.068-2.147l-7.075-7.1a17.68,17.68,0,0,0-2.878,1.8,4.672,4.672,0,0,0-1.289,1.6,4.721,4.721,0,0,0-.4,2.022,4.123,4.123,0,0,0,1.363,3.281A5.565,5.565,0,0,0-911.26,5141.209Zm-3-16.2a4.093,4.093,0,0,0,.586,2.139,13.7,13.7,0,0,0,2.227,2.549,11.214,11.214,0,0,0,3.237-2.33,3.748,3.748,0,0,0,.908-2.475,2.935,2.935,0,0,0-.908-2.234,3.448,3.448,0,0,0-2.461-.858,3.827,3.827,0,0,0-2.629.85A2.984,2.984,0,0,0-914.263,5125.007Z" fill="#fff"/>
      <path id="Path_650" data-name="Path 650" d="M-1019.1,5177.238a10.826,10.826,0,0,0,2.4-.235v1.172a7.664,7.664,0,0,1-2.432.352,3.957,3.957,0,0,1-3.112-1.129,5.231,5.231,0,0,1-1-3.545V5163.57h-2.359v-.85l2.359-.658.732-3.6h.747v3.851h4.673v1.26h-4.673v10.078a4.6,4.6,0,0,0,.645,2.711A2.338,2.338,0,0,0-1019.1,5177.238Z" fill="#fff"/>
      <path id="Path_651" data-name="Path 651" d="M-1006.987,5162a12.412,12.412,0,0,1,2.167.206l-.278,1.39a8.479,8.479,0,0,0-2.065-.248,4.008,4.008,0,0,0-3.34,1.729,7.044,7.044,0,0,0-1.3,4.365v8.789h-1.45V5162.31h1.23l.147,2.871h.1a6.748,6.748,0,0,1,2.1-2.467A4.908,4.908,0,0,1-1006.987,5162Z" fill="#fff"/>
      <path id="Path_652" data-name="Path 652" d="M-991.914,5178.234l-.366-2.52h-.118a7.578,7.578,0,0,1-2.467,2.176,6.612,6.612,0,0,1-3,.637,5.182,5.182,0,0,1-3.648-1.2,4.3,4.3,0,0,1-1.3-3.326,4.1,4.1,0,0,1,1.942-3.618,10.553,10.553,0,0,1,5.617-1.363l3.032-.088v-1.054a5.408,5.408,0,0,0-.923-3.428,3.574,3.574,0,0,0-2.973-1.156,9.95,9.95,0,0,0-4.585,1.23l-.542-1.26a12.131,12.131,0,0,1,5.185-1.23,5.171,5.171,0,0,1,3.919,1.361,5.99,5.99,0,0,1,1.3,4.248v10.592Zm-5.86-1.025a5.474,5.474,0,0,0,4.022-1.457,5.453,5.453,0,0,0,1.472-4.051v-1.569l-2.784.118a10.5,10.5,0,0,0-4.782,1.048,3.014,3.014,0,0,0-1.429,2.76,2.968,2.968,0,0,0,.915,2.322A3.718,3.718,0,0,0-997.774,5177.209Z" fill="#fff"/>
      <path id="Path_653" data-name="Path 653" d="M-979.859,5162a6.613,6.613,0,0,1,2.989.629,5.949,5.949,0,0,1,2.256,2.155h.087q-.087-1.846-.087-3.619v-5.727h1.435v22.793h-.952l-.366-2.432h-.117a5.891,5.891,0,0,1-5.215,2.725,6.247,6.247,0,0,1-5.039-2.051,9,9,0,0,1-1.743-5.976,9.99,9.99,0,0,1,1.728-6.315A6.026,6.026,0,0,1-979.859,5162Zm0,1.319a4.5,4.5,0,0,0-3.918,1.83,9.071,9.071,0,0,0-1.311,5.318q0,6.768,5.259,6.768a4.773,4.773,0,0,0,3.955-1.569q1.26-1.566,1.26-5.169v-.25q0-3.691-1.239-5.309A4.721,4.721,0,0,0-979.859,5163.322Z" fill="#fff"/>
      <path id="Path_654" data-name="Path 654" d="M-961.4,5178.527a6.94,6.94,0,0,1-5.413-2.139,8.6,8.6,0,0,1-1.94-5.992,9.338,9.338,0,0,1,1.875-6.1,6.188,6.188,0,0,1,5.054-2.293,5.458,5.458,0,0,1,4.438,1.963,8.106,8.106,0,0,1,1.626,5.332v1.172h-11.47a7.533,7.533,0,0,0,1.531,5.01,5.389,5.389,0,0,0,4.3,1.729,13.334,13.334,0,0,0,2.4-.192,14.528,14.528,0,0,0,2.614-.82v1.318a11.622,11.622,0,0,1-2.49.8A13.87,13.87,0,0,1-961.4,5178.527Zm-.424-15.234a4.772,4.772,0,0,0-3.692,1.515,7.163,7.163,0,0,0-1.626,4.373h9.844a6.939,6.939,0,0,0-1.2-4.328A3.96,3.96,0,0,0-961.826,5163.293Z" fill="#fff"/>
      <path id="Path_655" data-name="Path 655" d="M-931.475,5178.234v-10.445a5.2,5.2,0,0,0-.908-3.4,3.447,3.447,0,0,0-2.783-1.068,4.544,4.544,0,0,0-3.618,1.347,6.349,6.349,0,0,0-1.172,4.233v9.332h-1.48v-10.885q0-4.028-3.691-4.027a4.355,4.355,0,0,0-3.648,1.457,7.6,7.6,0,0,0-1.142,4.666v8.789h-1.45V5162.31h1.2l.307,2.184h.088a4.563,4.563,0,0,1,1.875-1.838,5.573,5.573,0,0,1,2.681-.653q3.765,0,4.834,2.827h.059a5.394,5.394,0,0,1,2.087-2.094,6.013,6.013,0,0,1,2.981-.733,5.108,5.108,0,0,1,3.911,1.391,6.319,6.319,0,0,1,1.3,4.424v10.416Z" fill="#fff"/>
      <path id="Path_656" data-name="Path 656" d="M-915.215,5178.234l-.366-2.52h-.117a7.581,7.581,0,0,1-2.468,2.176,6.612,6.612,0,0,1-3,.637,5.183,5.183,0,0,1-3.648-1.2,4.3,4.3,0,0,1-1.3-3.326,4.1,4.1,0,0,1,1.941-3.618,10.553,10.553,0,0,1,5.617-1.363l3.032-.088v-1.054a5.414,5.414,0,0,0-.922-3.428,3.577,3.577,0,0,0-2.974-1.156,9.95,9.95,0,0,0-4.585,1.23l-.542-1.26a12.131,12.131,0,0,1,5.185-1.23,5.17,5.17,0,0,1,3.919,1.361,5.985,5.985,0,0,1,1.3,4.248v10.592Zm-5.859-1.025a5.472,5.472,0,0,0,4.021-1.457,5.449,5.449,0,0,0,1.472-4.051v-1.569l-2.783.118a10.5,10.5,0,0,0-4.783,1.048,3.013,3.013,0,0,0-1.428,2.76,2.964,2.964,0,0,0,.915,2.322A3.714,3.714,0,0,0-921.074,5177.209Z" fill="#fff"/>
      <path id="Path_657" data-name="Path 657" d="M-902.72,5162a12.414,12.414,0,0,1,2.168.206l-.278,1.39a8.487,8.487,0,0,0-2.066-.248,4.011,4.011,0,0,0-3.34,1.729,7.044,7.044,0,0,0-1.3,4.365v8.789h-1.45V5162.31h1.23l.147,2.871h.1a6.738,6.738,0,0,1,2.1-2.467A4.9,4.9,0,0,1-902.72,5162Z" fill="#fff"/>
      <path id="Path_658" data-name="Path 658" d="M-895.894,5171.246l8.13-8.936h1.758l-6.27,6.8,6.812,9.127h-1.743l-6.05-8.043-2.607,2.373v5.67h-1.451v-22.793h1.451v11.426l-.1,4.379Z" fill="#fff"/>
      <path id="Path_659" data-name="Path 659" d="M-872.925,5174.087a3.786,3.786,0,0,1-1.626,3.29,7.91,7.91,0,0,1-4.614,1.15,10.993,10.993,0,0,1-5.069-.983v-1.566a11.188,11.188,0,0,0,5.069,1.2,6.7,6.7,0,0,0,3.582-.783,2.386,2.386,0,0,0,1.222-2.088,2.543,2.543,0,0,0-.974-2.021,10.74,10.74,0,0,0-3.2-1.612,18.4,18.4,0,0,1-3.355-1.486,4.651,4.651,0,0,1-1.457-1.406,3.532,3.532,0,0,1-.491-1.912,3.266,3.266,0,0,1,1.5-2.828,7.291,7.291,0,0,1,4.2-1.04,12.576,12.576,0,0,1,4.893.967l-.542,1.319a11.47,11.47,0,0,0-4.351-.967,6.312,6.312,0,0,0-3.091.644,1.98,1.98,0,0,0-1.142,1.787,2.474,2.474,0,0,0,.886,1.993,12.378,12.378,0,0,0,3.464,1.67,17.069,17.069,0,0,1,3.135,1.4,4.588,4.588,0,0,1,1.473,1.414A3.463,3.463,0,0,1-872.925,5174.087Z" fill="#fff"/>
    </g>
    <g id="Group_171" data-name="Group 171" transform="translate(1986.284 -1164.397)">
      <path id="Path_682" data-name="Path 682" d="M-1214.836,5120.532a6.081,6.081,0,0,1,5.033,2.1q1.69,2.1,1.691,6.146a9.379,9.379,0,0,1-1.779,6.123,6.133,6.133,0,0,1-5,2.153,6.577,6.577,0,0,1-3.062-.7,5.364,5.364,0,0,1-2.153-1.992h-.132l-.41,2.4h-.908v-22.793h1.45v5.728q0,1.289-.059,2.373l-.044,1.245h.1a5.8,5.8,0,0,1,2.19-2.109A6.535,6.535,0,0,1-1214.836,5120.532Zm-.029,1.318a4.724,4.724,0,0,0-4.028,1.611q-1.217,1.613-1.216,5.318v.249q0,3.6,1.267,5.171a4.776,4.776,0,0,0,3.948,1.567,4.529,4.529,0,0,0,3.926-1.824,8.765,8.765,0,0,0,1.318-5.192Q-1209.65,5121.85-1214.865,5121.85Z" fill="#fff"/>
      <path id="Path_683" data-name="Path 683" d="M-1197.433,5120.532a12.461,12.461,0,0,1,2.168.2l-.279,1.391a8.481,8.481,0,0,0-2.065-.249,4.013,4.013,0,0,0-3.34,1.729,7.045,7.045,0,0,0-1.3,4.365v8.789h-1.45v-15.923h1.231l.146,2.872h.1a6.74,6.74,0,0,1,2.094-2.468A4.907,4.907,0,0,1-1197.433,5120.532Z" fill="#fff"/>
      <path id="Path_684" data-name="Path 684" d="M-1182.36,5136.762l-.366-2.519h-.117a7.59,7.59,0,0,1-2.468,2.176,6.625,6.625,0,0,1-3,.636,5.183,5.183,0,0,1-3.648-1.2,4.3,4.3,0,0,1-1.3-3.325,4.1,4.1,0,0,1,1.941-3.618,10.544,10.544,0,0,1,5.617-1.363l3.032-.087v-1.055a5.417,5.417,0,0,0-.922-3.428,3.582,3.582,0,0,0-2.974-1.157,9.951,9.951,0,0,0-4.585,1.23l-.542-1.259a12.126,12.126,0,0,1,5.185-1.231,5.172,5.172,0,0,1,3.919,1.362,5.99,5.99,0,0,1,1.3,4.248v10.591Zm-5.859-1.025a5.464,5.464,0,0,0,4.021-1.457,5.445,5.445,0,0,0,1.472-4.051v-1.567l-2.783.117a10.5,10.5,0,0,0-4.783,1.048,3.013,3.013,0,0,0-1.428,2.76,2.966,2.966,0,0,0,.915,2.322A3.721,3.721,0,0,0-1188.219,5135.737Z" fill="#fff"/>
      <path id="Path_685" data-name="Path 685" d="M-1165.031,5136.762v-10.327a5.034,5.034,0,0,0-1.011-3.493,4.075,4.075,0,0,0-3.134-1.092,5.428,5.428,0,0,0-4.183,1.444q-1.326,1.441-1.325,4.679v8.789h-1.45v-15.923h1.23l.278,2.183h.088q1.552-2.49,5.523-2.49,5.42,0,5.42,5.815v10.415Z" fill="#fff"/>
      <path id="Path_686" data-name="Path 686" d="M-1152.609,5120.532a6.612,6.612,0,0,1,2.988.63,5.941,5.941,0,0,1,2.256,2.153h.088q-.089-1.845-.088-3.618v-5.728h1.436v22.793h-.953l-.366-2.431h-.117a5.893,5.893,0,0,1-5.215,2.724,6.244,6.244,0,0,1-5.039-2.051,9,9,0,0,1-1.743-5.976,9.981,9.981,0,0,1,1.729-6.314A6.026,6.026,0,0,1-1152.609,5120.532Zm0,1.318a4.5,4.5,0,0,0-3.918,1.831,9.066,9.066,0,0,0-1.312,5.318q0,6.766,5.259,6.767a4.772,4.772,0,0,0,3.955-1.567q1.26-1.568,1.26-5.171v-.249q0-3.691-1.238-5.31A4.723,4.723,0,0,0-1152.609,5121.85Z" fill="#fff"/>
      <path id="Path_687" data-name="Path 687" d="M-1129.3,5136.762l-6.153-15.923h1.494l4.117,10.826a33.364,33.364,0,0,1,1.23,3.632h.088q.6-1.991,1.23-3.662l4.117-10.8h1.494l-6.153,15.923Z" fill="#fff"/>
      <path id="Path_688" data-name="Path 688" d="M-1119.225,5116.416q0-1.407.923-1.407a.818.818,0,0,1,.71.367,1.8,1.8,0,0,1,.256,1.04,1.849,1.849,0,0,1-.256,1.04.81.81,0,0,1-.71.38Q-1119.226,5117.836-1119.225,5116.416Zm1.655,20.346h-1.45v-15.923h1.45Z" fill="#fff"/>
      <path id="Path_689" data-name="Path 689" d="M-1102.365,5132.617a3.782,3.782,0,0,1-1.626,3.288,7.91,7.91,0,0,1-4.614,1.15,11.013,11.013,0,0,1-5.069-.981v-1.568a11.186,11.186,0,0,0,5.069,1.2,6.687,6.687,0,0,0,3.582-.784,2.384,2.384,0,0,0,1.223-2.088,2.546,2.546,0,0,0-.975-2.021,10.694,10.694,0,0,0-3.2-1.611,18.339,18.339,0,0,1-3.355-1.487,4.618,4.618,0,0,1-1.457-1.406,3.526,3.526,0,0,1-.491-1.912,3.266,3.266,0,0,1,1.5-2.827,7.292,7.292,0,0,1,4.2-1.04,12.558,12.558,0,0,1,4.893.967l-.542,1.318a11.468,11.468,0,0,0-4.351-.967,6.3,6.3,0,0,0-3.091.645,1.977,1.977,0,0,0-1.142,1.787,2.473,2.473,0,0,0,.886,1.992,12.336,12.336,0,0,0,3.464,1.67,17.1,17.1,0,0,1,3.135,1.4,4.588,4.588,0,0,1,1.473,1.414A3.472,3.472,0,0,1-1102.365,5132.617Z" fill="#fff"/>
      <path id="Path_690" data-name="Path 690" d="M-1097,5120.839v10.313a5.033,5.033,0,0,0,1.011,3.493,4.075,4.075,0,0,0,3.135,1.092,5.477,5.477,0,0,0,4.183-1.436q1.338-1.435,1.339-4.673v-8.789h1.436v15.923h-1.231l-.263-2.2h-.088q-1.552,2.49-5.523,2.49-5.435,0-5.434-5.815v-10.4Z" fill="#fff"/>
      <path id="Path_691" data-name="Path 691" d="M-1070.9,5136.762l-.366-2.519h-.117a7.589,7.589,0,0,1-2.468,2.176,6.625,6.625,0,0,1-3,.636,5.183,5.183,0,0,1-3.648-1.2,4.3,4.3,0,0,1-1.3-3.325,4.1,4.1,0,0,1,1.942-3.618,10.544,10.544,0,0,1,5.617-1.363l3.032-.087v-1.055a5.411,5.411,0,0,0-.923-3.428,3.578,3.578,0,0,0-2.973-1.157,9.95,9.95,0,0,0-4.585,1.23l-.542-1.259a12.125,12.125,0,0,1,5.185-1.231,5.173,5.173,0,0,1,3.919,1.362,5.99,5.99,0,0,1,1.3,4.248v10.591Zm-5.859-1.025a5.464,5.464,0,0,0,4.021-1.457,5.445,5.445,0,0,0,1.472-4.051v-1.567l-2.783.117a10.5,10.5,0,0,0-4.783,1.048,3.013,3.013,0,0,0-1.428,2.76,2.966,2.966,0,0,0,.915,2.322A3.721,3.721,0,0,0-1076.759,5135.737Z" fill="#fff"/>
      <path id="Path_692" data-name="Path 692" d="M-1063.224,5136.762h-1.45v-22.793h1.45Z" fill="#fff"/>
      <path id="Path_693" data-name="Path 693" d="M-1237.782,5152.416q0-1.407.923-1.407a.817.817,0,0,1,.71.367,1.8,1.8,0,0,1,.257,1.04,1.841,1.841,0,0,1-.257,1.04.809.809,0,0,1-.71.38Q-1237.781,5153.836-1237.782,5152.416Zm1.655,20.346h-1.45v-15.923h1.45Z" fill="#fff"/>
      <path id="Path_694" data-name="Path 694" d="M-1224.965,5156.532a6.613,6.613,0,0,1,2.989.63,5.941,5.941,0,0,1,2.256,2.153h.088q-.089-1.845-.088-3.618v-5.728h1.435v22.793h-.952l-.366-2.431h-.117a5.894,5.894,0,0,1-5.215,2.724,6.244,6.244,0,0,1-5.039-2.051,9,9,0,0,1-1.743-5.976,9.987,9.987,0,0,1,1.728-6.314A6.026,6.026,0,0,1-1224.965,5156.532Zm0,1.318a4.5,4.5,0,0,0-3.917,1.831,9.066,9.066,0,0,0-1.312,5.318q0,6.766,5.259,6.767a4.772,4.772,0,0,0,3.955-1.567q1.26-1.568,1.26-5.171v-.249q0-3.691-1.239-5.31A4.724,4.724,0,0,0-1224.965,5157.85Z" fill="#fff"/>
      <path id="Path_695" data-name="Path 695" d="M-1206.507,5173.055a6.944,6.944,0,0,1-5.414-2.138,8.6,8.6,0,0,1-1.94-5.992,9.336,9.336,0,0,1,1.875-6.1,6.187,6.187,0,0,1,5.054-2.293,5.454,5.454,0,0,1,4.438,1.963,8.1,8.1,0,0,1,1.626,5.332V5165h-11.47a7.533,7.533,0,0,0,1.531,5.009,5.385,5.385,0,0,0,4.3,1.729,13.336,13.336,0,0,0,2.395-.191,14.533,14.533,0,0,0,2.614-.82v1.318a11.506,11.506,0,0,1-2.49.8A13.777,13.777,0,0,1-1206.507,5173.055Zm-.425-15.234a4.779,4.779,0,0,0-3.692,1.515,7.166,7.166,0,0,0-1.626,4.374h9.844a6.94,6.94,0,0,0-1.2-4.329A3.959,3.959,0,0,0-1206.932,5157.821Z" fill="#fff"/>
      <path id="Path_696" data-name="Path 696" d="M-1185.37,5172.762v-10.327a5.034,5.034,0,0,0-1.011-3.493,4.075,4.075,0,0,0-3.134-1.092,5.428,5.428,0,0,0-4.183,1.444q-1.326,1.441-1.325,4.679v8.789h-1.45v-15.923h1.23l.278,2.183h.088q1.554-2.49,5.523-2.49,5.42,0,5.42,5.815v10.415Z" fill="#fff"/>
      <path id="Path_697" data-name="Path 697" d="M-1174.574,5171.766a10.9,10.9,0,0,0,2.4-.234v1.172a7.7,7.7,0,0,1-2.431.351,3.953,3.953,0,0,1-3.112-1.128,5.229,5.229,0,0,1-1-3.545V5158.1h-2.359v-.849l2.359-.66.732-3.6h.747v3.852h4.673v1.26h-4.673v10.078a4.6,4.6,0,0,0,.645,2.71A2.338,2.338,0,0,0-1174.574,5171.766Z" fill="#fff"/>
      <path id="Path_698" data-name="Path 698" d="M-1168.934,5152.416q0-1.407.923-1.407a.818.818,0,0,1,.71.367,1.8,1.8,0,0,1,.256,1.04,1.849,1.849,0,0,1-.256,1.04.81.81,0,0,1-.71.38Q-1168.935,5153.836-1168.934,5152.416Zm1.655,20.346h-1.45v-15.923h1.45Z" fill="#fff"/>
      <path id="Path_699" data-name="Path 699" d="M-1157.743,5171.766a10.919,10.919,0,0,0,2.4-.234v1.172a7.707,7.707,0,0,1-2.432.351,3.955,3.955,0,0,1-3.112-1.128,5.229,5.229,0,0,1-1-3.545V5158.1h-2.359v-.849l2.359-.66.732-3.6h.747v3.852h4.673v1.26h-4.673v10.078a4.6,4.6,0,0,0,.645,2.71A2.338,2.338,0,0,0-1157.743,5171.766Z" fill="#fff"/>
      <path id="Path_700" data-name="Path 700" d="M-1154.564,5156.839h1.494l3.369,8.936q1.539,4.116,1.948,5.552h.088q.615-1.89,2.007-5.64l3.369-8.848h1.494l-7.133,18.5a14.427,14.427,0,0,1-1.451,3.047,3.88,3.88,0,0,1-1.369,1.187,4.187,4.187,0,0,1-1.9.4,6.536,6.536,0,0,1-1.861-.307v-1.26a6.87,6.87,0,0,0,1.832.234,2.468,2.468,0,0,0,1.318-.351,3.3,3.3,0,0,0,1.032-1.091,14.328,14.328,0,0,0,1.07-2.344q.608-1.605.784-2.088Z" fill="#fff"/>
      <path id="Path_701" data-name="Path 701" d="M-1124.506,5156.532a6.613,6.613,0,0,1,2.989.63,5.941,5.941,0,0,1,2.256,2.153h.087q-.087-1.845-.087-3.618v-5.728h1.435v22.793h-.952l-.366-2.431h-.117a5.894,5.894,0,0,1-5.215,2.724,6.242,6.242,0,0,1-5.039-2.051,9,9,0,0,1-1.743-5.976,9.987,9.987,0,0,1,1.728-6.314A6.026,6.026,0,0,1-1124.506,5156.532Zm0,1.318a4.505,4.505,0,0,0-3.918,1.831,9.066,9.066,0,0,0-1.311,5.318q0,6.766,5.259,6.767a4.772,4.772,0,0,0,3.955-1.567q1.26-1.568,1.26-5.171v-.249q0-3.691-1.239-5.31A4.723,4.723,0,0,0-1124.506,5157.85Z" fill="#fff"/>
      <path id="Path_702" data-name="Path 702" d="M-1106.049,5173.055a6.943,6.943,0,0,1-5.413-2.138,8.6,8.6,0,0,1-1.94-5.992,9.336,9.336,0,0,1,1.875-6.1,6.187,6.187,0,0,1,5.054-2.293,5.454,5.454,0,0,1,4.438,1.963,8.1,8.1,0,0,1,1.626,5.332V5165h-11.47a7.533,7.533,0,0,0,1.531,5.009,5.384,5.384,0,0,0,4.3,1.729,13.342,13.342,0,0,0,2.4-.191,14.539,14.539,0,0,0,2.614-.82v1.318a11.509,11.509,0,0,1-2.49.8A13.78,13.78,0,0,1-1106.049,5173.055Zm-.424-15.234a4.777,4.777,0,0,0-3.692,1.515,7.166,7.166,0,0,0-1.626,4.374h9.844a6.941,6.941,0,0,0-1.2-4.329A3.96,3.96,0,0,0-1106.473,5157.821Z" fill="#fff"/>
      <path id="Path_703" data-name="Path 703" d="M-1086.141,5168.617a3.782,3.782,0,0,1-1.626,3.288,7.912,7.912,0,0,1-4.615,1.15,11.012,11.012,0,0,1-5.068-.981v-1.568a11.181,11.181,0,0,0,5.068,1.2,6.689,6.689,0,0,0,3.583-.784,2.383,2.383,0,0,0,1.222-2.088,2.545,2.545,0,0,0-.974-2.021,10.7,10.7,0,0,0-3.2-1.611,18.322,18.322,0,0,1-3.354-1.487,4.608,4.608,0,0,1-1.457-1.406,3.526,3.526,0,0,1-.491-1.912,3.266,3.266,0,0,1,1.5-2.827,7.292,7.292,0,0,1,4.2-1.04,12.553,12.553,0,0,1,4.892.967l-.542,1.318a11.46,11.46,0,0,0-4.35-.967,6.3,6.3,0,0,0-3.091.645,1.977,1.977,0,0,0-1.143,1.787,2.473,2.473,0,0,0,.886,1.992,12.346,12.346,0,0,0,3.465,1.67,17.1,17.1,0,0,1,3.135,1.4,4.584,4.584,0,0,1,1.472,1.414A3.464,3.464,0,0,1-1086.141,5168.617Z" fill="#fff"/>
      <path id="Path_704" data-name="Path 704" d="M-1082.245,5152.416q0-1.407.923-1.407a.817.817,0,0,1,.71.367,1.8,1.8,0,0,1,.257,1.04,1.841,1.841,0,0,1-.257,1.04.809.809,0,0,1-.71.38Q-1082.245,5153.836-1082.245,5152.416Zm1.655,20.346h-1.45v-15.923h1.45Z" fill="#fff"/>
      <path id="Path_705" data-name="Path 705" d="M-1062.836,5156.839v1.011l-3.3.205a5.625,5.625,0,0,1,1.319,3.6,4.87,4.87,0,0,1-1.53,3.728,5.793,5.793,0,0,1-4.11,1.428,8.88,8.88,0,0,1-1.523-.088,3.8,3.8,0,0,0-1.319,1.069,2.167,2.167,0,0,0-.454,1.3,1.205,1.205,0,0,0,.579,1.113,3.929,3.929,0,0,0,1.941.352h2.783a6.473,6.473,0,0,1,3.97,1.047,3.652,3.652,0,0,1,1.377,3.1,4.414,4.414,0,0,1-2.043,3.889,10.437,10.437,0,0,1-5.823,1.369,8.016,8.016,0,0,1-4.652-1.157,3.719,3.719,0,0,1-1.647-3.223,3.82,3.82,0,0,1,1.018-2.724,5.273,5.273,0,0,1,2.761-1.48,2.788,2.788,0,0,1-1.149-.871,2.064,2.064,0,0,1-.433-1.3q0-1.6,2.036-2.812a4.538,4.538,0,0,1-2.168-1.795,5.124,5.124,0,0,1-.776-2.8,5.039,5.039,0,0,1,1.516-3.83,5.691,5.691,0,0,1,4.094-1.443,7.553,7.553,0,0,1,2.432.307Zm-12.89,18.619q0,3.281,4.878,3.281,6.269,0,6.269-4a2.3,2.3,0,0,0-.981-2.08,5.973,5.973,0,0,0-3.179-.645h-2.607Q-1075.726,5172.015-1075.726,5175.458Zm1.216-13.653a3.674,3.674,0,0,0,1.12,2.864,4.285,4.285,0,0,0,3,1.018,4.26,4.26,0,0,0,3.054-1.011,3.852,3.852,0,0,0,1.062-2.929,3.986,3.986,0,0,0-1.091-3.055,4.312,4.312,0,0,0-3.055-1.018,4.053,4.053,0,0,0-3,1.092A4.109,4.109,0,0,0-1074.51,5161.805Z" fill="#fff"/>
      <path id="Path_706" data-name="Path 706" d="M-1048.465,5172.762v-10.327a5.034,5.034,0,0,0-1.011-3.493,4.079,4.079,0,0,0-3.135-1.092,5.43,5.43,0,0,0-4.183,1.444q-1.325,1.441-1.325,4.679v8.789h-1.45v-15.923h1.23l.279,2.183h.088q1.553-2.49,5.522-2.49,5.419,0,5.42,5.815v10.415Z" fill="#fff"/>
    </g>
    <rect id="Rectangle_31" data-name="Rectangle 31" width="14.512" height="14.512" transform="translate(933.468 3849.07)" fill="#ffda44"/>
    <rect id="Rectangle_32" data-name="Rectangle 32" width="14.512" height="14.512" transform="translate(933.468 3828.358)" fill="#ffda44"/>
    <path id="Path_737" data-name="Path 737" d="M-966.871,5091.03a18.161,18.161,0,0,0,18.141,18.141V5072.89A18.161,18.161,0,0,0-966.871,5091.03Z" transform="translate(1986.284 -1164.397)" fill="#fff"/>
    <path id="Path_738" data-name="Path 738" d="M-948.73,5072.89v36.281a18.161,18.161,0,0,0,18.14-18.141A18.161,18.161,0,0,0-948.73,5072.89Z" transform="translate(1986.284 -1164.397)" fill="#b4b6bc"/>
    <rect id="Rectangle_33" data-name="Rectangle 33" width="14.512" height="14.512" transform="translate(836.637 3888.553)" fill="#ffda44"/>
    <path id="Path_739" data-name="Path 739" d="M-1160.531,5091.03a18.16,18.16,0,0,0,18.14,18.141V5072.89A18.16,18.16,0,0,0-1160.531,5091.03Z" transform="translate(1986.284 -1164.397)" fill="#fff"/>
    <path id="Path_740" data-name="Path 740" d="M-1142.391,5072.89v36.281a18.161,18.161,0,0,0,18.141-18.141A18.161,18.161,0,0,0-1142.391,5072.89Z" transform="translate(1986.284 -1164.397)" fill="#b4b6bc"/>
    <path id="Path_741" data-name="Path 741" d="M-1063.7,4969.577a18.161,18.161,0,0,0,18.141,18.141v-36.281A18.161,18.161,0,0,0-1063.7,4969.577Z" transform="translate(1986.284 -1164.397)" fill="#fff"/>
    <path id="Path_742" data-name="Path 742" d="M-1045.56,4951.437v36.281a18.161,18.161,0,0,0,18.14-18.141A18.161,18.161,0,0,0-1045.56,4951.437Z" transform="translate(1986.284 -1164.397)" fill="#b4b6bc"/>
    <rect id="Rectangle_34" data-name="Rectangle 34" width="14.512" height="14.512" transform="translate(875.736 3867.624)" fill="#ffda44"/>
    <rect id="Rectangle_35" data-name="Rectangle 35" width="14.512" height="14.512" transform="translate(895.285 3867.624)" fill="#ffda44"/>
    <rect id="Rectangle_36" data-name="Rectangle 36" width="14.512" height="14.512" transform="translate(836.637 3867.624)" fill="#ffda44"/>
    <rect id="Rectangle_37" data-name="Rectangle 37" width="14.512" height="14.512" transform="translate(856.187 3867.624)" fill="#ffda44"/>
    <rect id="Rectangle_38" data-name="Rectangle 38" width="14.512" height="14.512" transform="translate(913.918 3867.624)" fill="#ffda44"/>
    <rect id="Rectangle_39" data-name="Rectangle 39" width="14.512" height="14.512" transform="translate(933.468 3867.624)" fill="#ffda44"/>
    <rect id="Rectangle_40" data-name="Rectangle 40" width="14.512" height="14.512" transform="translate(953.017 3867.624)" fill="#ffda44"/>
    <rect id="Rectangle_41" data-name="Rectangle 41" width="14.512" height="14.512" transform="translate(971.65 3867.624)" fill="#ffda44"/>
    <rect id="Rectangle_42" data-name="Rectangle 42" width="14.512" height="14.512" transform="translate(991.199 3867.624)" fill="#ffda44"/>
    <rect id="Rectangle_43" data-name="Rectangle 43" width="14.512" height="14.512" transform="translate(1010.748 3867.624)" fill="#ffda44"/>
    <rect id="Rectangle_44" data-name="Rectangle 44" width="14.512" height="14.512" transform="translate(1030.298 3867.624)" fill="#ffda44"/>
    <rect id="Rectangle_45" data-name="Rectangle 45" width="14.512" height="14.512" transform="translate(1030.298 3888.553)" fill="#ffda44"/>
  </g>
</svg>
