<svg id="Component" xmlns="http://www.w3.org/2000/svg" width="100" height="100" viewBox="0 0 100 100">
  <g id="Group_489" data-name="Group 489" transform="translate(-391 -2811)">
    <g id="Group_446" data-name="Group 446" transform="translate(265 -3530)">
      <rect id="Rectangle_75" data-name="Rectangle 75" width="100" height="100" rx="25" transform="translate(126 6341)" fill="#fff"/>
    </g>
  </g>
  <g id="Group_506" data-name="Group 506" transform="translate(-471.626 -250.954)">
    <g id="Group_496" data-name="Group 496" transform="translate(498.444 277.143)">
      <path id="Path_1594" data-name="Path 1594" d="M538.955,294.69a17.754,17.754,0,0,1-10.1,17.136,1.9,1.9,0,0,0-1.079,1.721h0a3.2,3.2,0,0,1-3.2,3.2h-7.432a3.2,3.2,0,0,1-3.2-3.2h0a2.562,2.562,0,0,0-1.338-2.234,17.762,17.762,0,1,1,26.349-16.623Z" transform="translate(-503.464 -278.023)" fill="#ffcd00"/>
      <g id="Group_118" data-name="Group 118" transform="translate(5.332 5.33)">
        <path id="Path_427" data-name="Path 427" d="M523.4,285.525a12.434,12.434,0,1,1-12.434,12.434A12.433,12.433,0,0,1,523.4,285.525h0" transform="translate(-510.968 -285.525)" fill="#ffe671"/>
      </g>
      <path id="Path_1595" data-name="Path 1595" d="M518.543,307.41a2.07,2.07,0,0,0,1.671-1.055,1.851,1.851,0,0,1,3.342,0,1.851,1.851,0,0,0,3.342,0,1.852,1.852,0,0,1,3.343,0,2.069,2.069,0,0,0,1.671,1.055" transform="translate(-507.83 -285.921)" fill="none" stroke="#fff" stroke-miterlimit="10" stroke-width="2"/>
      <rect id="Rectangle_80" data-name="Rectangle 80" width="1.421" height="28.419" rx="0.71" transform="matrix(0.966, -0.259, 0.259, 0.966, 9.917, 17.972)" fill="#5c546a"/>
      <rect id="Rectangle_81" data-name="Rectangle 81" width="1.421" height="28.419" rx="0.71" transform="matrix(0.966, 0.259, -0.259, 0.966, 23.507, 17.604)" fill="#5c546a"/>
      <path id="Rectangle_82" data-name="Rectangle 82" d="M0,0H4.348a0,0,0,0,1,0,0V.668A2.174,2.174,0,0,1,2.174,2.842h0A2.174,2.174,0,0,1,0,.668V0A0,0,0,0,1,0,0Z" transform="translate(15.222 43.733)" fill="#5c546a"/>
      <g id="Group_494" data-name="Group 494" transform="translate(10.48 35.524)">
        <path id="Path_1596" data-name="Path 1596" d="M532.047,328.023v4.071a4.973,4.973,0,0,1-4.973,4.973h-3.886a4.973,4.973,0,0,1-4.973-4.973v-4.071Z" transform="translate(-518.214 -328.023)" fill="#868491"/>
      </g>
      <g id="Group_495" data-name="Group 495" transform="translate(17.396)" opacity="0.25">
        <path id="Path_1597" data-name="Path 1597" d="M535.942,311.828a1.9,1.9,0,0,0-1.08,1.719v4.071a4.955,4.955,0,0,1-4.746,4.959,2.168,2.168,0,0,1-2.167,2.018V278.03c.5-.014,1.016-.007,1.535.028a17.764,17.764,0,0,1,6.458,33.769Z" transform="translate(-527.949 -278.023)"/>
      </g>
    </g>
    <g id="Group_499" data-name="Group 499" transform="translate(528.642 307.501)">
      <g id="Group_497" data-name="Group 497">
        <path id="Path_1598" data-name="Path 1598" d="M573.323,332.9l-1.849-.368a11.448,11.448,0,0,0-1.59-3.828l1.05-1.574a1.323,1.323,0,0,0-.166-1.67l-1.085-1.085a1.324,1.324,0,0,0-1.67-.164l-1.572,1.048a11.445,11.445,0,0,0-3.829-1.59l-.37-1.849a1.322,1.322,0,0,0-1.3-1.064h-1.537a1.322,1.322,0,0,0-1.3,1.064l-.368,1.849a11.445,11.445,0,0,0-3.829,1.59l-1.574-1.048a1.324,1.324,0,0,0-1.67.164l-1.085,1.085a1.323,1.323,0,0,0-.164,1.67l1.048,1.574a11.433,11.433,0,0,0-1.59,3.828l-1.85.368a1.326,1.326,0,0,0-1.064,1.3v1.537a1.325,1.325,0,0,0,1.064,1.3l1.85.371a11.432,11.432,0,0,0,1.59,3.828l-1.048,1.572a1.323,1.323,0,0,0,.164,1.67l1.085,1.085a1.323,1.323,0,0,0,1.67.167l1.574-1.051a11.433,11.433,0,0,0,3.829,1.59l.368,1.85a1.323,1.323,0,0,0,1.3,1.064h1.537a1.323,1.323,0,0,0,1.3-1.064l.37-1.85a11.434,11.434,0,0,0,3.829-1.59l1.572,1.051a1.323,1.323,0,0,0,1.67-.167l1.085-1.085a1.323,1.323,0,0,0,.166-1.67l-1.05-1.572a11.448,11.448,0,0,0,1.59-3.828l1.849-.371a1.322,1.322,0,0,0,1.064-1.3v-1.537A1.323,1.323,0,0,0,573.323,332.9Zm-13.145,7.962a5.9,5.9,0,1,1,5.895-5.895A5.9,5.9,0,0,1,560.178,340.859Z" transform="translate(-545.967 -320.753)" fill="#868491"/>
      </g>
      <g id="Group_498" data-name="Group 498" transform="translate(14.215 0.001)" opacity="0.25">
        <path id="Path_1599" data-name="Path 1599" d="M579.118,332.894l-1.852-.365a11.217,11.217,0,0,0-1.591-3.83l1.053-1.575a1.33,1.33,0,0,0-.166-1.67l-1.084-1.084a1.331,1.331,0,0,0-1.67-.166l-1.575,1.053a11.222,11.222,0,0,0-3.83-1.591l-.364-1.852a1.329,1.329,0,0,0-1.3-1.061h-.767v8.309a5.9,5.9,0,0,1,0,11.791v8.317h.767a1.329,1.329,0,0,0,1.3-1.06l.364-1.852a11.539,11.539,0,0,0,3.83-1.59l1.575,1.052a1.33,1.33,0,0,0,1.67-.166l1.084-1.092a1.328,1.328,0,0,0,.166-1.67l-1.053-1.567a11.285,11.285,0,0,0,1.591-3.83l1.852-.372a1.317,1.317,0,0,0,1.06-1.3v-1.535A1.328,1.328,0,0,0,579.118,332.894Z" transform="translate(-565.974 -320.755)"/>
      </g>
    </g>
    <g id="Group_502" data-name="Group 502" transform="translate(531.403 265.954)">
      <g id="Group_500" data-name="Group 500">
        <path id="Path_1600" data-name="Path 1600" d="M570.122,282.729l-1.18-.234a7.305,7.305,0,0,0-1.014-2.442l.669-1a.846.846,0,0,0-.105-1.066l-.693-.693a.846.846,0,0,0-1.067-.1l-1,.667a7.311,7.311,0,0,0-2.443-1.014l-.235-1.18a.844.844,0,0,0-.827-.678h-.981a.841.841,0,0,0-.827.678l-.236,1.18a7.307,7.307,0,0,0-2.442,1.014l-1-.667a.843.843,0,0,0-1.065.1l-.692.693a.843.843,0,0,0-.105,1.066l.669,1a7.311,7.311,0,0,0-1.016,2.442l-1.178.234a.847.847,0,0,0-.68.827v.981a.845.845,0,0,0,.68.827l1.178.238a7.31,7.31,0,0,0,1.016,2.442l-.669,1a.841.841,0,0,0,.105,1.064l.692.693a.841.841,0,0,0,1.065.107l1-.671a7.309,7.309,0,0,0,2.442,1.015l.236,1.18a.843.843,0,0,0,.827.678h.981a.846.846,0,0,0,.827-.678l.235-1.18a7.313,7.313,0,0,0,2.443-1.015l1,.671a.844.844,0,0,0,1.067-.107l.693-.693a.844.844,0,0,0,.105-1.064l-.669-1a7.3,7.3,0,0,0,1.014-2.442l1.18-.238a.841.841,0,0,0,.678-.827v-.981A.844.844,0,0,0,570.122,282.729Zm-8.386,5.08a3.762,3.762,0,1,1,3.761-3.762A3.767,3.767,0,0,1,561.736,287.809Z" transform="translate(-552.668 -274.981)" fill="#868491"/>
      </g>
      <g id="Group_501" data-name="Group 501" transform="translate(9.07)" opacity="0.25">
        <path id="Path_1601" data-name="Path 1601" d="M566.056,282.727l-1.182-.232a7.18,7.18,0,0,0-1.013-2.444l.671-1a.85.85,0,0,0-.107-1.066l-.691-.691a.848.848,0,0,0-1.066-.105l-1,.671a7.134,7.134,0,0,0-2.442-1.016l-.232-1.18a.849.849,0,0,0-.829-.678h-.49v5.3a3.762,3.762,0,0,1,0,7.523v5.305h.49a.849.849,0,0,0,.829-.676l.232-1.18a7.356,7.356,0,0,0,2.442-1.015l1,.671a.848.848,0,0,0,1.066-.105l.691-.7a.849.849,0,0,0,.107-1.066l-.671-1a7.24,7.24,0,0,0,1.013-2.444l1.182-.238a.838.838,0,0,0,.676-.827v-.981A.847.847,0,0,0,566.056,282.727Z" transform="translate(-557.67 -274.981)"/>
      </g>
    </g>
    <g id="Group_505" data-name="Group 505" transform="translate(486.126 306.774)">
      <g id="Group_503" data-name="Group 503">
        <path id="Path_1602" data-name="Path 1602" d="M499.8,325.8l-.925-.184a5.713,5.713,0,0,0-.8-1.914l.525-.787a.661.661,0,0,0-.083-.835l-.543-.542a.661.661,0,0,0-.834-.082l-.786.524a5.709,5.709,0,0,0-1.914-.8l-.185-.925a.661.661,0,0,0-.648-.532h-.769a.661.661,0,0,0-.648.532l-.184.925a5.716,5.716,0,0,0-1.914.8l-.787-.524a.662.662,0,0,0-.835.082l-.543.542a.662.662,0,0,0-.082.835l.524.787a5.727,5.727,0,0,0-.8,1.914l-.924.184a.663.663,0,0,0-.532.649v.768a.663.663,0,0,0,.532.649l.924.185a5.73,5.73,0,0,0,.8,1.915l-.524.786a.662.662,0,0,0,.082.835l.543.542a.662.662,0,0,0,.835.084l.787-.526a5.713,5.713,0,0,0,1.914.8l.184.925a.66.66,0,0,0,.648.531h.769a.66.66,0,0,0,.648-.531l.185-.925a5.707,5.707,0,0,0,1.914-.8l.786.526a.661.661,0,0,0,.834-.084l.543-.542a.661.661,0,0,0,.083-.835l-.525-.786a5.716,5.716,0,0,0,.8-1.915l.925-.185a.662.662,0,0,0,.531-.649v-.768A.662.662,0,0,0,499.8,325.8Zm-6.573,3.981a2.948,2.948,0,1,1,2.948-2.948A2.952,2.952,0,0,1,493.232,329.782Z" transform="translate(-486.126 -319.729)" fill="#868491"/>
      </g>
      <g id="Group_504" data-name="Group 504" transform="translate(7.107 0.001)" opacity="0.25">
        <path id="Path_1603" data-name="Path 1603" d="M502.7,325.8l-.926-.182a5.614,5.614,0,0,0-.8-1.915l.526-.787a.665.665,0,0,0-.083-.835l-.542-.542a.665.665,0,0,0-.835-.083l-.787.526a5.6,5.6,0,0,0-1.915-.8l-.182-.926a.665.665,0,0,0-.649-.53h-.384v4.154a2.948,2.948,0,1,1,0,5.9v4.158h.384a.665.665,0,0,0,.649-.531l.182-.926a5.772,5.772,0,0,0,1.915-.795l.787.526a.665.665,0,0,0,.835-.083l.542-.546a.664.664,0,0,0,.083-.835l-.526-.783a5.652,5.652,0,0,0,.8-1.915l.926-.186a.657.657,0,0,0,.53-.649v-.767A.666.666,0,0,0,502.7,325.8Z" transform="translate(-496.129 -319.731)"/>
      </g>
    </g>
  </g>
</svg>
