<svg id="Component_13_1" data-name="Component 13 – 1" xmlns="http://www.w3.org/2000/svg" width="280.374" height="279" viewBox="0 0 280.374 279">
  <g id="Group_164" data-name="Group 164" transform="translate(1661.595 -4901.344)">
    <path id="Path_603" data-name="Path 603" d="M-1592.191,4923.859a7.627,7.627,0,0,1-2.922,6.344q-2.923,2.3-8.065,2.3a19.246,19.246,0,0,1-8.417-1.6v-4.686a22.792,22.792,0,0,0,4.405,1.534,18.691,18.691,0,0,0,4.344.56,6.911,6.911,0,0,0,4.343-1.119,3.648,3.648,0,0,0,1.4-3.006,3.766,3.766,0,0,0-1.285-2.882,19.344,19.344,0,0,0-5.307-2.8,14.008,14.008,0,0,1-5.846-3.836,8.105,8.105,0,0,1-1.7-5.182,7.257,7.257,0,0,1,2.695-5.971,11.177,11.177,0,0,1,7.235-2.177,21.247,21.247,0,0,1,8.665,1.908l-1.575,4.042a18.956,18.956,0,0,0-7.215-1.7,5.538,5.538,0,0,0-3.648,1.047,3.44,3.44,0,0,0-1.244,2.768,3.892,3.892,0,0,0,.5,2.021,5.066,5.066,0,0,0,1.637,1.586,27.659,27.659,0,0,0,4.1,1.97,22.435,22.435,0,0,1,4.893,2.592,7.613,7.613,0,0,1,2.28,2.716A8.16,8.16,0,0,1-1592.191,4923.859Z" fill="#fff"/>
    <path id="Path_604" data-name="Path 604" d="M-1575.854,4932.089h-4.955V4906.03h-8.914v-4.25h22.784v4.25h-8.915Z" fill="#fff"/>
    <path id="Path_605" data-name="Path 605" d="M-1557.34,4919.982v12.107h-4.955V4901.78h8.562q5.868,0,8.687,2.2t2.819,6.635q0,5.658-5.887,8.064l8.562,13.413h-5.64l-7.255-12.107Zm0-4.1h3.441q3.462,0,5.018-1.286a4.666,4.666,0,0,0,1.555-3.815,4.106,4.106,0,0,0-1.68-3.69,9.2,9.2,0,0,0-5.059-1.12h-3.275Z" fill="#fff"/>
    <path id="Path_606" data-name="Path 606" d="M-1516.354,4932.089l-3.026-8.417h-11.589l-2.965,8.417h-5.224l11.339-30.433h5.391l11.34,30.433Zm-4.333-12.687-2.84-8.251q-.311-.829-.86-2.612t-.757-2.613a46.479,46.479,0,0,1-1.637,5.577l-2.737,7.9Z" fill="#fff"/>
    <path id="Path_607" data-name="Path 607" d="M-1496.617,4932.089h-4.955V4906.03h-8.914v-4.25h22.784v4.25h-8.915Z" fill="#fff"/>
    <path id="Path_608" data-name="Path 608" d="M-1465.913,4932.089h-17.146V4901.78h17.146v4.187H-1478.1v8.251h11.423v4.147H-1478.1v9.515h12.191Z" fill="#fff"/>
    <path id="Path_609" data-name="Path 609" d="M-1446.966,4915.649h11.154v15.217a32.153,32.153,0,0,1-5.256,1.264,37.16,37.16,0,0,1-5.442.374q-6.883,0-10.614-4.074t-3.732-11.5q0-7.317,4.208-11.454t11.589-4.136a22.581,22.581,0,0,1,9,1.825l-1.741,4.125a17.537,17.537,0,0,0-7.381-1.7,9.938,9.938,0,0,0-7.671,3.048q-2.82,3.046-2.819,8.334,0,5.556,2.54,8.448t7.308,2.892a23.986,23.986,0,0,0,5.141-.6V4919.9h-6.282Z" fill="#fff"/>
    <path id="Path_610" data-name="Path 610" d="M-1419.973,4915.608l7.173-13.828h5.391l-10.1,18.555v11.754h-4.976V4920.5l-10.054-18.721h5.39Z" fill="#fff"/>
  </g>
  <g id="Group_351" data-name="Group 351" transform="translate(-324 -3735.539)">
    <g id="Group_167" data-name="Group 167" transform="translate(1986.284 -1164.397)">
      <path id="Path_639" data-name="Path 639" d="M-1444.518,5126.31v10.313a5.036,5.036,0,0,0,1.011,3.494,4.079,4.079,0,0,0,3.135,1.092,5.473,5.473,0,0,0,4.182-1.436q1.339-1.436,1.34-4.674v-8.789h1.436v15.924h-1.231l-.263-2.2H-1435q-1.553,2.49-5.523,2.49-5.434,0-5.434-5.816v-10.4Z" fill="#fff"/>
      <path id="Path_640" data-name="Path 640" d="M-1428.287,5121.886q0-1.406.923-1.406a.821.821,0,0,1,.71.367,1.8,1.8,0,0,1,.256,1.039,1.849,1.849,0,0,1-.256,1.041.81.81,0,0,1-.71.381Q-1428.288,5123.308-1428.287,5121.886Zm1.655,20.348h-1.45V5126.31h1.45Z" fill="#fff"/>
      <path id="Path_641" data-name="Path 641" d="M-1414.093,5120.818l-7.983,21.416h-1.524l7.969-21.416Z" fill="#fff"/>
      <path id="Path_642" data-name="Path 642" d="M-1409.816,5126.31v10.313a5.037,5.037,0,0,0,1.011,3.494,4.079,4.079,0,0,0,3.135,1.092,5.477,5.477,0,0,0,4.183-1.436q1.338-1.436,1.339-4.674v-8.789h1.436v15.924h-1.231l-.263-2.2h-.088q-1.553,2.49-5.523,2.49-5.434,0-5.434-5.816v-10.4Z" fill="#fff"/>
      <path id="Path_643" data-name="Path 643" d="M-1389.469,5134.044l-5.552-7.734h1.67l4.746,6.709,4.7-6.709h1.6l-5.464,7.734,5.86,8.19h-1.685l-5.01-7.106-5.039,7.106h-1.6Z" fill="#fff"/>
    </g>
    <g id="Group_170" data-name="Group 170" transform="translate(1986.284 -1164.397)">
      <path id="Path_669" data-name="Path 669" d="M-1640.832,5119.5a6.081,6.081,0,0,1,5.032,2.1q1.691,2.1,1.691,6.146a9.373,9.373,0,0,1-1.779,6.123,6.131,6.131,0,0,1-5,2.153,6.567,6.567,0,0,1-3.061-.7,5.365,5.365,0,0,1-2.154-1.992h-.131l-.411,2.4h-.908v-22.793h1.45v5.728q0,1.288-.058,2.373l-.044,1.245h.1a5.819,5.819,0,0,1,2.191-2.11A6.55,6.55,0,0,1-1640.832,5119.5Zm-.029,1.318a4.727,4.727,0,0,0-4.029,1.611q-1.215,1.612-1.216,5.318V5128q0,3.6,1.267,5.171a4.777,4.777,0,0,0,3.948,1.567,4.529,4.529,0,0,0,3.926-1.824,8.765,8.765,0,0,0,1.318-5.193Q-1635.647,5120.818-1640.861,5120.817Z" fill="#fff"/>
      <path id="Path_670" data-name="Path 670" d="M-1623.43,5119.5a12.408,12.408,0,0,1,2.168.205l-.278,1.391a8.487,8.487,0,0,0-2.066-.249,4.007,4.007,0,0,0-3.339,1.729,7.038,7.038,0,0,0-1.3,4.365v8.789h-1.45v-15.923h1.23l.147,2.871h.1a6.74,6.74,0,0,1,2.095-2.467A4.9,4.9,0,0,1-1623.43,5119.5Z" fill="#fff"/>
      <path id="Path_671" data-name="Path 671" d="M-1608.357,5135.729l-.366-2.519h-.117a7.575,7.575,0,0,1-2.468,2.175,6.6,6.6,0,0,1-3,.637,5.18,5.18,0,0,1-3.647-1.2,4.3,4.3,0,0,1-1.3-3.325,4.1,4.1,0,0,1,1.941-3.618,10.546,10.546,0,0,1,5.618-1.363l3.032-.088v-1.054a5.416,5.416,0,0,0-.923-3.428,3.577,3.577,0,0,0-2.974-1.157,9.953,9.953,0,0,0-4.585,1.23l-.542-1.26a12.142,12.142,0,0,1,5.186-1.23,5.172,5.172,0,0,1,3.919,1.362,5.989,5.989,0,0,1,1.3,4.248v10.591Zm-5.859-1.025a5.47,5.47,0,0,0,4.021-1.457,5.449,5.449,0,0,0,1.472-4.051v-1.568l-2.783.118a10.5,10.5,0,0,0-4.782,1.048,3.013,3.013,0,0,0-1.429,2.76,2.97,2.97,0,0,0,.915,2.322A3.72,3.72,0,0,0-1614.216,5134.7Z" fill="#fff"/>
      <path id="Path_672" data-name="Path 672" d="M-1591.028,5135.729V5125.4a5.031,5.031,0,0,0-1.01-3.493,4.079,4.079,0,0,0-3.135-1.092,5.429,5.429,0,0,0-4.183,1.443q-1.325,1.444-1.325,4.68v8.789h-1.45v-15.923h1.23l.279,2.183h.088q1.553-2.49,5.522-2.49,5.419,0,5.42,5.815v10.415Z" fill="#fff"/>
      <path id="Path_673" data-name="Path 673" d="M-1578.606,5119.5a6.626,6.626,0,0,1,2.989.629,5.96,5.96,0,0,1,2.256,2.154h.087q-.087-1.847-.087-3.618v-5.728h1.435v22.793h-.952l-.366-2.432h-.117a5.893,5.893,0,0,1-5.215,2.725,6.246,6.246,0,0,1-5.039-2.051,8.993,8.993,0,0,1-1.744-5.976,9.987,9.987,0,0,1,1.729-6.314A6.026,6.026,0,0,1-1578.606,5119.5Zm0,1.318a4.5,4.5,0,0,0-3.918,1.831,9.067,9.067,0,0,0-1.311,5.317q0,6.768,5.259,6.768a4.773,4.773,0,0,0,3.955-1.567q1.26-1.567,1.26-5.171v-.249q0-3.691-1.239-5.31A4.724,4.724,0,0,0-1578.606,5120.817Z" fill="#fff"/>
      <path id="Path_674" data-name="Path 674" d="M-1650.976,5167.584a3.785,3.785,0,0,1-1.626,3.288,7.91,7.91,0,0,1-4.614,1.15,11.009,11.009,0,0,1-5.068-.981v-1.568a11.184,11.184,0,0,0,5.068,1.2,6.686,6.686,0,0,0,3.582-.783,2.386,2.386,0,0,0,1.223-2.088,2.543,2.543,0,0,0-.975-2.021,10.717,10.717,0,0,0-3.2-1.612,18.333,18.333,0,0,1-3.355-1.486,4.641,4.641,0,0,1-1.457-1.406,3.527,3.527,0,0,1-.491-1.912,3.263,3.263,0,0,1,1.5-2.827,7.293,7.293,0,0,1,4.2-1.04,12.575,12.575,0,0,1,4.893.966l-.542,1.319a11.47,11.47,0,0,0-4.351-.967,6.308,6.308,0,0,0-3.09.644,1.979,1.979,0,0,0-1.143,1.788,2.473,2.473,0,0,0,.886,1.992,12.4,12.4,0,0,0,3.465,1.67,17.087,17.087,0,0,1,3.134,1.4,4.574,4.574,0,0,1,1.473,1.414A3.47,3.47,0,0,1-1650.976,5167.584Z" fill="#fff"/>
      <path id="Path_675" data-name="Path 675" d="M-1642.67,5170.733a10.9,10.9,0,0,0,2.4-.234v1.171a7.667,7.667,0,0,1-2.431.352,3.957,3.957,0,0,1-3.113-1.128,5.229,5.229,0,0,1-1-3.545v-10.283h-2.358v-.85l2.358-.659.733-3.6h.747v3.852h4.673v1.26h-4.673v10.078a4.6,4.6,0,0,0,.644,2.71A2.341,2.341,0,0,0-1642.67,5170.733Z" fill="#fff"/>
      <path id="Path_676" data-name="Path 676" d="M-1630.556,5155.5a12.409,12.409,0,0,1,2.168.205l-.278,1.391a8.488,8.488,0,0,0-2.066-.249,4.008,4.008,0,0,0-3.339,1.729,7.038,7.038,0,0,0-1.3,4.365v8.789h-1.45v-15.923h1.23l.147,2.871h.1a6.739,6.739,0,0,1,2.095-2.467A4.9,4.9,0,0,1-1630.556,5155.5Z" fill="#fff"/>
      <path id="Path_677" data-name="Path 677" d="M-1615.483,5171.729l-.366-2.519h-.117a7.575,7.575,0,0,1-2.468,2.175,6.6,6.6,0,0,1-3,.637,5.18,5.18,0,0,1-3.647-1.2,4.3,4.3,0,0,1-1.3-3.325,4.1,4.1,0,0,1,1.941-3.618,10.545,10.545,0,0,1,5.618-1.363l3.032-.088v-1.054a5.416,5.416,0,0,0-.923-3.428,3.577,3.577,0,0,0-2.974-1.157,9.953,9.953,0,0,0-4.585,1.23l-.542-1.26a12.141,12.141,0,0,1,5.186-1.23,5.172,5.172,0,0,1,3.919,1.362,5.989,5.989,0,0,1,1.3,4.248v10.591Zm-5.859-1.025a5.474,5.474,0,0,0,4.022-1.457,5.452,5.452,0,0,0,1.471-4.051v-1.568l-2.783.118a10.5,10.5,0,0,0-4.782,1.048,3.013,3.013,0,0,0-1.429,2.76,2.97,2.97,0,0,0,.915,2.322A3.72,3.72,0,0,0-1621.342,5170.7Z" fill="#fff"/>
      <path id="Path_678" data-name="Path 678" d="M-1605.053,5170.733a10.9,10.9,0,0,0,2.4-.234v1.171a7.667,7.667,0,0,1-2.431.352,3.958,3.958,0,0,1-3.113-1.128,5.235,5.235,0,0,1-1-3.545v-10.283h-2.359v-.85l2.359-.659.732-3.6h.747v3.852h4.673v1.26h-4.673v10.078a4.6,4.6,0,0,0,.645,2.71A2.338,2.338,0,0,0-1605.053,5170.733Z" fill="#fff"/>
      <path id="Path_679" data-name="Path 679" d="M-1592.778,5172.022a6.938,6.938,0,0,1-5.413-2.139,8.592,8.592,0,0,1-1.94-5.991,9.337,9.337,0,0,1,1.875-6.1,6.188,6.188,0,0,1,5.054-2.293,5.456,5.456,0,0,1,4.438,1.962,8.107,8.107,0,0,1,1.626,5.333v1.171h-11.47a7.535,7.535,0,0,0,1.531,5.01,5.386,5.386,0,0,0,4.3,1.729,13.342,13.342,0,0,0,2.4-.191,14.571,14.571,0,0,0,2.614-.82v1.318a11.563,11.563,0,0,1-2.49.8A13.782,13.782,0,0,1-1592.778,5172.022Zm-.424-15.234a4.776,4.776,0,0,0-3.692,1.515,7.163,7.163,0,0,0-1.626,4.373h9.844a6.939,6.939,0,0,0-1.2-4.328A3.96,3.96,0,0,0-1593.2,5156.788Z" fill="#fff"/>
      <path id="Path_680" data-name="Path 680" d="M-1570.321,5155.806v1.011l-3.3.205a5.625,5.625,0,0,1,1.318,3.6,4.87,4.87,0,0,1-1.53,3.728,5.791,5.791,0,0,1-4.11,1.428,8.868,8.868,0,0,1-1.523-.088,3.789,3.789,0,0,0-1.318,1.069,2.157,2.157,0,0,0-.455,1.3,1.2,1.2,0,0,0,.58,1.113,3.927,3.927,0,0,0,1.94.352h2.783a6.462,6.462,0,0,1,3.97,1.047,3.65,3.65,0,0,1,1.377,3.1,4.415,4.415,0,0,1-2.043,3.89,10.434,10.434,0,0,1-5.823,1.369,8.023,8.023,0,0,1-4.652-1.157,3.722,3.722,0,0,1-1.647-3.223,3.82,3.82,0,0,1,1.018-2.724,5.273,5.273,0,0,1,2.761-1.48,2.8,2.8,0,0,1-1.149-.871,2.071,2.071,0,0,1-.433-1.3q0-1.6,2.036-2.812a4.538,4.538,0,0,1-2.168-1.795,5.124,5.124,0,0,1-.776-2.805,5.039,5.039,0,0,1,1.516-3.83,5.691,5.691,0,0,1,4.094-1.443,7.552,7.552,0,0,1,2.432.307Zm-12.891,18.618q0,3.282,4.878,3.282,6.27,0,6.269-4a2.3,2.3,0,0,0-.981-2.08,5.971,5.971,0,0,0-3.179-.645h-2.607Q-1583.212,5170.982-1583.212,5174.424Zm1.216-13.652a3.67,3.67,0,0,0,1.12,2.863,4.28,4.28,0,0,0,3,1.019,4.265,4.265,0,0,0,3.055-1.011,3.858,3.858,0,0,0,1.061-2.93,3.982,3.982,0,0,0-1.091-3.054,4.309,4.309,0,0,0-3.054-1.018,4.046,4.046,0,0,0-3,1.092A4.106,4.106,0,0,0-1582,5160.772Z" fill="#fff"/>
      <path id="Path_681" data-name="Path 681" d="M-1569.721,5155.806h1.494l3.369,8.936q1.539,4.115,1.949,5.552h.088q.615-1.89,2.006-5.64l3.37-8.848h1.494l-7.134,18.5a14.43,14.43,0,0,1-1.45,3.047,3.908,3.908,0,0,1-1.369,1.187,4.188,4.188,0,0,1-1.9.4,6.494,6.494,0,0,1-1.86-.308v-1.259a6.877,6.877,0,0,0,1.831.234,2.468,2.468,0,0,0,1.318-.351,3.283,3.283,0,0,0,1.032-1.091,14.468,14.468,0,0,0,1.071-2.344q.606-1.6.783-2.088Z" fill="#fff"/>
    </g>
    <rect id="Rectangle_10" data-name="Rectangle 10" width="14.512" height="14.512" transform="translate(468.808 3849.271)" fill="#ffda44"/>
    <rect id="Rectangle_11" data-name="Rectangle 11" width="14.512" height="14.512" transform="translate(468.808 3828.56)" fill="#ffda44"/>
    <path id="Path_723" data-name="Path 723" d="M-1431.531,5091.232a18.162,18.162,0,0,0,18.141,18.141v-36.281A18.161,18.161,0,0,0-1431.531,5091.232Z" transform="translate(1986.284 -1164.397)" fill="#fff"/>
    <path id="Path_724" data-name="Path 724" d="M-1413.39,5073.092v36.281a18.162,18.162,0,0,0,18.141-18.141A18.161,18.161,0,0,0-1413.39,5073.092Z" transform="translate(1986.284 -1164.397)" fill="#b4b6bc"/>
    <rect id="Rectangle_12" data-name="Rectangle 12" width="14.512" height="14.512" transform="translate(371.978 3888.754)" fill="#ffda44"/>
    <path id="Path_725" data-name="Path 725" d="M-1625.191,5091.232a18.162,18.162,0,0,0,18.141,18.141v-36.281A18.161,18.161,0,0,0-1625.191,5091.232Z" transform="translate(1986.284 -1164.397)" fill="#fff"/>
    <path id="Path_726" data-name="Path 726" d="M-1607.05,5073.092v36.281a18.161,18.161,0,0,0,18.14-18.141A18.161,18.161,0,0,0-1607.05,5073.092Z" transform="translate(1986.284 -1164.397)" fill="#b4b6bc"/>
    <path id="Path_727" data-name="Path 727" d="M-1528.361,4969.779a18.161,18.161,0,0,0,18.141,18.141v-36.281A18.16,18.16,0,0,0-1528.361,4969.779Z" transform="translate(1986.284 -1164.397)" fill="#fff"/>
    <path id="Path_728" data-name="Path 728" d="M-1510.22,4951.639v36.281a18.161,18.161,0,0,0,18.141-18.141A18.16,18.16,0,0,0-1510.22,4951.639Z" transform="translate(1986.284 -1164.397)" fill="#b4b6bc"/>
    <rect id="Rectangle_19" data-name="Rectangle 19" width="14.512" height="14.512" transform="translate(411.076 3867.825)" fill="#ffda44"/>
    <rect id="Rectangle_20" data-name="Rectangle 20" width="14.512" height="14.512" transform="translate(430.626 3867.825)" fill="#ffda44"/>
    <rect id="Rectangle_21" data-name="Rectangle 21" width="14.512" height="14.512" transform="translate(371.978 3867.825)" fill="#ffda44"/>
    <rect id="Rectangle_22" data-name="Rectangle 22" width="14.512" height="14.512" transform="translate(391.527 3867.825)" fill="#ffda44"/>
    <rect id="Rectangle_23" data-name="Rectangle 23" width="14.512" height="14.512" transform="translate(449.259 3867.825)" fill="#ffda44"/>
    <rect id="Rectangle_24" data-name="Rectangle 24" width="14.512" height="14.512" transform="translate(468.808 3867.825)" fill="#ffda44"/>
    <rect id="Rectangle_25" data-name="Rectangle 25" width="14.512" height="14.512" transform="translate(488.357 3867.825)" fill="#ffda44"/>
    <rect id="Rectangle_26" data-name="Rectangle 26" width="14.512" height="14.512" transform="translate(506.99 3867.825)" fill="#ffda44"/>
    <rect id="Rectangle_27" data-name="Rectangle 27" width="14.512" height="14.512" transform="translate(526.539 3867.825)" fill="#ffda44"/>
    <rect id="Rectangle_28" data-name="Rectangle 28" width="14.512" height="14.512" transform="translate(546.089 3867.825)" fill="#ffda44"/>
    <rect id="Rectangle_29" data-name="Rectangle 29" width="14.512" height="14.512" transform="translate(565.638 3867.825)" fill="#ffda44"/>
    <rect id="Rectangle_30" data-name="Rectangle 30" width="14.512" height="14.512" transform="translate(565.638 3888.754)" fill="#ffda44"/>
  </g>
</svg>
