<svg id="experienceWeb" xmlns="http://www.w3.org/2000/svg" width="100" height="100" viewBox="0 0 100 100">
  <g id="Group_485" data-name="Group 485" transform="translate(-933 -3263)">
    <g id="Group_483" data-name="Group 483" transform="translate(394 124)">
      <g id="Group_477" data-name="Group 477" transform="translate(209 -15)">
        <g id="Group_472" data-name="Group 472" transform="translate(-61 343)">
          <g id="Group_446" data-name="Group 446" transform="translate(265 -3530)">
            <rect id="Rectangle_75" data-name="Rectangle 75" width="100" height="100" rx="25" transform="translate(126 6341)" fill="#fff"/>
          </g>
        </g>
      </g>
    </g>
    <g id="Group_484" data-name="Group 484" transform="translate(-2247.079 -685.26)">
      <path id="Path_450" data-name="Path 450" d="M3251.113,3968.26h-22.759a4.138,4.138,0,0,0-4.137,4.138v2.069h31.034V3972.4A4.138,4.138,0,0,0,3251.113,3968.26Z" transform="translate(-9.655 0)" fill="#126099"/>
      <path id="Path_451" data-name="Path 451" d="M3224.217,4058.6a4.137,4.137,0,0,0,4.137,4.138h22.759a4.138,4.138,0,0,0,4.138-4.138v-4.137h-31.034Z" transform="translate(-9.655 -34.483)" fill="#126099"/>
      <path id="Path_452" data-name="Path 452" d="M3224.217,3978.6h31.034v45.517h-31.034Z" transform="translate(-9.655 -4.138)" fill="#4398d1"/>
      <path id="Path_453" data-name="Path 453" d="M3240.768,4004.639a13.929,13.929,0,0,0-16.552-13.716v27.432a14,14,0,0,0,2.586.249c.175,0,.344-.019.517-.025v2.095h3.1v-2.561A13.958,13.958,0,0,0,3240.768,4004.639Z" transform="translate(-9.655 -8.965)" fill="#3e8cc7"/>
      <path id="Path_454" data-name="Path 454" d="M3224.217,4030.329v2.069h31.034v-33.1Z" transform="translate(-9.655 -12.414)" fill="#3e8cc7"/>
      <path id="Path_455" data-name="Path 455" d="M3248.354,4059.639h2.069v2.069h-2.069Z" transform="translate(-19.31 -36.551)" fill="#3181bd"/>
      <path id="Path_456" data-name="Path 456" d="M3235.25,4003.087a12.369,12.369,0,1,1-3.623-8.791A12.414,12.414,0,0,1,3235.25,4003.087Z" transform="translate(-4.137 -8.966)" fill="#126099"/>
      <path id="Path_457" data-name="Path 457" d="M3232.492,4005.157a4.138,4.138,0,1,1-4.138-4.138A4.138,4.138,0,0,1,3232.492,4005.157Z" transform="translate(-9.655 -13.104)" fill="#fec9a3"/>
      <path id="Path_458" data-name="Path 458" d="M3265.6,4018.26l16.948-14.954a2.252,2.252,0,0,1,3.178,3.178l-14.953,16.948Z" transform="translate(-26.207 -13.793)" fill="#e3584b"/>
      <path id="Path_459" data-name="Path 459" d="M3260.079,4028.6a6.207,6.207,0,0,0-6.207,6.207v1.825a3.743,3.743,0,0,1-2.069,3.348h7.241a6.208,6.208,0,0,0,6.207-6.207Z" transform="translate(-20.689 -24.138)" fill="#87ced9"/>
      <path id="Path_460" data-name="Path 460" d="M3200.079,4045.846h22.759v8.276h-22.759Z" transform="translate(0 -31.034)" fill="#87ced9"/>
      <path id="Path_461" data-name="Path 461" d="M3205.251,4051.019h5.173v2.069h-5.173Z" transform="translate(-2.069 -33.103)" fill="#5eb3d1"/>
      <path id="Path_462" data-name="Path 462" d="M3217.32,4051.019h9.31v2.069h-9.31Z" transform="translate(-6.896 -33.103)" fill="#5eb3d1"/>
      <path id="Path_463" data-name="Path 463" d="M3200.079,3975.157h10.344v8.276h-10.344Z" transform="translate(0 -2.759)" fill="#87ced9"/>
      <path id="Path_464" data-name="Path 464" d="M3205.251,3980.329h4.138v2.069h-4.138Z" transform="translate(-2.069 -4.828)" fill="#5eb3d1"/>
      <path id="Path_465" data-name="Path 465" d="M3226.975,4014.812a6.207,6.207,0,0,0-6.207,6.207v2.471a12.393,12.393,0,0,0,12.414,0v-2.471A6.207,6.207,0,0,0,3226.975,4014.812Z" transform="translate(-8.276 -18.621)" fill="#e3584b"/>
      <path id="Path_466" data-name="Path 466" d="M3236.631,3999.294h-3.156a13.449,13.449,0,0,0-12.361-12.361v-3.156h-2.069v3.156a13.45,13.45,0,0,0-12.361,12.361h-3.156v2.069h3.158a13.388,13.388,0,0,0,12.359,12.366v3.151h2.069v-3.151a13.388,13.388,0,0,0,12.359-12.366h3.158Zm-8.966,9.518a11.33,11.33,0,0,1-6.551,2.849v-2.021h-2.069v2.021a11.348,11.348,0,0,1-10.29-10.3h2.014v-2.069h-2.017A11.391,11.391,0,0,1,3219.044,3989v2.017h2.069V3989a11.391,11.391,0,0,1,10.292,10.292h-2.017v2.069h2.014a11.381,11.381,0,0,1-3.739,7.453Z" transform="translate(-1.379 -6.207)" fill="#e3584b"/>
      <path id="Path_467" data-name="Path 467" d="M3255.251,3978.6h12.414v12.414h-12.414Z" transform="translate(-22.069 -4.138)" fill="#3e8cc7"/>
      <path id="Path_468" data-name="Path 468" d="M3258.7,3975.157h22.759v12.414H3258.7Z" transform="translate(-23.448 -2.759)" fill="#87ced9"/>
      <g id="Group_140" data-name="Group 140" transform="translate(3238.355 3975.501)">
        <path id="Path_469" data-name="Path 469" d="M3263.872,3980.329h4.137v2.069h-4.137Z" transform="translate(-3263.872 -3980.329)" fill="#5eb3d1"/>
        <path id="Path_470" data-name="Path 470" d="M3274.217,3980.329h10.344v2.069h-10.344Z" transform="translate(-3268.01 -3980.329)" fill="#5eb3d1"/>
        <path id="Path_471" data-name="Path 471" d="M3263.872,3987.225h16.552v2.069h-16.552Z" transform="translate(-3263.872 -3983.087)" fill="#5eb3d1"/>
      </g>
    </g>
  </g>
</svg>
