<svg id="experienceGraphic" xmlns="http://www.w3.org/2000/svg" width="100" height="100" viewBox="0 0 100 100">
  <g id="Group_479" data-name="Group 479" transform="translate(-539 -3139)">
    <g id="Group_477" data-name="Group 477" transform="translate(209 -15)">
      <g id="Group_472" data-name="Group 472" transform="translate(-61 343)">
        <g id="Group_446" data-name="Group 446" transform="translate(265 -3530)">
          <rect id="Rectangle_75" data-name="Rectangle 75" width="100" height="100" rx="25" transform="translate(126 6341)" fill="#fff"/>
        </g>
      </g>
    </g>
    <g id="Group_478" data-name="Group 478" transform="translate(-2020.001 -809.433)">
      <path id="Path_487" data-name="Path 487" d="M2636.933,3973.433H2581.07A2.069,2.069,0,0,0,2579,3975.5v33.1h60v-33.1A2.068,2.068,0,0,0,2636.933,3973.433ZM2635.9,4005.5H2582.1v-28.966H2635.9Z" fill="#464655"/>
      <g id="Group_144" data-name="Group 144" transform="translate(2582.105 3976.536)">
        <path id="Path_488" data-name="Path 488" d="M2618.9,3996.511a.517.517,0,0,1,.518.518h1.552v-1.552H2618.9a.517.517,0,0,1,0-1.034h2.069v-6.724h-9.31v9.311h6.724A.517.517,0,0,1,2618.9,3996.511Z" transform="translate(-2598.206 -3983.58)" fill="#fff"/>
        <path id="Path_489" data-name="Path 489" d="M2585.124,4008.521h53.793v-28.966h-53.793Zm22.758-2.586h-2.069a.517.517,0,1,1,0-1.035h2.069a.517.517,0,1,1,0,1.035Zm-2.069-5.173a.517.517,0,0,1,.518.518v2.069a.517.517,0,0,1-1.035,0v-2.069A.517.517,0,0,1,2605.813,4000.762Zm-.517-1.552v-2.069a.517.517,0,1,1,1.035,0v2.069a.517.517,0,1,1-1.035,0Zm6.724,6.725h-2.069a.517.517,0,1,1,0-1.035h2.069a.517.517,0,1,1,0,1.035Zm8.793-2.586a.517.517,0,0,1-1.034,0v-2.069a.517.517,0,1,1,1.034,0Zm0-4.138a.517.517,0,1,1-1.034,0v-2.069a.517.517,0,1,1,1.034,0Zm0-4.138a.517.517,0,1,1-1.034,0V3993a.517.517,0,1,1,1.034,0Zm4.656,1.035v-13.449a1.034,1.034,0,0,1,1.034-1.034h9.31a1.034,1.034,0,0,1,1.035,1.034v22.759a1.035,1.035,0,0,1-1.035,1.035h-9.31a1.035,1.035,0,0,1-1.034-1.035Zm-7.242-5.689h2.069a.517.517,0,1,1,0,1.034h-2.069a.517.517,0,1,1,0-1.034Zm0,14.482h2.069a.517.517,0,0,1,0,1.035h-2.069a.517.517,0,0,1,0-1.035Zm-4.138-14.482h2.069a.517.517,0,1,1,0,1.034h-2.069a.517.517,0,1,1,0-1.034Zm0,14.482h2.069a.517.517,0,0,1,0,1.035h-2.069a.517.517,0,0,1,0-1.035Zm-17.586-22.242a1.034,1.034,0,0,1,1.035-1.034h11.379a1.034,1.034,0,0,1,1.034,1.034v7.759h2.069a.517.517,0,1,1,0,1.034h-2.069v2.587a1.033,1.033,0,0,1-.051.321l2.715,2.432a.415.415,0,0,1-.11.689l-1.029.452.919,2.093a.518.518,0,0,1-.948.416l-.918-2.093-1.029.452a.415.415,0,0,1-.582-.385l.043-3.344-.043,0h-2.586a.517.517,0,1,1-1.035,0h-7.758a1.034,1.034,0,0,1-1.035-1.034v-11.38Zm-9.31,0a1.034,1.034,0,0,1,1.034-1.034h3.1a1.034,1.034,0,0,1,1.035,1.034v22.759a1.035,1.035,0,0,1-1.035,1.035h-3.1a1.035,1.035,0,0,1-1.034-1.035Z" transform="translate(-2585.124 -3979.555)" fill="#fff"/>
      </g>
      <path id="Path_490" data-name="Path 490" d="M2579,4046.958a2.069,2.069,0,0,0,2.069,2.069h55.862a2.069,2.069,0,0,0,2.069-2.069v-4.138h-60Zm30-2.586a1.552,1.552,0,1,1-1.552,1.552A1.552,1.552,0,0,1,2609,4044.372Z" transform="translate(0 -34.215)" fill="#bec8dc"/>
      <path id="Path_491" data-name="Path 491" d="M2620.073,4064.319h18.362l-.646-5.172h-17.069Z" transform="translate(-20.252 -42.266)" fill="#afbbd0"/>
      <path id="Path_492" data-name="Path 492" d="M2618.811,4069.351a1.035,1.035,0,0,0,0,2.069h18.621a1.035,1.035,0,1,0,0-2.069h-18.621Z" transform="translate(-19.121 -47.297)" fill="#bec8dc"/>
      <g id="Group_145" data-name="Group 145" transform="translate(2600.467 4010.157)">
        <path id="Path_493" data-name="Path 493" d="M2621.348,4057.134h17.069l-.259-2.069h-16.552Z" transform="translate(-2621.348 -4050.41)" fill="#96a5b9"/>
        <circle id="Ellipse_4" data-name="Ellipse 4" cx="1.552" cy="1.552" r="1.552" transform="translate(6.983 0)" fill="#96a5b9"/>
      </g>
      <path id="Path_494" data-name="Path 494" d="M2590.24,4008.464h3.1a1.035,1.035,0,0,0,1.035-1.035v-22.759a1.034,1.034,0,0,0-1.035-1.034h-3.1a1.034,1.034,0,0,0-1.035,1.034v22.759A1.035,1.035,0,0,0,2590.24,4008.464Zm1.035-22.759h1.034a1.035,1.035,0,0,1,0,2.069h-1.034a1.035,1.035,0,0,1,0-2.069Zm0,3.1h1.034a1.034,1.034,0,1,1,0,2.069h-1.034a1.034,1.034,0,1,1,0-2.069Zm0,3.1h1.034a1.035,1.035,0,0,1,0,2.069h-1.034a1.035,1.035,0,0,1,0-2.069Zm0,3.1h1.034a1.034,1.034,0,1,1,0,2.069h-1.034a1.034,1.034,0,1,1,0-2.069Zm0,3.1h1.034a1.035,1.035,0,0,1,0,2.069h-1.034a1.035,1.035,0,0,1,0-2.069Zm-1.035,5.172a1.035,1.035,0,0,1,1.035-1.035h1.034a1.035,1.035,0,0,1,1.035,1.035v2.069a1.034,1.034,0,0,1-1.035,1.034h-1.034a1.034,1.034,0,0,1-1.035-1.034Z" transform="translate(-5.032 -5.032)" fill="#bec8dc"/>
      <path id="Path_495" data-name="Path 495" d="M2592.281,3989.787h1.034a1.035,1.035,0,0,0,0-2.069h-1.034a1.035,1.035,0,1,0,0,2.069Z" transform="translate(-6.038 -7.044)" fill="#e4eaf6"/>
      <path id="Path_496" data-name="Path 496" d="M2592.281,3995.909h1.034a1.035,1.035,0,0,0,0-2.069h-1.034a1.035,1.035,0,1,0,0,2.069Z" transform="translate(-6.038 -10.063)" fill="#96a5b9"/>
      <g id="Group_146" data-name="Group 146" transform="translate(2585.208 3986.881)">
        <path id="Path_497" data-name="Path 497" d="M2592.281,4002.032h1.034a1.035,1.035,0,0,0,0-2.069h-1.034a1.035,1.035,0,0,0,0,2.069Z" transform="translate(-2591.246 -3999.963)" fill="#e4eaf6"/>
        <path id="Path_498" data-name="Path 498" d="M2592.281,4008.154h1.034a1.035,1.035,0,0,0,0-2.069h-1.034a1.035,1.035,0,0,0,0,2.069Z" transform="translate(-2591.246 -4002.982)" fill="#e4eaf6"/>
        <path id="Path_499" data-name="Path 499" d="M2592.281,4014.277h1.034a1.034,1.034,0,1,0,0-2.069h-1.034a1.034,1.034,0,1,0,0,2.069Z" transform="translate(-2591.246 -4006.001)" fill="#e4eaf6"/>
      </g>
      <path id="Path_500" data-name="Path 500" d="M2592.281,4024.509h1.034a1.034,1.034,0,0,0,1.034-1.034v-2.069a1.034,1.034,0,0,0-1.034-1.035h-1.034a1.035,1.035,0,0,0-1.035,1.035v2.069A1.034,1.034,0,0,0,2592.281,4024.509Z" transform="translate(-6.038 -23.145)" fill="#96a5b9"/>
      <g id="Group_147" data-name="Group 147" transform="translate(2622.449 3978.605)">
        <path id="Path_501" data-name="Path 501" d="M2676.094,3984.671a1.034,1.034,0,0,0-1.035-1.034h-9.31a1.034,1.034,0,0,0-1.034,1.034v6.207h11.379v-6.207Zm-1.552,5.173h-8.276a.517.517,0,0,1,0-1.034h8.276a.517.517,0,0,1,0,1.034Zm0-2.069h-8.276a.517.517,0,0,1,0-1.035h8.276a.517.517,0,1,1,0,1.035Zm0-2.069h-8.276a.517.517,0,0,1,0-1.034h8.276a.517.517,0,1,1,0,1.034Z" transform="translate(-2664.715 -3983.637)" fill="#bec8dc"/>
        <path id="Path_502" data-name="Path 502" d="M2665.75,4022.553h9.31a1.035,1.035,0,0,0,1.035-1.035v-9.31h-11.379v9.31A1.035,1.035,0,0,0,2665.75,4022.553Zm4.655-9.31h4.138a.517.517,0,0,1,0,1.035H2670.4a.517.517,0,1,1,0-1.035Zm0,2.069h4.138a.517.517,0,0,1,0,1.034H2670.4a.517.517,0,1,1,0-1.034Zm0,2.069h4.138a.517.517,0,0,1,0,1.035H2670.4a.517.517,0,1,1,0-1.035Zm0,2.069h4.138a.517.517,0,0,1,0,1.034H2670.4a.517.517,0,1,1,0-1.034Zm-2.069-6.207h0a.517.517,0,0,1,0,1.035h0a.517.517,0,0,1,0-1.035Zm0,2.069h0a.517.517,0,0,1,0,1.034h0a.517.517,0,0,1,0-1.034Zm0,2.069h0a.517.517,0,0,1,0,1.035h0a.517.517,0,0,1,0-1.035Zm0,2.069h0a.517.517,0,0,1,0,1.034h0a.517.517,0,1,1,0-1.034Zm-2.069-6.207h0a.517.517,0,1,1,0,1.035h0a.517.517,0,0,1,0-1.035Zm0,2.069h0a.517.517,0,1,1,0,1.034h0a.517.517,0,0,1,0-1.034Zm0,2.069h0a.517.517,0,1,1,0,1.035h0a.517.517,0,0,1,0-1.035Zm0,2.069h0a.517.517,0,1,1,0,1.034h0a.517.517,0,1,1,0-1.034Z" transform="translate(-2664.715 -3997.725)" fill="#bec8dc"/>
      </g>
      <g id="Group_148" data-name="Group 148" transform="translate(2622.449 3979.639)">
        <path id="Path_503" data-name="Path 503" d="M2676.094,3997.922h-11.379v7.241h11.379Zm-8.793,6.207h-1.035a.517.517,0,0,1,0-1.035h1.035a.517.517,0,1,1,0,1.035Zm0-2.069h-1.035a.517.517,0,0,1,0-1.035h1.035a.517.517,0,1,1,0,1.035Zm0-2.069h-1.035a.517.517,0,0,1,0-1.035h1.035a.517.517,0,1,1,0,1.035Zm7.242,4.138h-5.173a.517.517,0,1,1,0-1.035h5.173a.517.517,0,0,1,0,1.035Zm0-2.069h-5.173a.517.517,0,1,1,0-1.035h5.173a.517.517,0,0,1,0,1.035Zm0-2.069h-5.173a.517.517,0,1,1,0-1.035h5.173a.517.517,0,0,1,0,1.035Z" transform="translate(-2664.715 -3991.715)" fill="#96a5b9"/>
        <path id="Path_504" data-name="Path 504" d="M2678.065,3985.677h-6.207a.517.517,0,0,1,0,1.034h6.207a.517.517,0,0,0,0-1.034Z" transform="translate(-2668.237 -3985.677)" fill="#96a5b9"/>
        <path id="Path_505" data-name="Path 505" d="M2667.791,3986.195a.517.517,0,0,1,.517-.517h-1.035a.517.517,0,0,0,0,1.034h1.035A.517.517,0,0,1,2667.791,3986.195Z" transform="translate(-2665.721 -3985.677)" fill="#96a5b9"/>
        <path id="Path_506" data-name="Path 506" d="M2680.078,3993.841h-4.138a.517.517,0,0,1,0,1.034h4.138a.517.517,0,0,0,0-1.034Z" transform="translate(-2670.25 -3989.703)" fill="#96a5b9"/>
        <path id="Path_507" data-name="Path 507" d="M2669.859,3994.358a.517.517,0,0,1,.518-.517h-3.1a.517.517,0,0,0,0,1.034h3.1A.517.517,0,0,1,2669.859,3994.358Z" transform="translate(-2665.721 -3989.703)" fill="#96a5b9"/>
      </g>
      <path id="Path_508" data-name="Path 508" d="M2678.568,3999.963H2673.4a.517.517,0,1,0,0,1.035h5.172a.517.517,0,0,0,0-1.035Z" transform="translate(-46.291 -13.082)" fill="#bec8dc"/>
      <g id="Group_149" data-name="Group 149" transform="translate(2623.484 3981.709)">
        <path id="Path_509" data-name="Path 509" d="M2672.963,3990.277a.518.518,0,0,1,.517-.518h-6.207a.517.517,0,0,0,0,1.035h6.207A.517.517,0,0,1,2672.963,3990.277Z" transform="translate(-2666.756 -3989.759)" fill="#96a5b9"/>
        <path id="Path_510" data-name="Path 510" d="M2683.1,3989.759h-1.035a.517.517,0,0,1,0,1.035h1.035a.517.517,0,0,0,0-1.035Z" transform="translate(-2674.303 -3989.759)" fill="#96a5b9"/>
      </g>
      <g id="Group_150" data-name="Group 150" transform="translate(2623.484 3979.639)">
        <path id="Path_511" data-name="Path 511" d="M2670.866,3986.195a.517.517,0,0,0-.517-.517h-1.035a.517.517,0,0,0,0,1.034h1.035A.517.517,0,0,0,2670.866,3986.195Z" transform="translate(-2667.762 -3985.677)" fill="#e4eaf6"/>
        <path id="Path_512" data-name="Path 512" d="M2674.947,3994.358a.517.517,0,0,0-.517-.517H2673.4a.517.517,0,1,0,0,1.034h1.035A.517.517,0,0,0,2674.947,3994.358Z" transform="translate(-2669.775 -3989.703)" fill="#e4eaf6"/>
        <path id="Path_513" data-name="Path 513" d="M2668.308,3999.963h-1.035a.517.517,0,0,0,0,1.035h1.035a.517.517,0,1,0,0-1.035Z" transform="translate(-2666.756 -3992.721)" fill="#e4eaf6"/>
      </g>
      <path id="Path_514" data-name="Path 514" d="M2678.568,4004.045H2673.4a.517.517,0,1,0,0,1.035h5.172a.517.517,0,0,0,0-1.035Z" transform="translate(-46.291 -15.095)" fill="#bec8dc"/>
      <path id="Path_515" data-name="Path 515" d="M2668.308,4004.045h-1.035a.517.517,0,0,0,0,1.035h1.035a.517.517,0,1,0,0-1.035Z" transform="translate(-43.272 -15.095)" fill="#e4eaf6"/>
      <path id="Path_516" data-name="Path 516" d="M2678.568,4008.126H2673.4a.517.517,0,1,0,0,1.035h5.172a.517.517,0,0,0,0-1.035Z" transform="translate(-46.291 -17.107)" fill="#bec8dc"/>
      <g id="Group_151" data-name="Group 151" transform="translate(2623.484 3991.019)">
        <path id="Path_517" data-name="Path 517" d="M2668.308,4008.126h-1.035a.517.517,0,0,0,0,1.035h1.035a.517.517,0,1,0,0-1.035Z" transform="translate(-2666.756 -4008.126)" fill="#e4eaf6"/>
        <path id="Path_518" data-name="Path 518" d="M2667.273,4019.365h0a.517.517,0,1,0,0-1.035h0a.517.517,0,0,0,0,1.035Z" transform="translate(-2666.756 -4013.158)" fill="#e4eaf6"/>
        <path id="Path_519" data-name="Path 519" d="M2667.273,4015.283h0a.517.517,0,1,0,0-1.034h0a.517.517,0,0,0,0,1.034Z" transform="translate(-2666.756 -4011.145)" fill="#e4eaf6"/>
        <path id="Path_520" data-name="Path 520" d="M2667.273,4027.528h0a.517.517,0,1,0,0-1.034h0a.517.517,0,0,0,0,1.034Z" transform="translate(-2666.756 -4017.183)" fill="#e4eaf6"/>
        <path id="Path_521" data-name="Path 521" d="M2667.273,4023.447h0a.517.517,0,1,0,0-1.035h0a.517.517,0,0,0,0,1.035Z" transform="translate(-2666.756 -4015.17)" fill="#e4eaf6"/>
      </g>
      <g id="Group_152" data-name="Group 152" transform="translate(2625.553 3994.123)">
        <path id="Path_522" data-name="Path 522" d="M2671.355,4019.365h0a.517.517,0,0,0,0-1.035h0a.517.517,0,0,0,0,1.035Z" transform="translate(-2670.838 -4016.261)" fill="#96a5b9"/>
        <path id="Path_523" data-name="Path 523" d="M2671.355,4015.283h0a.517.517,0,0,0,0-1.034h0a.517.517,0,0,0,0,1.034Z" transform="translate(-2670.838 -4014.249)" fill="#96a5b9"/>
        <path id="Path_524" data-name="Path 524" d="M2671.355,4027.528h0a.517.517,0,1,0,0-1.034h0a.517.517,0,1,0,0,1.034Z" transform="translate(-2670.838 -4020.287)" fill="#96a5b9"/>
        <path id="Path_525" data-name="Path 525" d="M2671.355,4023.447h0a.517.517,0,0,0,0-1.035h0a.517.517,0,0,0,0,1.035Z" transform="translate(-2670.838 -4018.274)" fill="#96a5b9"/>
        <path id="Path_526" data-name="Path 526" d="M2675.437,4019.365h4.138a.517.517,0,0,0,0-1.035h-4.138a.517.517,0,1,0,0,1.035Z" transform="translate(-2672.85 -4016.261)" fill="#96a5b9"/>
        <path id="Path_527" data-name="Path 527" d="M2675.437,4015.283h4.138a.517.517,0,0,0,0-1.034h-4.138a.517.517,0,1,0,0,1.034Z" transform="translate(-2672.85 -4014.249)" fill="#96a5b9"/>
        <path id="Path_528" data-name="Path 528" d="M2675.437,4027.528h4.138a.517.517,0,1,0,0-1.034h-4.138a.517.517,0,1,0,0,1.034Z" transform="translate(-2672.85 -4020.287)" fill="#96a5b9"/>
        <path id="Path_529" data-name="Path 529" d="M2675.437,4023.447h4.138a.517.517,0,0,0,0-1.035h-4.138a.517.517,0,1,0,0,1.035Z" transform="translate(-2672.85 -4018.274)" fill="#96a5b9"/>
      </g>
      <path id="Path_530" data-name="Path 530" d="M2681.07,3990.277a.517.517,0,0,0-.517-.518h-1.035a.517.517,0,0,0,0,1.035h1.035A.517.517,0,0,0,2681.07,3990.277Z" transform="translate(-49.31 -8.05)" fill="#e4eaf6"/>
      <path id="Path_531" data-name="Path 531" d="M2608.606,3997.085h7.759v-2.069h-6.724v-9.311h9.31v6.725a.517.517,0,0,1,0,1.034v1.552H2617.4v2.069h2.586l.044,0,.008-.622a.415.415,0,0,1,.692-.3l.239.215a1.035,1.035,0,0,0,.051-.322v-2.586a.517.517,0,0,1,0-1.035v-7.759a1.034,1.034,0,0,0-1.035-1.034h-11.379a1.034,1.034,0,0,0-1.034,1.034v11.379A1.034,1.034,0,0,0,2608.606,3997.085Z" transform="translate(-14.088 -5.032)" fill="#ff6469"/>
      <g id="Group_153" data-name="Group 153" transform="translate(2602.277 3987.398)">
        <path id="Path_532" data-name="Path 532" d="M2625.436,4016.332a.517.517,0,0,0,.518-.518v-2.069a.517.517,0,1,0-1.035,0v2.069A.518.518,0,0,0,2625.436,4016.332Z" transform="translate(-2624.919 -4007.021)" fill="#96a5b9"/>
        <path id="Path_533" data-name="Path 533" d="M2649.926,4030.589H2652a.517.517,0,0,0,0-1.034h-2.069a.517.517,0,0,0,0,1.034Z" transform="translate(-2636.995 -4015.072)" fill="#96a5b9"/>
        <path id="Path_534" data-name="Path 534" d="M2654.008,4021.391a.517.517,0,0,0-.517.518v2.069a.517.517,0,1,0,1.034,0v-2.069A.517.517,0,0,0,2654.008,4021.391Z" transform="translate(-2639.008 -4011.046)" fill="#96a5b9"/>
        <path id="Path_535" data-name="Path 535" d="M2649.926,4002.018H2652a.517.517,0,0,0,0-1.035h-2.069a.517.517,0,0,0,0,1.035Z" transform="translate(-2636.995 -4000.983)" fill="#96a5b9"/>
        <path id="Path_536" data-name="Path 536" d="M2654.008,4005.065a.517.517,0,0,0-.517.518v2.069a.517.517,0,1,0,1.034,0v-2.069A.517.517,0,0,0,2654.008,4005.065Z" transform="translate(-2639.008 -4002.996)" fill="#96a5b9"/>
        <path id="Path_537" data-name="Path 537" d="M2635.668,4029.555H2633.6a.517.517,0,1,0,0,1.034h2.069a.517.517,0,1,0,0-1.034Z" transform="translate(-2628.944 -4015.072)" fill="#96a5b9"/>
        <path id="Path_538" data-name="Path 538" d="M2625.436,4005.065a.517.517,0,0,0-.517.518v2.069a.517.517,0,1,0,1.035,0v-2.069A.517.517,0,0,0,2625.436,4005.065Z" transform="translate(-2624.919 -4002.996)" fill="#96a5b9"/>
        <path id="Path_539" data-name="Path 539" d="M2627.505,4029.555h-2.069a.517.517,0,1,0,0,1.034h2.069a.517.517,0,1,0,0-1.034Z" transform="translate(-2624.919 -4015.072)" fill="#96a5b9"/>
        <path id="Path_540" data-name="Path 540" d="M2624.919,4023.978a.517.517,0,0,0,1.035,0v-2.069a.517.517,0,1,0-1.035,0Z" transform="translate(-2624.919 -4011.046)" fill="#96a5b9"/>
        <path id="Path_541" data-name="Path 541" d="M2654.008,4013.228a.517.517,0,0,0-.517.518v2.069a.517.517,0,1,0,1.034,0v-2.069A.517.517,0,0,0,2654.008,4013.228Z" transform="translate(-2639.008 -4007.021)" fill="#96a5b9"/>
        <path id="Path_542" data-name="Path 542" d="M2641.763,4002.018h2.069a.517.517,0,0,0,0-1.035h-2.069a.517.517,0,0,0,0,1.035Z" transform="translate(-2632.97 -4000.983)" fill="#96a5b9"/>
        <path id="Path_543" data-name="Path 543" d="M2624.919,4001.5a.517.517,0,0,0,.518.517h2.069a.517.517,0,1,0,0-1.035h-2.069A.518.518,0,0,0,2624.919,4001.5Z" transform="translate(-2624.919 -4000.983)" fill="#96a5b9"/>
        <path id="Path_544" data-name="Path 544" d="M2641.763,4030.589h2.069a.517.517,0,0,0,0-1.034h-2.069a.517.517,0,0,0,0,1.034Z" transform="translate(-2632.97 -4015.072)" fill="#96a5b9"/>
        <path id="Path_545" data-name="Path 545" d="M2633.082,4001.5a.517.517,0,0,0,.518.517h2.069a.517.517,0,1,0,0-1.035H2633.6A.518.518,0,0,0,2633.082,4001.5Z" transform="translate(-2628.944 -4000.983)" fill="#96a5b9"/>
      </g>
      <path id="Path_546" data-name="Path 546" d="M2632.114,4008.537l-.008.622-.043,3.344a.415.415,0,0,0,.582.386l1.029-.452.919,2.093a.518.518,0,0,0,.948-.416l-.919-2.093,1.029-.452a.415.415,0,0,0,.11-.689l-2.715-2.432-.239-.215A.415.415,0,0,0,2632.114,4008.537Z" transform="translate(-26.164 -17.107)" fill="#464655"/>
    </g>
  </g>
</svg>
