<svg id="Component_11_1" data-name="Component 11 – 1" xmlns="http://www.w3.org/2000/svg" width="138.898" height="197.762" viewBox="0 0 138.898 197.762">
  <g id="Group_139" data-name="Group 139" transform="translate(-3169.726 -3968.26)">
    <g id="Group_138" data-name="Group 138">
      <path id="Path_433" data-name="Path 433" d="M3174.856,4129.722l-5.13-20.219h2.76l2.4,10.23c.6,2.52,1.139,5.039,1.5,6.989h.06c.329-2.01.959-4.41,1.65-7.019l2.7-10.2h2.729l2.46,10.259c.57,2.4,1.11,4.8,1.41,6.93h.06c.42-2.22.99-4.47,1.62-6.989l2.67-10.2h2.67l-5.731,20.219h-2.729l-2.55-10.529a60.909,60.909,0,0,1-1.32-6.6h-.06a63.079,63.079,0,0,1-1.559,6.6l-2.881,10.529Z" fill="#fff"/>
      <path id="Path_434" data-name="Path 434" d="M3207.406,4120.243h-7.859v7.29h8.759v2.189h-11.37V4109.5h10.92v2.19h-8.309v6.39h7.859Z" fill="#fff"/>
      <path id="Path_435" data-name="Path 435" d="M3211.7,4109.773a25.323,25.323,0,0,1,4.771-.42c2.609,0,4.289.45,5.548,1.47a4.237,4.237,0,0,1,1.68,3.57,4.8,4.8,0,0,1-3.42,4.44v.06a5.21,5.21,0,0,1,4.17,5.069,5.449,5.449,0,0,1-1.709,4.05c-1.41,1.29-3.69,1.89-6.99,1.89a30.709,30.709,0,0,1-4.05-.239Zm2.61,8.279h2.37c2.759,0,4.38-1.439,4.38-3.389,0-2.37-1.8-3.3-4.44-3.3a11.205,11.205,0,0,0-2.31.18Zm0,9.691a14,14,0,0,0,2.19.119c2.7,0,5.189-.989,5.189-3.93,0-2.76-2.369-3.9-5.218-3.9h-2.161Z" fill="#fff"/>
      <path id="Path_436" data-name="Path 436" d="M3225.646,4130.922l8.369-21.749h2.04l-8.4,21.749Z" fill="#fff"/>
      <path id="Path_437" data-name="Path 437" d="M3240.855,4109.5v11.969c0,4.531,2.01,6.45,4.71,6.45,3,0,4.92-1.98,4.92-6.45V4109.5h2.64v11.79c0,6.21-3.27,8.759-7.65,8.759-4.139,0-7.259-2.37-7.259-8.639V4109.5Z" fill="#fff"/>
      <path id="Path_438" data-name="Path 438" d="M3260.265,4109.5v20.219h-2.61V4109.5Z" fill="#fff"/>
      <path id="Path_439" data-name="Path 439" d="M3262.515,4130.922l8.37-21.749h2.04l-8.4,21.749Z" fill="#fff"/>
      <path id="Path_440" data-name="Path 440" d="M3277.724,4109.5v11.969c0,4.531,2.01,6.45,4.71,6.45,3,0,4.92-1.98,4.92-6.45V4109.5h2.64v11.79c0,6.21-3.27,8.759-7.649,8.759-4.14,0-7.26-2.37-7.26-8.639V4109.5Z" fill="#fff"/>
      <path id="Path_441" data-name="Path 441" d="M3305.594,4129.722l-2.58-4.469c-1.049-1.71-1.709-2.821-2.34-3.991h-.06c-.569,1.17-1.14,2.25-2.19,4.021l-2.43,4.439h-3l6.18-10.229-5.94-9.99h3.03l2.67,4.74c.75,1.32,1.32,2.34,1.861,3.42h.09c.569-1.2,1.08-2.13,1.83-3.42l2.759-4.74h3l-6.15,9.839,6.3,10.38Z" fill="#fff"/>
      <path id="Path_442" data-name="Path 442" d="M3178.246,4145.773a37.421,37.421,0,0,1,5.551-.42c3.75,0,6.42.87,8.189,2.52a9.312,9.312,0,0,1,2.85,7.259,10.7,10.7,0,0,1-2.91,7.861c-1.89,1.889-5.01,2.909-8.94,2.909a42.424,42.424,0,0,1-4.74-.239Zm2.61,17.879a16.472,16.472,0,0,0,2.64.15c5.58,0,8.609-3.12,8.609-8.58.032-4.769-2.67-7.8-8.189-7.8a14.845,14.845,0,0,0-3.06.27Z" fill="#fff"/>
      <path id="Path_443" data-name="Path 443" d="M3208.7,4156.243h-7.859v7.29h8.76v2.189h-11.37V4145.5h10.919v2.19h-8.309v6.39h7.859Z" fill="#fff"/>
      <path id="Path_444" data-name="Path 444" d="M3212.626,4162.543a9.256,9.256,0,0,0,4.679,1.319c2.67,0,4.23-1.409,4.23-3.449,0-1.891-1.08-2.97-3.81-4.021-3.3-1.17-5.339-2.88-5.339-5.729,0-3.15,2.61-5.49,6.54-5.49a9.176,9.176,0,0,1,4.469.99l-.719,2.13a8.059,8.059,0,0,0-3.84-.96c-2.76,0-3.811,1.65-3.811,3.03,0,1.89,1.231,2.82,4.021,3.9,3.42,1.321,5.159,2.971,5.159,5.941,0,3.12-2.31,5.819-7.079,5.819a10.436,10.436,0,0,1-5.16-1.29Z" fill="#fff"/>
      <path id="Path_445" data-name="Path 445" d="M3230.386,4145.5v20.219h-2.611V4145.5Z" fill="#fff"/>
      <path id="Path_446" data-name="Path 446" d="M3250.336,4164.822a18.805,18.805,0,0,1-6.211,1.11,9.5,9.5,0,0,1-10.379-10.2c.029-6.03,4.17-10.439,10.949-10.439a12.506,12.506,0,0,1,5.04.929l-.63,2.13a10.476,10.476,0,0,0-4.469-.87c-4.92,0-8.13,3.06-8.13,8.13,0,5.13,3.09,8.159,7.8,8.159a8.489,8.489,0,0,0,3.48-.54V4157.2h-4.109v-2.1h6.66Z" fill="#fff"/>
      <path id="Path_447" data-name="Path 447" d="M3254.326,4165.722V4145.5h2.85l6.479,10.23a57.163,57.163,0,0,1,3.63,6.569l.061-.03c-.241-2.7-.3-5.159-.3-8.31V4145.5h2.461v20.219h-2.641l-6.42-10.26a63.876,63.876,0,0,1-3.779-6.75l-.09.031c.149,2.55.209,4.98.209,8.34v8.639Z" fill="#fff"/>
      <path id="Path_448" data-name="Path 448" d="M3284.535,4156.243h-7.859v7.29h8.759v2.189h-11.37V4145.5h10.92v2.19h-8.309v6.39h7.859Z" fill="#fff"/>
      <path id="Path_449" data-name="Path 449" d="M3288.824,4145.773a27.193,27.193,0,0,1,5.01-.42c2.791,0,4.59.51,5.85,1.65a5.035,5.035,0,0,1,1.59,3.839,5.31,5.31,0,0,1-3.809,5.161v.089c1.559.54,2.49,1.981,2.969,4.08a32.162,32.162,0,0,0,1.56,5.55h-2.7a26.153,26.153,0,0,1-1.351-4.83c-.6-2.79-1.68-3.84-4.05-3.93h-2.46v8.76h-2.61Zm2.61,9.21h2.67c2.79,0,4.56-1.53,4.56-3.84,0-2.61-1.89-3.75-4.65-3.78a10.732,10.732,0,0,0-2.58.24Z" fill="#fff"/>
    </g>
  </g>
  <g id="Group_141" data-name="Group 141" transform="translate(-3180.079 -3968.26)">
    <path id="Path_450" data-name="Path 450" d="M3269.044,3968.26h-37.931a6.9,6.9,0,0,0-6.9,6.9v3.448h51.724v-3.448A6.9,6.9,0,0,0,3269.044,3968.26Z" fill="#126099"/>
    <path id="Path_451" data-name="Path 451" d="M3224.217,4061.363a6.9,6.9,0,0,0,6.9,6.9h37.931a6.9,6.9,0,0,0,6.9-6.9v-6.9h-51.724Z" fill="#126099"/>
    <path id="Path_452" data-name="Path 452" d="M3224.217,3978.6h51.724v75.862h-51.724Z" fill="#4398d1"/>
    <path id="Path_453" data-name="Path 453" d="M3251.8,4013.95a23.214,23.214,0,0,0-27.586-22.86v45.72a23.367,23.367,0,0,0,4.31.415c.291,0,.574-.032.862-.042v3.491h5.172v-4.268A23.263,23.263,0,0,0,3251.8,4013.95Z" fill="#3e8cc7"/>
    <path id="Path_454" data-name="Path 454" d="M3224.217,4051.019v3.448h51.724v-55.173Z" fill="#3e8cc7"/>
    <path id="Path_455" data-name="Path 455" d="M3248.354,4059.639h3.449v3.449h-3.449Z" fill="#3181bd"/>
    <path id="Path_456" data-name="Path 456" d="M3251.8,4011.363a20.617,20.617,0,1,1-6.039-14.651A20.69,20.69,0,0,1,3251.8,4011.363Z" fill="#126099"/>
    <path id="Path_457" data-name="Path 457" d="M3238.01,4007.915a6.9,6.9,0,1,1-6.9-6.9A6.9,6.9,0,0,1,3238.01,4007.915Z" fill="#fec9a3"/>
    <path id="Path_458" data-name="Path 458" d="M3265.6,4028.6l28.246-24.923a3.753,3.753,0,0,1,5.3,5.3l-24.922,28.246Z" fill="#e3584b"/>
    <path id="Path_459" data-name="Path 459" d="M3265.6,4028.6a10.346,10.346,0,0,0-10.345,10.345v3.041a6.237,6.237,0,0,1-3.448,5.579h12.069a10.346,10.346,0,0,0,10.345-10.345Z" fill="#87ced9"/>
    <path id="Path_460" data-name="Path 460" d="M3200.079,4045.846h37.931v13.793h-37.931Z" fill="#87ced9"/>
    <path id="Path_461" data-name="Path 461" d="M3205.251,4051.019h8.621v3.448h-8.621Z" fill="#5eb3d1"/>
    <path id="Path_462" data-name="Path 462" d="M3217.32,4051.019h15.517v3.448H3217.32Z" fill="#5eb3d1"/>
    <path id="Path_463" data-name="Path 463" d="M3200.079,3975.157h17.241v13.793h-17.241Z" fill="#87ced9"/>
    <path id="Path_464" data-name="Path 464" d="M3205.251,3980.329h6.9v3.448h-6.9Z" fill="#5eb3d1"/>
    <path id="Path_465" data-name="Path 465" d="M3231.113,4014.812a10.345,10.345,0,0,0-10.345,10.345v4.119a20.655,20.655,0,0,0,20.69,0v-4.119A10.346,10.346,0,0,0,3231.113,4014.812Z" fill="#e3584b"/>
    <path id="Path_466" data-name="Path 466" d="M3258.7,4009.639h-5.26a22.415,22.415,0,0,0-20.6-20.6v-5.26h-3.448v5.26a22.416,22.416,0,0,0-20.6,20.6h-5.26v3.449h5.264a22.314,22.314,0,0,0,20.6,20.61v5.252h3.448V4033.7a22.313,22.313,0,0,0,20.6-20.61h5.264Zm-14.943,15.863a18.881,18.881,0,0,1-10.919,4.748v-3.369h-3.448v3.369a18.914,18.914,0,0,1-17.15-17.162h3.357v-3.449h-3.361a18.985,18.985,0,0,1,17.154-17.154v3.361h3.448v-3.361a18.985,18.985,0,0,1,17.154,17.154h-3.361v3.449h3.357a18.975,18.975,0,0,1-6.231,12.422Z" fill="#e3584b"/>
    <path id="Path_467" data-name="Path 467" d="M3255.251,3978.6h20.69v20.689h-20.69Z" fill="#3e8cc7"/>
    <path id="Path_468" data-name="Path 468" d="M3258.7,3975.157h37.931v20.689H3258.7Z" fill="#87ced9"/>
    <g id="Group_140" data-name="Group 140">
      <path id="Path_469" data-name="Path 469" d="M3263.872,3980.329h6.9v3.448h-6.9Z" fill="#5eb3d1"/>
      <path id="Path_470" data-name="Path 470" d="M3274.217,3980.329h17.241v3.448h-17.241Z" fill="#5eb3d1"/>
      <path id="Path_471" data-name="Path 471" d="M3263.872,3987.225h27.586v3.449h-27.586Z" fill="#5eb3d1"/>
    </g>
  </g>
</svg>
