<svg id="Component_8_1" data-name="Component 8 – 1" xmlns="http://www.w3.org/2000/svg" width="163.797" height="158.685" viewBox="0 0 163.797 158.685">
  <g id="Group_110" data-name="Group 110" transform="translate(-2246.367 -3971.367)">
    <path id="Path_393" data-name="Path 393" d="M2248.976,4109.5v20.219h-2.609V4109.5Z" fill="#fff"/>
    <path id="Path_394" data-name="Path 394" d="M2253.537,4109.5h2.609v18.03h8.64v2.189h-11.249Z" fill="#fff"/>
    <path id="Path_395" data-name="Path 395" d="M2267.7,4109.5h2.61v18.03h8.639v2.189H2267.7Z" fill="#fff"/>
    <path id="Path_396" data-name="Path 396" d="M2283.386,4109.5v11.969c0,4.531,2.01,6.45,4.71,6.45,3,0,4.919-1.98,4.919-6.45V4109.5h2.64v11.79c0,6.21-3.269,8.759-7.649,8.759-4.141,0-7.26-2.37-7.26-8.639V4109.5Z" fill="#fff"/>
    <path id="Path_397" data-name="Path 397" d="M2299.826,4126.543a9.254,9.254,0,0,0,4.68,1.319c2.67,0,4.229-1.409,4.229-3.449,0-1.891-1.08-2.97-3.809-4.021-3.3-1.17-5.34-2.88-5.34-5.729,0-3.15,2.609-5.49,6.539-5.49a9.191,9.191,0,0,1,4.471.99l-.721,2.13a8.055,8.055,0,0,0-3.84-.96c-2.76,0-3.81,1.65-3.81,3.03,0,1.89,1.23,2.82,4.021,3.9,3.42,1.321,5.159,2.971,5.159,5.941,0,3.12-2.309,5.819-7.079,5.819a10.434,10.434,0,0,1-5.16-1.29Z" fill="#fff"/>
    <path id="Path_398" data-name="Path 398" d="M2318.815,4111.723h-6.149v-2.22h14.969v2.22h-6.18v18h-2.64Z" fill="#fff"/>
    <path id="Path_399" data-name="Path 399" d="M2329.885,4109.773a27.189,27.189,0,0,1,5.009-.42c2.791,0,4.59.51,5.851,1.65a5.036,5.036,0,0,1,1.59,3.839,5.311,5.311,0,0,1-3.81,5.161v.089c1.56.54,2.49,1.981,2.97,4.08a32.07,32.07,0,0,0,1.56,5.55h-2.7a26.175,26.175,0,0,1-1.35-4.83c-.6-2.79-1.68-3.84-4.05-3.93h-2.46v8.76h-2.61Zm2.61,9.21h2.67c2.79,0,4.559-1.53,4.559-3.84,0-2.61-1.889-3.75-4.649-3.78a10.726,10.726,0,0,0-2.58.24Z" fill="#fff"/>
    <path id="Path_400" data-name="Path 400" d="M2349.445,4123.363l-2.1,6.359h-2.7l6.87-20.219h3.15l6.9,20.219h-2.79l-2.159-6.359Zm6.629-2.04-1.979-5.82c-.451-1.32-.75-2.52-1.05-3.69h-.061c-.3,1.2-.63,2.43-1.019,3.66l-1.981,5.85Z" fill="#fff"/>
    <path id="Path_401" data-name="Path 401" d="M2366.064,4111.723h-6.149v-2.22h14.97v2.22h-6.18v18h-2.641Z" fill="#fff"/>
    <path id="Path_402" data-name="Path 402" d="M2393.6,4119.4c0,6.959-4.228,10.649-9.388,10.649-5.34,0-9.09-4.139-9.09-10.259,0-6.42,3.99-10.62,9.389-10.62C2390.034,4109.173,2393.6,4113.4,2393.6,4119.4Zm-15.689.33c0,4.319,2.341,8.189,6.451,8.189,4.139,0,6.479-3.809,6.479-8.4,0-4.02-2.1-8.22-6.45-8.22C2380.074,4111.3,2377.914,4115.293,2377.914,4119.733Z" fill="#fff"/>
    <path id="Path_403" data-name="Path 403" d="M2396.994,4109.773a27.2,27.2,0,0,1,5.01-.42c2.791,0,4.59.51,5.85,1.65a5.032,5.032,0,0,1,1.59,3.839,5.31,5.31,0,0,1-3.809,5.161v.089c1.559.54,2.49,1.981,2.969,4.08a32.132,32.132,0,0,0,1.56,5.55h-2.7a26.146,26.146,0,0,1-1.351-4.83c-.6-2.79-1.68-3.84-4.05-3.93h-2.46v8.76h-2.61Zm2.61,9.21h2.67c2.79,0,4.56-1.53,4.56-3.84,0-2.61-1.89-3.75-4.65-3.78a10.735,10.735,0,0,0-2.58.24Z" fill="#fff"/>
  </g>
  <g id="Group_112" data-name="Group 112" transform="translate(-2246.367 -3971.367)">
    <path id="Path_404" data-name="Path 404" d="M2380.274,3999.712l-49.914,28.518-49.914-28.518,49.914-28.345Z" fill="#efce4a"/>
    <path id="Path_405" data-name="Path 405" d="M2330.36,4028.23l-30.98-17.7-18.933,10.751,49.914,28.518,49.914-28.518-18.933-10.751Z" fill="#ed8a19"/>
    <g id="Group_111" data-name="Group 111">
      <path id="Path_406" data-name="Path 406" d="M2330.36,4049.8l-30.98-17.7-18.933,10.751,49.914,28.518,49.914-28.518L2361.34,4032.1Z" fill="#ea6248"/>
    </g>
  </g>
</svg>
