<svg id="Component_10_1" data-name="Component 10 – 1" xmlns="http://www.w3.org/2000/svg" width="224.696" height="196.287" viewBox="0 0 224.696 196.287">
  <g id="Group_156" data-name="Group 156" transform="translate(-2822.426 -3969.646)">
    <path id="Path_547" data-name="Path 547" d="M2837.754,4129.063a12.932,12.932,0,0,1-5.34.96c-5.7,0-9.988-3.6-9.988-10.229,0-6.331,4.289-10.62,10.558-10.62a10.834,10.834,0,0,1,4.8.9l-.631,2.13a9.5,9.5,0,0,0-4.08-.84c-4.739,0-7.889,3.03-7.889,8.34,0,4.95,2.85,8.13,7.77,8.13a10.472,10.472,0,0,0,4.26-.84Z" fill="#fff"/>
    <path id="Path_548" data-name="Path 548" d="M2857.674,4119.4c0,6.959-4.23,10.649-9.39,10.649-5.34,0-9.089-4.139-9.089-10.259,0-6.42,3.989-10.62,9.389-10.62C2854.1,4109.174,2857.674,4113.4,2857.674,4119.4Zm-15.69.33c0,4.319,2.34,8.189,6.45,8.189,4.14,0,6.48-3.809,6.48-8.4,0-4.021-2.1-8.22-6.449-8.22C2844.144,4111.3,2841.984,4115.294,2841.984,4119.734Z" fill="#fff"/>
    <path id="Path_549" data-name="Path 549" d="M2878.1,4120.843c-.149-2.819-.33-6.21-.3-8.729h-.09c-.691,2.37-1.531,4.889-2.55,7.68l-3.57,9.809h-1.98l-3.27-9.63c-.959-2.849-1.77-5.459-2.34-7.859h-.06c-.059,2.519-.21,5.91-.389,8.939l-.541,8.67h-2.49l1.41-20.219h3.33l3.451,9.78c.84,2.49,1.529,4.71,2.039,6.809h.09c.509-2.04,1.23-4.259,2.13-6.809l3.6-9.78h3.33l1.26,20.219h-2.551Z" fill="#fff"/>
    <path id="Path_550" data-name="Path 550" d="M2902.223,4120.843c-.149-2.819-.33-6.21-.3-8.729h-.09c-.691,2.37-1.53,4.889-2.551,7.68l-3.569,9.809h-1.98l-3.27-9.63c-.96-2.849-1.771-5.459-2.34-7.859h-.06c-.06,2.519-.211,5.91-.39,8.939l-.539,8.67h-2.491l1.411-20.219h3.329l3.45,9.78c.84,2.49,1.529,4.71,2.04,6.809h.09c.509-2.04,1.229-4.259,2.13-6.809l3.6-9.78h3.33l1.26,20.219h-2.55Z" fill="#fff"/>
    <path id="Path_551" data-name="Path 551" d="M2911.914,4109.5v11.969c0,4.53,2.01,6.45,4.709,6.45,3,0,4.92-1.98,4.92-6.45V4109.5h2.64v11.79c0,6.209-3.269,8.759-7.65,8.759-4.14,0-7.26-2.37-7.26-8.639V4109.5Z" fill="#fff"/>
    <path id="Path_552" data-name="Path 552" d="M2928.713,4129.723V4109.5h2.85l6.48,10.23a57.168,57.168,0,0,1,3.63,6.569l.059-.03c-.239-2.7-.3-5.159-.3-8.31V4109.5h2.459v20.219h-2.639l-6.42-10.26a64.283,64.283,0,0,1-3.78-6.75l-.09.031c.15,2.55.211,4.98.211,8.34v8.639Z" fill="#fff"/>
    <path id="Path_553" data-name="Path 553" d="M2951.062,4109.5v20.219h-2.609V4109.5Z" fill="#fff"/>
    <path id="Path_554" data-name="Path 554" d="M2969.752,4129.063a12.932,12.932,0,0,1-5.34.96c-5.7,0-9.988-3.6-9.988-10.229,0-6.331,4.289-10.62,10.558-10.62a10.834,10.834,0,0,1,4.8.9l-.631,2.13a9.5,9.5,0,0,0-4.08-.84c-4.739,0-7.889,3.03-7.889,8.34,0,4.95,2.85,8.13,7.77,8.13a10.47,10.47,0,0,0,4.26-.84Z" fill="#fff"/>
    <path id="Path_555" data-name="Path 555" d="M2976.412,4123.364l-2.1,6.359h-2.7l6.869-20.219h3.151l6.9,20.219h-2.79l-2.16-6.359Zm6.631-2.04-1.981-5.821c-.45-1.319-.75-2.519-1.05-3.689h-.059c-.3,1.2-.631,2.43-1.021,3.66l-1.979,5.85Z" fill="#fff"/>
    <path id="Path_556" data-name="Path 556" d="M2993.033,4111.724h-6.15v-2.22h14.969v2.22h-6.179v18h-2.64Z" fill="#fff"/>
    <path id="Path_557" data-name="Path 557" d="M3006.713,4109.5v20.219H3004.1V4109.5Z" fill="#fff"/>
    <path id="Path_558" data-name="Path 558" d="M3028.552,4119.4c0,6.959-4.23,10.649-9.39,10.649-5.34,0-9.09-4.139-9.09-10.259,0-6.42,3.99-10.62,9.391-10.62C3024.982,4109.174,3028.552,4113.4,3028.552,4119.4Zm-15.69.33c0,4.319,2.341,8.189,6.45,8.189,4.14,0,6.48-3.809,6.48-8.4,0-4.021-2.1-8.22-6.45-8.22C3015.022,4111.3,3012.862,4115.294,3012.862,4119.734Z" fill="#fff"/>
    <path id="Path_559" data-name="Path 559" d="M3031.942,4129.723V4109.5h2.851l6.478,10.23a57.335,57.335,0,0,1,3.631,6.569l.06-.03c-.24-2.7-.3-5.159-.3-8.31V4109.5h2.46v20.219h-2.64l-6.42-10.26a64.283,64.283,0,0,1-3.78-6.75l-.09.031c.15,2.55.21,4.98.21,8.34v8.639Z" fill="#fff"/>
    <path id="Path_560" data-name="Path 560" d="M2889.639,4156.843c-.151-2.819-.331-6.21-.3-8.729h-.09c-.69,2.37-1.529,4.889-2.549,7.68l-3.57,9.809h-1.981l-3.269-9.63c-.96-2.849-1.77-5.459-2.34-7.859h-.061c-.059,2.519-.209,5.91-.388,8.939l-.541,8.67h-2.491l1.411-20.219h3.33l3.45,9.78c.84,2.49,1.53,4.71,2.04,6.809h.09c.51-2.04,1.23-4.259,2.13-6.809l3.6-9.78h3.33l1.26,20.219h-2.55Z" fill="#fff"/>
    <path id="Path_561" data-name="Path 561" d="M2899.689,4159.364l-2.1,6.359h-2.7l6.87-20.219h3.149l6.9,20.219h-2.79l-2.16-6.359Zm6.629-2.04-1.979-5.821c-.45-1.319-.75-2.519-1.05-3.689h-.061c-.3,1.2-.63,2.43-1.019,3.66l-1.981,5.85Z" fill="#fff"/>
    <path id="Path_562" data-name="Path 562" d="M2914.779,4165.723V4145.5h2.85l6.479,10.23a57.131,57.131,0,0,1,3.63,6.569l.061-.03c-.241-2.7-.3-5.159-.3-8.31V4145.5h2.461v20.219h-2.641l-6.42-10.26a64.094,64.094,0,0,1-3.779-6.75l-.09.031c.15,2.55.209,4.98.209,8.34v8.639Z" fill="#fff"/>
    <path id="Path_563" data-name="Path 563" d="M2937.789,4159.364l-2.1,6.359h-2.7l6.87-20.219h3.15l6.9,20.219h-2.79l-2.16-6.359Zm6.629-2.04-1.98-5.821c-.45-1.319-.75-2.519-1.049-3.689h-.061c-.3,1.2-.63,2.43-1.02,3.66l-1.98,5.85Z" fill="#fff"/>
    <path id="Path_564" data-name="Path 564" d="M2967.818,4164.823a18.817,18.817,0,0,1-6.21,1.11,9.5,9.5,0,0,1-10.38-10.2c.031-6.03,4.17-10.44,10.95-10.44a12.515,12.515,0,0,1,5.041.93l-.631,2.13a10.479,10.479,0,0,0-4.469-.87c-4.92,0-8.131,3.06-8.131,8.13,0,5.13,3.09,8.159,7.8,8.159a8.488,8.488,0,0,0,3.479-.54V4157.2h-4.11v-2.1h6.66Z" fill="#fff"/>
    <path id="Path_565" data-name="Path 565" d="M2982.278,4156.244h-7.86v7.29h8.76v2.189h-11.37V4145.5h10.92v2.19h-8.31v6.39h7.86Z" fill="#fff"/>
    <path id="Path_566" data-name="Path 566" d="M2986.568,4145.774a27.174,27.174,0,0,1,5.01-.42c2.789,0,4.59.51,5.85,1.649a5.042,5.042,0,0,1,1.589,3.84,5.307,5.307,0,0,1-3.81,5.16v.09c1.56.54,2.49,1.981,2.971,4.08a32.161,32.161,0,0,0,1.559,5.55h-2.7a26.258,26.258,0,0,1-1.35-4.83c-.6-2.79-1.679-3.84-4.049-3.93h-2.46v8.76h-2.61Zm2.61,9.21h2.669c2.791,0,4.561-1.53,4.561-3.84,0-2.61-1.891-3.75-4.65-3.78a10.722,10.722,0,0,0-2.58.24Z" fill="#fff"/>
  </g>
  <g id="Group_160" data-name="Group 160" transform="translate(-2833.645 -3969.646)">
    <path id="Path_567" data-name="Path 567" d="M2906.977,4000.527h-6.858a48.518,48.518,0,0,0-4.474,20.411q0,1.3.068,2.58h11.264Z" fill="#445ea0"/>
    <path id="Path_568" data-name="Path 568" d="M2978.225,4036.1h-4.273v16.079h4.273a1.994,1.994,0,0,0,1.988-1.989v-12.1A1.994,1.994,0,0,0,2978.225,4036.1Z" fill="#293d7c"/>
    <path id="Path_569" data-name="Path 569" d="M2951.651,4035.35v17.573l16.448,9.814v-37.2Z" fill="#eef6ff"/>
    <path id="Path_570" data-name="Path 570" d="M2974.15,4065.882a1,1,0,0,1-.994.994h-4.262a1,1,0,0,1-.994-.994v-43.491a1,1,0,0,1,.994-.994h4.262a1,1,0,0,1,.994.994Z" fill="#fe3745"/>
    <path id="Path_571" data-name="Path 571" d="M2971.314,4065.882v-43.491a1,1,0,0,1,1-.994h-3.415a1,1,0,0,0-.994.994v43.491a1,1,0,0,0,.994.994h3.415A1,1,0,0,1,2971.314,4065.882Z" fill="#b7092b"/>
    <path id="Path_572" data-name="Path 572" d="M2933.6,4036.774h-4.608a1,1,0,0,0-.994.994V4050.5a1,1,0,0,0,.994.994h4.608Z" fill="#eef6ff"/>
    <path id="Path_573" data-name="Path 573" d="M2930.883,4050.5v-12.737a1,1,0,0,1,.994-.994h-2.884a1,1,0,0,0-.994.994V4050.5a1,1,0,0,0,.994.994h2.884A1,1,0,0,1,2930.883,4050.5Z" fill="#d9eafc"/>
    <path id="Path_574" data-name="Path 574" d="M2951.849,4053.018a1,1,0,0,1-.994.995H2934.4a1,1,0,0,1-.994-.995v-17.764a1,1,0,0,1,.994-.994h16.459a1,1,0,0,1,.994.994Z" fill="#fe3745"/>
    <path id="Path_575" data-name="Path 575" d="M2937.347,4053.018v-17.764a1,1,0,0,1,.994-.994H2934.4a1,1,0,0,0-.994.994v17.764a1,1,0,0,0,.994.995h3.945A1,1,0,0,1,2937.347,4053.018Z" fill="#b7092b"/>
    <path id="Path_576" data-name="Path 576" d="M2991.973,3985.678a1,1,0,0,0-.995-.994h-27.127a1,1,0,0,0-.994.994v18.878a1,1,0,0,0,.994.994h8.189a2.241,2.241,0,0,1,1.589.8l3.19,4.268a.7.7,0,0,0,1.191,0l3.19-4.268a2.244,2.244,0,0,1,1.59-.8h8.188a1,1,0,0,0,.994-.994v-18.878Z" fill="#52bbef"/>
    <path id="Path_577" data-name="Path 577" d="M2966.8,4004.556v-18.878a1,1,0,0,1,.994-.994h-3.945a1,1,0,0,0-.994.994v18.878a1,1,0,0,0,.994.994h3.945A1,1,0,0,1,2966.8,4004.556Z" fill="#1e99d6"/>
    <g id="Group_157" data-name="Group 157">
      <path id="Path_578" data-name="Path 578" d="M2985.932,3992.06H2968.9a1.491,1.491,0,0,1,0-2.982h17.034a1.491,1.491,0,1,1,0,2.982Z" fill="#fff"/>
      <path id="Path_579" data-name="Path 579" d="M2985.932,3996.682H2968.9a1.491,1.491,0,0,1,0-2.982h17.034a1.491,1.491,0,1,1,0,2.982Z" fill="#fff"/>
      <path id="Path_580" data-name="Path 580" d="M2977.449,4001.3H2968.9a1.491,1.491,0,0,1,0-2.982h8.551a1.491,1.491,0,0,1,0,2.982Z" fill="#fff"/>
    </g>
    <circle id="Ellipse_5" data-name="Ellipse 5" cx="11.055" cy="11.055" r="11.055" transform="translate(2937.873 3969.647)" fill="#fe3745"/>
    <path id="Path_581" data-name="Path 581" d="M2941.817,3980.7a11.057,11.057,0,0,1,9.082-10.876,11.055,11.055,0,1,0,0,21.752A11.056,11.056,0,0,1,2941.817,3980.7Z" fill="#b7092b"/>
    <path id="Path_582" data-name="Path 582" d="M2948.907,3986.786a.665.665,0,0,1-.475-.2l-5.222-5.266a3.387,3.387,0,0,1,0-4.76,3.317,3.317,0,0,1,4.72,0l1,1,1-1a3.318,3.318,0,0,1,4.721,0,3.386,3.386,0,0,1,0,4.76l-5.263,5.268A.665.665,0,0,1,2948.907,3986.786Z" fill="#fff"/>
    <path id="Path_583" data-name="Path 583" d="M2910.988,4042a.564.564,0,0,1-.4-.167l-4.408-4.445a2.861,2.861,0,0,1,0-4.018,2.8,2.8,0,0,1,3.985,0l.841.847.841-.847a2.8,2.8,0,0,1,3.984,0,2.859,2.859,0,0,1,0,4.018l-4.442,4.446A.562.562,0,0,1,2910.988,4042Z" fill="#fe3745"/>
    <path id="Path_584" data-name="Path 584" d="M2908.4,4036.457a2.856,2.856,0,0,1-.092-3.916c-.045,0-.091-.006-.137-.006a2.787,2.787,0,0,0-1.993.832,2.861,2.861,0,0,0,0,4.018l4.408,4.444a.565.565,0,0,0,.4.168.558.558,0,0,0,.4-.166l1.176-1.177Z" fill="#b7092b"/>
    <path id="Path_585" data-name="Path 585" d="M2932.658,4024.862v-2.744a2.786,2.786,0,0,1,2.783-2.783h.643a.2.2,0,0,0,0-.4,2.786,2.786,0,0,1-2.783-2.783v-2.744a2.786,2.786,0,0,1,2.783-2.784.2.2,0,1,0,0-.4,2.786,2.786,0,0,1-2.783-2.784V4004.7a2.786,2.786,0,0,1,2.783-2.784.2.2,0,1,0,0-.4h-1.228a2.786,2.786,0,0,1-2.783-2.783v-2.745a2.786,2.786,0,0,1,2.282-2.736v-10.683a2.991,2.991,0,0,0-2.982-2.983h-4.639a3.524,3.524,0,0,0-3.385,2.954l-1.868,13.71c-.221,1.619-1.39,2.944-2.6,2.953v25.846h13.789C2932.663,4024.99,2932.658,4024.927,2932.658,4024.862Z" fill="#ffe2b8"/>
    <path id="Path_586" data-name="Path 586" d="M2931.373,3979.59h-4.639a3.524,3.524,0,0,0-3.385,2.954l-1.868,13.71c-.221,1.619-1.39,2.944-2.6,2.953v3.946h3.932c1.217,0,2.394-1.329,2.616-2.954l1.868-13.71a3.524,3.524,0,0,1,3.385-2.954h3.676v-.962A2.991,2.991,0,0,0,2931.373,3979.59Z" fill="#ffc987"/>
    <path id="Path_587" data-name="Path 587" d="M2935.441,4027.844a2.991,2.991,0,0,1-2.982-2.982v-2.744a2.991,2.991,0,0,1,2.982-2.982h16.173a2.991,2.991,0,0,1,2.982,2.982v2.744a2.991,2.991,0,0,1-2.982,2.982Z" fill="#ffe2b8"/>
    <path id="Path_588" data-name="Path 588" d="M2907.773,4028.29a1,1,0,0,1-.995-.994v-30.547a1,1,0,0,1,.995-.994h10.31a1,1,0,0,1,.994.994V4027.3a1,1,0,0,1-.994.994Z" fill="#293d7c"/>
    <path id="Path_589" data-name="Path 589" d="M2910.723,4027.3v-30.547a1,1,0,0,1,.994-.994h-3.944a1,1,0,0,0-.995.994V4027.3a1,1,0,0,0,.995.994h3.944A1,1,0,0,1,2910.723,4027.3Z" fill="#1a2b63"/>
    <circle id="Ellipse_6" data-name="Ellipse 6" cx="2.661" cy="2.661" r="2.661" transform="translate(2910.266 3997.963)" fill="#aec1ed"/>
    <g id="Group_158" data-name="Group 158">
      <path id="Path_590" data-name="Path 590" d="M2934.856,4001.719a2.991,2.991,0,0,1-2.982-2.982v-2.745a2.991,2.991,0,0,1,2.982-2.982h16.758a2.991,2.991,0,0,1,2.982,2.982v2.745a2.991,2.991,0,0,1-2.982,2.982Z" fill="#ffe2b8"/>
      <path id="Path_591" data-name="Path 591" d="M2936.084,4010.428a2.991,2.991,0,0,1-2.982-2.982V4004.7a2.991,2.991,0,0,1,2.982-2.982h16.256a2.991,2.991,0,0,1,2.982,2.982v2.745a2.991,2.991,0,0,1-2.982,2.982Z" fill="#ffe2b8"/>
      <path id="Path_592" data-name="Path 592" d="M2936.084,4019.136a2.991,2.991,0,0,1-2.982-2.982v-2.744a2.991,2.991,0,0,1,2.982-2.982h16.256a2.991,2.991,0,0,1,2.982,2.982v2.744a2.991,2.991,0,0,1-2.982,2.982Z" fill="#ffe2b8"/>
    </g>
    <g id="Group_159" data-name="Group 159">
      <path id="Path_593" data-name="Path 593" d="M2938.511,4024.774a2.991,2.991,0,0,1-2.982-2.982v-2.656h-.088a2.991,2.991,0,0,0-2.982,2.982v2.744a2.991,2.991,0,0,0,2.982,2.982h16.173a2.991,2.991,0,0,0,2.982-2.982v-.087h-16.085Z" fill="#ffc987"/>
      <path id="Path_594" data-name="Path 594" d="M2937.926,3998.649a2.991,2.991,0,0,1-2.982-2.982v-2.657h-.088a2.991,2.991,0,0,0-2.982,2.982v2.745a2.991,2.991,0,0,0,2.982,2.982h16.758a2.991,2.991,0,0,0,2.982-2.982v-.088Z" fill="#ffc987"/>
      <path id="Path_595" data-name="Path 595" d="M2939.154,4007.358a2.991,2.991,0,0,1-2.982-2.982v-2.657h-.088a2.991,2.991,0,0,0-2.982,2.982v2.745a2.991,2.991,0,0,0,2.982,2.982h16.256a2.991,2.991,0,0,0,2.982-2.982v-.088Z" fill="#ffc987"/>
      <path id="Path_596" data-name="Path 596" d="M2939.154,4016.066a2.991,2.991,0,0,1-2.982-2.982v-2.656h-.088a2.991,2.991,0,0,0-2.982,2.982v2.744a2.991,2.991,0,0,0,2.982,2.982h16.256a2.991,2.991,0,0,0,2.982-2.982v-.088Z" fill="#ffc987"/>
    </g>
    <path id="Path_597" data-name="Path 597" d="M2919.9,4046.216h-17.785a.4.4,0,0,0-.4.4v11.411a.4.4,0,0,0,.4.4H2919.9a.4.4,0,0,0,.4-.4v-11.411A.4.4,0,0,0,2919.9,4046.216Z" fill="#ffaf10"/>
    <path id="Path_598" data-name="Path 598" d="M2905.662,4058.024v-8.691l-3.85-2.975a.363.363,0,0,1,.06-.058.4.4,0,0,0-.155.313v11.411a.4.4,0,0,0,.4.4h3.945A.4.4,0,0,1,2905.662,4058.024Z" fill="#ef9614"/>
    <path id="Path_599" data-name="Path 599" d="M2919.9,4046.216h-17.785a.392.392,0,0,0-.3.142l8.879,6.862a.541.541,0,0,0,.626,0l8.879-6.862A.39.39,0,0,0,2919.9,4046.216Z" fill="#ffd00d"/>
    <path id="Path_600" data-name="Path 600" d="M2997.039,4014.905h-17.784a.4.4,0,0,0-.4.4v11.412a.4.4,0,0,0,.4.4h17.784a.4.4,0,0,0,.4-.4V4015.3A.4.4,0,0,0,2997.039,4014.905Z" fill="#ffaf10"/>
    <path id="Path_601" data-name="Path 601" d="M2982.8,4026.714v-8.692l-3.849-2.975a.383.383,0,0,1,.059-.057.4.4,0,0,0-.155.312v11.412a.4.4,0,0,0,.4.4h3.945A.4.4,0,0,1,2982.8,4026.714Z" fill="#ef9614"/>
    <path id="Path_602" data-name="Path 602" d="M2997.039,4014.905h-17.784a.39.39,0,0,0-.3.142l8.879,6.863a.541.541,0,0,0,.626,0l8.879-6.863A.39.39,0,0,0,2997.039,4014.905Z" fill="#ffd00d"/>
  </g>
</svg>
