<svg id="Component_12_1" data-name="Component 12 – 1" xmlns="http://www.w3.org/2000/svg" width="182.128" height="203.141" viewBox="0 0 182.128 203.141">
  <g id="Group_114" data-name="Group 114" transform="translate(-3452.498 -3962.792)">
    <path id="Path_407" data-name="Path 407" d="M3453.158,4126.543a9.244,9.244,0,0,0,4.68,1.32c2.67,0,4.229-1.41,4.229-3.449,0-1.891-1.08-2.971-3.809-4.022-3.3-1.17-5.34-2.879-5.34-5.728,0-3.151,2.609-5.491,6.539-5.491a9.189,9.189,0,0,1,4.471.991l-.721,2.129a8.057,8.057,0,0,0-3.84-.959c-2.76,0-3.81,1.65-3.81,3.029,0,1.89,1.23,2.82,4.021,3.9,3.42,1.321,5.159,2.971,5.159,5.94,0,3.121-2.309,5.82-7.079,5.82a10.433,10.433,0,0,1-5.16-1.291Z" fill="#fff"/>
    <path id="Path_408" data-name="Path 408" d="M3485.587,4119.4c0,6.959-4.23,10.648-9.39,10.648-5.34,0-9.09-4.138-9.09-10.259,0-6.42,3.99-10.62,9.391-10.62C3482.017,4109.173,3485.587,4113.4,3485.587,4119.4Zm-15.69.33c0,4.318,2.341,8.189,6.45,8.189,4.14,0,6.48-3.81,6.48-8.4,0-4.02-2.1-8.219-6.45-8.219C3472.057,4111.3,3469.9,4115.293,3469.9,4119.734Z" fill="#fff"/>
    <path id="Path_409" data-name="Path 409" d="M3488.977,4109.5h10.89v2.19h-8.279v6.721h7.649v2.16h-7.649v9.148h-2.611Z" fill="#fff"/>
    <path id="Path_410" data-name="Path 410" d="M3507.428,4111.724h-6.151V4109.5h14.97v2.221h-6.18v18h-2.639Z" fill="#fff"/>
    <path id="Path_411" data-name="Path 411" d="M3523,4129.722l-5.129-20.219h2.76l2.4,10.231c.6,2.519,1.139,5.039,1.5,6.988h.06c.329-2.01.96-4.41,1.649-7.019l2.7-10.2h2.73l2.461,10.26c.569,2.4,1.109,4.8,1.409,6.93h.06c.419-2.221.99-4.471,1.621-6.99l2.67-10.2h2.669l-5.73,20.219h-2.73l-2.549-10.529a60.7,60.7,0,0,1-1.321-6.6h-.06a63.119,63.119,0,0,1-1.56,6.6l-2.88,10.529Z" fill="#fff"/>
    <path id="Path_412" data-name="Path 412" d="M3546.637,4123.363l-2.1,6.359h-2.7l6.869-20.219h3.15l6.9,20.219h-2.79l-2.161-6.359Zm6.63-2.039-1.98-5.821c-.45-1.32-.75-2.519-1.051-3.689h-.058c-.3,1.2-.631,2.43-1.021,3.66l-1.979,5.85Z" fill="#fff"/>
    <path id="Path_413" data-name="Path 413" d="M3561.726,4109.773a27.2,27.2,0,0,1,5.01-.42c2.791,0,4.59.51,5.851,1.65a5.038,5.038,0,0,1,1.59,3.84,5.31,5.31,0,0,1-3.81,5.16v.09c1.56.539,2.49,1.981,2.97,4.08a32.066,32.066,0,0,0,1.559,5.549h-2.7a26.149,26.149,0,0,1-1.35-4.83c-.6-2.789-1.68-3.84-4.05-3.93h-2.46v8.76h-2.611Zm2.611,9.211h2.67c2.79,0,4.559-1.531,4.559-3.84,0-2.611-1.889-3.75-4.649-3.781a10.782,10.782,0,0,0-2.58.24Z" fill="#fff"/>
    <path id="Path_414" data-name="Path 414" d="M3588.336,4120.244h-7.86v7.289h8.76v2.189h-11.369V4109.5h10.92v2.19h-8.311v6.391h7.86Z" fill="#fff"/>
    <path id="Path_415" data-name="Path 415" d="M3615.666,4132.693c-2.731-.721-5.4-1.529-7.74-2.34a3.881,3.881,0,0,0-1.23-.3c-4.8-.179-8.909-3.718-8.909-10.228,0-6.481,3.959-10.651,9.419-10.651,5.489,0,9.059,4.26,9.059,10.231,0,5.189-2.4,8.519-5.759,9.689v.119c2.009.51,4.2.991,5.91,1.291Zm-2.16-13.17c0-4.049-2.1-8.219-6.39-8.219-4.409,0-6.569,4.078-6.54,8.459-.029,4.289,2.34,8.16,6.42,8.16C3611.166,4127.923,3613.506,4124.142,3613.506,4119.523Z" fill="#fff"/>
    <path id="Path_416" data-name="Path 416" d="M3622.506,4123.363l-2.1,6.359h-2.7l6.869-20.219h3.15l6.9,20.219h-2.79l-2.16-6.359Zm6.631-2.039-1.981-5.821c-.45-1.32-.75-2.519-1.051-3.689h-.058c-.3,1.2-.631,2.43-1.021,3.66l-1.979,5.85Z" fill="#fff"/>
    <path id="Path_417" data-name="Path 417" d="M3497.543,4156.843c-.151-2.82-.33-6.211-.3-8.73h-.09c-.689,2.371-1.529,4.89-2.55,7.68l-3.569,9.81h-1.98l-3.27-9.631c-.961-2.849-1.77-5.459-2.34-7.859h-.06c-.061,2.519-.21,5.91-.39,8.939l-.54,8.67h-2.49l1.41-20.219h3.33l3.449,9.78c.84,2.49,1.53,4.711,2.041,6.81h.09c.51-2.041,1.23-4.259,2.129-6.81l3.6-9.78h3.33l1.259,20.219h-2.548Z" fill="#fff"/>
    <path id="Path_418" data-name="Path 418" d="M3507.593,4159.363l-2.1,6.359h-2.7l6.869-20.219h3.15l6.9,20.219h-2.791l-2.16-6.359Zm6.629-2.039-1.98-5.821c-.449-1.32-.75-2.519-1.05-3.689h-.059c-.3,1.2-.631,2.43-1.02,3.66l-1.98,5.85Z" fill="#fff"/>
    <path id="Path_419" data-name="Path 419" d="M3522.682,4165.722V4145.5h2.851l6.479,10.231a57.347,57.347,0,0,1,3.63,6.568l.06-.029c-.239-2.7-.3-5.16-.3-8.311V4145.5h2.46v20.219h-2.64l-6.419-10.26a64.023,64.023,0,0,1-3.781-6.75l-.09.032c.15,2.549.21,4.98.21,8.34v8.638Z" fill="#fff"/>
    <path id="Path_420" data-name="Path 420" d="M3545.692,4159.363l-2.1,6.359h-2.7l6.87-20.219h3.15l6.9,20.219h-2.791l-2.16-6.359Zm6.63-2.039-1.98-5.821c-.45-1.32-.75-2.519-1.05-3.689h-.06c-.3,1.2-.631,2.43-1.019,3.66l-1.981,5.85Z" fill="#fff"/>
    <path id="Path_421" data-name="Path 421" d="M3575.722,4164.822a18.763,18.763,0,0,1-6.21,1.111,9.5,9.5,0,0,1-10.379-10.2c.029-6.031,4.17-10.44,10.949-10.44a12.5,12.5,0,0,1,5.04.93l-.63,2.129a10.482,10.482,0,0,0-4.47-.869c-4.92,0-8.13,3.059-8.13,8.129,0,5.131,3.09,8.16,7.8,8.16a8.486,8.486,0,0,0,3.48-.541V4157.2h-4.11v-2.1h6.66Z" fill="#fff"/>
    <path id="Path_422" data-name="Path 422" d="M3590.181,4156.244h-7.859v7.289h8.76v2.189h-11.369V4145.5h10.92v2.19h-8.311v6.391h7.859Z" fill="#fff"/>
    <path id="Path_423" data-name="Path 423" d="M3594.472,4145.773a27.166,27.166,0,0,1,5.009-.42c2.79,0,4.59.51,5.851,1.65a5.041,5.041,0,0,1,1.59,3.84,5.31,5.31,0,0,1-3.811,5.16v.09c1.561.539,2.49,1.981,2.971,4.08a32.173,32.173,0,0,0,1.558,5.549h-2.7a26.207,26.207,0,0,1-1.349-4.83c-.6-2.789-1.68-3.84-4.051-3.93h-2.459v8.76h-2.61Zm2.61,9.211h2.67c2.789,0,4.559-1.531,4.559-3.84,0-2.611-1.889-3.75-4.649-3.781a10.781,10.781,0,0,0-2.58.24Z" fill="#fff"/>
  </g>
  <g id="Group_136" data-name="Group 136" transform="translate(-3452.498 -3962.792)">
    <g id="Group_135" data-name="Group 135">
      <g id="Group_115" data-name="Group 115">
        <path id="Path_424" data-name="Path 424" d="M3547.965,4053.417h-9.374a1.562,1.562,0,0,0-1.563,1.562v1.563a6.25,6.25,0,0,0,12.5,0v-1.563A1.562,1.562,0,0,0,3547.965,4053.417Z" fill="#868491"/>
      </g>
      <g id="Group_116" data-name="Group 116">
        <path id="Path_425" data-name="Path 425" d="M3543.276,4053.417h-4.685a1.562,1.562,0,0,0-1.563,1.562v1.563a6.256,6.256,0,0,0,6.248,6.25v-9.375Z" fill="#5c546a"/>
      </g>
      <g id="Group_117" data-name="Group 117">
        <path id="Path_426" data-name="Path 426" d="M3567.882,3972.537a35.659,35.659,0,0,0-26.9-9.672,35.935,35.935,0,0,0-15,67.361,9.309,9.309,0,0,1,4.8,8.169v11.9a6.256,6.256,0,0,0,6.25,6.25h12.5a6.256,6.256,0,0,0,6.25-6.25v-11.9a9.348,9.348,0,0,1,4.837-8.189,35.935,35.935,0,0,0,7.268-57.669Z" fill="#ffcd00"/>
      </g>
      <g id="Group_118" data-name="Group 118">
        <path id="Path_427" data-name="Path 427" d="M3543.276,3973.731a25,25,0,1,1-25,25,25,25,0,0,1,25-25" fill="#ffe671"/>
      </g>
      <g id="Group_120" data-name="Group 120">
        <g id="Group_119" data-name="Group 119">
          <path id="Path_428" data-name="Path 428" d="M3548.742,4008.1a4.9,4.9,0,0,1-3.912-2.095c-.682-.778-.954-1.03-1.563-1.03s-.876.252-1.555,1.029a4.692,4.692,0,0,1-7.817,0c-.679-.777-.949-1.029-1.555-1.029a1.563,1.563,0,0,1,0-3.125,4.957,4.957,0,0,1,3.908,2.1c.679.777.949,1.028,1.555,1.028s.877-.251,1.556-1.028a4.961,4.961,0,0,1,3.908-2.1,4.905,4.905,0,0,1,3.912,2.095c.682.779.954,1.03,1.563,1.03s.879-.251,1.561-1.028a4.966,4.966,0,0,1,3.912-2.1,1.563,1.563,0,1,1,0,3.125c-.609,0-.88.252-1.562,1.03A4.964,4.964,0,0,1,3548.742,4008.1Z" fill="#fff"/>
        </g>
      </g>
      <g id="Group_122" data-name="Group 122">
        <g id="Group_121" data-name="Group 121">
          <path id="Path_429" data-name="Path 429" d="M3538.589,4037.792a1.564,1.564,0,0,1-1.526-1.23l-7.812-35.936a1.563,1.563,0,0,1,3.054-.666l7.813,35.937a1.565,1.565,0,0,1-1.195,1.86A1.542,1.542,0,0,1,3538.589,4037.792Z" fill="#5c546a"/>
        </g>
      </g>
      <g id="Group_124" data-name="Group 124">
        <g id="Group_123" data-name="Group 123">
          <path id="Path_430" data-name="Path 430" d="M3547.967,4037.792a1.535,1.535,0,0,1-.334-.035,1.564,1.564,0,0,1-1.2-1.86l7.812-35.937a1.563,1.563,0,0,1,3.055.666l-7.812,35.936A1.564,1.564,0,0,1,3547.967,4037.792Z" fill="#5c546a"/>
        </g>
      </g>
      <g id="Group_125" data-name="Group 125">
        <path id="Path_431" data-name="Path 431" d="M3530.509,4036.23a9.388,9.388,0,0,1,.269,2.165v11.9a6.256,6.256,0,0,0,6.25,6.25h12.5a6.256,6.256,0,0,0,6.25-6.25v-11.9a9.278,9.278,0,0,1,.271-2.165Z" fill="#b4b6bc"/>
      </g>
      <g id="Group_126" data-name="Group 126">
        <path id="Path_432" data-name="Path 432" d="M3543.276,4036.23h-12.767a9.388,9.388,0,0,1,.269,2.165v11.9a6.256,6.256,0,0,0,6.25,6.25h6.248Z" fill="#868491"/>
      </g>
      <g id="Group_128" data-name="Group 128">
        <g id="Group_127" data-name="Group 127">
          <rect id="Rectangle_3" data-name="Rectangle 3" width="12.5" height="3.125" transform="translate(3543.276 4040.917)" fill="#868491"/>
        </g>
      </g>
      <g id="Group_130" data-name="Group 130">
        <g id="Group_129" data-name="Group 129">
          <rect id="Rectangle_4" data-name="Rectangle 4" width="12.5" height="3.125" transform="translate(3543.277 4047.167)" fill="#868491"/>
        </g>
      </g>
      <g id="Group_132" data-name="Group 132">
        <g id="Group_131" data-name="Group 131">
          <rect id="Rectangle_5" data-name="Rectangle 5" width="12.5" height="3.125" transform="translate(3530.777 4040.917)" fill="#5c546a"/>
        </g>
      </g>
      <g id="Group_134" data-name="Group 134">
        <g id="Group_133" data-name="Group 133">
          <rect id="Rectangle_6" data-name="Rectangle 6" width="12.5" height="3.125" transform="translate(3530.777 4047.167)" fill="#5c546a"/>
        </g>
      </g>
    </g>
  </g>
</svg>
