<svg id="experenceCommManager" xmlns="http://www.w3.org/2000/svg" width="100" height="100" viewBox="0 0 100 100">
  <g id="Group_482" data-name="Group 482" transform="translate(-733 -3265)">
    <g id="Group_480" data-name="Group 480" transform="translate(194 126)">
      <g id="Group_477" data-name="Group 477" transform="translate(209 -15)">
        <g id="Group_472" data-name="Group 472" transform="translate(-61 343)">
          <g id="Group_446" data-name="Group 446" transform="translate(265 -3530)">
            <rect id="Rectangle_75" data-name="Rectangle 75" width="100" height="100" rx="25" transform="translate(126 6341)" fill="#fff"/>
          </g>
        </g>
      </g>
    </g>
    <g id="Group_481" data-name="Group 481" transform="translate(-2143.645 -684.646)">
      <path id="Path_567" data-name="Path 567" d="M2902.638,4000.527h-4.232a29.94,29.94,0,0,0-2.761,12.6q0,.8.042,1.592h6.951Z" transform="translate(0 -11.825)" fill="#445ea0"/>
      <path id="Path_568" data-name="Path 568" d="M2976.589,4036.1h-2.637v9.922h2.637a1.23,1.23,0,0,0,1.227-1.228v-7.468A1.23,1.23,0,0,0,2976.589,4036.1Z" transform="translate(-29.984 -25.444)" fill="#293d7c"/>
      <path id="Path_569" data-name="Path 569" d="M2951.651,4031.592v10.844l10.15,6.056v-22.956Z" transform="translate(-21.445 -21.401)" fill="#eef6ff"/>
      <path id="Path_570" data-name="Path 570" d="M2971.757,4048.848a.615.615,0,0,1-.613.614h-2.63a.616.616,0,0,1-.614-.614V4022.01a.615.615,0,0,1,.614-.614h2.63a.615.615,0,0,1,.613.614Z" transform="translate(-27.667 -19.816)" fill="#fe3745"/>
      <path id="Path_571" data-name="Path 571" d="M2970.007,4048.848V4022.01a.615.615,0,0,1,.614-.614h-2.107a.615.615,0,0,0-.614.614v26.838a.615.615,0,0,0,.614.614h2.107A.616.616,0,0,1,2970.007,4048.848Z" transform="translate(-27.667 -19.816)" fill="#b7092b"/>
      <path id="Path_572" data-name="Path 572" d="M2931.456,4036.774h-2.844a.615.615,0,0,0-.613.614v7.86a.615.615,0,0,0,.613.614h2.844Z" transform="translate(-12.389 -25.704)" fill="#eef6ff"/>
      <path id="Path_573" data-name="Path 573" d="M2929.779,4045.247v-7.86a.615.615,0,0,1,.613-.614h-1.78a.615.615,0,0,0-.613.614v7.86a.615.615,0,0,0,.613.614h1.78A.615.615,0,0,1,2929.779,4045.247Z" transform="translate(-12.389 -25.704)" fill="#d9eafc"/>
      <path id="Path_574" data-name="Path 574" d="M2944.786,4045.835a.616.616,0,0,1-.614.614h-10.157a.616.616,0,0,1-.613-.614v-10.962a.615.615,0,0,1,.613-.613h10.157a.615.615,0,0,1,.614.613Z" transform="translate(-14.457 -24.741)" fill="#fe3745"/>
      <path id="Path_575" data-name="Path 575" d="M2935.836,4045.835v-10.962a.615.615,0,0,1,.614-.613h-2.435a.615.615,0,0,0-.613.613v10.962a.616.616,0,0,0,.613.614h2.435A.616.616,0,0,1,2935.836,4045.835Z" transform="translate(-14.457 -24.741)" fill="#b7092b"/>
      <path id="Path_576" data-name="Path 576" d="M2980.824,3985.3a.615.615,0,0,0-.614-.613h-16.74a.615.615,0,0,0-.614.613v11.649a.615.615,0,0,0,.614.614h5.053a1.384,1.384,0,0,1,.98.491l1.969,2.634a.434.434,0,0,0,.735,0l1.969-2.634a1.385,1.385,0,0,1,.981-.491h5.053a.615.615,0,0,0,.613-.614V3985.3Z" transform="translate(-25.736 -5.758)" fill="#52bbef"/>
      <path id="Path_577" data-name="Path 577" d="M2965.292,3996.947V3985.3a.615.615,0,0,1,.613-.613h-2.434a.615.615,0,0,0-.614.613v11.649a.615.615,0,0,0,.614.614h2.434A.615.615,0,0,1,2965.292,3996.947Z" transform="translate(-25.736 -5.758)" fill="#1e99d6"/>
      <g id="Group_157" data-name="Group 157" transform="translate(2939.929 3981.637)">
        <path id="Path_578" data-name="Path 578" d="M2978.839,3990.918h-10.511a.92.92,0,0,1,0-1.84h10.511a.92.92,0,0,1,0,1.84Z" transform="translate(-2967.407 -3989.078)" fill="#fff"/>
        <path id="Path_579" data-name="Path 579" d="M2978.839,3995.54h-10.511a.92.92,0,0,1,0-1.84h10.511a.92.92,0,1,1,0,1.84Z" transform="translate(-2967.407 -3990.848)" fill="#fff"/>
        <path id="Path_580" data-name="Path 580" d="M2973.6,4000.163h-5.277a.92.92,0,0,1,0-1.84h5.277a.92.92,0,0,1,0,1.84Z" transform="translate(-2967.407 -3992.618)" fill="#fff"/>
      </g>
      <circle id="Ellipse_5" data-name="Ellipse 5" cx="6.822" cy="6.822" r="6.822" transform="translate(2921.704 3969.646)" fill="#fe3745"/>
      <path id="Path_581" data-name="Path 581" d="M2940.306,3976.468a6.823,6.823,0,0,1,5.6-6.711,6.822,6.822,0,1,0,0,13.423A6.823,6.823,0,0,1,2940.306,3976.468Z" transform="translate(-16.169)" fill="#b7092b"/>
      <path id="Path_582" data-name="Path 582" d="M2946.352,3982.494a.411.411,0,0,1-.293-.122l-3.222-3.25a2.09,2.09,0,0,1,0-2.937,2.047,2.047,0,0,1,2.913,0l.615.619.615-.619a2.047,2.047,0,0,1,2.913,0,2.089,2.089,0,0,1,0,2.937l-3.248,3.251A.41.41,0,0,1,2946.352,3982.494Z" transform="translate(-17.839 -2.271)" fill="#fff"/>
      <path id="Path_583" data-name="Path 583" d="M2908.831,4038.374a.349.349,0,0,1-.248-.1l-2.72-2.743a1.765,1.765,0,0,1,0-2.479,1.73,1.73,0,0,1,2.459,0l.519.523.519-.523a1.729,1.729,0,0,1,2.459,0,1.765,1.765,0,0,1,0,2.479l-2.741,2.744A.348.348,0,0,1,2908.831,4038.374Z" transform="translate(-3.718 -24.081)" fill="#fe3745"/>
      <path id="Path_584" data-name="Path 584" d="M2907.234,4034.955a1.762,1.762,0,0,1-.057-2.417c-.028,0-.056,0-.085,0a1.72,1.72,0,0,0-1.23.513,1.765,1.765,0,0,0,0,2.479l2.72,2.743a.35.35,0,0,0,.248.1.346.346,0,0,0,.246-.1l.726-.726Z" transform="translate(-3.718 -24.081)" fill="#b7092b"/>
      <path id="Path_585" data-name="Path 585" d="M2927.381,4007.527v-1.693a1.719,1.719,0,0,1,1.718-1.718h.4a.123.123,0,1,0,0-.246,1.719,1.719,0,0,1-1.717-1.717v-1.693a1.719,1.719,0,0,1,1.717-1.718.123.123,0,1,0,0-.245,1.719,1.719,0,0,1-1.717-1.718v-1.693a1.72,1.72,0,0,1,1.717-1.718.122.122,0,1,0,0-.245h-.758a1.719,1.719,0,0,1-1.717-1.717v-1.694a1.719,1.719,0,0,1,1.408-1.688v-6.593a1.845,1.845,0,0,0-1.84-1.84h-2.863a2.174,2.174,0,0,0-2.089,1.823l-1.153,8.46a1.957,1.957,0,0,1-1.606,1.822v15.949h8.509C2927.385,4007.606,2927.381,4007.567,2927.381,4007.527Z" transform="translate(-8.896 -3.808)" fill="#ffe2b8"/>
      <path id="Path_586" data-name="Path 586" d="M2926.589,3979.59h-2.863a2.174,2.174,0,0,0-2.089,1.823l-1.153,8.46a1.957,1.957,0,0,1-1.606,1.822v2.435h2.427c.751,0,1.477-.82,1.614-1.823l1.153-8.46a2.175,2.175,0,0,1,2.089-1.823h2.269v-.594A1.845,1.845,0,0,0,2926.589,3979.59Z" transform="translate(-8.896 -3.808)" fill="#ffc987"/>
      <path id="Path_587" data-name="Path 587" d="M2934.3,4024.51a1.846,1.846,0,0,1-1.84-1.84v-1.693a1.846,1.846,0,0,1,1.84-1.84h9.98a1.846,1.846,0,0,1,1.84,1.84v1.693a1.846,1.846,0,0,1-1.84,1.84Z" transform="translate(-14.096 -18.95)" fill="#ffe2b8"/>
      <path id="Path_588" data-name="Path 588" d="M2907.392,4015.832a.615.615,0,0,1-.614-.613v-18.85a.616.616,0,0,1,.614-.614h6.362a.615.615,0,0,1,.613.614v18.85a.615.615,0,0,1-.613.613Z" transform="translate(-4.263 -9.997)" fill="#293d7c"/>
      <path id="Path_589" data-name="Path 589" d="M2909.212,4015.219v-18.85a.616.616,0,0,1,.614-.614h-2.434a.616.616,0,0,0-.614.614v18.85a.616.616,0,0,0,.614.613h2.434A.615.615,0,0,1,2909.212,4015.219Z" transform="translate(-4.263 -9.997)" fill="#1a2b63"/>
      <circle id="Ellipse_6" data-name="Ellipse 6" cx="1.642" cy="1.642" r="1.642" transform="translate(2904.668 3987.12)" fill="#aec1ed"/>
      <g id="Group_158" data-name="Group 158" transform="translate(2918.002 3984.064)">
        <path id="Path_590" data-name="Path 590" d="M2933.714,3998.384a1.846,1.846,0,0,1-1.84-1.84v-1.694a1.846,1.846,0,0,1,1.84-1.84h10.341a1.846,1.846,0,0,1,1.84,1.84v1.694a1.846,1.846,0,0,1-1.84,1.84Z" transform="translate(-2931.874 -3993.01)" fill="#ffe2b8"/>
        <path id="Path_591" data-name="Path 591" d="M2934.942,4007.093a1.846,1.846,0,0,1-1.84-1.84v-1.694a1.846,1.846,0,0,1,1.84-1.84h10.031a1.846,1.846,0,0,1,1.84,1.84v1.694a1.846,1.846,0,0,1-1.84,1.84Z" transform="translate(-2932.344 -3996.345)" fill="#ffe2b8"/>
        <path id="Path_592" data-name="Path 592" d="M2934.942,4015.8a1.846,1.846,0,0,1-1.84-1.84v-1.693a1.846,1.846,0,0,1,1.84-1.84h10.031a1.846,1.846,0,0,1,1.84,1.84v1.693a1.846,1.846,0,0,1-1.84,1.84Z" transform="translate(-2932.344 -3999.68)" fill="#ffe2b8"/>
      </g>
      <g id="Group_159" data-name="Group 159" transform="translate(2918.002 3984.064)">
        <path id="Path_593" data-name="Path 593" d="M2936.194,4022.615a1.846,1.846,0,0,1-1.84-1.84v-1.639h-.054a1.846,1.846,0,0,0-1.84,1.84v1.693a1.846,1.846,0,0,0,1.84,1.84h9.98a1.846,1.846,0,0,0,1.84-1.84v-.054h-9.926Z" transform="translate(-2932.098 -4003.014)" fill="#ffc987"/>
        <path id="Path_594" data-name="Path 594" d="M2935.609,3996.49a1.846,1.846,0,0,1-1.84-1.84v-1.64h-.054a1.846,1.846,0,0,0-1.84,1.84v1.694a1.846,1.846,0,0,0,1.84,1.84h10.341a1.846,1.846,0,0,0,1.84-1.84v-.054Z" transform="translate(-2931.874 -3993.01)" fill="#ffc987"/>
        <path id="Path_595" data-name="Path 595" d="M2936.837,4005.2a1.846,1.846,0,0,1-1.84-1.84v-1.64h-.054a1.846,1.846,0,0,0-1.84,1.84v1.694a1.846,1.846,0,0,0,1.84,1.84h10.031a1.846,1.846,0,0,0,1.84-1.84v-.055Z" transform="translate(-2932.344 -3996.345)" fill="#ffc987"/>
        <path id="Path_596" data-name="Path 596" d="M2936.837,4013.907a1.846,1.846,0,0,1-1.84-1.84v-1.639h-.054a1.846,1.846,0,0,0-1.84,1.84v1.693a1.846,1.846,0,0,0,1.84,1.84h10.031a1.846,1.846,0,0,0,1.84-1.84v-.054Z" transform="translate(-2932.344 -3999.68)" fill="#ffc987"/>
      </g>
      <path id="Path_597" data-name="Path 597" d="M2912.936,4046.216h-10.975a.245.245,0,0,0-.244.245v7.042a.244.244,0,0,0,.244.245h10.975a.245.245,0,0,0,.244-.245v-7.042A.245.245,0,0,0,2912.936,4046.216Z" transform="translate(-2.325 -29.319)" fill="#ffaf10"/>
      <path id="Path_598" data-name="Path 598" d="M2904.151,4053.535v-5.363l-2.376-1.836a.2.2,0,0,1,.037-.036.242.242,0,0,0-.1.193v7.042a.245.245,0,0,0,.244.245h2.434A.245.245,0,0,1,2904.151,4053.535Z" transform="translate(-2.325 -29.352)" fill="#ef9614"/>
      <path id="Path_599" data-name="Path 599" d="M2912.972,4046.216H2902a.242.242,0,0,0-.185.088l5.479,4.235a.334.334,0,0,0,.386,0l5.479-4.235A.241.241,0,0,0,2912.972,4046.216Z" transform="translate(-2.361 -29.319)" fill="#ffd00d"/>
      <path id="Path_600" data-name="Path 600" d="M2990.078,4014.905H2979.1a.246.246,0,0,0-.245.245v7.042a.246.246,0,0,0,.245.245h10.974a.246.246,0,0,0,.244-.245v-7.042A.245.245,0,0,0,2990.078,4014.905Z" transform="translate(-31.863 -17.33)" fill="#ffaf10"/>
      <path id="Path_601" data-name="Path 601" d="M2981.293,4022.225v-5.364l-2.375-1.836a.205.205,0,0,1,.036-.035.244.244,0,0,0-.1.192v7.042a.246.246,0,0,0,.245.245h2.434A.245.245,0,0,1,2981.293,4022.225Z" transform="translate(-31.863 -17.363)" fill="#ef9614"/>
      <path id="Path_602" data-name="Path 602" d="M2990.115,4014.905H2979.14a.24.24,0,0,0-.185.088l5.479,4.235a.334.334,0,0,0,.386,0l5.479-4.235A.241.241,0,0,0,2990.115,4014.905Z" transform="translate(-31.9 -17.33)" fill="#ffd00d"/>
    </g>
  </g>
</svg>
