<svg id="Component_9_1" data-name="Component 9 – 1" xmlns="http://www.w3.org/2000/svg" width="123.747" height="192.59" viewBox="0 0 123.747 192.59">
  <g id="Group_143" data-name="Group 143" transform="translate(-2575.745 -3973.433)">
    <path id="Path_472" data-name="Path 472" d="M2597.434,4128.822a18.764,18.764,0,0,1-6.21,1.111,9.495,9.495,0,0,1-10.378-10.2c.029-6.031,4.169-10.44,10.949-10.44a12.491,12.491,0,0,1,5.039.93l-.629,2.129a10.489,10.489,0,0,0-4.471-.869c-4.92,0-8.129,3.059-8.129,8.129,0,5.131,3.09,8.16,7.8,8.16a8.488,8.488,0,0,0,3.481-.541V4121.2h-4.11v-2.1h6.659Z" fill="#fff"/>
    <path id="Path_473" data-name="Path 473" d="M2601.425,4109.773a27.172,27.172,0,0,1,5.009-.42c2.79,0,4.59.51,5.851,1.65a5.038,5.038,0,0,1,1.59,3.84,5.309,5.309,0,0,1-3.811,5.16v.09c1.561.539,2.491,1.981,2.971,4.08a32.066,32.066,0,0,0,1.559,5.549h-2.7a26.179,26.179,0,0,1-1.349-4.83c-.6-2.789-1.68-3.84-4.051-3.93h-2.459v8.76h-2.61Zm2.61,9.211h2.67c2.789,0,4.559-1.531,4.559-3.84,0-2.611-1.889-3.75-4.649-3.781a10.782,10.782,0,0,0-2.58.24Z" fill="#fff"/>
    <path id="Path_474" data-name="Path 474" d="M2620.984,4123.363l-2.1,6.359h-2.7l6.871-20.219h3.149l6.9,20.219h-2.789l-2.16-6.359Zm6.63-2.039-1.979-5.821c-.452-1.32-.75-2.519-1.051-3.689h-.06c-.3,1.2-.63,2.43-1.02,3.66l-1.98,5.85Z" fill="#fff"/>
    <path id="Path_475" data-name="Path 475" d="M2636.074,4109.744a30.129,30.129,0,0,1,5.01-.391c2.58,0,4.471.6,5.67,1.68a5.438,5.438,0,0,1,1.769,4.23,5.956,5.956,0,0,1-1.559,4.321,8.386,8.386,0,0,1-6.18,2.218,9,9,0,0,1-2.1-.179v8.1h-2.609Zm2.609,9.75a8.776,8.776,0,0,0,2.161.209c3.15,0,5.07-1.53,5.07-4.321,0-2.67-1.891-3.959-4.77-3.959a10.923,10.923,0,0,0-2.461.211Z" fill="#fff"/>
    <path id="Path_476" data-name="Path 476" d="M2654.644,4109.5v8.459h9.78V4109.5h2.639v20.219h-2.639v-9.478h-9.78v9.478h-2.61V4109.5Z" fill="#fff"/>
    <path id="Path_477" data-name="Path 477" d="M2674.2,4109.5v20.219h-2.61V4109.5Z" fill="#fff"/>
    <path id="Path_478" data-name="Path 478" d="M2692.893,4129.062a12.932,12.932,0,0,1-5.339.961c-5.7,0-9.99-3.6-9.99-10.23,0-6.331,4.289-10.62,10.56-10.62a10.828,10.828,0,0,1,4.8.9l-.63,2.129a9.521,9.521,0,0,0-4.08-.84c-4.74,0-7.89,3.031-7.89,8.34,0,4.951,2.85,8.131,7.77,8.131a10.463,10.463,0,0,0,4.259-.84Z" fill="#fff"/>
    <path id="Path_479" data-name="Path 479" d="M2575.745,4145.773a37.407,37.407,0,0,1,5.55-.42c3.75,0,6.42.871,8.189,2.52a9.308,9.308,0,0,1,2.85,7.259,10.705,10.705,0,0,1-2.909,7.862c-1.89,1.888-5.01,2.908-8.941,2.908a42.653,42.653,0,0,1-4.739-.238Zm2.61,17.879a16.35,16.35,0,0,0,2.64.15c5.579,0,8.609-3.119,8.609-8.58.031-4.769-2.67-7.8-8.189-7.8a14.829,14.829,0,0,0-3.06.27Z" fill="#fff"/>
    <path id="Path_480" data-name="Path 480" d="M2606.194,4156.244h-7.86v7.289h8.76v2.189h-11.37V4145.5h10.92v2.19h-8.31v6.391h7.86Z" fill="#fff"/>
    <path id="Path_481" data-name="Path 481" d="M2610.125,4162.543a9.243,9.243,0,0,0,4.68,1.32c2.669,0,4.229-1.41,4.229-3.449,0-1.891-1.08-2.971-3.81-4.022-3.3-1.17-5.339-2.879-5.339-5.728,0-3.151,2.609-5.491,6.539-5.491a9.183,9.183,0,0,1,4.47.991l-.72,2.129a8.058,8.058,0,0,0-3.84-.959c-2.76,0-3.81,1.65-3.81,3.029,0,1.89,1.23,2.82,4.021,3.9,3.42,1.321,5.159,2.971,5.159,5.94,0,3.121-2.31,5.82-7.079,5.82a10.433,10.433,0,0,1-5.16-1.291Z" fill="#fff"/>
    <path id="Path_482" data-name="Path 482" d="M2627.885,4145.5v20.219h-2.611V4145.5Z" fill="#fff"/>
    <path id="Path_483" data-name="Path 483" d="M2647.834,4164.822a18.773,18.773,0,0,1-6.21,1.111,9.5,9.5,0,0,1-10.38-10.2c.03-6.031,4.17-10.44,10.949-10.44a12.506,12.506,0,0,1,5.041.93l-.631,2.129a10.476,10.476,0,0,0-4.468-.869c-4.92,0-8.131,3.059-8.131,8.129,0,5.131,3.09,8.16,7.8,8.16a8.477,8.477,0,0,0,3.478-.541V4157.2h-4.109v-2.1h6.66Z" fill="#fff"/>
    <path id="Path_484" data-name="Path 484" d="M2651.824,4165.722V4145.5h2.85l6.48,10.231a56.99,56.99,0,0,1,3.629,6.568l.061-.029c-.241-2.7-.3-5.16-.3-8.311V4145.5H2667v20.219h-2.641l-6.42-10.26a63.953,63.953,0,0,1-3.779-6.75l-.09.032c.15,2.549.21,4.98.21,8.34v8.638Z" fill="#fff"/>
    <path id="Path_485" data-name="Path 485" d="M2682.033,4156.244h-7.859v7.289h8.759v2.189h-11.369V4145.5h10.92v2.19h-8.31v6.391h7.859Z" fill="#fff"/>
    <path id="Path_486" data-name="Path 486" d="M2686.323,4145.773a27.177,27.177,0,0,1,5.01-.42c2.79,0,4.59.51,5.85,1.65a5.038,5.038,0,0,1,1.59,3.84,5.309,5.309,0,0,1-3.81,5.16v.09c1.56.539,2.49,1.981,2.97,4.08a32.143,32.143,0,0,0,1.559,5.549h-2.7a26.219,26.219,0,0,1-1.35-4.83c-.6-2.789-1.679-3.84-4.051-3.93h-2.459v8.76h-2.61Zm2.61,9.211h2.67c2.789,0,4.56-1.531,4.56-3.84,0-2.611-1.89-3.75-4.649-3.781a10.788,10.788,0,0,0-2.581.24Z" fill="#fff"/>
  </g>
  <g id="Group_154" data-name="Group 154" transform="translate(-2575.745 -3973.433)">
    <path id="Path_487" data-name="Path 487" d="M2693.287,3973.433h-110.2a4.081,4.081,0,0,0-4.082,4.081v65.306h118.367v-65.306A4.081,4.081,0,0,0,2693.287,3973.433Zm-2.041,63.265H2585.124v-57.143h106.122Z" fill="#464655"/>
    <g id="Group_144" data-name="Group 144">
      <path id="Path_488" data-name="Path 488" d="M2625.939,4005.065a1.02,1.02,0,0,1,1.021,1.021h3.061v-3.062h-4.082a1.02,1.02,0,0,1,0-2.04h4.082v-13.266h-18.367v18.368h13.265A1.021,1.021,0,0,1,2625.939,4005.065Z" fill="#fff"/>
      <path id="Path_489" data-name="Path 489" d="M2585.124,4036.7h106.122v-57.143H2585.124Zm44.9-5.1h-4.081a1.021,1.021,0,1,1,0-2.041h4.081a1.021,1.021,0,1,1,0,2.041Zm-4.082-10.2a1.02,1.02,0,0,1,1.021,1.021v4.082a1.021,1.021,0,0,1-2.041,0v-4.082A1.021,1.021,0,0,1,2625.939,4021.391Zm-1.02-3.061v-4.081a1.021,1.021,0,1,1,2.041,0v4.081a1.021,1.021,0,1,1-2.041,0Zm13.265,13.266H2634.1a1.021,1.021,0,1,1,0-2.041h4.081a1.021,1.021,0,1,1,0,2.041Zm17.347-5.1a1.021,1.021,0,0,1-2.041,0v-4.082a1.021,1.021,0,1,1,2.041,0Zm0-8.164a1.021,1.021,0,1,1-2.041,0v-4.081a1.021,1.021,0,1,1,2.041,0Zm0-8.163a1.021,1.021,0,1,1-2.041,0v-4.081a1.021,1.021,0,1,1,2.041,0Zm9.184,2.041v-26.531a2.04,2.04,0,0,1,2.041-2.04h18.367a2.041,2.041,0,0,1,2.041,2.04v44.9a2.041,2.041,0,0,1-2.041,2.041h-18.367a2.041,2.041,0,0,1-2.041-2.041Zm-14.286-11.224h4.082a1.02,1.02,0,0,1,0,2.04h-4.082a1.02,1.02,0,0,1,0-2.04Zm0,28.571h4.082a1.021,1.021,0,0,1,0,2.041h-4.082a1.021,1.021,0,0,1,0-2.041Zm-8.163-28.571h4.082a1.02,1.02,0,0,1,0,2.04h-4.082a1.02,1.02,0,0,1,0-2.04Zm0,28.571h4.082a1.021,1.021,0,0,1,0,2.041h-4.082a1.021,1.021,0,0,1,0-2.041Zm-34.694-43.878a2.041,2.041,0,0,1,2.041-2.04h22.449a2.04,2.04,0,0,1,2.041,2.04v15.307h4.081a1.02,1.02,0,1,1,0,2.04H2634.1v5.1a2.044,2.044,0,0,1-.1.633l5.355,4.8a.819.819,0,0,1-.217,1.36l-2.03.891,1.813,4.128a1.021,1.021,0,0,1-1.87.821l-1.812-4.129-2.03.891a.819.819,0,0,1-1.149-.76l.086-6.6c-.029,0-.057,0-.086,0h-5.1a1.021,1.021,0,1,1-2.041,0h-15.306a2.04,2.04,0,0,1-2.041-2.04v-22.45Zm-18.367,0a2.04,2.04,0,0,1,2.041-2.04h6.123a2.04,2.04,0,0,1,2.041,2.04v44.9a2.041,2.041,0,0,1-2.041,2.041h-6.123a2.041,2.041,0,0,1-2.041-2.041Z" fill="#fff"/>
    </g>
    <path id="Path_490" data-name="Path 490" d="M2579,4050.983a4.081,4.081,0,0,0,4.082,4.082h110.2a4.081,4.081,0,0,0,4.082-4.082v-8.163H2579Zm59.184-5.1a3.061,3.061,0,1,1-3.061,3.061A3.062,3.062,0,0,1,2638.185,4045.881Z" fill="#bec8dc"/>
    <path id="Path_491" data-name="Path 491" d="M2620.073,4069.351H2656.3l-1.275-10.2h-33.674Z" fill="#afbbd0"/>
    <path id="Path_492" data-name="Path 492" d="M2619.817,4069.351a2.041,2.041,0,0,0,0,4.082h36.735a2.041,2.041,0,0,0,0-4.082h-36.735Z" fill="#bec8dc"/>
    <g id="Group_145" data-name="Group 145">
      <path id="Path_493" data-name="Path 493" d="M2621.348,4059.147h33.674l-.51-4.082h-32.653Z" fill="#96a5b9"/>
      <circle id="Ellipse_4" data-name="Ellipse 4" cx="3.061" cy="3.061" r="3.061" transform="translate(2635.124 4045.881)" fill="#96a5b9"/>
    </g>
    <path id="Path_494" data-name="Path 494" d="M2591.246,4032.616h6.123a2.041,2.041,0,0,0,2.041-2.041v-44.9a2.04,2.04,0,0,0-2.041-2.04h-6.123a2.04,2.04,0,0,0-2.041,2.04v44.9A2.041,2.041,0,0,0,2591.246,4032.616Zm2.041-44.9h2.041a2.041,2.041,0,0,1,0,4.082h-2.041a2.041,2.041,0,0,1,0-4.082Zm0,6.123h2.041a2.041,2.041,0,1,1,0,4.081h-2.041a2.041,2.041,0,1,1,0-4.081Zm0,6.122h2.041a2.041,2.041,0,0,1,0,4.082h-2.041a2.041,2.041,0,0,1,0-4.082Zm0,6.123h2.041a2.041,2.041,0,1,1,0,4.081h-2.041a2.041,2.041,0,1,1,0-4.081Zm0,6.122h2.041a2.041,2.041,0,0,1,0,4.082h-2.041a2.041,2.041,0,0,1,0-4.082Zm-2.041,10.2a2.041,2.041,0,0,1,2.041-2.041h2.041a2.041,2.041,0,0,1,2.041,2.041v4.082a2.04,2.04,0,0,1-2.041,2.04h-2.041a2.04,2.04,0,0,1-2.041-2.04Z" fill="#bec8dc"/>
    <path id="Path_495" data-name="Path 495" d="M2593.287,3991.8h2.041a2.041,2.041,0,0,0,0-4.082h-2.041a2.041,2.041,0,0,0,0,4.082Z" fill="#e4eaf6"/>
    <path id="Path_496" data-name="Path 496" d="M2593.287,3997.922h2.041a2.041,2.041,0,0,0,0-4.082h-2.041a2.041,2.041,0,0,0,0,4.082Z" fill="#96a5b9"/>
    <g id="Group_146" data-name="Group 146">
      <path id="Path_497" data-name="Path 497" d="M2593.287,4004.045h2.041a2.041,2.041,0,0,0,0-4.082h-2.041a2.041,2.041,0,0,0,0,4.082Z" fill="#e4eaf6"/>
      <path id="Path_498" data-name="Path 498" d="M2593.287,4010.167h2.041a2.041,2.041,0,0,0,0-4.082h-2.041a2.041,2.041,0,0,0,0,4.082Z" fill="#e4eaf6"/>
      <path id="Path_499" data-name="Path 499" d="M2593.287,4016.289h2.041a2.041,2.041,0,1,0,0-4.081h-2.041a2.041,2.041,0,1,0,0,4.081Z" fill="#e4eaf6"/>
    </g>
    <path id="Path_500" data-name="Path 500" d="M2593.287,4028.534h2.041a2.04,2.04,0,0,0,2.041-2.04v-4.082a2.041,2.041,0,0,0-2.041-2.041h-2.041a2.041,2.041,0,0,0-2.041,2.041v4.082A2.04,2.04,0,0,0,2593.287,4028.534Z" fill="#96a5b9"/>
    <g id="Group_147" data-name="Group 147">
      <path id="Path_501" data-name="Path 501" d="M2687.164,3985.677a2.041,2.041,0,0,0-2.041-2.04h-18.367a2.04,2.04,0,0,0-2.041,2.04v12.245h22.449v-12.245Zm-3.061,10.205h-16.327a1.021,1.021,0,0,1,0-2.041H2684.1a1.021,1.021,0,0,1,0,2.041Zm0-4.082h-16.327a1.021,1.021,0,0,1,0-2.041H2684.1a1.021,1.021,0,1,1,0,2.041Zm0-4.082h-16.327a1.021,1.021,0,0,1,0-2.041H2684.1a1.021,1.021,0,1,1,0,2.041Z" fill="#bec8dc"/>
      <path id="Path_502" data-name="Path 502" d="M2666.756,4032.616h18.367a2.041,2.041,0,0,0,2.041-2.041v-18.367h-22.449v18.367A2.041,2.041,0,0,0,2666.756,4032.616Zm9.184-18.367h8.163a1.021,1.021,0,0,1,0,2.041h-8.163a1.021,1.021,0,1,1,0-2.041Zm0,4.081h8.163a1.021,1.021,0,0,1,0,2.041h-8.163a1.021,1.021,0,1,1,0-2.041Zm0,4.082h8.163a1.02,1.02,0,0,1,0,2.041h-8.163a1.02,1.02,0,1,1,0-2.041Zm0,4.082h8.163a1.02,1.02,0,0,1,0,2.04h-8.163a1.02,1.02,0,1,1,0-2.04Zm-4.082-12.245h0a1.021,1.021,0,0,1,0,2.041h0a1.021,1.021,0,0,1,0-2.041Zm0,4.081h0a1.021,1.021,0,0,1,0,2.041h0a1.021,1.021,0,0,1,0-2.041Zm0,4.082h0a1.02,1.02,0,0,1,0,2.041h0a1.02,1.02,0,0,1,0-2.041Zm0,4.082h0a1.02,1.02,0,0,1,0,2.04h0a1.02,1.02,0,0,1,0-2.04Zm-4.082-12.245h0a1.021,1.021,0,1,1,0,2.041h0a1.021,1.021,0,0,1,0-2.041Zm0,4.081h0a1.021,1.021,0,1,1,0,2.041h0a1.021,1.021,0,0,1,0-2.041Zm0,4.082h0a1.02,1.02,0,1,1,0,2.041h0a1.02,1.02,0,0,1,0-2.041Zm0,4.082h0a1.02,1.02,0,1,1,0,2.04h0a1.02,1.02,0,0,1,0-2.04Z" fill="#bec8dc"/>
    </g>
    <g id="Group_148" data-name="Group 148">
      <path id="Path_503" data-name="Path 503" d="M2687.164,3997.922h-22.449v14.286h22.449Zm-17.347,12.245h-2.041a1.021,1.021,0,0,1,0-2.041h2.041a1.021,1.021,0,1,1,0,2.041Zm0-4.081h-2.041a1.021,1.021,0,0,1,0-2.041h2.041a1.021,1.021,0,1,1,0,2.041Zm0-4.082h-2.041a1.021,1.021,0,0,1,0-2.041h2.041a1.021,1.021,0,1,1,0,2.041Zm14.286,8.163h-10.2a1.021,1.021,0,1,1,0-2.041h10.2a1.021,1.021,0,0,1,0,2.041Zm0-4.081h-10.2a1.021,1.021,0,1,1,0-2.041h10.2a1.021,1.021,0,0,1,0,2.041Zm0-4.082h-10.2a1.021,1.021,0,1,1,0-2.041h10.2a1.021,1.021,0,0,1,0,2.041Z" fill="#96a5b9"/>
      <path id="Path_504" data-name="Path 504" d="M2684.1,3985.677h-12.245a1.021,1.021,0,0,1,0,2.041H2684.1a1.021,1.021,0,0,0,0-2.041Z" fill="#96a5b9"/>
      <path id="Path_505" data-name="Path 505" d="M2668.8,3986.7a1.02,1.02,0,0,1,1.02-1.021h-2.041a1.021,1.021,0,0,0,0,2.041h2.041A1.02,1.02,0,0,1,2668.8,3986.7Z" fill="#96a5b9"/>
      <path id="Path_506" data-name="Path 506" d="M2684.1,3993.841h-8.163a1.021,1.021,0,0,1,0,2.041h8.163a1.021,1.021,0,0,0,0-2.041Z" fill="#96a5b9"/>
      <path id="Path_507" data-name="Path 507" d="M2672.878,3994.861a1.02,1.02,0,0,1,1.021-1.02h-6.123a1.021,1.021,0,0,0,0,2.041h6.123A1.021,1.021,0,0,1,2672.878,3994.861Z" fill="#96a5b9"/>
    </g>
    <path id="Path_508" data-name="Path 508" d="M2684.1,3999.963h-10.2a1.021,1.021,0,1,0,0,2.041h10.2a1.021,1.021,0,0,0,0-2.041Z" fill="#bec8dc"/>
    <g id="Group_149" data-name="Group 149">
      <path id="Path_509" data-name="Path 509" d="M2679,3990.78a1.021,1.021,0,0,1,1.02-1.021h-12.245a1.021,1.021,0,0,0,0,2.041h12.245A1.02,1.02,0,0,1,2679,3990.78Z" fill="#96a5b9"/>
      <path id="Path_510" data-name="Path 510" d="M2684.1,3989.759h-2.041a1.021,1.021,0,0,1,0,2.041h2.041a1.021,1.021,0,0,0,0-2.041Z" fill="#96a5b9"/>
    </g>
    <g id="Group_150" data-name="Group 150">
      <path id="Path_511" data-name="Path 511" d="M2672.878,3986.7a1.02,1.02,0,0,0-1.02-1.021h-2.041a1.021,1.021,0,0,0,0,2.041h2.041A1.02,1.02,0,0,0,2672.878,3986.7Z" fill="#e4eaf6"/>
      <path id="Path_512" data-name="Path 512" d="M2676.96,3994.861a1.02,1.02,0,0,0-1.02-1.02H2673.9a1.021,1.021,0,1,0,0,2.041h2.041A1.021,1.021,0,0,0,2676.96,3994.861Z" fill="#e4eaf6"/>
      <path id="Path_513" data-name="Path 513" d="M2669.817,3999.963h-2.041a1.021,1.021,0,0,0,0,2.041h2.041a1.021,1.021,0,1,0,0-2.041Z" fill="#e4eaf6"/>
    </g>
    <path id="Path_514" data-name="Path 514" d="M2684.1,4004.045h-10.2a1.021,1.021,0,1,0,0,2.041h10.2a1.021,1.021,0,0,0,0-2.041Z" fill="#bec8dc"/>
    <path id="Path_515" data-name="Path 515" d="M2669.817,4004.045h-2.041a1.021,1.021,0,0,0,0,2.041h2.041a1.021,1.021,0,1,0,0-2.041Z" fill="#e4eaf6"/>
    <path id="Path_516" data-name="Path 516" d="M2684.1,4008.126h-10.2a1.021,1.021,0,1,0,0,2.041h10.2a1.021,1.021,0,0,0,0-2.041Z" fill="#bec8dc"/>
    <g id="Group_151" data-name="Group 151">
      <path id="Path_517" data-name="Path 517" d="M2669.817,4008.126h-2.041a1.021,1.021,0,0,0,0,2.041h2.041a1.021,1.021,0,1,0,0-2.041Z" fill="#e4eaf6"/>
      <path id="Path_518" data-name="Path 518" d="M2667.776,4020.371h0a1.021,1.021,0,1,0,0-2.041h0a1.021,1.021,0,0,0,0,2.041Z" fill="#e4eaf6"/>
      <path id="Path_519" data-name="Path 519" d="M2667.776,4016.289h0a1.02,1.02,0,1,0,0-2.04h0a1.02,1.02,0,0,0,0,2.04Z" fill="#e4eaf6"/>
      <path id="Path_520" data-name="Path 520" d="M2667.776,4028.534h0a1.02,1.02,0,1,0,0-2.04h0a1.02,1.02,0,0,0,0,2.04Z" fill="#e4eaf6"/>
      <path id="Path_521" data-name="Path 521" d="M2667.776,4024.453h0a1.02,1.02,0,1,0,0-2.041h0a1.02,1.02,0,0,0,0,2.041Z" fill="#e4eaf6"/>
    </g>
    <g id="Group_152" data-name="Group 152">
      <path id="Path_522" data-name="Path 522" d="M2671.858,4020.371h0a1.021,1.021,0,0,0,0-2.041h0a1.021,1.021,0,0,0,0,2.041Z" fill="#96a5b9"/>
      <path id="Path_523" data-name="Path 523" d="M2671.858,4016.289h0a1.02,1.02,0,0,0,0-2.04h0a1.02,1.02,0,0,0,0,2.04Z" fill="#96a5b9"/>
      <path id="Path_524" data-name="Path 524" d="M2671.858,4028.534h0a1.02,1.02,0,0,0,0-2.04h0a1.02,1.02,0,0,0,0,2.04Z" fill="#96a5b9"/>
      <path id="Path_525" data-name="Path 525" d="M2671.858,4024.453h0a1.02,1.02,0,0,0,0-2.041h0a1.02,1.02,0,0,0,0,2.041Z" fill="#96a5b9"/>
      <path id="Path_526" data-name="Path 526" d="M2675.94,4020.371h8.163a1.021,1.021,0,0,0,0-2.041h-8.163a1.021,1.021,0,1,0,0,2.041Z" fill="#96a5b9"/>
      <path id="Path_527" data-name="Path 527" d="M2675.94,4016.289h8.163a1.02,1.02,0,0,0,0-2.04h-8.163a1.02,1.02,0,1,0,0,2.04Z" fill="#96a5b9"/>
      <path id="Path_528" data-name="Path 528" d="M2675.94,4028.534h8.163a1.02,1.02,0,0,0,0-2.04h-8.163a1.02,1.02,0,1,0,0,2.04Z" fill="#96a5b9"/>
      <path id="Path_529" data-name="Path 529" d="M2675.94,4024.453h8.163a1.02,1.02,0,0,0,0-2.041h-8.163a1.02,1.02,0,1,0,0,2.041Z" fill="#96a5b9"/>
    </g>
    <path id="Path_530" data-name="Path 530" d="M2683.082,3990.78a1.02,1.02,0,0,0-1.02-1.021h-2.041a1.021,1.021,0,0,0,0,2.041h2.041A1.02,1.02,0,0,0,2683.082,3990.78Z" fill="#e4eaf6"/>
    <path id="Path_531" data-name="Path 531" d="M2609.613,4010.167h15.306v-4.081h-13.265v-18.368h18.367v13.266a1.02,1.02,0,0,1,0,2.04v3.062h-3.061v4.081h5.1c.029,0,.057,0,.086,0l.016-1.227a.819.819,0,0,1,1.366-.6l.472.423a2.045,2.045,0,0,0,.1-.634v-5.1a1.021,1.021,0,0,1,0-2.041v-15.306a2.041,2.041,0,0,0-2.041-2.04h-22.449a2.04,2.04,0,0,0-2.041,2.04v22.449A2.041,2.041,0,0,0,2609.613,4010.167Z" fill="#ff6469"/>
    <g id="Group_153" data-name="Group 153">
      <path id="Path_532" data-name="Path 532" d="M2625.939,4019.351a1.02,1.02,0,0,0,1.021-1.021v-4.081a1.021,1.021,0,1,0-2.041,0v4.081A1.021,1.021,0,0,0,2625.939,4019.351Z" fill="#96a5b9"/>
      <path id="Path_533" data-name="Path 533" d="M2650.429,4031.6h4.082a1.021,1.021,0,0,0,0-2.041h-4.082a1.021,1.021,0,0,0,0,2.041Z" fill="#96a5b9"/>
      <path id="Path_534" data-name="Path 534" d="M2654.511,4021.391a1.02,1.02,0,0,0-1.02,1.021v4.082a1.02,1.02,0,0,0,2.04,0v-4.082A1.02,1.02,0,0,0,2654.511,4021.391Z" fill="#96a5b9"/>
      <path id="Path_535" data-name="Path 535" d="M2650.429,4003.024h4.082a1.021,1.021,0,0,0,0-2.041h-4.082a1.021,1.021,0,0,0,0,2.041Z" fill="#96a5b9"/>
      <path id="Path_536" data-name="Path 536" d="M2654.511,4005.065a1.02,1.02,0,0,0-1.02,1.021v4.081a1.02,1.02,0,1,0,2.04,0v-4.081A1.02,1.02,0,0,0,2654.511,4005.065Z" fill="#96a5b9"/>
      <path id="Path_537" data-name="Path 537" d="M2638.184,4029.555H2634.1a1.021,1.021,0,1,0,0,2.041h4.081a1.021,1.021,0,1,0,0-2.041Z" fill="#96a5b9"/>
      <path id="Path_538" data-name="Path 538" d="M2625.939,4005.065a1.02,1.02,0,0,0-1.02,1.021v4.081a1.021,1.021,0,1,0,2.041,0v-4.081A1.02,1.02,0,0,0,2625.939,4005.065Z" fill="#96a5b9"/>
      <path id="Path_539" data-name="Path 539" d="M2630.021,4029.555h-4.081a1.021,1.021,0,1,0,0,2.041h4.081a1.021,1.021,0,1,0,0-2.041Z" fill="#96a5b9"/>
      <path id="Path_540" data-name="Path 540" d="M2624.919,4026.494a1.021,1.021,0,0,0,2.041,0v-4.082a1.021,1.021,0,1,0-2.041,0Z" fill="#96a5b9"/>
      <path id="Path_541" data-name="Path 541" d="M2654.511,4013.228a1.02,1.02,0,0,0-1.02,1.021v4.081a1.02,1.02,0,1,0,2.04,0v-4.081A1.02,1.02,0,0,0,2654.511,4013.228Z" fill="#96a5b9"/>
      <path id="Path_542" data-name="Path 542" d="M2642.266,4003.024h4.082a1.021,1.021,0,0,0,0-2.041h-4.082a1.021,1.021,0,0,0,0,2.041Z" fill="#96a5b9"/>
      <path id="Path_543" data-name="Path 543" d="M2624.919,4002a1.02,1.02,0,0,0,1.021,1.02h4.081a1.021,1.021,0,1,0,0-2.041h-4.081A1.022,1.022,0,0,0,2624.919,4002Z" fill="#96a5b9"/>
      <path id="Path_544" data-name="Path 544" d="M2642.266,4031.6h4.082a1.021,1.021,0,0,0,0-2.041h-4.082a1.021,1.021,0,0,0,0,2.041Z" fill="#96a5b9"/>
      <path id="Path_545" data-name="Path 545" d="M2633.082,4002a1.02,1.02,0,0,0,1.021,1.02h4.081a1.021,1.021,0,1,0,0-2.041H2634.1A1.022,1.022,0,0,0,2633.082,4002Z" fill="#96a5b9"/>
    </g>
    <path id="Path_546" data-name="Path 546" d="M2632.164,4008.936l-.016,1.227-.086,6.6a.819.819,0,0,0,1.148.761l2.03-.891,1.813,4.129a1.021,1.021,0,0,0,1.87-.821l-1.813-4.128,2.029-.891a.819.819,0,0,0,.218-1.36l-5.356-4.8-.472-.423A.819.819,0,0,0,2632.164,4008.936Z" fill="#464655"/>
  </g>
</svg>
