<svg id="experienceQA" xmlns="http://www.w3.org/2000/svg" width="100" height="100" viewBox="0 0 100 100">
  <g id="Group_488" data-name="Group 488" transform="translate(-1133 -3263)">
    <g id="Group_486" data-name="Group 486" transform="translate(594 124)">
      <g id="Group_477" data-name="Group 477" transform="translate(209 -15)">
        <g id="Group_472" data-name="Group 472" transform="translate(-61 343)">
          <g id="Group_446" data-name="Group 446" transform="translate(265 -3530)">
            <rect id="Rectangle_75" data-name="Rectangle 75" width="100" height="100" rx="25" transform="translate(126 6341)" fill="#fff"/>
          </g>
        </g>
      </g>
    </g>
    <g id="Group_487" data-name="Group 487" transform="translate(-2346.339 -679.792)">
      <g id="Group_135" data-name="Group 135" transform="translate(3507.339 3962.792)">
        <g id="Group_115" data-name="Group 115" transform="translate(17.813 54.375)">
          <path id="Path_424" data-name="Path 424" d="M3543.59,4053.417h-5.625a.937.937,0,0,0-.938.937v.938a3.75,3.75,0,0,0,7.5,0v-.938A.937.937,0,0,0,3543.59,4053.417Z" transform="translate(-3537.028 -4053.417)" fill="#868491"/>
        </g>
        <g id="Group_116" data-name="Group 116" transform="translate(17.813 54.375)">
          <path id="Path_425" data-name="Path 425" d="M3540.777,4053.417h-2.811a.937.937,0,0,0-.938.937v.938a3.754,3.754,0,0,0,3.749,3.75v-5.625Z" transform="translate(-3537.028 -4053.417)" fill="#5c546a"/>
        </g>
        <g id="Group_117" data-name="Group 117">
          <path id="Path_426" data-name="Path 426" d="M3543.665,3968.639a21.4,21.4,0,0,0-16.141-5.8,21.561,21.561,0,0,0-9,40.417,5.586,5.586,0,0,1,2.879,4.9v7.138a3.753,3.753,0,0,0,3.75,3.75h7.5a3.753,3.753,0,0,0,3.75-3.75v-7.138a5.609,5.609,0,0,1,2.9-4.913,21.561,21.561,0,0,0,4.361-34.6Z" transform="translate(-3507.339 -3962.792)" fill="#ffcd00"/>
        </g>
        <g id="Group_118" data-name="Group 118" transform="translate(6.563 6.564)">
          <path id="Path_427" data-name="Path 427" d="M3533.276,3973.731a15,15,0,1,1-15,15,15,15,0,0,1,15-15" transform="translate(-3518.277 -3973.731)" fill="#ffe671"/>
        </g>
        <g id="Group_120" data-name="Group 120" transform="translate(14.063 23.438)">
          <g id="Group_119" data-name="Group 119">
            <path id="Path_428" data-name="Path 428" d="M3541.556,4005.6a2.942,2.942,0,0,1-2.347-1.257c-.409-.467-.573-.618-.938-.618s-.526.151-.933.617a2.815,2.815,0,0,1-4.69,0c-.407-.466-.569-.617-.933-.617a.938.938,0,0,1,0-1.875,2.974,2.974,0,0,1,2.345,1.258c.407.466.569.617.933.617s.526-.151.934-.617a2.977,2.977,0,0,1,2.345-1.258,2.944,2.944,0,0,1,2.347,1.257c.409.468.572.618.938.618s.527-.151.937-.617a2.98,2.98,0,0,1,2.347-1.258.938.938,0,1,1,0,1.875c-.365,0-.528.151-.937.618A2.979,2.979,0,0,1,3541.556,4005.6Z" transform="translate(-3530.778 -4001.855)" fill="#fff"/>
          </g>
        </g>
        <g id="Group_122" data-name="Group 122" transform="translate(13.125 21.562)">
          <g id="Group_121" data-name="Group 121">
            <path id="Path_429" data-name="Path 429" d="M3534.839,4022.167a.938.938,0,0,1-.916-.738l-4.687-21.562a.938.938,0,0,1,1.832-.4l4.688,21.562a.934.934,0,0,1-.917,1.137Z" transform="translate(-3529.215 -3998.729)" fill="#5c546a"/>
          </g>
        </g>
        <g id="Group_124" data-name="Group 124" transform="translate(23.438 21.563)">
          <g id="Group_123" data-name="Group 123">
            <path id="Path_430" data-name="Path 430" d="M3547.341,4022.167a.909.909,0,0,1-.2-.021.939.939,0,0,1-.717-1.116l4.687-21.562a.938.938,0,0,1,1.833.4l-4.687,21.562A.938.938,0,0,1,3547.341,4022.167Z" transform="translate(-3546.402 -3998.729)" fill="#5c546a"/>
          </g>
        </g>
        <g id="Group_125" data-name="Group 125" transform="translate(13.902 44.063)">
          <path id="Path_431" data-name="Path 431" d="M3530.509,4036.23a5.635,5.635,0,0,1,.161,1.3v7.138a3.754,3.754,0,0,0,3.75,3.75h7.5a3.753,3.753,0,0,0,3.75-3.75v-7.138a5.573,5.573,0,0,1,.163-1.3Z" transform="translate(-3530.509 -4036.23)" fill="#b4b6bc"/>
        </g>
        <g id="Group_126" data-name="Group 126" transform="translate(13.902 44.063)">
          <path id="Path_432" data-name="Path 432" d="M3538.169,4036.23h-7.66a5.635,5.635,0,0,1,.161,1.3v7.138a3.754,3.754,0,0,0,3.75,3.75h3.749Z" transform="translate(-3530.509 -4036.23)" fill="#868491"/>
        </g>
        <g id="Group_128" data-name="Group 128" transform="translate(21.562 46.875)">
          <g id="Group_127" data-name="Group 127">
            <rect id="Rectangle_3" data-name="Rectangle 3" width="7.5" height="1.875" fill="#868491"/>
          </g>
        </g>
        <g id="Group_130" data-name="Group 130" transform="translate(21.563 50.625)">
          <g id="Group_129" data-name="Group 129">
            <rect id="Rectangle_4" data-name="Rectangle 4" width="7.5" height="1.875" fill="#868491"/>
          </g>
        </g>
        <g id="Group_132" data-name="Group 132" transform="translate(14.062 46.875)">
          <g id="Group_131" data-name="Group 131">
            <rect id="Rectangle_5" data-name="Rectangle 5" width="7.5" height="1.875" fill="#5c546a"/>
          </g>
        </g>
        <g id="Group_134" data-name="Group 134" transform="translate(14.062 50.625)">
          <g id="Group_133" data-name="Group 133">
            <rect id="Rectangle_6" data-name="Rectangle 6" width="7.5" height="1.875" fill="#5c546a"/>
          </g>
        </g>
      </g>
    </g>
  </g>
</svg>
