<svg id="likeWeekends" xmlns="http://www.w3.org/2000/svg" width="100" height="100" viewBox="0 0 100 100">
  <g id="Group_459" data-name="Group 459" transform="translate(-975 -2785)">
    <g id="Group_458" data-name="Group 458" transform="translate(849 -3556)">
      <rect id="Rectangle_75" data-name="Rectangle 75" width="100" height="100" rx="25" transform="translate(126 6341)" fill="#fff"/>
    </g>
    <g id="Layer_2" data-name="Layer 2" transform="translate(994.974 2815)">
      <g id="Layer_1" data-name="Layer 1" transform="translate(0.026)">
        <path id="Path_1573" data-name="Path 1573" d="M42.452,83v7.587H20.724A1.724,1.724,0,0,1,19,88.863V83Z" transform="translate(-12.456 -54.375)" fill="#ffce00"/>
        <path id="Path_1574" data-name="Path 1574" d="M50.968,0V28.625H32V6.9A6.9,6.9,0,0,1,38.9,0Z" transform="translate(-20.973 0)" fill="#ffce00"/>
        <path id="Path_1575" data-name="Path 1575" d="M56.209,60v7.932H40V65.173A5.173,5.173,0,0,1,45.173,60Z" transform="translate(-26.214 -39.307)" fill="#ffb000"/>
        <path id="Path_1576" data-name="Path 1576" d="M13.812,28.915v14.14H6.57V35.812a6.9,6.9,0,1,1,7.242-7.242Z" transform="translate(-0.026 -14.43)" fill="#ffeea4"/>
        <path id="Path_1577" data-name="Path 1577" d="M105.968,6.9V8.967a6.9,6.9,0,0,0-2.759,5.173c0,.114,0,.231,0,.345V25.866a5.173,5.173,0,0,0-5.173-5.173H87V0H99.071A6.9,6.9,0,0,1,105.968,6.9Z" transform="translate(-57.005)" fill="#ffc200"/>
        <path id="Path_1578" data-name="Path 1578" d="M35,105h3.449v2.069a1.724,1.724,0,0,1-1.724,1.724h0A1.724,1.724,0,0,1,35,107.069Z" transform="translate(-22.938 -68.788)" fill="#4f4f4f"/>
        <path id="Path_1579" data-name="Path 1579" d="M103.209,65.173v2.759H87V60H98.036A5.173,5.173,0,0,1,103.209,65.173Z" transform="translate(-57.005 -39.307)" fill="#ff9700"/>
        <path id="Path_1580" data-name="Path 1580" d="M110.452,83v5.863a1.724,1.724,0,0,1-1.724,1.724H87V83Z" transform="translate(-57.005 -54.375)" fill="#ffc200"/>
        <path id="Path_1581" data-name="Path 1581" d="M132.449,105v2.069a1.724,1.724,0,1,1-3.449,0V105Z" transform="translate(-84.52 -68.788)"/>
        <path id="Path_1582" data-name="Path 1582" d="M147.8,28.957a6.9,6.9,0,0,1-6.553,6.9V43.1H134V28.612a6.9,6.9,0,0,1,2.759-5.173c.128-.1.259-.186.393-.276.059-.038.117-.076.176-.107a5.564,5.564,0,0,1,.662-.345c.083-.041.172-.079.259-.114a6.653,6.653,0,0,1,1.345-.4c.093-.021.19-.034.283-.048s.214-.031.317-.038a1.89,1.89,0,0,1,.2-.017h.507a6.9,6.9,0,0,1,6.9,6.867Z" transform="translate(-87.795 -14.472)" fill="#ffdc64"/>
      </g>
    </g>
  </g>
</svg>
