<svg id="Component_6_1" data-name="Component 6 – 1" xmlns="http://www.w3.org/2000/svg" width="296" height="128.6" viewBox="0 0 296 128.6">
  <text id="WEEKENDS_AT_HOME" data-name="WEEKENDS AT HOME" transform="translate(0 119.6)" fill="#fff" font-size="30" font-family="OpenSans, Open Sans"><tspan x="0" y="0">WEEKENDS AT HOME</tspan></text>
  <g id="Group_343" data-name="Group 343" transform="translate(-590.312 -3180.232)">
    <path id="Path_1397" data-name="Path 1397" d="M696.879,3206.084a1.637,1.637,0,0,1,1.616,1.248l3.436,13.474a3.284,3.284,0,0,1,.1.806h0l6.9-8.621-3.455-12.069Z" fill="#d79b19"/>
    <path id="Path_1398" data-name="Path 1398" d="M781.344,3221.612H702.033l6.9-8.621h65.518Z" fill="#b37417"/>
    <path id="Path_1399" data-name="Path 1399" d="M774.454,3212.991l3.441-12.069V3187.56a7.328,7.328,0,0,0-7.327-7.328H749.016a7.328,7.328,0,0,0-7.328,7.328v25.431Z" fill="#e5ac20"/>
    <path id="Path_1400" data-name="Path 1400" d="M741.7,3212.991V3187.56a7.328,7.328,0,0,0-7.327-7.328H712.816a7.328,7.328,0,0,0-7.328,7.328v13.362l3.448,12.069Z" fill="#f6c020"/>
    <path id="Path_1401" data-name="Path 1401" d="M786.5,3206.084a1.637,1.637,0,0,0-1.615,1.248l-3.437,13.474a3.28,3.28,0,0,0-.1.806h0l-6.89-8.621,3.441-12.069Z" fill="#d79b19"/>
    <path id="Path_1402" data-name="Path 1402" d="M703.757,3244.026h-1.724v-6.9h8.621Z" fill="#774836"/>
    <path id="Path_1403" data-name="Path 1403" d="M779.619,3244.026h1.724v-6.9h-8.621Z" fill="#774836"/>
    <path id="Path_1404" data-name="Path 1404" d="M701.931,3220.807l-3.436-13.475a1.693,1.693,0,0,0-3.269,0l-3.436,13.475a3.252,3.252,0,0,0,0,1.61l3.436,13.474a1.639,1.639,0,0,0,1.728,1.238h5.079v-15.517h0A3.27,3.27,0,0,0,701.931,3220.807Z" fill="#ffc83e"/>
    <path id="Path_1405" data-name="Path 1405" d="M791.587,3220.807l-3.436-13.475a1.693,1.693,0,0,0-3.269,0l-3.437,13.475a3.266,3.266,0,0,0-.1.805h0v15.517h5.079a1.641,1.641,0,0,0,1.728-1.238l3.436-13.474A3.227,3.227,0,0,0,791.587,3220.807Z" fill="#ffc83e"/>
    <path id="Path_1406" data-name="Path 1406" d="M781.344,3221.612H702.033v15.517h79.311Z" fill="#f5be26"/>
  </g>
</svg>
