<svg id="Component_7_1" data-name="Component 7 – 1" xmlns="http://www.w3.org/2000/svg" width="129" height="134.62" viewBox="0 0 129 134.62">
  <g id="Group_335" data-name="Group 335" transform="translate(-1261.117 -3127.422)">
    <g id="Group_334" data-name="Group 334">
      <g id="Group_282" data-name="Group 282">
        <path id="Path_1356" data-name="Path 1356" d="M1372.38,3137.128h-90.322a4.844,4.844,0,0,0-4.839,4.839v53.225a4.843,4.843,0,0,0,4.839,4.839h90.322a4.844,4.844,0,0,0,4.839-4.839v-53.225A4.845,4.845,0,0,0,1372.38,3137.128Z" fill="#ff4f19"/>
      </g>
      <g id="Group_283" data-name="Group 283">
        <rect id="Rectangle_73" data-name="Rectangle 73" width="9.677" height="8.065" transform="translate(1322.38 3191.967)" fill="#e3001e"/>
      </g>
      <g id="Group_284" data-name="Group 284">
        <path id="Path_1357" data-name="Path 1357" d="M1370.811,3187.128v4.839a1.614,1.614,0,0,1-1.613,1.613h-83.871a1.613,1.613,0,0,1-1.612-1.613v-4.839l9.633-4.839,38.71,1.613,32.258-1.613Z" fill="#e6be8a"/>
      </g>
      <g id="Group_285" data-name="Group 285">
        <path id="Path_1358" data-name="Path 1358" d="M1285.978,3189.355a51.135,51.135,0,0,1,41.285,1v-58.065a51.14,51.14,0,0,0-42.591-.438,1.634,1.634,0,0,0-.957,1.49v54.539A1.619,1.619,0,0,0,1285.978,3189.355Z" fill="#ffebb7"/>
      </g>
      <g id="Group_286" data-name="Group 286">
        <path id="Path_1359" data-name="Path 1359" d="M1327.263,3190.354a51.136,51.136,0,0,1,41.285-1,1.619,1.619,0,0,0,2.263-1.475v-54.539a1.634,1.634,0,0,0-.957-1.49,51.14,51.14,0,0,0-42.591.438Z" fill="#ffd788"/>
      </g>
      <g id="Group_288" data-name="Group 288">
        <g id="Group_287" data-name="Group 287">
          <path id="Path_1360" data-name="Path 1360" d="M1333.715,3179.82a1.613,1.613,0,0,1-.484-3.152c1.632-.513,3.311-.951,4.991-1.3a1.613,1.613,0,1,1,.662,3.157c-1.578.331-3.155.743-4.686,1.224A1.635,1.635,0,0,1,1333.715,3179.82Z" fill="#868491"/>
        </g>
      </g>
      <g id="Group_290" data-name="Group 290">
        <g id="Group_289" data-name="Group 289">
          <path id="Path_1361" data-name="Path 1361" d="M1364.36,3179.82a1.642,1.642,0,0,1-.484-.074,49.213,49.213,0,0,0-18.743-2.122,1.613,1.613,0,0,1-.256-3.216,52.546,52.546,0,0,1,19.966,2.26,1.613,1.613,0,0,1-.483,3.152Z" fill="#868491"/>
        </g>
      </g>
      <g id="Group_292" data-name="Group 292">
        <g id="Group_291" data-name="Group 291">
          <path id="Path_1362" data-name="Path 1362" d="M1364.36,3173.35a1.636,1.636,0,0,1-.484-.075,49.292,49.292,0,0,0-29.678,0,1.613,1.613,0,0,1-.967-3.078,52.511,52.511,0,0,1,31.612,0,1.614,1.614,0,0,1-.483,3.153Z" fill="#868491"/>
        </g>
      </g>
      <g id="Group_294" data-name="Group 294">
        <g id="Group_293" data-name="Group 293">
          <path id="Path_1363" data-name="Path 1363" d="M1333.715,3166.917a1.613,1.613,0,0,1-.484-3.152,52.658,52.658,0,0,1,18.3-2.365,1.613,1.613,0,1,1-.155,3.222,49.433,49.433,0,0,0-17.181,2.22A1.6,1.6,0,0,1,1333.715,3166.917Z" fill="#868491"/>
        </g>
      </g>
      <g id="Group_296" data-name="Group 296">
        <g id="Group_295" data-name="Group 295">
          <path id="Path_1364" data-name="Path 1364" d="M1364.36,3166.917a1.6,1.6,0,0,1-.484-.075,49.64,49.64,0,0,0-6.25-1.525,1.613,1.613,0,0,1,.561-3.177,53.1,53.1,0,0,1,6.657,1.625,1.613,1.613,0,0,1-.484,3.152Z" fill="#868491"/>
        </g>
      </g>
      <g id="Group_298" data-name="Group 298">
        <g id="Group_297" data-name="Group 297">
          <path id="Path_1365" data-name="Path 1365" d="M1364.36,3160.447a1.636,1.636,0,0,1-.484-.075,49.273,49.273,0,0,0-29.678,0,1.613,1.613,0,0,1-.967-3.078,52.5,52.5,0,0,1,31.612,0,1.614,1.614,0,0,1-.483,3.153Z" fill="#868491"/>
        </g>
      </g>
      <g id="Group_300" data-name="Group 300">
        <g id="Group_299" data-name="Group 299">
          <path id="Path_1366" data-name="Path 1366" d="M1333.715,3154a1.613,1.613,0,0,1-.484-3.152,52.839,52.839,0,0,1,9.984-2.1,1.613,1.613,0,1,1,.356,3.206,49.647,49.647,0,0,0-9.373,1.973A1.6,1.6,0,0,1,1333.715,3154Z" fill="#868491"/>
        </g>
      </g>
      <g id="Group_302" data-name="Group 302">
        <g id="Group_301" data-name="Group 301">
          <path id="Path_1367" data-name="Path 1367" d="M1364.36,3154a1.605,1.605,0,0,1-.484-.075,49.417,49.417,0,0,0-14.056-2.269,1.613,1.613,0,1,1,.05-3.226,52.711,52.711,0,0,1,14.973,2.417,1.614,1.614,0,0,1-.483,3.153Z" fill="#868491"/>
        </g>
      </g>
      <g id="Group_304" data-name="Group 304">
        <g id="Group_303" data-name="Group 303">
          <path id="Path_1368" data-name="Path 1368" d="M1333.715,3147.562a1.613,1.613,0,0,1-.484-3.152,52.368,52.368,0,0,1,21.629-2.1,1.613,1.613,0,0,1,1.426,1.78,1.592,1.592,0,0,1-1.782,1.425,49.244,49.244,0,0,0-20.306,1.973A1.6,1.6,0,0,1,1333.715,3147.562Z" fill="#868491"/>
        </g>
      </g>
      <g id="Group_306" data-name="Group 306">
        <g id="Group_305" data-name="Group 305">
          <path id="Path_1369" data-name="Path 1369" d="M1364.36,3147.562a1.6,1.6,0,0,1-.484-.075c-1.024-.322-2.074-.614-3.125-.87a1.613,1.613,0,0,1,.766-3.134c1.117.272,2.235.584,3.326.927a1.613,1.613,0,0,1-.483,3.152Z" fill="#868491"/>
        </g>
      </g>
      <g id="Group_308" data-name="Group 308">
        <g id="Group_307" data-name="Group 307">
          <path id="Path_1370" data-name="Path 1370" d="M1333.715,3141.092a1.613,1.613,0,0,1-.482-3.153c1.108-.348,2.227-.659,3.325-.926a1.613,1.613,0,0,1,.762,3.135c-1.03.25-2.081.542-3.124.869A1.62,1.62,0,0,1,1333.715,3141.092Z" fill="#868491"/>
        </g>
      </g>
      <g id="Group_310" data-name="Group 310">
        <g id="Group_309" data-name="Group 309">
          <path id="Path_1371" data-name="Path 1371" d="M1364.36,3141.092a1.644,1.644,0,0,1-.484-.075,49.244,49.244,0,0,0-20.306-1.974,1.612,1.612,0,1,1-.356-3.205,52.411,52.411,0,0,1,21.629,2.1,1.614,1.614,0,0,1-.483,3.153Z" fill="#868491"/>
        </g>
      </g>
      <g id="Group_312" data-name="Group 312">
        <g id="Group_311" data-name="Group 311">
          <path id="Path_1372" data-name="Path 1372" d="M1290.166,3179.82a1.613,1.613,0,0,1-.483-3.152c1.631-.513,3.31-.951,4.991-1.3a1.613,1.613,0,0,1,.662,3.157c-1.579.331-3.155.743-4.686,1.224A1.642,1.642,0,0,1,1290.166,3179.82Z" fill="#b4b6bc"/>
        </g>
      </g>
      <g id="Group_314" data-name="Group 314">
        <g id="Group_313" data-name="Group 313">
          <path id="Path_1373" data-name="Path 1373" d="M1320.811,3179.82a1.631,1.631,0,0,1-.483-.074,49.217,49.217,0,0,0-18.744-2.122,1.613,1.613,0,1,1-.255-3.216,52.553,52.553,0,0,1,19.966,2.26,1.613,1.613,0,0,1-.484,3.152Z" fill="#b4b6bc"/>
        </g>
      </g>
      <g id="Group_316" data-name="Group 316">
        <g id="Group_315" data-name="Group 315">
          <path id="Path_1374" data-name="Path 1374" d="M1320.811,3173.35a1.625,1.625,0,0,1-.483-.075,49.292,49.292,0,0,0-29.678,0,1.613,1.613,0,0,1-.967-3.078,52.511,52.511,0,0,1,31.612,0,1.614,1.614,0,0,1-.484,3.153Z" fill="#b4b6bc"/>
        </g>
      </g>
      <g id="Group_318" data-name="Group 318">
        <g id="Group_317" data-name="Group 317">
          <path id="Path_1375" data-name="Path 1375" d="M1290.166,3166.917a1.613,1.613,0,0,1-.483-3.152,52.668,52.668,0,0,1,18.3-2.365,1.613,1.613,0,0,1-.154,3.222,49.432,49.432,0,0,0-17.182,2.22A1.594,1.594,0,0,1,1290.166,3166.917Z" fill="#b4b6bc"/>
        </g>
      </g>
      <g id="Group_320" data-name="Group 320">
        <g id="Group_319" data-name="Group 319">
          <path id="Path_1376" data-name="Path 1376" d="M1320.811,3166.917a1.593,1.593,0,0,1-.483-.075,49.64,49.64,0,0,0-6.25-1.525,1.613,1.613,0,0,1,.561-3.177,53.049,53.049,0,0,1,6.656,1.625,1.613,1.613,0,0,1-.484,3.152Z" fill="#b4b6bc"/>
        </g>
      </g>
      <g id="Group_322" data-name="Group 322">
        <g id="Group_321" data-name="Group 321">
          <path id="Path_1377" data-name="Path 1377" d="M1290.166,3160.447a1.614,1.614,0,0,1-.483-3.153,52.766,52.766,0,0,1,28.284-.926,1.613,1.613,0,1,1-.763,3.134,49.505,49.505,0,0,0-26.554.87A1.636,1.636,0,0,1,1290.166,3160.447Z" fill="#b4b6bc"/>
        </g>
      </g>
      <g id="Group_324" data-name="Group 324">
        <g id="Group_323" data-name="Group 323">
          <path id="Path_1378" data-name="Path 1378" d="M1290.166,3154a1.613,1.613,0,0,1-.483-3.152,52.807,52.807,0,0,1,9.984-2.1,1.613,1.613,0,1,1,.356,3.206,49.614,49.614,0,0,0-9.373,1.973A1.605,1.605,0,0,1,1290.166,3154Z" fill="#b4b6bc"/>
        </g>
      </g>
      <g id="Group_326" data-name="Group 326">
        <g id="Group_325" data-name="Group 325">
          <path id="Path_1379" data-name="Path 1379" d="M1317.587,3153.1a1.667,1.667,0,0,1-.382-.045,49.579,49.579,0,0,0-10.933-1.4,1.612,1.612,0,0,1-1.588-1.638,1.567,1.567,0,0,1,1.638-1.587,52.8,52.8,0,0,1,11.645,1.491,1.613,1.613,0,0,1-.38,3.18Z" fill="#b4b6bc"/>
        </g>
      </g>
      <g id="Group_328" data-name="Group 328">
        <g id="Group_327" data-name="Group 327">
          <path id="Path_1380" data-name="Path 1380" d="M1290.166,3147.562a1.613,1.613,0,0,1-.483-3.152,52.371,52.371,0,0,1,21.629-2.1,1.612,1.612,0,0,1,1.425,1.78,1.6,1.6,0,0,1-1.781,1.425,49.25,49.25,0,0,0-20.307,1.973A1.594,1.594,0,0,1,1290.166,3147.562Z" fill="#b4b6bc"/>
        </g>
      </g>
      <g id="Group_330" data-name="Group 330">
        <g id="Group_329" data-name="Group 329">
          <path id="Path_1381" data-name="Path 1381" d="M1290.166,3141.092a1.613,1.613,0,0,1-.482-3.153c1.109-.348,2.227-.659,3.325-.926a1.613,1.613,0,1,1,.762,3.135c-1.03.25-2.08.542-3.123.869A1.63,1.63,0,0,1,1290.166,3141.092Z" fill="#b4b6bc"/>
        </g>
      </g>
      <g id="Group_332" data-name="Group 332">
        <g id="Group_331" data-name="Group 331">
          <path id="Path_1382" data-name="Path 1382" d="M1317.587,3140.192a1.614,1.614,0,0,1-.382-.045,49.422,49.422,0,0,0-17.183-1.1,1.612,1.612,0,1,1-.356-3.205,52.567,52.567,0,0,1,18.3,1.174,1.613,1.613,0,0,1-.38,3.18Z" fill="#b4b6bc"/>
        </g>
      </g>
      <g id="Group_333" data-name="Group 333">
        <path id="Path_1383" data-name="Path 1383" d="M1317.586,3157.288a.806.806,0,0,0,1.253.671l3.585-2.39,3.585,2.39a.807.807,0,0,0,1.254-.671v-24.865a1.625,1.625,0,0,0-.954-1.484,50.979,50.979,0,0,0-7.714-2.705.814.814,0,0,0-1.014.789Z" fill="#5d647f"/>
      </g>
    </g>
  </g>
  <text id="READING" transform="translate(0 125.62)" fill="#fff" font-size="30" font-family="OpenSans, Open Sans"><tspan x="0" y="0">READING</tspan></text>
</svg>
