<svg id="likeGym" xmlns="http://www.w3.org/2000/svg" width="100" height="100" viewBox="0 0 100 100">
  <g id="Group_468" data-name="Group 468" transform="translate(-574 -2812)">
    <g id="Group_450" data-name="Group 450" transform="translate(29 1)">
      <g id="Group_448" data-name="Group 448" transform="translate(419 -3530)">
        <rect id="Rectangle_75" data-name="Rectangle 75" width="100" height="100" rx="25" transform="translate(126 6341)" fill="#fff"/>
      </g>
      <g id="Group_449" data-name="Group 449" transform="translate(-178.058 -163.809)">
        <path id="Path_1445" data-name="Path 1445" d="M802.327,3059.5c-.9-.238-2.321-.611-4.091-1.066l-21.318-5.068c-3.337-.695-6.361-1.249-8.607-1.518h-.1l-13.948-.21-4.224-.01-6.318-.014a.469.469,0,0,0-.471.468l-.008,3.051a.47.47,0,0,0,.468.471l10.553.025,13.936.219c2.018.259,4.763.767,7.857,1.416l21.318,5.069c1.462.377,2.791.724,3.925,1.024a1.082,1.082,0,0,0,1.321-.766l.471-1.764a1.081,1.081,0,0,0-.769-1.325Z" transform="translate(-0.075 -21.922)" fill="#acacac"/>
        <path id="Path_1446" data-name="Path 1446" d="M803.056,3060.716a1.083,1.083,0,0,1-1.321.766c-1.134-.3-2.462-.647-3.925-1.023l-21.318-5.07c-3.094-.648-5.839-1.157-7.857-1.415l-13.936-.219-8.915-.021a2.107,2.107,0,0,1-2.1-2.113.468.468,0,0,0-.427.464l-.008,3.05a.47.47,0,0,0,.468.471l10.553.025,13.936.219c2.018.259,4.763.768,7.857,1.416l21.318,5.069c1.463.377,2.791.724,3.925,1.024a1.082,1.082,0,0,0,1.321-.766l.471-1.764a1.076,1.076,0,0,0,.031-.379Z" transform="translate(-0.075 -21.924)" fill="#9e9797"/>
        <g id="Group_365" data-name="Group 365" transform="translate(773.278 3017.946)">
          <path id="Path_1447" data-name="Path 1447" d="M797.664,3064.95l-2.263-.5a2.516,2.516,0,0,1-1.917-3l6.044-27.44a2.517,2.517,0,0,1,3-1.916l2.263.5a2.518,2.518,0,0,1,1.917,3l-6.044,27.439a2.517,2.517,0,0,1-3,1.917Z" transform="translate(-793.425 -3032.037)" fill="#838383"/>
          <path id="Path_1448" data-name="Path 1448" d="M809.893,3067.656l-2.191-.482a2.517,2.517,0,0,1-1.917-3l5.514-25.034a2.518,2.518,0,0,1,3-1.917l2.191.483a2.517,2.517,0,0,1,1.917,3l-5.514,25.033A2.518,2.518,0,0,1,809.893,3067.656Z" transform="translate(-798.345 -3034.088)" fill="#838383"/>
          <path id="Path_1449" data-name="Path 1449" d="M822.184,3070.094l-2.191-.483a2.517,2.517,0,0,1-1.917-3l4.9-22.262a2.517,2.517,0,0,1,3-1.917l2.191.483a2.517,2.517,0,0,1,1.917,3l-4.9,22.262A2.517,2.517,0,0,1,822.184,3070.094Z" transform="translate(-803.261 -3036.171)" fill="#838383"/>
        </g>
        <path id="Path_1450" data-name="Path 1450" d="M797.943,3062.421l6.044-27.439a2.517,2.517,0,0,1,1.831-1.9,2.494,2.494,0,0,0-1.027-.492l-2.263-.5a2.517,2.517,0,0,0-3,1.917l-6.044,27.439a2.516,2.516,0,0,0,1.916,3l2.263.5a2.5,2.5,0,0,0,1.168-.022,2.515,2.515,0,0,1-.889-2.508Z" transform="translate(-20.147 -14.091)" fill="#766e6e"/>
        <path id="Path_1451" data-name="Path 1451" d="M810.243,3065.143l5.514-25.034a2.514,2.514,0,0,1,1.792-1.885,2.5,2.5,0,0,0-1.059-.518l-2.191-.483a2.518,2.518,0,0,0-3,1.917l-5.514,25.034a2.517,2.517,0,0,0,1.917,3l2.191.482a2.5,2.5,0,0,0,1.208-.031,2.517,2.517,0,0,1-.857-2.482Z" transform="translate(-25.067 -16.142)" fill="#766e6e"/>
        <path id="Path_1452" data-name="Path 1452" d="M822.535,3067.58l4.9-22.262a2.516,2.516,0,0,1,1.792-1.885,2.506,2.506,0,0,0-1.059-.518l-2.191-.483a2.517,2.517,0,0,0-3,1.917l-4.9,22.262a2.516,2.516,0,0,0,1.916,3l2.191.483a2.508,2.508,0,0,0,1.208-.032,2.514,2.514,0,0,1-.857-2.482Z" transform="translate(-29.983 -18.225)" fill="#766e6e"/>
        <path id="Path_1453" data-name="Path 1453" d="M754.192,3030.7a.991.991,0,0,0-.988-.991l-3.139-.007a.1.1,0,0,1-.1-.1l.026-2.76a8.02,8.02,0,0,1,3.175-6.368l.194-.14a.21.21,0,0,0,.07-.267l-6.221-12.631h-.475a3.68,3.68,0,0,1-3.68-3.68v-6.16a.794.794,0,0,1,.794-.795h8.074a1.234,1.234,0,0,1,.771.271l5.97,4.794a5.689,5.689,0,0,1,1.931,2.977l3.3,12.52a2.273,2.273,0,0,0,.623,1.06l.643.617a9.665,9.665,0,0,1,2.971,6.972v7.706a1.819,1.819,0,0,1-.011.2,3.648,3.648,0,0,0-5.219,1.542,1.743,1.743,0,0,0-3.487,0,1.743,1.743,0,0,0-3.486,0,1.746,1.746,0,0,1-1.745-1.743v-3.02Z" fill="#fed2a4"/>
        <path id="Path_1454" data-name="Path 1454" d="M752.722,3029.707h-.407a.1.1,0,0,1-.1-.1l.026-2.76a8.022,8.022,0,0,1,3.175-6.368l.194-.14a.21.21,0,0,0,.07-.267l-6.221-12.631h-.475a3.68,3.68,0,0,1-3.68-3.68V2997.6a.8.8,0,0,1,.794-.794h-2.251a.794.794,0,0,0-.794.794v6.16a3.68,3.68,0,0,0,3.68,3.68h.475l6.221,12.631a.21.21,0,0,1-.07.267l-.194.14a8.02,8.02,0,0,0-3.175,6.368l-.026,2.759a.1.1,0,0,0,.1.1l2.657.006v0Z" fill="#ffbd86"/>
        <path id="Path_1455" data-name="Path 1455" d="M763.763,3056.888a1.734,1.734,0,0,1-.512-1.232v-3.019a.991.991,0,0,0-.988-.991l-2.183,0v.008a.991.991,0,0,1,.92.988v3.019a1.743,1.743,0,0,0,2.87,1.33C763.833,3056.954,763.8,3056.922,763.763,3056.888Z" transform="translate(-6.809 -21.933)" fill="#ffbd86"/>
        <path id="Path_1456" data-name="Path 1456" d="M812.111,3011.839l-3.531-4.421a.266.266,0,0,0-.417,0l-3.532,4.421a.267.267,0,0,0,.209.433h1.268a.267.267,0,0,1,.267.267v4.261a.267.267,0,0,0,.267.267H810.1a.267.267,0,0,0,.266-.267v-4.261a.267.267,0,0,1,.267-.267H811.9A.266.266,0,0,0,812.111,3011.839Z" transform="translate(-24.606 -4.203)" fill="#00f2a6"/>
        <path id="Path_1457" data-name="Path 1457" d="M762.823,3078.755l-3.531-4.421a.267.267,0,0,0-.417,0l-3.532,4.421a.267.267,0,0,0,.209.433h1.268a.267.267,0,0,1,.267.267v4.261a.267.267,0,0,0,.267.267h3.459a.267.267,0,0,0,.266-.267v-4.261a.267.267,0,0,1,.267-.267h1.268A.267.267,0,0,0,762.823,3078.755Z" transform="translate(-4.891 -30.97)" fill="#01d0fb"/>
        <path id="Path_1458" data-name="Path 1458" d="M770.188,3057.515a1.733,1.733,0,0,1-.511-1.232v-.017s0-.937,0-1.773a1.284,1.284,0,0,0-1.284-1.283h-.969c0,.018,0,3.056,0,3.056v.017a1.743,1.743,0,0,0,2.87,1.33c-.037-.032-.073-.064-.107-.1Z" transform="translate(-9.746 -22.561)" fill="#ffbd86"/>
        <path id="Path_1459" data-name="Path 1459" d="M776,3057.515a1.733,1.733,0,0,1-.511-1.232v-.017s0-.937,0-1.773a1.284,1.284,0,0,0-1.284-1.283h-.968c0,.018,0,3.056,0,3.056v.017a1.743,1.743,0,0,0,2.87,1.33C776.067,3057.582,776.03,3057.55,776,3057.515Z" transform="translate(-12.069 -22.561)" fill="#ffbd86"/>
        <path id="Path_1460" data-name="Path 1460" d="M781.808,3057.515a1.733,1.733,0,0,1-.511-1.232v-.017s0-.937,0-1.773a1.284,1.284,0,0,0-1.284-1.283h-.968c0,.018,0,3.056,0,3.056v.017a1.743,1.743,0,0,0,2.87,1.33C781.879,3057.582,781.842,3057.55,781.808,3057.515Z" transform="translate(-14.394 -22.561)" fill="#ffbd86"/>
      </g>
    </g>
  </g>
</svg>
