<svg id="likeCreating" xmlns="http://www.w3.org/2000/svg" width="142.09" height="201.099" viewBox="0 0 142.09 201.099">
  <g id="Group_427" data-name="Group 427" transform="translate(-1296.981 -2870.007)">
    <path id="Path_1499" data-name="Path 1499" d="M1356.421,3030.154l62.1-106.922a3.363,3.363,0,0,0-3.362-5.022l-41.305,5.614,9.869-51.813a1.682,1.682,0,0,0-2.993-1.331l-61.055,80.593a3.364,3.364,0,0,0,3.033,5.377l45.539-4.793-14.929,77.133A1.682,1.682,0,0,0,1356.421,3030.154Z" fill="#ffdc64"/>
    <path id="Path_1500" data-name="Path 1500" d="M1338.765,2945.562a1.393,1.393,0,0,1-1.292-2.126l45.65-73.039a1.658,1.658,0,0,0-2.4.283l-61.055,80.593a3.364,3.364,0,0,0,3.033,5.377l45.539-4.794-14.929,77.134a1.634,1.634,0,0,0,1.321,1.947l25.582-80.95a5.606,5.606,0,0,0-5.792-7.278Z" fill="#ffc850"/>
  </g>
  <g id="Group_429" data-name="Group 429" transform="translate(-1297.665 -2870.007)">
    <g id="Group_428" data-name="Group 428">
      <path id="Path_1501" data-name="Path 1501" d="M1307.831,3052.092a5.769,5.769,0,0,0-4.746,2.139,9.138,9.138,0,0,0-1.729,5.9q0,3.94,1.662,5.962a5.875,5.875,0,0,0,4.813,2.021,12.553,12.553,0,0,0,2.637-.271q1.273-.27,2.651-.7v3a16.093,16.093,0,0,1-5.713.952q-4.7,0-7.222-2.85t-2.519-8.151a13.179,13.179,0,0,1,1.223-5.845,8.736,8.736,0,0,1,3.538-3.838,10.693,10.693,0,0,1,5.434-1.333,13.49,13.49,0,0,1,6.065,1.377l-1.26,2.915a18.754,18.754,0,0,0-2.293-.9A8.244,8.244,0,0,0,1307.831,3052.092Z" fill="#fff"/>
      <path id="Path_1502" data-name="Path 1502" d="M1321.234,3062.258v8.555h-3.5V3049.4h6.05q4.146,0,6.138,1.552a5.577,5.577,0,0,1,1.992,4.688q0,4-4.16,5.7l6.05,9.478h-3.985l-5.127-8.555Zm0-2.9h2.432a5.55,5.55,0,0,0,3.545-.909,3.294,3.294,0,0,0,1.1-2.7,2.9,2.9,0,0,0-1.186-2.607,6.5,6.5,0,0,0-3.574-.791h-2.315Z" fill="#fff"/>
      <path id="Path_1503" data-name="Path 1503" d="M1349.022,3070.813h-12.114V3049.4h12.114v2.959h-8.613v5.83h8.071v2.93h-8.071v6.723h8.613Z" fill="#fff"/>
      <path id="Path_1504" data-name="Path 1504" d="M1366.937,3070.813l-2.138-5.947h-8.189l-2.095,5.947h-3.691l8.013-21.5h3.808l8.013,21.5Zm-3.061-8.965-2.007-5.83q-.22-.587-.608-1.846t-.535-1.846a32.616,32.616,0,0,1-1.157,3.941l-1.933,5.581Z" fill="#fff"/>
      <path id="Path_1505" data-name="Path 1505" d="M1380.883,3070.813h-3.5V3052.4h-6.3v-3h16.1v3h-6.3Z" fill="#fff"/>
      <path id="Path_1506" data-name="Path 1506" d="M1390.463,3070.813V3049.4h3.5v21.416Z" fill="#fff"/>
      <path id="Path_1507" data-name="Path 1507" d="M1417.46,3070.813h-4.292l-10.532-17.066h-.118l.074.952q.2,2.726.2,4.981v11.133h-3.179V3049.4h4.248l10.5,16.977h.088q-.03-.336-.117-2.454t-.088-3.3V3049.4h3.208Z" fill="#fff"/>
      <path id="Path_1508" data-name="Path 1508" d="M1431.874,3059.2h7.881v10.752a22.963,22.963,0,0,1-3.713.893,26.277,26.277,0,0,1-3.846.264q-4.863,0-7.5-2.879t-2.637-8.122q0-5.171,2.974-8.093t8.189-2.923a15.954,15.954,0,0,1,6.357,1.289l-1.231,2.915a12.364,12.364,0,0,0-5.214-1.2,7.022,7.022,0,0,0-5.42,2.153,8.336,8.336,0,0,0-1.992,5.889,8.791,8.791,0,0,0,1.794,5.97,6.508,6.508,0,0,0,5.164,2.043,16.986,16.986,0,0,0,3.632-.425V3062.2h-4.438Z" fill="#fff"/>
    </g>
  </g>
</svg>
