<svg id="likeWeekends" xmlns="http://www.w3.org/2000/svg" width="300.776" height="99.893" viewBox="0 0 300.776 99.893">
  <g id="Group_438" data-name="Group 438" transform="translate(-590.488 -3180.232)">
    <g id="Group_437" data-name="Group 437">
      <path id="Path_1534" data-name="Path 1534" d="M612.9,3279.832h-3.808l-3.633-12.774q-.234-.834-.586-2.41t-.425-2.189q-.147.938-.476,2.431t-.549,2.227l-3.545,12.715h-3.809l-2.768-10.723-2.813-10.693h3.574l3.062,12.48q.717,3,1.025,5.3.162-1.245.484-2.783t.586-2.491l3.486-12.509h3.472l3.574,12.568a46.951,46.951,0,0,1,1.084,5.215,38.219,38.219,0,0,1,1.054-5.332l3.047-12.451h3.545Z" fill="#fff"/>
      <path id="Path_1535" data-name="Path 1535" d="M633.628,3279.832H621.514v-21.416h12.114v2.959h-8.614v5.83h8.072v2.929h-8.072v6.724h8.614Z" fill="#fff"/>
      <path id="Path_1536" data-name="Path 1536" d="M650.371,3279.832H638.257v-21.416h12.114v2.959h-8.613v5.83h8.071v2.929h-8.071v6.724h8.613Z" fill="#fff"/>
      <path id="Path_1537" data-name="Path 1537" d="M671.347,3279.832H667.29l-6.724-9.7-2.065,1.685v8.013H655v-21.416h3.5v10.224q1.436-1.758,2.856-3.384l5.786-6.84h3.985q-5.61,6.591-8.042,9.389Z" fill="#fff"/>
      <path id="Path_1538" data-name="Path 1538" d="M686.289,3279.832H674.175v-21.416h12.114v2.959h-8.613v5.83h8.071v2.929h-8.071v6.724h8.613Z" fill="#fff"/>
      <path id="Path_1539" data-name="Path 1539" d="M708.76,3279.832h-4.292l-10.533-17.066h-.117l.073.952q.206,2.725.206,4.981v11.133h-3.179v-21.416h4.248l10.5,16.977h.088q-.03-.336-.118-2.454t-.087-3.3v-11.22h3.208Z" fill="#fff"/>
      <path id="Path_1540" data-name="Path 1540" d="M731.831,3268.919q0,5.3-2.944,8.108t-8.482,2.8h-5.991v-21.416h6.621q5.112,0,7.954,2.753T731.831,3268.919Zm-3.692.117q0-7.69-7.192-7.691h-3.032v15.542h2.49Q728.139,3276.887,728.139,3269.036Z" fill="#fff"/>
      <path id="Path_1541" data-name="Path 1541" d="M748.779,3274.016a5.391,5.391,0,0,1-2.065,4.483,8.991,8.991,0,0,1-5.7,1.626,13.6,13.6,0,0,1-5.947-1.128v-3.311a16.2,16.2,0,0,0,3.112,1.084,13.2,13.2,0,0,0,3.07.4,4.88,4.88,0,0,0,3.068-.791,2.582,2.582,0,0,0,.989-2.124,2.661,2.661,0,0,0-.908-2.037,13.68,13.68,0,0,0-3.75-1.977,9.921,9.921,0,0,1-4.131-2.71,5.739,5.739,0,0,1-1.2-3.662,5.128,5.128,0,0,1,1.9-4.219,7.9,7.9,0,0,1,5.112-1.538,15.007,15.007,0,0,1,6.123,1.348l-1.113,2.856a13.377,13.377,0,0,0-5.1-1.2,3.911,3.911,0,0,0-2.578.74,2.429,2.429,0,0,0-.879,1.955,2.753,2.753,0,0,0,.351,1.428,3.6,3.6,0,0,0,1.158,1.121,19.627,19.627,0,0,0,2.9,1.392,15.825,15.825,0,0,1,3.457,1.831,5.367,5.367,0,0,1,1.611,1.919A5.767,5.767,0,0,1,748.779,3274.016Z" fill="#fff"/>
      <path id="Path_1542" data-name="Path 1542" d="M774,3279.832l-2.139-5.948h-8.188l-2.1,5.948H757.89l8.013-21.5h3.809l8.012,21.5Zm-3.062-8.965-2.007-5.83q-.219-.587-.608-1.846t-.534-1.846a33.06,33.06,0,0,1-1.157,3.941l-1.934,5.581Z" fill="#fff"/>
      <path id="Path_1543" data-name="Path 1543" d="M787.949,3279.832h-3.5v-18.413h-6.3v-3h16.1v3h-6.3Z" fill="#fff"/>
      <path id="Path_1544" data-name="Path 1544" d="M822.212,3279.832H818.7v-9.654h-9.873v9.654h-3.5v-21.416h3.5v8.759H818.7v-8.759h3.516Z" fill="#fff"/>
      <path id="Path_1545" data-name="Path 1545" d="M846.865,3269.094q0,5.231-2.615,8.13a9.455,9.455,0,0,1-7.4,2.9q-4.85,0-7.45-2.879t-2.6-8.181q0-5.3,2.614-8.145t7.464-2.841a9.444,9.444,0,0,1,7.383,2.885Q846.865,3263.85,846.865,3269.094Zm-16.348,0a9.608,9.608,0,0,0,1.6,6,6.5,6.5,0,0,0,9.441.022q1.589-2.022,1.589-6.021a9.637,9.637,0,0,0-1.575-5.976,5.564,5.564,0,0,0-4.694-2.036,5.683,5.683,0,0,0-4.754,2.036A9.511,9.511,0,0,0,830.517,3269.094Z" fill="#fff"/>
      <path id="Path_1546" data-name="Path 1546" d="M860.722,3279.832l-6.21-17.886h-.118q.249,3.984.249,7.471v10.415h-3.178v-21.416H856.4l5.947,17.036h.088l6.123-17.036h4.952v21.416h-3.37v-10.591q0-1.6.081-4.16t.139-3.106h-.117l-6.431,17.857Z" fill="#fff"/>
      <path id="Path_1547" data-name="Path 1547" d="M891.264,3279.832H879.15v-21.416h12.114v2.959h-8.613v5.83h8.071v2.929h-8.071v6.724h8.613Z" fill="#fff"/>
    </g>
  </g>
  <g id="Group_439" data-name="Group 439" transform="translate(-590.689 -3180.232)">
    <path id="Path_1548" data-name="Path 1548" d="M696.879,3206.084a1.637,1.637,0,0,1,1.616,1.248l3.436,13.474a3.284,3.284,0,0,1,.1.806h0l6.9-8.621-3.455-12.069Z" fill="#d79b19"/>
    <path id="Path_1549" data-name="Path 1549" d="M781.344,3221.612H702.033l6.9-8.621h65.518Z" fill="#b37417"/>
    <path id="Path_1550" data-name="Path 1550" d="M774.454,3212.991l3.441-12.069V3187.56a7.328,7.328,0,0,0-7.327-7.328H749.016a7.328,7.328,0,0,0-7.328,7.328v25.431Z" fill="#e5ac20"/>
    <path id="Path_1551" data-name="Path 1551" d="M741.7,3212.991V3187.56a7.328,7.328,0,0,0-7.327-7.328H712.816a7.328,7.328,0,0,0-7.328,7.328v13.362l3.448,12.069Z" fill="#f6c020"/>
    <path id="Path_1552" data-name="Path 1552" d="M786.5,3206.084a1.637,1.637,0,0,0-1.615,1.248l-3.437,13.474a3.28,3.28,0,0,0-.1.806h0l-6.89-8.621,3.441-12.069Z" fill="#d79b19"/>
    <path id="Path_1553" data-name="Path 1553" d="M703.757,3244.026h-1.724v-6.9h8.621Z" fill="#774836"/>
    <path id="Path_1554" data-name="Path 1554" d="M779.619,3244.026h1.724v-6.9h-8.621Z" fill="#774836"/>
    <path id="Path_1555" data-name="Path 1555" d="M701.931,3220.807l-3.436-13.475a1.693,1.693,0,0,0-3.269,0l-3.436,13.475a3.252,3.252,0,0,0,0,1.61l3.436,13.474a1.639,1.639,0,0,0,1.728,1.238h5.079v-15.517h0A3.27,3.27,0,0,0,701.931,3220.807Z" fill="#ffc83e"/>
    <path id="Path_1556" data-name="Path 1556" d="M791.587,3220.807l-3.436-13.475a1.693,1.693,0,0,0-3.269,0l-3.437,13.475a3.266,3.266,0,0,0-.1.805h0v15.517h5.079a1.641,1.641,0,0,0,1.728-1.238l3.436-13.474A3.227,3.227,0,0,0,791.587,3220.807Z" fill="#ffc83e"/>
    <path id="Path_1557" data-name="Path 1557" d="M781.344,3221.612H702.033v15.517h79.311Z" fill="#f5be26"/>
  </g>
</svg>
