<svg id="Component_5_1" data-name="Component 5 – 1" xmlns="http://www.w3.org/2000/svg" width="141" height="229.806" viewBox="0 0 141 229.806">
  <g id="Group_337" data-name="Group 337" transform="translate(-1773.507 -2890.05)">
    <path id="Path_1384" data-name="Path 1384" d="M1834.035,3050.2l62.1-106.922a3.364,3.364,0,0,0-3.362-5.022l-41.306,5.614,9.869-51.813a1.682,1.682,0,0,0-2.993-1.33l-61.055,80.593a3.364,3.364,0,0,0,3.034,5.376l45.539-4.793-14.929,77.133A1.681,1.681,0,0,0,1834.035,3050.2Z" fill="#ffdc64"/>
    <path id="Path_1385" data-name="Path 1385" d="M1816.379,2965.6a1.392,1.392,0,0,1-1.291-2.125l45.649-73.039a1.657,1.657,0,0,0-2.4.282l-61.056,80.593a3.364,3.364,0,0,0,3.034,5.377l45.539-4.794-14.929,77.134a1.634,1.634,0,0,0,1.321,1.948l25.582-80.951a5.607,5.607,0,0,0-5.793-7.278Z" fill="#ffc850"/>
  </g>
  <text id="CREATING" transform="translate(0 220.806)" fill="#fff" font-size="30" font-family="OpenSans, Open Sans"><tspan x="0" y="0">CREATING</tspan></text>
</svg>
