<svg id="likeReading" xmlns="http://www.w3.org/2000/svg" width="100" height="100" viewBox="0 0 100 100">
  <g id="Group_464" data-name="Group 464" transform="translate(-1096 -2812)">
    <g id="Group_462" data-name="Group 462" transform="translate(970 -3529)">
      <rect id="Rectangle_75" data-name="Rectangle 75" width="100" height="100" rx="25" transform="translate(126 6341)" fill="#fff"/>
    </g>
    <g id="Group_463" data-name="Group 463" transform="translate(-161.219 -287.422)">
      <g id="Group_422" data-name="Group 422" transform="translate(1277.219 3127.422)">
        <g id="Group_370" data-name="Group 370" transform="translate(0 5.823)">
          <path id="Path_1464" data-name="Path 1464" d="M1334.316,3137.128h-54.193a2.907,2.907,0,0,0-2.9,2.9v31.935a2.906,2.906,0,0,0,2.9,2.9h54.193a2.907,2.907,0,0,0,2.9-2.9v-31.935A2.907,2.907,0,0,0,1334.316,3137.128Z" transform="translate(-1277.219 -3137.128)" fill="#ff4f19"/>
        </g>
        <g id="Group_371" data-name="Group 371" transform="translate(27.097 38.727)">
          <rect id="Rectangle_74" data-name="Rectangle 74" width="5.806" height="4.839" fill="#e3001e"/>
        </g>
        <g id="Group_372" data-name="Group 372" transform="translate(3.898 32.92)">
          <path id="Path_1465" data-name="Path 1465" d="M1335.973,3185.192v2.9a.968.968,0,0,1-.968.968h-50.323a.968.968,0,0,1-.967-.968v-2.9l5.78-2.9,23.226.968,19.355-.968Z" transform="translate(-1283.715 -3182.289)" fill="#e6be8a"/>
        </g>
        <g id="Group_373" data-name="Group 373" transform="translate(3.898)">
          <path id="Path_1466" data-name="Path 1466" d="M1285.073,3164.582a30.68,30.68,0,0,1,24.771.6v-34.839a30.684,30.684,0,0,0-25.554-.263.98.98,0,0,0-.574.894V3163.7A.971.971,0,0,0,1285.073,3164.582Z" transform="translate(-1283.715 -3127.422)" fill="#ffebb7"/>
        </g>
        <g id="Group_374" data-name="Group 374" transform="translate(30.026)">
          <path id="Path_1467" data-name="Path 1467" d="M1327.263,3165.181a30.681,30.681,0,0,1,24.771-.6.971.971,0,0,0,1.358-.885v-32.723a.98.98,0,0,0-.574-.894,30.684,30.684,0,0,0-25.555.263Z" transform="translate(-1327.263 -3127.422)" fill="#ffd788"/>
        </g>
        <g id="Group_376" data-name="Group 376" transform="translate(32.93 28.745)">
          <g id="Group_375" data-name="Group 375">
            <path id="Path_1468" data-name="Path 1468" d="M1333.07,3178.024a.968.968,0,0,1-.291-1.891c.979-.308,1.987-.571,2.995-.782a.968.968,0,1,1,.4,1.894c-.947.2-1.893.446-2.812.735A.985.985,0,0,1,1333.07,3178.024Z" transform="translate(-1332.102 -3175.331)" fill="#868491"/>
          </g>
        </g>
        <g id="Group_378" data-name="Group 378" transform="translate(39.704 28.092)">
          <g id="Group_377" data-name="Group 377">
            <path id="Path_1469" data-name="Path 1469" d="M1355.973,3177.589a.989.989,0,0,1-.29-.044,29.528,29.528,0,0,0-11.246-1.273.968.968,0,0,1-.154-1.93,31.531,31.531,0,0,1,11.98,1.356.968.968,0,0,1-.29,1.891Z" transform="translate(-1343.392 -3174.243)" fill="#868491"/>
          </g>
        </g>
        <g id="Group_380" data-name="Group 380" transform="translate(32.93 24.204)">
          <g id="Group_379" data-name="Group 379">
            <path id="Path_1470" data-name="Path 1470" d="M1351.457,3171.115a.989.989,0,0,1-.29-.045,29.571,29.571,0,0,0-17.807,0,.968.968,0,0,1-.58-1.847,31.507,31.507,0,0,1,18.967,0,.968.968,0,0,1-.29,1.892Z" transform="translate(-1332.102 -3167.762)" fill="#868491"/>
          </g>
        </g>
        <g id="Group_382" data-name="Group 382" transform="translate(32.93 20.351)">
          <g id="Group_381" data-name="Group 381">
            <path id="Path_1471" data-name="Path 1471" d="M1333.07,3164.687a.968.968,0,0,1-.291-1.891,31.6,31.6,0,0,1,10.982-1.419.968.968,0,1,1-.093,1.933,29.662,29.662,0,0,0-10.309,1.332A.955.955,0,0,1,1333.07,3164.687Z" transform="translate(-1332.102 -3161.341)" fill="#868491"/>
          </g>
        </g>
        <g id="Group_384" data-name="Group 384" transform="translate(47.445 20.816)">
          <g id="Group_383" data-name="Group 383">
            <path id="Path_1472" data-name="Path 1472" d="M1361.134,3165a.972.972,0,0,1-.29-.045,29.763,29.763,0,0,0-3.75-.916.968.968,0,0,1,.337-1.906,31.884,31.884,0,0,1,3.994.975.968.968,0,0,1-.29,1.892Z" transform="translate(-1356.294 -3162.115)" fill="#868491"/>
          </g>
        </g>
        <g id="Group_386" data-name="Group 386" transform="translate(32.93 16.461)">
          <g id="Group_385" data-name="Group 385">
            <path id="Path_1473" data-name="Path 1473" d="M1351.457,3158.211a.981.981,0,0,1-.29-.045,29.563,29.563,0,0,0-17.807,0,.968.968,0,0,1-.58-1.847,31.5,31.5,0,0,1,18.967,0,.968.968,0,0,1-.29,1.892Z" transform="translate(-1332.102 -3154.858)" fill="#868491"/>
          </g>
        </g>
        <g id="Group_388" data-name="Group 388" transform="translate(32.93 12.784)">
          <g id="Group_387" data-name="Group 387">
            <path id="Path_1474" data-name="Path 1474" d="M1333.07,3151.889a.968.968,0,0,1-.291-1.892,31.72,31.72,0,0,1,5.99-1.261.968.968,0,1,1,.214,1.924,29.794,29.794,0,0,0-5.624,1.184A.955.955,0,0,1,1333.07,3151.889Z" transform="translate(-1332.102 -3148.729)" fill="#868491"/>
          </g>
        </g>
        <g id="Group_390" data-name="Group 390" transform="translate(42.608 12.6)">
          <g id="Group_389" data-name="Group 389">
            <path id="Path_1475" data-name="Path 1475" d="M1357.909,3151.766a.966.966,0,0,1-.29-.045,29.652,29.652,0,0,0-8.434-1.361.968.968,0,1,1,.03-1.935,31.633,31.633,0,0,1,8.984,1.45.968.968,0,0,1-.29,1.892Z" transform="translate(-1348.232 -3148.423)" fill="#868491"/>
          </g>
        </g>
        <g id="Group_392" data-name="Group 392" transform="translate(32.93 8.735)">
          <g id="Group_391" data-name="Group 391">
            <path id="Path_1476" data-name="Path 1476" d="M1333.07,3145.33a.968.968,0,0,1-.291-1.891,31.422,31.422,0,0,1,12.978-1.26.968.968,0,0,1,.855,1.068.956.956,0,0,1-1.069.855,29.542,29.542,0,0,0-12.184,1.184A.955.955,0,0,1,1333.07,3145.33Z" transform="translate(-1332.102 -3141.981)" fill="#868491"/>
          </g>
        </g>
        <g id="Group_394" data-name="Group 394" transform="translate(49.381 9.609)">
          <g id="Group_393" data-name="Group 393">
            <path id="Path_1477" data-name="Path 1477" d="M1362.424,3145.912a.957.957,0,0,1-.29-.045c-.615-.193-1.245-.368-1.875-.522a.968.968,0,0,1,.46-1.88c.67.163,1.341.35,2,.556a.968.968,0,0,1-.29,1.891Z" transform="translate(-1359.521 -3143.437)" fill="#868491"/>
          </g>
        </g>
        <g id="Group_396" data-name="Group 396" transform="translate(32.93 5.727)">
          <g id="Group_395" data-name="Group 395">
            <path id="Path_1478" data-name="Path 1478" d="M1333.07,3139.442a.968.968,0,0,1-.289-1.892c.665-.209,1.336-.4,1.995-.556a.968.968,0,0,1,.457,1.881c-.618.15-1.249.325-1.874.521A.967.967,0,0,1,1333.07,3139.442Z" transform="translate(-1332.102 -3136.967)" fill="#868491"/>
          </g>
        </g>
        <g id="Group_398" data-name="Group 398" transform="translate(38.736 4.853)">
          <g id="Group_397" data-name="Group 397">
            <path id="Path_1479" data-name="Path 1479" d="M1355.328,3138.859a.988.988,0,0,1-.29-.045,29.543,29.543,0,0,0-12.184-1.185.967.967,0,1,1-.214-1.923,31.45,31.45,0,0,1,12.977,1.261.968.968,0,0,1-.29,1.892Z" transform="translate(-1341.779 -3135.511)" fill="#868491"/>
          </g>
        </g>
        <g id="Group_400" data-name="Group 400" transform="translate(6.8 28.745)">
          <g id="Group_399" data-name="Group 399">
            <path id="Path_1480" data-name="Path 1480" d="M1289.521,3178.024a.968.968,0,0,1-.29-1.891c.979-.308,1.986-.571,2.995-.782a.968.968,0,0,1,.4,1.894c-.948.2-1.893.446-2.812.735A.989.989,0,0,1,1289.521,3178.024Z" transform="translate(-1288.553 -3175.331)" fill="#b4b6bc"/>
          </g>
        </g>
        <g id="Group_402" data-name="Group 402" transform="translate(13.574 28.092)">
          <g id="Group_401" data-name="Group 401">
            <path id="Path_1481" data-name="Path 1481" d="M1312.424,3177.589a.981.981,0,0,1-.29-.044,29.53,29.53,0,0,0-11.246-1.273.968.968,0,1,1-.153-1.93,31.536,31.536,0,0,1,11.98,1.356.968.968,0,0,1-.29,1.891Z" transform="translate(-1299.843 -3174.243)" fill="#b4b6bc"/>
          </g>
        </g>
        <g id="Group_404" data-name="Group 404" transform="translate(6.801 24.204)">
          <g id="Group_403" data-name="Group 403">
            <path id="Path_1482" data-name="Path 1482" d="M1307.908,3171.115a.983.983,0,0,1-.29-.045,29.571,29.571,0,0,0-17.807,0,.968.968,0,0,1-.58-1.847,31.506,31.506,0,0,1,18.967,0,.968.968,0,0,1-.29,1.892Z" transform="translate(-1288.553 -3167.762)" fill="#b4b6bc"/>
          </g>
        </g>
        <g id="Group_406" data-name="Group 406" transform="translate(6.8 20.351)">
          <g id="Group_405" data-name="Group 405">
            <path id="Path_1483" data-name="Path 1483" d="M1289.521,3164.687a.968.968,0,0,1-.29-1.891,31.6,31.6,0,0,1,10.981-1.419.968.968,0,0,1-.092,1.933,29.663,29.663,0,0,0-10.309,1.332A.952.952,0,0,1,1289.521,3164.687Z" transform="translate(-1288.553 -3161.341)" fill="#b4b6bc"/>
          </g>
        </g>
        <g id="Group_408" data-name="Group 408" transform="translate(21.316 20.816)">
          <g id="Group_407" data-name="Group 407">
            <path id="Path_1484" data-name="Path 1484" d="M1317.585,3165a.966.966,0,0,1-.29-.045,29.753,29.753,0,0,0-3.75-.916.968.968,0,0,1,.337-1.906,31.852,31.852,0,0,1,3.994.975.968.968,0,0,1-.291,1.892Z" transform="translate(-1312.746 -3162.115)" fill="#b4b6bc"/>
          </g>
        </g>
        <g id="Group_410" data-name="Group 410" transform="translate(6.8 16.469)">
          <g id="Group_409" data-name="Group 409">
            <path id="Path_1485" data-name="Path 1485" d="M1289.521,3158.217a.968.968,0,0,1-.29-1.892,31.661,31.661,0,0,1,16.97-.555.968.968,0,1,1-.458,1.88,29.7,29.7,0,0,0-15.932.522A.982.982,0,0,1,1289.521,3158.217Z" transform="translate(-1288.553 -3154.871)" fill="#b4b6bc"/>
          </g>
        </g>
        <g id="Group_412" data-name="Group 412" transform="translate(6.8 12.784)">
          <g id="Group_411" data-name="Group 411">
            <path id="Path_1486" data-name="Path 1486" d="M1289.521,3151.889a.968.968,0,0,1-.29-1.892,31.7,31.7,0,0,1,5.99-1.261.968.968,0,0,1,.214,1.924,29.776,29.776,0,0,0-5.624,1.184A.96.96,0,0,1,1289.521,3151.889Z" transform="translate(-1288.553 -3148.729)" fill="#b4b6bc"/>
          </g>
        </g>
        <g id="Group_414" data-name="Group 414" transform="translate(16.479 12.6)">
          <g id="Group_413" data-name="Group 413">
            <path id="Path_1487" data-name="Path 1487" d="M1312.426,3151.227a1,1,0,0,1-.229-.027,29.776,29.776,0,0,0-6.56-.841.967.967,0,0,1-.953-.983.94.94,0,0,1,.983-.952,31.652,31.652,0,0,1,6.987.895.968.968,0,0,1-.228,1.908Z" transform="translate(-1304.684 -3148.423)" fill="#b4b6bc"/>
          </g>
        </g>
        <g id="Group_416" data-name="Group 416" transform="translate(6.8 8.735)">
          <g id="Group_415" data-name="Group 415">
            <path id="Path_1488" data-name="Path 1488" d="M1289.521,3145.33a.968.968,0,0,1-.29-1.891,31.423,31.423,0,0,1,12.977-1.26.967.967,0,0,1,.855,1.068.957.957,0,0,1-1.069.855,29.547,29.547,0,0,0-12.184,1.184A.952.952,0,0,1,1289.521,3145.33Z" transform="translate(-1288.553 -3141.981)" fill="#b4b6bc"/>
          </g>
        </g>
        <g id="Group_418" data-name="Group 418" transform="translate(6.8 5.727)">
          <g id="Group_417" data-name="Group 417">
            <path id="Path_1489" data-name="Path 1489" d="M1289.521,3139.442a.968.968,0,0,1-.289-1.892c.665-.209,1.336-.4,1.995-.556a.968.968,0,1,1,.457,1.881c-.618.15-1.248.325-1.874.521A.974.974,0,0,1,1289.521,3139.442Z" transform="translate(-1288.553 -3136.967)" fill="#b4b6bc"/>
          </g>
        </g>
        <g id="Group_420" data-name="Group 420" transform="translate(12.607 4.854)">
          <g id="Group_419" data-name="Group 419">
            <path id="Path_1490" data-name="Path 1490" d="M1309.844,3138.32a.97.97,0,0,1-.229-.027,29.661,29.661,0,0,0-10.31-.663.967.967,0,1,1-.214-1.923,31.54,31.54,0,0,1,10.981.7.968.968,0,0,1-.228,1.908Z" transform="translate(-1298.23 -3135.513)" fill="#b4b6bc"/>
          </g>
        </g>
        <g id="Group_421" data-name="Group 421" transform="translate(24.217 0.471)">
          <path id="Path_1491" data-name="Path 1491" d="M1317.584,3145.656a.484.484,0,0,0,.752.4l2.151-1.434,2.151,1.434a.484.484,0,0,0,.752-.4v-14.919a.975.975,0,0,0-.572-.89,30.534,30.534,0,0,0-4.628-1.623.488.488,0,0,0-.608.473Z" transform="translate(-1317.581 -3128.208)" fill="#5d647f"/>
        </g>
      </g>
    </g>
  </g>
</svg>
