<svg id="likeFood" xmlns="http://www.w3.org/2000/svg" width="100" height="100" viewBox="0 0 100 100">
  <g id="Group_461" data-name="Group 461" transform="translate(-391 -2811)">
    <g id="Group_446" data-name="Group 446" transform="translate(265 -3530)">
      <rect id="Rectangle_75" data-name="Rectangle 75" width="100" height="100" rx="25" transform="translate(126 6341)" fill="#fff"/>
    </g>
    <g id="Group_447" data-name="Group 447" transform="translate(97.714 9.287)">
      <g id="Group_434" data-name="Group 434" transform="translate(313.286 2830.713)">
        <path id="Shape" d="M371.578,2859.323v13.443a8.273,8.273,0,0,1-8.273,8.273h-33.09a8.273,8.273,0,0,1-8.273-8.273v-14.477Z" transform="translate(-316.749 -2841.744)" fill="#ecf0f1"/>
        <path id="Path_1523" data-name="Path 1523" d="M371.578,2859.323V2870.7c0-7.239-5.17-6.2-14.477-6.2-8.981,0-17.7-3.086-26.886-2.068-6.784.755-8.077,5.356-8.273,7.8v-11.933Z" transform="translate(-316.749 -2841.744)" fill="#d1d4d1"/>
        <path id="Path_1524" data-name="Path 1524" d="M373.286,2853.8a5.171,5.171,0,0,1-5.171,5.171c0-7.239-5.17-6.2-14.477-6.2-8.717,0-17.7-3.08-26.886-2.068-5.541.62-8.3,4.032-8.3,8.583a7.1,7.1,0,0,0,.031.724,5.171,5.171,0,0,1-5.171-5.17,19.753,19.753,0,0,1,17.621-20.579c1.344-.147.517-.1,22.708-.1A19.66,19.66,0,0,1,373.286,2853.8Z" transform="translate(-313.286 -2832.087)" fill="#f29c1f"/>
        <g id="Group_433" data-name="Group 433" transform="translate(2.215 2.171)">
          <path id="Path_1525" data-name="Path 1525" d="M404.179,2846.607a19.876,19.876,0,0,1-2.389,7.146,6.074,6.074,0,0,1-.476.692,1.035,1.035,0,0,1-1.582-1.334c.052-.062,2.027-2.574,2.647-8.7a17.391,17.391,0,0,1,1.8,2.192Z" transform="translate(-349.983 -2838.365)" fill="#ecf0f1"/>
          <path id="Path_1526" data-name="Path 1526" d="M390.706,2836.566c-.652,9.451-3,13.123-3.092,13.288a1.059,1.059,0,0,1-1.438.3c-.02-.021-.052-.031-.072-.062a1.025,1.025,0,0,1-.227-1.365c.031-.062,2.254-3.681,2.812-12.947a15.362,15.362,0,0,1,2.017.786Z" transform="translate(-344.472 -2834.911)" fill="#ecf0f1"/>
          <path id="Path_1527" data-name="Path 1527" d="M340.436,2847.051a1.037,1.037,0,1,1-1.9-.827c.02-.031,1.468-3.619.413-11.561a16.869,16.869,0,0,1,2.048-.331c1.148,8.624-.483,12.545-.559,12.719Z" transform="translate(-325.566 -2834.332)" fill="#ecf0f1"/>
          <path id="Path_1528" data-name="Path 1528" d="M328.574,2849.775a1.033,1.033,0,0,1-1.261.745,1.054,1.054,0,0,1-.745-1.262,12.718,12.718,0,0,0-1.541-8.262,18.02,18.02,0,0,1,1.665-1.251C329.711,2845.194,328.626,2849.589,328.574,2849.775Z" transform="translate(-320.198 -2836.497)" fill="#ecf0f1"/>
          <path id="Path_1529" data-name="Path 1529" d="M320.36,2855.273a1.042,1.042,0,0,1-1.034.962h-.073a1.035,1.035,0,0,1-.962-1.107,8.772,8.772,0,0,0-1.313-4.539,15.769,15.769,0,0,1,1.169-1.986.125.125,0,0,1,.052.052,11.888,11.888,0,0,1,2.151,5.77,7.83,7.83,0,0,1,.01.848Z" transform="translate(-316.978 -2840.041)" fill="#ecf0f1"/>
        </g>
        <path id="Path_1530" data-name="Path 1530" d="M365.718,2863.766v18.727H351.241v-20.568c3.6.376,11.329,1.652,14.477,1.841Z" transform="translate(-328.468 -2843.198)" fill="#d1d4d1"/>
        <path id="Path_1531" data-name="Path 1531" d="M365.718,2834.16v18.5c-3.359-.2-11.522-1.531-14.477-1.841V2834.16Z" transform="translate(-328.468 -2832.092)" fill="#e57e25"/>
        <rect id="Rectangle-path" width="10.341" height="41.363" rx="3.447" transform="translate(24.841)" fill="#41767f"/>
        <path id="Path_1532" data-name="Path 1532" d="M363.65,2880v11.375h-2.068V2880a1.034,1.034,0,1,1,2.068,0Z" transform="translate(-332.605 -2850.016)" fill="#3f5c6c"/>
        <path id="Path_1533" data-name="Path 1533" d="M363.65,2830.713v25.852a1.034,1.034,0,0,1-2.068,0v-25.852Z" transform="translate(-332.605 -2830.713)" fill="#3f5c6c"/>
      </g>
    </g>
  </g>
</svg>
