<svg id="Component_3_1" data-name="Component 3 – 1" xmlns="http://www.w3.org/2000/svg" width="294" height="130.196" viewBox="0 0 294 130.196">
  <text id="EATING_GOOD_FOOD" data-name="EATING GOOD FOOD" transform="translate(0 121.196)" fill="#fff" font-size="30" font-family="OpenSans, Open Sans"><tspan x="0" y="0">EATING GOOD FOOD</tspan></text>
  <g id="Group_341" data-name="Group 341" transform="translate(-213.382 -2830.713)">
    <g id="Group_340" data-name="Group 340">
      <path id="Shape" d="M404.669,2860.012v22.405a13.788,13.788,0,0,1-13.788,13.788H335.73a13.788,13.788,0,0,1-13.788-13.788v-24.128Z" fill="#ecf0f1"/>
      <path id="Path_1386" data-name="Path 1386" d="M404.669,2860.012v18.958c0-12.064-8.617-10.34-24.129-10.34-14.968,0-29.5-5.143-44.81-3.447-11.306,1.258-13.461,8.927-13.788,12.995v-19.889Z" fill="#d1d4d1"/>
      <path id="Path_1387" data-name="Path 1387" d="M413.287,2866.906a8.619,8.619,0,0,1-8.618,8.618c0-12.065-8.617-10.341-24.129-10.341-14.529,0-29.494-5.133-44.81-3.447-9.235,1.034-13.84,6.721-13.84,14.3a11.85,11.85,0,0,0,.052,1.206,8.618,8.618,0,0,1-8.618-8.617,32.92,32.92,0,0,1,29.369-34.3c2.24-.246.861-.172,37.847-.172A32.768,32.768,0,0,1,413.287,2866.906Z" fill="#f29c1f"/>
      <g id="Group_339" data-name="Group 339">
        <path id="Path_1388" data-name="Path 1388" d="M407.306,2848.068a33.119,33.119,0,0,1-3.981,11.91,10.1,10.1,0,0,1-.793,1.154,1.725,1.725,0,0,1-2.637-2.223c.086-.1,3.378-4.291,4.412-14.494a28.9,28.9,0,0,1,3,3.653Z" fill="#ecf0f1"/>
        <path id="Path_1389" data-name="Path 1389" d="M394.035,2837.09c-1.086,15.752-5,21.871-5.153,22.147a1.764,1.764,0,0,1-2.4.5c-.034-.034-.086-.051-.12-.1a1.709,1.709,0,0,1-.379-2.275c.051-.1,3.757-6.136,4.687-21.578a25.56,25.56,0,0,1,3.361,1.31Z" fill="#ecf0f1"/>
        <path id="Path_1390" data-name="Path 1390" d="M341.762,2855.531a1.729,1.729,0,0,1-3.171-1.379c.034-.051,2.447-6.032.689-19.268a28.084,28.084,0,0,1,3.413-.552c1.913,14.374-.8,20.908-.931,21.2Z" fill="#ecf0f1"/>
        <path id="Path_1391" data-name="Path 1391" d="M330.938,2856.462a1.722,1.722,0,0,1-2.1,1.241,1.756,1.756,0,0,1-1.241-2.1,21.2,21.2,0,0,0-2.568-13.771,29.965,29.965,0,0,1,2.775-2.085C332.834,2848.827,331.025,2856.152,330.938,2856.462Z" fill="#ecf0f1"/>
        <path id="Path_1392" data-name="Path 1392" d="M322.614,2859.719a1.737,1.737,0,0,1-1.723,1.6h-.121a1.723,1.723,0,0,1-1.6-1.844,14.621,14.621,0,0,0-2.189-7.566,26.31,26.31,0,0,1,1.948-3.309.21.21,0,0,1,.086.086,19.816,19.816,0,0,1,3.585,9.617,13.062,13.062,0,0,1,.017,1.413Z" fill="#ecf0f1"/>
      </g>
      <path id="Path_1393" data-name="Path 1393" d="M375.37,2864.993v31.212H351.241v-34.28c6,.628,18.881,2.754,24.129,3.068Z" fill="#d1d4d1"/>
      <path id="Path_1394" data-name="Path 1394" d="M375.37,2834.16v30.833c-5.6-.334-19.2-2.552-24.129-3.068V2834.16Z" fill="#e57e25"/>
      <rect id="Rectangle-path" width="17.235" height="68.939" rx="3.447" transform="translate(354.688 2830.713)" fill="#41767f"/>
      <path id="Path_1395" data-name="Path 1395" d="M365.029,2880.694v18.958h-3.447v-18.958a1.723,1.723,0,1,1,3.447,0Z" fill="#3f5c6c"/>
      <path id="Path_1396" data-name="Path 1396" d="M365.029,2830.713V2873.8a1.723,1.723,0,1,1-3.447,0v-43.087Z" fill="#3f5c6c"/>
    </g>
  </g>
</svg>
