<svg id="likeReading" xmlns="http://www.w3.org/2000/svg" width="127.061" height="105.914" viewBox="0 0 127.061 105.914">
  <g id="Group_423" data-name="Group 423" transform="translate(-1264.219 -3127.422)">
    <g id="Group_422" data-name="Group 422">
      <g id="Group_370" data-name="Group 370">
        <path id="Path_1464" data-name="Path 1464" d="M1372.38,3137.128h-90.322a4.844,4.844,0,0,0-4.839,4.839v53.225a4.843,4.843,0,0,0,4.839,4.839h90.322a4.844,4.844,0,0,0,4.839-4.839v-53.225A4.845,4.845,0,0,0,1372.38,3137.128Z" fill="#ff4f19"/>
      </g>
      <g id="Group_371" data-name="Group 371">
        <rect id="Rectangle_74" data-name="Rectangle 74" width="9.677" height="8.065" transform="translate(1322.38 3191.967)" fill="#e3001e"/>
      </g>
      <g id="Group_372" data-name="Group 372">
        <path id="Path_1465" data-name="Path 1465" d="M1370.811,3187.128v4.839a1.614,1.614,0,0,1-1.613,1.613h-83.871a1.613,1.613,0,0,1-1.612-1.613v-4.839l9.633-4.839,38.71,1.613,32.258-1.613Z" fill="#e6be8a"/>
      </g>
      <g id="Group_373" data-name="Group 373">
        <path id="Path_1466" data-name="Path 1466" d="M1285.978,3189.355a51.135,51.135,0,0,1,41.285,1v-58.065a51.14,51.14,0,0,0-42.591-.438,1.634,1.634,0,0,0-.957,1.49v54.539A1.619,1.619,0,0,0,1285.978,3189.355Z" fill="#ffebb7"/>
      </g>
      <g id="Group_374" data-name="Group 374">
        <path id="Path_1467" data-name="Path 1467" d="M1327.263,3190.354a51.136,51.136,0,0,1,41.285-1,1.619,1.619,0,0,0,2.263-1.475v-54.539a1.634,1.634,0,0,0-.957-1.49,51.14,51.14,0,0,0-42.591.438Z" fill="#ffd788"/>
      </g>
      <g id="Group_376" data-name="Group 376">
        <g id="Group_375" data-name="Group 375">
          <path id="Path_1468" data-name="Path 1468" d="M1333.715,3179.82a1.613,1.613,0,0,1-.484-3.152c1.632-.513,3.311-.951,4.991-1.3a1.613,1.613,0,1,1,.662,3.157c-1.578.331-3.155.743-4.686,1.224A1.635,1.635,0,0,1,1333.715,3179.82Z" fill="#868491"/>
        </g>
      </g>
      <g id="Group_378" data-name="Group 378">
        <g id="Group_377" data-name="Group 377">
          <path id="Path_1469" data-name="Path 1469" d="M1364.36,3179.82a1.642,1.642,0,0,1-.484-.074,49.213,49.213,0,0,0-18.743-2.122,1.613,1.613,0,0,1-.256-3.216,52.546,52.546,0,0,1,19.966,2.26,1.613,1.613,0,0,1-.483,3.152Z" fill="#868491"/>
        </g>
      </g>
      <g id="Group_380" data-name="Group 380">
        <g id="Group_379" data-name="Group 379">
          <path id="Path_1470" data-name="Path 1470" d="M1364.36,3173.35a1.636,1.636,0,0,1-.484-.075,49.292,49.292,0,0,0-29.678,0,1.613,1.613,0,0,1-.967-3.078,52.511,52.511,0,0,1,31.612,0,1.614,1.614,0,0,1-.483,3.153Z" fill="#868491"/>
        </g>
      </g>
      <g id="Group_382" data-name="Group 382">
        <g id="Group_381" data-name="Group 381">
          <path id="Path_1471" data-name="Path 1471" d="M1333.715,3166.917a1.613,1.613,0,0,1-.484-3.152,52.658,52.658,0,0,1,18.3-2.365,1.613,1.613,0,1,1-.155,3.222,49.433,49.433,0,0,0-17.181,2.22A1.6,1.6,0,0,1,1333.715,3166.917Z" fill="#868491"/>
        </g>
      </g>
      <g id="Group_384" data-name="Group 384">
        <g id="Group_383" data-name="Group 383">
          <path id="Path_1472" data-name="Path 1472" d="M1364.36,3166.917a1.6,1.6,0,0,1-.484-.075,49.64,49.64,0,0,0-6.25-1.525,1.613,1.613,0,0,1,.561-3.177,53.1,53.1,0,0,1,6.657,1.625,1.613,1.613,0,0,1-.484,3.152Z" fill="#868491"/>
        </g>
      </g>
      <g id="Group_386" data-name="Group 386">
        <g id="Group_385" data-name="Group 385">
          <path id="Path_1473" data-name="Path 1473" d="M1364.36,3160.447a1.636,1.636,0,0,1-.484-.075,49.273,49.273,0,0,0-29.678,0,1.613,1.613,0,0,1-.967-3.078,52.5,52.5,0,0,1,31.612,0,1.614,1.614,0,0,1-.483,3.153Z" fill="#868491"/>
        </g>
      </g>
      <g id="Group_388" data-name="Group 388">
        <g id="Group_387" data-name="Group 387">
          <path id="Path_1474" data-name="Path 1474" d="M1333.715,3154a1.613,1.613,0,0,1-.484-3.152,52.839,52.839,0,0,1,9.984-2.1,1.613,1.613,0,1,1,.356,3.206,49.647,49.647,0,0,0-9.373,1.973A1.6,1.6,0,0,1,1333.715,3154Z" fill="#868491"/>
        </g>
      </g>
      <g id="Group_390" data-name="Group 390">
        <g id="Group_389" data-name="Group 389">
          <path id="Path_1475" data-name="Path 1475" d="M1364.36,3154a1.605,1.605,0,0,1-.484-.075,49.417,49.417,0,0,0-14.056-2.269,1.613,1.613,0,1,1,.05-3.226,52.711,52.711,0,0,1,14.973,2.417,1.614,1.614,0,0,1-.483,3.153Z" fill="#868491"/>
        </g>
      </g>
      <g id="Group_392" data-name="Group 392">
        <g id="Group_391" data-name="Group 391">
          <path id="Path_1476" data-name="Path 1476" d="M1333.715,3147.562a1.613,1.613,0,0,1-.484-3.152,52.368,52.368,0,0,1,21.629-2.1,1.613,1.613,0,0,1,1.426,1.78,1.592,1.592,0,0,1-1.782,1.425,49.244,49.244,0,0,0-20.306,1.973A1.6,1.6,0,0,1,1333.715,3147.562Z" fill="#868491"/>
        </g>
      </g>
      <g id="Group_394" data-name="Group 394">
        <g id="Group_393" data-name="Group 393">
          <path id="Path_1477" data-name="Path 1477" d="M1364.36,3147.562a1.6,1.6,0,0,1-.484-.075c-1.024-.322-2.074-.614-3.125-.87a1.613,1.613,0,0,1,.766-3.134c1.117.272,2.235.584,3.326.927a1.613,1.613,0,0,1-.483,3.152Z" fill="#868491"/>
        </g>
      </g>
      <g id="Group_396" data-name="Group 396">
        <g id="Group_395" data-name="Group 395">
          <path id="Path_1478" data-name="Path 1478" d="M1333.715,3141.092a1.613,1.613,0,0,1-.482-3.153c1.108-.348,2.227-.659,3.325-.926a1.613,1.613,0,0,1,.762,3.135c-1.03.25-2.081.542-3.124.869A1.62,1.62,0,0,1,1333.715,3141.092Z" fill="#868491"/>
        </g>
      </g>
      <g id="Group_398" data-name="Group 398">
        <g id="Group_397" data-name="Group 397">
          <path id="Path_1479" data-name="Path 1479" d="M1364.36,3141.092a1.644,1.644,0,0,1-.484-.075,49.244,49.244,0,0,0-20.306-1.974,1.612,1.612,0,1,1-.356-3.205,52.411,52.411,0,0,1,21.629,2.1,1.614,1.614,0,0,1-.483,3.153Z" fill="#868491"/>
        </g>
      </g>
      <g id="Group_400" data-name="Group 400">
        <g id="Group_399" data-name="Group 399">
          <path id="Path_1480" data-name="Path 1480" d="M1290.166,3179.82a1.613,1.613,0,0,1-.483-3.152c1.631-.513,3.31-.951,4.991-1.3a1.613,1.613,0,0,1,.662,3.157c-1.579.331-3.155.743-4.686,1.224A1.642,1.642,0,0,1,1290.166,3179.82Z" fill="#b4b6bc"/>
        </g>
      </g>
      <g id="Group_402" data-name="Group 402">
        <g id="Group_401" data-name="Group 401">
          <path id="Path_1481" data-name="Path 1481" d="M1320.811,3179.82a1.631,1.631,0,0,1-.483-.074,49.217,49.217,0,0,0-18.744-2.122,1.613,1.613,0,1,1-.255-3.216,52.553,52.553,0,0,1,19.966,2.26,1.613,1.613,0,0,1-.484,3.152Z" fill="#b4b6bc"/>
        </g>
      </g>
      <g id="Group_404" data-name="Group 404">
        <g id="Group_403" data-name="Group 403">
          <path id="Path_1482" data-name="Path 1482" d="M1320.811,3173.35a1.625,1.625,0,0,1-.483-.075,49.292,49.292,0,0,0-29.678,0,1.613,1.613,0,0,1-.967-3.078,52.511,52.511,0,0,1,31.612,0,1.614,1.614,0,0,1-.484,3.153Z" fill="#b4b6bc"/>
        </g>
      </g>
      <g id="Group_406" data-name="Group 406">
        <g id="Group_405" data-name="Group 405">
          <path id="Path_1483" data-name="Path 1483" d="M1290.166,3166.917a1.613,1.613,0,0,1-.483-3.152,52.668,52.668,0,0,1,18.3-2.365,1.613,1.613,0,0,1-.154,3.222,49.432,49.432,0,0,0-17.182,2.22A1.594,1.594,0,0,1,1290.166,3166.917Z" fill="#b4b6bc"/>
        </g>
      </g>
      <g id="Group_408" data-name="Group 408">
        <g id="Group_407" data-name="Group 407">
          <path id="Path_1484" data-name="Path 1484" d="M1320.811,3166.917a1.593,1.593,0,0,1-.483-.075,49.64,49.64,0,0,0-6.25-1.525,1.613,1.613,0,0,1,.561-3.177,53.049,53.049,0,0,1,6.656,1.625,1.613,1.613,0,0,1-.484,3.152Z" fill="#b4b6bc"/>
        </g>
      </g>
      <g id="Group_410" data-name="Group 410">
        <g id="Group_409" data-name="Group 409">
          <path id="Path_1485" data-name="Path 1485" d="M1290.166,3160.447a1.614,1.614,0,0,1-.483-3.153,52.766,52.766,0,0,1,28.284-.926,1.613,1.613,0,1,1-.763,3.134,49.505,49.505,0,0,0-26.554.87A1.636,1.636,0,0,1,1290.166,3160.447Z" fill="#b4b6bc"/>
        </g>
      </g>
      <g id="Group_412" data-name="Group 412">
        <g id="Group_411" data-name="Group 411">
          <path id="Path_1486" data-name="Path 1486" d="M1290.166,3154a1.613,1.613,0,0,1-.483-3.152,52.807,52.807,0,0,1,9.984-2.1,1.613,1.613,0,1,1,.356,3.206,49.614,49.614,0,0,0-9.373,1.973A1.605,1.605,0,0,1,1290.166,3154Z" fill="#b4b6bc"/>
        </g>
      </g>
      <g id="Group_414" data-name="Group 414">
        <g id="Group_413" data-name="Group 413">
          <path id="Path_1487" data-name="Path 1487" d="M1317.587,3153.1a1.667,1.667,0,0,1-.382-.045,49.579,49.579,0,0,0-10.933-1.4,1.612,1.612,0,0,1-1.588-1.638,1.567,1.567,0,0,1,1.638-1.587,52.8,52.8,0,0,1,11.645,1.491,1.613,1.613,0,0,1-.38,3.18Z" fill="#b4b6bc"/>
        </g>
      </g>
      <g id="Group_416" data-name="Group 416">
        <g id="Group_415" data-name="Group 415">
          <path id="Path_1488" data-name="Path 1488" d="M1290.166,3147.562a1.613,1.613,0,0,1-.483-3.152,52.371,52.371,0,0,1,21.629-2.1,1.612,1.612,0,0,1,1.425,1.78,1.6,1.6,0,0,1-1.781,1.425,49.25,49.25,0,0,0-20.307,1.973A1.594,1.594,0,0,1,1290.166,3147.562Z" fill="#b4b6bc"/>
        </g>
      </g>
      <g id="Group_418" data-name="Group 418">
        <g id="Group_417" data-name="Group 417">
          <path id="Path_1489" data-name="Path 1489" d="M1290.166,3141.092a1.613,1.613,0,0,1-.482-3.153c1.109-.348,2.227-.659,3.325-.926a1.613,1.613,0,1,1,.762,3.135c-1.03.25-2.08.542-3.123.869A1.63,1.63,0,0,1,1290.166,3141.092Z" fill="#b4b6bc"/>
        </g>
      </g>
      <g id="Group_420" data-name="Group 420">
        <g id="Group_419" data-name="Group 419">
          <path id="Path_1490" data-name="Path 1490" d="M1317.587,3140.192a1.614,1.614,0,0,1-.382-.045,49.422,49.422,0,0,0-17.183-1.1,1.612,1.612,0,1,1-.356-3.205,52.567,52.567,0,0,1,18.3,1.174,1.613,1.613,0,0,1-.38,3.18Z" fill="#b4b6bc"/>
        </g>
      </g>
      <g id="Group_421" data-name="Group 421">
        <path id="Path_1491" data-name="Path 1491" d="M1317.586,3157.288a.806.806,0,0,0,1.253.671l3.585-2.39,3.585,2.39a.807.807,0,0,0,1.254-.671v-24.865a1.625,1.625,0,0,0-.954-1.484,50.979,50.979,0,0,0-7.714-2.705.814.814,0,0,0-1.014.789Z" fill="#5d647f"/>
      </g>
    </g>
  </g>
  <g id="Group_425" data-name="Group 425" transform="translate(-1263.944 -3127.422)">
    <g id="Group_424" data-name="Group 424">
      <path id="Path_1492" data-name="Path 1492" d="M1267.445,3224.488v8.555h-3.5v-21.416h6.05q4.146,0,6.138,1.552a5.576,5.576,0,0,1,1.992,4.688q0,4-4.16,5.7l6.05,9.478h-3.985l-5.127-8.555Zm0-2.9h2.432a5.551,5.551,0,0,0,3.545-.908,3.3,3.3,0,0,0,1.1-2.7,2.9,2.9,0,0,0-1.186-2.607,6.5,6.5,0,0,0-3.574-.791h-2.315Z" fill="#fff"/>
      <path id="Path_1493" data-name="Path 1493" d="M1295.233,3233.043h-12.114v-21.416h12.114v2.959h-8.613v5.83h8.071v2.929h-8.071v6.724h8.613Z" fill="#fff"/>
      <path id="Path_1494" data-name="Path 1494" d="M1313.148,3233.043l-2.138-5.948h-8.189l-2.1,5.948h-3.691l8.013-21.5h3.808l8.013,21.5Zm-3.061-8.965-2.007-5.83q-.22-.587-.608-1.846t-.535-1.846a32.712,32.712,0,0,1-1.157,3.941l-1.933,5.581Z" fill="#fff"/>
      <path id="Path_1495" data-name="Path 1495" d="M1337.113,3222.129q0,5.3-2.944,8.109t-8.482,2.8H1319.7v-21.416h6.621q5.112,0,7.954,2.753T1337.113,3222.129Zm-3.691.118q0-7.69-7.193-7.691H1323.2V3230.1h2.49Q1333.422,3230.1,1333.422,3222.247Z" fill="#fff"/>
      <path id="Path_1496" data-name="Path 1496" d="M1341.713,3233.043v-21.416h3.5v21.416Z" fill="#fff"/>
      <path id="Path_1497" data-name="Path 1497" d="M1368.71,3233.043h-4.292l-10.532-17.066h-.118l.074.952q.2,2.726.2,4.981v11.133h-3.179v-21.416h4.248l10.5,16.977h.088q-.03-.338-.117-2.454t-.088-3.3v-11.22h3.208Z" fill="#fff"/>
      <path id="Path_1498" data-name="Path 1498" d="M1383.124,3221.426h7.881v10.752a22.844,22.844,0,0,1-3.713.894,26.267,26.267,0,0,1-3.846.264q-4.863,0-7.5-2.879t-2.637-8.122q0-5.172,2.974-8.093t8.189-2.923a15.954,15.954,0,0,1,6.357,1.289l-1.231,2.915a12.364,12.364,0,0,0-5.214-1.2,7.022,7.022,0,0,0-5.42,2.153,8.336,8.336,0,0,0-1.992,5.889,8.8,8.8,0,0,0,1.794,5.97,6.51,6.51,0,0,0,5.164,2.043,16.97,16.97,0,0,0,3.632-.425v-5.523h-4.438Z" fill="#fff"/>
    </g>
  </g>
</svg>
