<svg id="Component_4_1" data-name="Component 4 – 1" xmlns="http://www.w3.org/2000/svg" width="100" height="169.157" viewBox="0 0 100 169.157">
  <g id="Group_280" data-name="Group 280" transform="translate(-743.058 -2996.809)">
    <path id="Path_1340" data-name="Path 1340" d="M841.714,3064.758c-1.5-.4-3.868-1.018-6.818-1.777l-35.53-8.447c-5.561-1.158-10.6-2.081-14.345-2.53h-.161l-23.246-.351-7.04-.016-10.531-.024a.782.782,0,0,0-.784.78l-.014,5.084a.783.783,0,0,0,.78.785l17.589.042,23.227.365c3.363.431,7.939,1.279,13.095,2.359l35.53,8.448c2.437.629,4.652,1.207,6.542,1.707a1.8,1.8,0,0,0,2.2-1.277l.786-2.94a1.8,1.8,0,0,0-1.282-2.208Z" fill="#acacac"/>
    <path id="Path_1341" data-name="Path 1341" d="M842.929,3066.779a1.8,1.8,0,0,1-2.2,1.277c-1.89-.5-4.1-1.078-6.542-1.706l-35.53-8.449c-5.156-1.08-9.732-1.928-13.1-2.359l-23.227-.365-14.858-.036a3.512,3.512,0,0,1-3.5-3.521.779.779,0,0,0-.712.773l-.014,5.084a.783.783,0,0,0,.78.785l17.589.042,23.227.365c3.363.431,7.939,1.279,13.095,2.359l35.53,8.448c2.438.629,4.652,1.207,6.542,1.707a1.8,1.8,0,0,0,2.2-1.277l.786-2.94a1.793,1.793,0,0,0,.052-.632Z" fill="#9e9797"/>
    <g id="Group_279" data-name="Group 279">
      <path id="Path_1342" data-name="Path 1342" d="M800.49,3086.893l-3.771-.831a4.194,4.194,0,0,1-3.2-5L803.6,3035.33a4.2,4.2,0,0,1,5-3.194l3.771.83a4.2,4.2,0,0,1,3.2,5L805.49,3083.7a4.2,4.2,0,0,1-5,3.2Z" fill="#838383"/>
      <path id="Path_1343" data-name="Path 1343" d="M812.671,3087.985l-3.652-.8a4.2,4.2,0,0,1-3.2-5l9.19-41.723a4.2,4.2,0,0,1,5-3.2l3.652.805a4.2,4.2,0,0,1,3.2,5l-9.19,41.722A4.2,4.2,0,0,1,812.671,3087.985Z" fill="#838383"/>
      <path id="Path_1344" data-name="Path 1344" d="M824.962,3088.574l-3.652-.8a4.2,4.2,0,0,1-3.2-5l8.173-37.1a4.2,4.2,0,0,1,5-3.194l3.652.8a4.2,4.2,0,0,1,3.2,5l-8.173,37.1A4.2,4.2,0,0,1,824.962,3088.574Z" fill="#838383"/>
    </g>
    <path id="Path_1345" data-name="Path 1345" d="M800.955,3082.677l10.073-45.732a4.194,4.194,0,0,1,3.052-3.158,4.159,4.159,0,0,0-1.712-.82l-3.771-.831a4.2,4.2,0,0,0-5,3.2l-10.073,45.732a4.194,4.194,0,0,0,3.194,5l3.772.831a4.161,4.161,0,0,0,1.947-.037,4.191,4.191,0,0,1-1.482-4.179Z" fill="#766e6e"/>
    <path id="Path_1346" data-name="Path 1346" d="M813.255,3083.795l9.19-41.723a4.192,4.192,0,0,1,2.986-3.141,4.167,4.167,0,0,0-1.765-.863l-3.652-.805a4.2,4.2,0,0,0-5,3.2l-9.19,41.723a4.2,4.2,0,0,0,3.2,5l3.651.8a4.17,4.17,0,0,0,2.014-.053,4.2,4.2,0,0,1-1.429-4.137Z" fill="#766e6e"/>
    <path id="Path_1347" data-name="Path 1347" d="M825.547,3084.384l8.172-37.1a4.193,4.193,0,0,1,2.986-3.142,4.176,4.176,0,0,0-1.765-.863l-3.652-.8a4.2,4.2,0,0,0-5,3.194l-8.172,37.1a4.194,4.194,0,0,0,3.194,5l3.652.8a4.179,4.179,0,0,0,2.014-.053,4.191,4.191,0,0,1-1.429-4.137Z" fill="#766e6e"/>
    <path id="Path_1348" data-name="Path 1348" d="M761.614,3053.3a1.652,1.652,0,0,0-1.647-1.652l-5.232-.012a.158.158,0,0,1-.159-.16l.043-4.6a13.366,13.366,0,0,1,5.291-10.614q.161-.118.324-.234a.351.351,0,0,0,.117-.445l-10.368-21.051h-.792a6.133,6.133,0,0,1-6.133-6.134v-10.266a1.324,1.324,0,0,1,1.324-1.325h13.456a2.058,2.058,0,0,1,1.285.452l9.95,7.99a9.481,9.481,0,0,1,3.218,4.961l5.507,20.866a3.786,3.786,0,0,0,1.039,1.767l1.071,1.029a16.108,16.108,0,0,1,4.952,11.62v12.843a3.028,3.028,0,0,1-.019.332,6.08,6.08,0,0,0-8.7,2.569,2.906,2.906,0,0,0-5.811,0,2.9,2.9,0,1,0-5.81,0,2.911,2.911,0,0,1-2.908-2.905V3053.3Z" fill="#fed2a4"/>
    <path id="Path_1349" data-name="Path 1349" d="M759.165,3051.639l-.679,0a.159.159,0,0,1-.159-.16l.043-4.6a13.369,13.369,0,0,1,5.291-10.614q.16-.118.324-.234a.351.351,0,0,0,.117-.445l-10.368-21.051h-.792a6.133,6.133,0,0,1-6.133-6.133v-10.268a1.324,1.324,0,0,1,1.324-1.324h-3.751a1.324,1.324,0,0,0-1.324,1.324V3008.4a6.133,6.133,0,0,0,6.133,6.134h.792l10.368,21.051a.351.351,0,0,1-.117.445q-.164.115-.324.234a13.366,13.366,0,0,0-5.291,10.614l-.043,4.6a.159.159,0,0,0,.159.161l4.429.01v-.008Z" fill="#ffbd86"/>
    <path id="Path_1350" data-name="Path 1350" d="M766.218,3060.385a2.889,2.889,0,0,1-.853-2.053V3053.3a1.652,1.652,0,0,0-1.647-1.652l-3.638-.008v.014a1.651,1.651,0,0,1,1.534,1.646v5.031a2.9,2.9,0,0,0,4.783,2.217C766.335,3060.5,766.275,3060.443,766.218,3060.385Z" fill="#ffbd86"/>
    <path id="Path_1351" data-name="Path 1351" d="M817.136,3014.853l-5.885-7.368a.444.444,0,0,0-.695,0l-5.886,7.368a.445.445,0,0,0,.348.722h2.113a.445.445,0,0,1,.445.445v7.1a.445.445,0,0,0,.445.445h5.765a.444.444,0,0,0,.444-.445v-7.1a.445.445,0,0,1,.445-.445h2.114A.444.444,0,0,0,817.136,3014.853Z" fill="#00f2a6"/>
    <path id="Path_1352" data-name="Path 1352" d="M767.848,3081.769l-5.885-7.368a.445.445,0,0,0-.7,0l-5.886,7.368a.445.445,0,0,0,.348.722h2.113a.445.445,0,0,1,.445.445v7.1a.445.445,0,0,0,.445.445H764.5a.444.444,0,0,0,.444-.445v-7.1a.445.445,0,0,1,.445-.445H767.5A.444.444,0,0,0,767.848,3081.769Z" fill="#01d0fb"/>
    <path id="Path_1353" data-name="Path 1353" d="M772.031,3060.385a2.888,2.888,0,0,1-.852-2.053v-.028s0-1.561,0-2.955a2.14,2.14,0,0,0-2.14-2.138h-1.614c0,.03,0,5.093,0,5.093v.028a2.9,2.9,0,0,0,4.783,2.217c-.062-.053-.122-.106-.179-.164Z" fill="#ffbd86"/>
    <path id="Path_1354" data-name="Path 1354" d="M777.839,3060.385a2.888,2.888,0,0,1-.852-2.053v-.028s0-1.561,0-2.955a2.14,2.14,0,0,0-2.14-2.138h-1.614c0,.03,0,5.093,0,5.093v.028a2.9,2.9,0,0,0,4.783,2.217C777.957,3060.5,777.9,3060.443,777.839,3060.385Z" fill="#ffbd86"/>
    <path id="Path_1355" data-name="Path 1355" d="M783.651,3060.385a2.888,2.888,0,0,1-.852-2.053v-.028s0-1.561,0-2.955a2.14,2.14,0,0,0-2.14-2.138h-1.614c0,.03,0,5.093,0,5.093v.028a2.9,2.9,0,0,0,4.783,2.217C783.769,3060.5,783.708,3060.443,783.651,3060.385Z" fill="#ffbd86"/>
  </g>
  <text id="GYM" transform="translate(16.389 160.157)" fill="#fff" font-size="30" font-family="OpenSans, Open Sans"><tspan x="0" y="0">GYM</tspan></text>
</svg>
