<svg id="likeCreating" xmlns="http://www.w3.org/2000/svg" width="100" height="100" viewBox="0 0 100 100">
  <g id="Group_460" data-name="Group 460" transform="translate(-754 -2811)">
    <g id="Group_451" data-name="Group 451" transform="translate(628 -3530)">
      <rect id="Rectangle_75" data-name="Rectangle 75" width="100" height="100" rx="25" transform="translate(126 6341)" fill="#fff"/>
    </g>
    <g id="Group_452" data-name="Group 452" transform="translate(-533.981 -39.007)">
      <path id="Path_1499" data-name="Path 1499" d="M1332.934,2929.692l23.143-39.849a1.253,1.253,0,0,0-1.253-1.872l-15.394,2.092,3.678-19.31a.627.627,0,0,0-1.115-.5l-22.755,30.036a1.254,1.254,0,0,0,1.13,2l16.972-1.786-5.564,28.747A.627.627,0,0,0,1332.934,2929.692Z" transform="translate(0 0)" fill="#ffdc64"/>
      <path id="Path_1500" data-name="Path 1500" d="M1326.354,2898.169a.519.519,0,0,1-.482-.792l17.013-27.221a.618.618,0,0,0-.893.105l-22.755,30.036a1.254,1.254,0,0,0,1.13,2l16.972-1.787-5.564,28.747a.61.61,0,0,0,.492.726l9.534-30.169a2.089,2.089,0,0,0-2.159-2.712Z" transform="translate(0 -0.003)" fill="#ffc850"/>
    </g>
  </g>
</svg>
