<svg id="likeFood" xmlns="http://www.w3.org/2000/svg" width="295.21" height="101.489" viewBox="0 0 295.21 101.489">
  <g id="Group_432" data-name="Group 432" transform="translate(-216.209 -2830.713)">
    <g id="Group_431" data-name="Group 431">
      <path id="Path_1509" data-name="Path 1509" d="M228.323,2931.909H216.209v-21.416h12.114v2.959H219.71v5.83h8.071v2.929H219.71v6.724h8.613Z" fill="#fff"/>
      <path id="Path_1510" data-name="Path 1510" d="M246.238,2931.909l-2.139-5.948h-8.188l-2.1,5.948h-3.691l8.013-21.5h3.808l8.013,21.5Zm-3.061-8.965-2.007-5.83q-.221-.587-.608-1.846t-.535-1.846a32.643,32.643,0,0,1-1.157,3.941l-1.934,5.581Z" fill="#fff"/>
      <path id="Path_1511" data-name="Path 1511" d="M260.183,2931.909h-3.5V2913.5h-6.3v-3h16.1v3h-6.3Z" fill="#fff"/>
      <path id="Path_1512" data-name="Path 1512" d="M269.764,2931.909v-21.416h3.5v21.416Z" fill="#fff"/>
      <path id="Path_1513" data-name="Path 1513" d="M296.761,2931.909h-4.292l-10.533-17.066h-.117l.073.952q.205,2.726.2,4.981v11.133h-3.178v-21.416h4.248l10.5,16.977h.088q-.03-.336-.118-2.454t-.087-3.3v-11.22h3.208Z" fill="#fff"/>
      <path id="Path_1514" data-name="Path 1514" d="M311.175,2920.293h7.88v10.751a22.807,22.807,0,0,1-3.712.894,26.267,26.267,0,0,1-3.846.264q-4.863,0-7.5-2.879t-2.637-8.122q0-5.172,2.974-8.093t8.188-2.923a15.952,15.952,0,0,1,6.358,1.289l-1.231,2.915a12.365,12.365,0,0,0-5.215-1.2,7.025,7.025,0,0,0-5.42,2.153,8.337,8.337,0,0,0-1.992,5.889,8.8,8.8,0,0,0,1.795,5.97,6.509,6.509,0,0,0,5.163,2.043,16.986,16.986,0,0,0,3.633-.425v-5.523h-4.438Z" fill="#fff"/>
      <path id="Path_1515" data-name="Path 1515" d="M340.75,2920.293h7.881v10.751a22.818,22.818,0,0,1-3.713.894,26.268,26.268,0,0,1-3.846.264q-4.863,0-7.5-2.879t-2.637-8.122q0-5.172,2.974-8.093t8.188-2.923a15.951,15.951,0,0,1,6.358,1.289l-1.231,2.915a12.364,12.364,0,0,0-5.214-1.2,7.022,7.022,0,0,0-5.42,2.153,8.337,8.337,0,0,0-1.993,5.889,8.8,8.8,0,0,0,1.8,5.97,6.509,6.509,0,0,0,5.163,2.043,16.986,16.986,0,0,0,3.633-.425v-5.523H340.75Z" fill="#fff"/>
      <path id="Path_1516" data-name="Path 1516" d="M372.786,2921.171q0,5.231-2.614,8.13a9.457,9.457,0,0,1-7.406,2.9q-4.848,0-7.448-2.879t-2.6-8.181q0-5.3,2.615-8.144t7.463-2.842a9.441,9.441,0,0,1,7.383,2.886Q372.786,2915.927,372.786,2921.171Zm-16.348,0a9.608,9.608,0,0,0,1.6,6,6.5,6.5,0,0,0,9.441.022q1.59-2.022,1.589-6.021a9.636,9.636,0,0,0-1.574-5.976,5.566,5.566,0,0,0-4.7-2.036,5.68,5.68,0,0,0-4.753,2.036A9.5,9.5,0,0,0,356.438,2921.171Z" fill="#fff"/>
      <path id="Path_1517" data-name="Path 1517" d="M396.4,2921.171q0,5.231-2.614,8.13a9.456,9.456,0,0,1-7.4,2.9q-4.85,0-7.449-2.879t-2.6-8.181q0-5.3,2.615-8.144t7.463-2.842a9.438,9.438,0,0,1,7.383,2.886Q396.4,2915.927,396.4,2921.171Zm-16.347,0a9.608,9.608,0,0,0,1.6,6,6.5,6.5,0,0,0,9.442.022q1.588-2.022,1.589-6.021a9.636,9.636,0,0,0-1.575-5.976,5.565,5.565,0,0,0-4.7-2.036,5.68,5.68,0,0,0-4.753,2.036A9.509,9.509,0,0,0,380.052,2921.171Z" fill="#fff"/>
      <path id="Path_1518" data-name="Path 1518" d="M418.416,2921q0,5.3-2.944,8.108t-8.482,2.8H401v-21.416h6.621q5.112,0,7.954,2.754T418.416,2921Zm-3.692.117q0-7.69-7.192-7.691H404.5v15.542h2.49Q414.724,2928.964,414.724,2921.113Z" fill="#fff"/>
      <path id="Path_1519" data-name="Path 1519" d="M434.28,2931.909h-3.472v-21.416h12.085v2.959H434.28v6.694h8.071v2.974H434.28Z" fill="#fff"/>
      <path id="Path_1520" data-name="Path 1520" d="M465.789,2921.171q0,5.231-2.614,8.13a9.458,9.458,0,0,1-7.406,2.9q-4.848,0-7.448-2.879t-2.6-8.181q0-5.3,2.615-8.144t7.463-2.842a9.438,9.438,0,0,1,7.382,2.886Q465.79,2915.927,465.789,2921.171Zm-16.348,0a9.6,9.6,0,0,0,1.6,6,6.5,6.5,0,0,0,9.441.022q1.59-2.022,1.589-6.021a9.636,9.636,0,0,0-1.574-5.976,5.566,5.566,0,0,0-4.695-2.036,5.68,5.68,0,0,0-4.753,2.036A9.5,9.5,0,0,0,449.441,2921.171Z" fill="#fff"/>
      <path id="Path_1521" data-name="Path 1521" d="M489.4,2921.171q0,5.231-2.614,8.13a9.456,9.456,0,0,1-7.4,2.9q-4.85,0-7.449-2.879t-2.6-8.181q0-5.3,2.615-8.144t7.463-2.842a9.44,9.44,0,0,1,7.383,2.886Q489.4,2915.927,489.4,2921.171Zm-16.347,0a9.608,9.608,0,0,0,1.6,6,6.5,6.5,0,0,0,9.442.022q1.589-2.022,1.588-6.021a9.636,9.636,0,0,0-1.574-5.976,5.566,5.566,0,0,0-4.7-2.036,5.68,5.68,0,0,0-4.753,2.036A9.509,9.509,0,0,0,473.055,2921.171Z" fill="#fff"/>
      <path id="Path_1522" data-name="Path 1522" d="M511.419,2921q0,5.3-2.945,8.108t-8.481,2.8H494v-21.416h6.621q5.112,0,7.954,2.754T511.419,2921Zm-3.692.117q0-7.69-7.192-7.691H497.5v15.542h2.49Q507.727,2928.964,507.727,2921.113Z" fill="#fff"/>
    </g>
  </g>
  <g id="Group_435" data-name="Group 435" transform="translate(-215.286 -2830.713)">
    <g id="Group_434" data-name="Group 434">
      <path id="Shape" d="M404.669,2860.012v22.405a13.788,13.788,0,0,1-13.788,13.788H335.73a13.788,13.788,0,0,1-13.788-13.788v-24.128Z" fill="#ecf0f1"/>
      <path id="Path_1523" data-name="Path 1523" d="M404.669,2860.012v18.958c0-12.064-8.617-10.34-24.129-10.34-14.968,0-29.5-5.143-44.81-3.447-11.306,1.258-13.461,8.927-13.788,12.995v-19.889Z" fill="#d1d4d1"/>
      <path id="Path_1524" data-name="Path 1524" d="M413.287,2866.906a8.619,8.619,0,0,1-8.618,8.618c0-12.065-8.617-10.341-24.129-10.341-14.529,0-29.494-5.133-44.81-3.447-9.235,1.034-13.84,6.721-13.84,14.3a11.85,11.85,0,0,0,.052,1.206,8.618,8.618,0,0,1-8.618-8.617,32.92,32.92,0,0,1,29.369-34.3c2.24-.246.861-.172,37.847-.172A32.768,32.768,0,0,1,413.287,2866.906Z" fill="#f29c1f"/>
      <g id="Group_433" data-name="Group 433">
        <path id="Path_1525" data-name="Path 1525" d="M407.306,2848.068a33.119,33.119,0,0,1-3.981,11.91,10.1,10.1,0,0,1-.793,1.154,1.725,1.725,0,0,1-2.637-2.223c.086-.1,3.378-4.291,4.412-14.494a28.9,28.9,0,0,1,3,3.653Z" fill="#ecf0f1"/>
        <path id="Path_1526" data-name="Path 1526" d="M394.035,2837.09c-1.086,15.752-5,21.871-5.153,22.147a1.764,1.764,0,0,1-2.4.5c-.034-.034-.086-.051-.12-.1a1.709,1.709,0,0,1-.379-2.275c.051-.1,3.757-6.136,4.687-21.578a25.56,25.56,0,0,1,3.361,1.31Z" fill="#ecf0f1"/>
        <path id="Path_1527" data-name="Path 1527" d="M341.762,2855.531a1.729,1.729,0,0,1-3.171-1.379c.034-.051,2.447-6.032.689-19.268a28.084,28.084,0,0,1,3.413-.552c1.913,14.374-.8,20.908-.931,21.2Z" fill="#ecf0f1"/>
        <path id="Path_1528" data-name="Path 1528" d="M330.938,2856.462a1.722,1.722,0,0,1-2.1,1.241,1.756,1.756,0,0,1-1.241-2.1,21.2,21.2,0,0,0-2.568-13.771,29.965,29.965,0,0,1,2.775-2.085C332.834,2848.827,331.025,2856.152,330.938,2856.462Z" fill="#ecf0f1"/>
        <path id="Path_1529" data-name="Path 1529" d="M322.614,2859.719a1.737,1.737,0,0,1-1.723,1.6h-.121a1.723,1.723,0,0,1-1.6-1.844,14.621,14.621,0,0,0-2.189-7.566,26.31,26.31,0,0,1,1.948-3.309.21.21,0,0,1,.086.086,19.816,19.816,0,0,1,3.585,9.617,13.062,13.062,0,0,1,.017,1.413Z" fill="#ecf0f1"/>
      </g>
      <path id="Path_1530" data-name="Path 1530" d="M375.37,2864.993v31.212H351.241v-34.28c6,.628,18.881,2.754,24.129,3.068Z" fill="#d1d4d1"/>
      <path id="Path_1531" data-name="Path 1531" d="M375.37,2834.16v30.833c-5.6-.334-19.2-2.552-24.129-3.068V2834.16Z" fill="#e57e25"/>
      <rect id="Rectangle-path" width="17.235" height="68.939" rx="3.447" transform="translate(354.688 2830.713)" fill="#41767f"/>
      <path id="Path_1532" data-name="Path 1532" d="M365.029,2880.694v18.958h-3.447v-18.958a1.723,1.723,0,1,1,3.447,0Z" fill="#3f5c6c"/>
      <path id="Path_1533" data-name="Path 1533" d="M365.029,2830.713V2873.8a1.723,1.723,0,1,1-3.447,0v-43.087Z" fill="#3f5c6c"/>
    </g>
  </g>
</svg>
