<svg id="skillIlustrator" xmlns="http://www.w3.org/2000/svg" width="273.264" height="290.401" viewBox="0 0 273.264 290.401">
  <g id="Group_192" data-name="Group 192" transform="translate(677.307 -5419.708)">
    <path id="Path_760" data-name="Path 760" d="M-677.307,5709.694v-30.31h4.955v30.31Z" fill="#fff"/>
    <path id="Path_761" data-name="Path 761" d="M-664.35,5709.694v-30.31h4.955v26.06h12.833v4.25Z" fill="#fff"/>
    <path id="Path_762" data-name="Path 762" d="M-641.337,5709.694v-30.31h4.955v26.06h12.833v4.25Z" fill="#fff"/>
    <path id="Path_763" data-name="Path 763" d="M-594.567,5679.384V5699a11.629,11.629,0,0,1-1.441,5.877,9.6,9.6,0,0,1-4.167,3.877,14.485,14.485,0,0,1-6.52,1.358q-5.638,0-8.769-2.985a10.808,10.808,0,0,1-3.131-8.21v-19.53h4.976v19.177q0,3.753,1.742,5.535t5.349,1.783q7.005,0,7.006-7.36v-19.135Z" fill="#fff"/>
    <path id="Path_764" data-name="Path 764" d="M-569.337,5701.463a7.627,7.627,0,0,1-2.923,6.344q-2.922,2.3-8.064,2.3a19.228,19.228,0,0,1-8.417-1.6v-4.685a22.815,22.815,0,0,0,4.405,1.534,18.687,18.687,0,0,0,4.344.559,6.906,6.906,0,0,0,4.342-1.119,3.649,3.649,0,0,0,1.4-3.006,3.77,3.77,0,0,0-1.285-2.881,19.345,19.345,0,0,0-5.308-2.8,14.023,14.023,0,0,1-5.846-3.836,8.113,8.113,0,0,1-1.7-5.183,7.26,7.26,0,0,1,2.7-5.97,11.172,11.172,0,0,1,7.236-2.177,21.265,21.265,0,0,1,8.665,1.907l-1.575,4.043a18.946,18.946,0,0,0-7.215-1.7,5.534,5.534,0,0,0-3.649,1.047,3.44,3.44,0,0,0-1.244,2.767,3.9,3.9,0,0,0,.5,2.022,5.07,5.07,0,0,0,1.638,1.586,27.613,27.613,0,0,0,4.1,1.969,22.411,22.411,0,0,1,4.893,2.592,7.612,7.612,0,0,1,2.28,2.716A8.15,8.15,0,0,1-569.337,5701.463Z" fill="#fff"/>
    <path id="Path_765" data-name="Path 765" d="M-553,5709.694h-4.955v-26.06h-8.914v-4.25h22.784v4.25H-553Z" fill="#fff"/>
    <path id="Path_766" data-name="Path 766" d="M-534.486,5697.586v12.108h-4.956v-30.31h8.563q5.867,0,8.686,2.2t2.82,6.634q0,5.659-5.888,8.065l8.563,13.413h-5.64l-7.256-12.108Zm0-4.1h3.441q3.462,0,5.017-1.285a4.665,4.665,0,0,0,1.555-3.816,4.1,4.1,0,0,0-1.68-3.689,9.2,9.2,0,0,0-5.058-1.12h-3.275Z" fill="#fff"/>
    <path id="Path_767" data-name="Path 767" d="M-493.5,5709.694l-3.027-8.417h-11.588l-2.965,8.417H-516.3l11.34-30.434h5.391l11.339,30.434Zm-4.333-12.688-2.84-8.251q-.311-.828-.86-2.612t-.757-2.612a46.37,46.37,0,0,1-1.638,5.576l-2.736,7.9Z" fill="#fff"/>
    <path id="Path_768" data-name="Path 768" d="M-473.764,5709.694h-4.955v-26.06h-8.914v-4.25h22.784v4.25h-8.915Z" fill="#fff"/>
    <path id="Path_769" data-name="Path 769" d="M-433.3,5694.5q0,7.4-3.7,11.5t-10.48,4.106q-6.862,0-10.542-4.074t-3.679-11.578q0-7.506,3.7-11.528t10.562-4.021q6.759,0,10.449,4.084T-433.3,5694.5Zm-23.137,0q0,5.6,2.26,8.489a7.974,7.974,0,0,0,6.7,2.892,7.964,7.964,0,0,0,6.665-2.861q2.25-2.861,2.249-8.52,0-5.577-2.228-8.458t-6.645-2.882q-4.457,0-6.726,2.882T-456.432,5694.5Z" fill="#fff"/>
    <path id="Path_770" data-name="Path 770" d="M-421.831,5697.586v12.108h-4.955v-30.31h8.562q5.867,0,8.687,2.2t2.819,6.634q0,5.659-5.888,8.065l8.563,13.413h-5.64l-7.256-12.108Zm0-4.1h3.441q3.462,0,5.018-1.285a4.668,4.668,0,0,0,1.554-3.816,4.1,4.1,0,0,0-1.679-3.689,9.2,9.2,0,0,0-5.059-1.12h-3.275Z" fill="#fff"/>
  </g>
  <g id="Group_193" data-name="Group 193" transform="translate(677.307 -5419.708)">
    <path id="Path_771" data-name="Path 771" d="M-435.977,5526.208c0,58.42-48.07,106.5-106.5,106.5s-106.5-48.08-106.5-106.5a106.613,106.613,0,0,1,53.25-92.23l16.38,28.37a73.684,73.684,0,0,0-36.86,63.86,73.73,73.73,0,0,0,73.73,73.73,73.73,73.73,0,0,0,73.73-73.73,73.73,73.73,0,0,0-73.73-73.73v-32.77C-484.047,5419.708-435.977,5467.788-435.977,5526.208Z" fill="#ff5f34"/>
    <path id="Path_772" data-name="Path 772" d="M-542.477,5419.708v32.77a73.357,73.357,0,0,0-36.87,9.87l-16.38-28.37a106.317,106.317,0,0,1,25.69-10.64A106.418,106.418,0,0,1-542.477,5419.708Z" fill="#f9f9f9"/>
  </g>
</svg>
