<svg id="skillIllustrator" xmlns="http://www.w3.org/2000/svg" width="150" height="150" viewBox="0 0 150 150">
  <g id="Group_193" data-name="Group 193" transform="translate(648.977 -5419.708)">
    <path id="Path_771" data-name="Path 771" d="M-498.977,5494.708c0,41.141-33.852,75-75,75s-75-33.859-75-75a75.08,75.08,0,0,1,37.5-64.951l11.535,19.979a51.89,51.89,0,0,0-25.958,44.972,51.923,51.923,0,0,0,51.923,51.923,51.923,51.923,0,0,0,51.922-51.923,51.923,51.923,0,0,0-51.922-51.923v-23.077C-532.829,5419.708-498.977,5453.567-498.977,5494.708Z" fill="#ff5f34"/>
    <path id="Path_772" data-name="Path 772" d="M-558.227,5419.708v23.077a51.658,51.658,0,0,0-25.965,6.951l-11.535-19.979a74.87,74.87,0,0,1,18.092-7.493A74.929,74.929,0,0,1-558.227,5419.708Z" transform="translate(-15.75)" fill="#f9f9f9"/>
  </g>
</svg>
