<svg id="skillBlender" xmlns="http://www.w3.org/2000/svg" width="150" height="150" viewBox="0 0 150 150">
  <g id="Group_196" data-name="Group 196" transform="translate(1647.977 -5419.708)">
    <path id="Path_782" data-name="Path 782" d="M-1477.249,5494.708c0,41.141-33.852,75-75,75a74.965,74.965,0,0,1-25.648-4.521l7.887-21.669a51.888,51.888,0,0,0,17.761,3.113,51.922,51.922,0,0,0,51.923-51.922,51.923,51.923,0,0,0-51.923-51.923v-23.077C-1511.1,5419.708-1477.249,5453.567-1477.249,5494.708Z" transform="translate(-20.728)" fill="#fc4"/>
    <path id="Path_783" data-name="Path 783" d="M-1624.9,5494.708a51.955,51.955,0,0,0,34.162,48.81l-7.887,21.669a75.144,75.144,0,0,1-49.352-70.479c0-41.141,33.859-75,75-75v23.077A51.923,51.923,0,0,0-1624.9,5494.708Z" transform="translate(0)" fill="#f9f9f9"/>
  </g>
</svg>
