<svg id="skillXD" xmlns="http://www.w3.org/2000/svg" width="150" height="150" viewBox="0 0 150 150">
  <g id="Group_199" data-name="Group 199" transform="translate(315.977 -5419.708)">
    <path id="Path_786" data-name="Path 786" d="M-212.222,5419.708v23.077q-2.292,0-4.528.2L-218.757,5420c1.085-.1,2.176-.169,3.261-.219S-213.313,5419.708-212.222,5419.708Z" transform="translate(-28.755)" fill="#f9f9f9"/>
    <path id="Path_787" data-name="Path 787" d="M-165.977,5494.708c0,41.141-33.859,75-75,75s-75-33.859-75-75A75.288,75.288,0,0,1-247.512,5420l2.007,22.985a51.928,51.928,0,0,0-47.394,51.726,51.923,51.923,0,0,0,51.923,51.923,51.923,51.923,0,0,0,51.923-51.923,51.923,51.923,0,0,0-51.923-51.923v-23.077C-199.836,5419.708-165.977,5453.567-165.977,5494.708Z" fill="#fc4"/>
  </g>
</svg>
