<svg id="skillDesign" xmlns="http://www.w3.org/2000/svg" width="213" height="290.4" viewBox="0 0 213 290.4">
  <g id="Group_201" data-name="Group 201" transform="translate(1314.977 -5419.708)">
    <path id="Path_788" data-name="Path 788" d="M-1305.2,5709.693v-30.31h4.955v30.31Z" fill="#fff"/>
    <path id="Path_789" data-name="Path 789" d="M-1266.993,5709.693h-6.075l-14.906-24.152h-.165l.1,1.347q.289,3.856.29,7.049v15.756h-4.5v-30.31h6.012l14.865,24.029h.124q-.042-.479-.165-3.473t-.125-4.676v-15.88h4.54Z" fill="#fff"/>
    <path id="Path_790" data-name="Path 790" d="M-1234.34,5694.248q0,7.506-4.167,11.475t-12,3.97h-8.479v-30.31h9.371q7.234,0,11.257,3.9T-1234.34,5694.248Zm-5.225.166q0-10.884-10.179-10.884h-4.291v22h3.524Q-1239.564,5705.526-1239.565,5694.414Z" fill="#fff"/>
    <path id="Path_791" data-name="Path 791" d="M-1210.686,5709.693h-17.145v-30.31h17.145v4.188h-12.19v8.251h11.423v4.146h-11.423v9.516h12.19Z" fill="#fff"/>
    <path id="Path_792" data-name="Path 792" d="M-1186.658,5701.462a7.627,7.627,0,0,1-2.923,6.344q-2.922,2.3-8.065,2.3a19.234,19.234,0,0,1-8.417-1.6v-4.685a22.845,22.845,0,0,0,4.406,1.534,18.679,18.679,0,0,0,4.343.559,6.91,6.91,0,0,0,4.343-1.119,3.649,3.649,0,0,0,1.4-3.006,3.767,3.767,0,0,0-1.286-2.881,19.344,19.344,0,0,0-5.307-2.8,14.018,14.018,0,0,1-5.846-3.836,8.108,8.108,0,0,1-1.7-5.183,7.257,7.257,0,0,1,2.695-5.97,11.173,11.173,0,0,1,7.236-2.177,21.265,21.265,0,0,1,8.665,1.907l-1.576,4.043a18.937,18.937,0,0,0-7.214-1.7,5.533,5.533,0,0,0-3.649,1.047,3.44,3.44,0,0,0-1.244,2.767,3.9,3.9,0,0,0,.5,2.022,5.073,5.073,0,0,0,1.638,1.586,27.563,27.563,0,0,0,4.1,1.969,22.413,22.413,0,0,1,4.893,2.592,7.61,7.61,0,0,1,2.28,2.716A8.163,8.163,0,0,1-1186.658,5701.462Z" fill="#fff"/>
    <path id="Path_793" data-name="Path 793" d="M-1180.791,5709.693v-30.31h4.955v30.31Z" fill="#fff"/>
    <path id="Path_794" data-name="Path 794" d="M-1155.436,5693.253h11.155v15.216a32.213,32.213,0,0,1-5.256,1.265,37.175,37.175,0,0,1-5.443.374q-6.883,0-10.614-4.074t-3.731-11.5q0-7.317,4.208-11.454t11.589-4.136a22.581,22.581,0,0,1,9,1.824l-1.742,4.126a17.522,17.522,0,0,0-7.381-1.7,9.931,9.931,0,0,0-7.67,3.048q-2.82,3.046-2.82,8.334,0,5.556,2.54,8.448t7.308,2.891a24.06,24.06,0,0,0,5.142-.6V5697.5h-6.283Z" fill="#fff"/>
    <path id="Path_795" data-name="Path 795" d="M-1111.755,5709.693h-6.074l-14.907-24.152h-.165l.1,1.347q.289,3.856.29,7.049v15.756h-4.5v-30.31h6.013l14.864,24.029h.124q-.04-.479-.165-3.473t-.125-4.676v-15.88h4.54Z" fill="#fff"/>
  </g>
  <g id="Group_202" data-name="Group 202" transform="translate(1314.977 -5419.708)">
    <path id="Path_796" data-name="Path 796" d="M-1101.977,5526.208c0,58.42-48.07,106.5-106.5,106.5a106.84,106.84,0,0,1-104.88-88.01l32.26-5.69a73.751,73.751,0,0,0,72.62,60.93,73.73,73.73,0,0,0,73.73-73.73,73.73,73.73,0,0,0-73.73-73.73v-32.77C-1150.047,5419.708-1101.977,5467.788-1101.977,5526.208Z" fill="#ff5f34"/>
    <path id="Path_797" data-name="Path 797" d="M-1208.477,5419.708v32.77a73.73,73.73,0,0,0-73.73,73.73,73.947,73.947,0,0,0,1.11,12.8l-32.26,5.69a106.086,106.086,0,0,1-1.62-18.49C-1314.977,5467.788-1266.9,5419.708-1208.477,5419.708Z" fill="#f9f9f9"/>
  </g>
</svg>
