<svg xmlns="http://www.w3.org/2000/svg" width="150" height="150" viewBox="0 0 150 150">
  <g id="skillPSD" transform="translate(0)">
    <g id="Group_190" data-name="Group 190" transform="translate(981.977 -5419.708)">
      <path id="Path_758" data-name="Path 758" d="M-897.752,5419.708v23.077a51.784,51.784,0,0,0-36.718,15.2l-16.317-16.317a74.966,74.966,0,0,1,24.331-16.254A74.9,74.9,0,0,1-897.752,5419.708Z" transform="translate(-9.225)" fill="#f9f9f9"/>
      <path id="Path_759" data-name="Path 759" d="M-831.977,5494.708c0,41.141-33.859,75-75,75s-75-33.859-75-75a75.027,75.027,0,0,1,21.965-53.035l16.317,16.317a51.759,51.759,0,0,0-15.211,36.718,51.929,51.929,0,0,0,51.93,51.923,51.923,51.923,0,0,0,51.922-51.923,51.923,51.923,0,0,0-51.922-51.923v-23.077C-865.836,5419.708-831.977,5453.567-831.977,5494.708Z" fill="#e12649"/>
    </g>
  </g>
</svg>
