<svg id="skillIDesign" xmlns="http://www.w3.org/2000/svg" width="150" height="150" viewBox="0 0 150 150">
  <g id="Group_202" data-name="Group 202" transform="translate(1314.977 -5419.708)">
    <path id="Path_796" data-name="Path 796" d="M-1164.5,5494.708c0,41.141-33.852,75-75,75a75.239,75.239,0,0,1-73.859-61.979l22.718-4.008a51.937,51.937,0,0,0,51.141,42.909,51.923,51.923,0,0,0,51.923-51.923,51.923,51.923,0,0,0-51.923-51.923v-23.077C-1198.35,5419.708-1164.5,5453.567-1164.5,5494.708Z" transform="translate(-0.479)" fill="#ff5f34"/>
    <path id="Path_797" data-name="Path 797" d="M-1239.977,5419.708v23.077a51.923,51.923,0,0,0-51.922,51.923,52.069,52.069,0,0,0,.782,9.014l-22.718,4.008a74.716,74.716,0,0,1-1.141-13.021C-1314.977,5453.567-1281.118,5419.708-1239.977,5419.708Z" fill="#f9f9f9"/>
  </g>
</svg>
