<svg id="skillBlender" xmlns="http://www.w3.org/2000/svg" width="254.231" height="290.4" viewBox="0 0 254.231 290.4">
  <g id="Group_195" data-name="Group 195" transform="translate(1667.897 -5419.708)">
    <path id="Path_773" data-name="Path 773" d="M-1648.41,5686.349a7.015,7.015,0,0,1-1.679,4.8,8.449,8.449,0,0,1-4.727,2.582v.165a9.162,9.162,0,0,1,5.474,2.271,6.5,6.5,0,0,1,1.824,4.82,8.011,8.011,0,0,1-3.089,6.748q-3.09,2.375-8.79,2.374a19.775,19.775,0,0,1-8.5-1.639v-4.332a19.4,19.4,0,0,0,4.084,1.472,17.692,17.692,0,0,0,4.146.519,8.742,8.742,0,0,0,5.266-1.307,4.723,4.723,0,0,0,1.741-4.043,3.849,3.849,0,0,0-1.928-3.566q-1.928-1.138-6.053-1.14h-2.633v-3.959h2.674q7.257,0,7.257-5.018a3.7,3.7,0,0,0-1.265-3.006,5.7,5.7,0,0,0-3.732-1.057,11.313,11.313,0,0,0-3.317.487,15.689,15.689,0,0,0-3.773,1.9l-2.384-3.4a15.892,15.892,0,0,1,9.682-3.068,11.514,11.514,0,0,1,7.152,1.97A6.465,6.465,0,0,1-1648.41,5686.349Z" fill="#fff"/>
    <path id="Path_774" data-name="Path 774" d="M-1616.794,5694.248q0,7.506-4.167,11.475t-12,3.97h-8.479v-30.31h9.371q7.234,0,11.257,3.9T-1616.794,5694.248Zm-5.224.166q0-10.884-10.18-10.884h-4.291v22h3.524Q-1622.018,5705.526-1622.018,5694.414Z" fill="#fff"/>
    <path id="Path_775" data-name="Path 775" d="M-1599.256,5679.383h9q6.259,0,9.048,1.825a6.385,6.385,0,0,1,2.789,5.763,6.979,6.979,0,0,1-1.369,4.416,6.115,6.115,0,0,1-3.938,2.218v.207a7.819,7.819,0,0,1,4.7,2.374,7.182,7.182,0,0,1,1.5,4.8,7.778,7.778,0,0,1-2.851,6.4q-2.85,2.312-7.929,2.312h-10.947Zm4.956,12.522h4.768a8.158,8.158,0,0,0,4.54-.985,3.772,3.772,0,0,0,1.431-3.348,3.356,3.356,0,0,0-1.545-3.089,9.657,9.657,0,0,0-4.9-.953h-4.291Zm0,4.022v9.6h5.265a7.757,7.757,0,0,0,4.7-1.192,4.4,4.4,0,0,0,1.586-3.763,4,4,0,0,0-1.617-3.5,8.574,8.574,0,0,0-4.914-1.14Z" fill="#fff"/>
    <path id="Path_776" data-name="Path 776" d="M-1571.226,5709.693v-30.31h4.955v26.06h12.833v4.25Z" fill="#fff"/>
    <path id="Path_777" data-name="Path 777" d="M-1531.068,5709.693h-17.146v-30.31h17.146v4.188h-12.19v8.251h11.422v4.146h-11.422v9.516h12.19Z" fill="#fff"/>
    <path id="Path_778" data-name="Path 778" d="M-1499.267,5709.693h-6.074l-14.907-24.152h-.165l.1,1.347q.289,3.856.29,7.049v15.756h-4.5v-30.31h6.012l14.865,24.029h.124q-.042-.479-.165-3.473t-.125-4.676v-15.88h4.54Z" fill="#fff"/>
    <path id="Path_779" data-name="Path 779" d="M-1466.614,5694.248q0,7.506-4.167,11.475t-12,3.97h-8.479v-30.31h9.371q7.234,0,11.257,3.9T-1466.614,5694.248Zm-5.225.166q0-10.884-10.179-10.884h-4.291v22h3.524Q-1471.838,5705.526-1471.839,5694.414Z" fill="#fff"/>
    <path id="Path_780" data-name="Path 780" d="M-1442.96,5709.693H-1460.1v-30.31h17.145v4.188h-12.19v8.251h11.423v4.146h-11.423v9.516h12.19Z" fill="#fff"/>
    <path id="Path_781" data-name="Path 781" d="M-1431.454,5697.586v12.107h-4.955v-30.31h8.563q5.866,0,8.686,2.2t2.82,6.634q0,5.659-5.888,8.065l8.562,13.413h-5.639l-7.256-12.107Zm0-4.1h3.442q3.461,0,5.017-1.285a4.668,4.668,0,0,0,1.555-3.816,4.1,4.1,0,0,0-1.68-3.689,9.2,9.2,0,0,0-5.058-1.12h-3.276Z" fill="#fff"/>
  </g>
  <g id="Group_196" data-name="Group 196" transform="translate(1667.897 -5419.708)">
    <path id="Path_782" data-name="Path 782" d="M-1434.977,5526.208c0,58.42-48.07,106.5-106.5,106.5a106.442,106.442,0,0,1-36.42-6.42l11.2-30.77a73.685,73.685,0,0,0,25.22,4.42,73.73,73.73,0,0,0,73.73-73.73,73.73,73.73,0,0,0-73.73-73.73v-32.77C-1483.047,5419.708-1434.977,5467.788-1434.977,5526.208Z" fill="#fc4"/>
    <path id="Path_783" data-name="Path 783" d="M-1615.207,5526.208a73.779,73.779,0,0,0,48.51,69.31l-11.2,30.77a106.705,106.705,0,0,1-70.08-100.08c0-58.42,48.08-106.5,106.5-106.5v32.77A73.73,73.73,0,0,0-1615.207,5526.208Z" fill="#f9f9f9"/>
  </g>
</svg>
