<svg xmlns="http://www.w3.org/2000/svg" width="257.591" height="290.4" viewBox="0 0 257.591 290.4">
  <g id="skillPSD" transform="translate(0)">
    <g id="Group_189" data-name="Group 189" transform="translate(1003.299 -5419.708)">
      <path id="Path_749" data-name="Path 749" d="M-983.231,5688.546a8.842,8.842,0,0,1-3.109,7.278q-3.109,2.528-8.853,2.529h-3.151v11.34h-4.955v-30.31h8.729q5.679,0,8.509,2.323T-983.231,5688.546Zm-15.113,5.64h2.633q3.814,0,5.6-1.327a4.832,4.832,0,0,0,1.783-4.147,4.7,4.7,0,0,0-1.6-3.9,7.891,7.891,0,0,0-4.976-1.285h-3.441Z" fill="#fff"/>
      <path id="Path_750" data-name="Path 750" d="M-953.274,5709.693h-4.975v-13.662h-13.973v13.662h-4.955v-30.31h4.955v12.4h13.973v-12.4h4.975Z" fill="#fff"/>
      <path id="Path_751" data-name="Path 751" d="M-918.382,5694.5q0,7.4-3.7,11.506t-10.48,4.1q-6.863,0-10.542-4.074t-3.679-11.578q0-7.506,3.7-11.528t10.562-4.021q6.759,0,10.45,4.084T-918.382,5694.5Zm-23.137,0q0,5.6,2.26,8.489a7.974,7.974,0,0,0,6.7,2.892,7.964,7.964,0,0,0,6.665-2.861q2.25-2.861,2.249-8.52,0-5.577-2.228-8.458t-6.645-2.882q-4.457,0-6.726,2.882T-941.519,5694.5Z" fill="#fff"/>
      <path id="Path_752" data-name="Path 752" d="M-901.4,5709.693h-4.955v-26.06h-8.914v-4.25h22.785v4.25H-901.4Z" fill="#fff"/>
      <path id="Path_753" data-name="Path 753" d="M-860.935,5694.5q0,7.4-3.7,11.506t-10.479,4.1q-6.864,0-10.542-4.074t-3.68-11.578q0-7.506,3.7-11.528t10.563-4.021q6.758,0,10.449,4.084T-860.935,5694.5Zm-23.136,0q0,5.6,2.259,8.489a7.976,7.976,0,0,0,6.7,2.892,7.966,7.966,0,0,0,6.665-2.861q2.25-2.861,2.249-8.52,0-5.577-2.229-8.458t-6.644-2.882q-4.458,0-6.727,2.882T-884.071,5694.5Z" fill="#fff"/>
      <path id="Path_754" data-name="Path 754" d="M-836.948,5701.462a7.627,7.627,0,0,1-2.923,6.344q-2.924,2.3-8.065,2.3a19.234,19.234,0,0,1-8.417-1.6v-4.685a22.847,22.847,0,0,0,4.406,1.534,18.673,18.673,0,0,0,4.343.559,6.911,6.911,0,0,0,4.343-1.119,3.649,3.649,0,0,0,1.4-3.006,3.767,3.767,0,0,0-1.286-2.881,19.347,19.347,0,0,0-5.307-2.8,14.018,14.018,0,0,1-5.846-3.836,8.108,8.108,0,0,1-1.7-5.183,7.257,7.257,0,0,1,2.7-5.97,11.172,11.172,0,0,1,7.235-2.177,21.266,21.266,0,0,1,8.666,1.907l-1.576,4.043a18.938,18.938,0,0,0-7.215-1.7,5.533,5.533,0,0,0-3.648,1.047,3.44,3.44,0,0,0-1.244,2.767,3.9,3.9,0,0,0,.5,2.022,5.074,5.074,0,0,0,1.638,1.586,27.557,27.557,0,0,0,4.1,1.969,22.411,22.411,0,0,1,4.893,2.592,7.611,7.611,0,0,1,2.28,2.716A8.163,8.163,0,0,1-836.948,5701.462Z" fill="#fff"/>
      <path id="Path_755" data-name="Path 755" d="M-807.178,5709.693h-4.975v-13.662h-13.973v13.662h-4.955v-30.31h4.955v12.4h13.973v-12.4h4.975Z" fill="#fff"/>
      <path id="Path_756" data-name="Path 756" d="M-772.286,5694.5q0,7.4-3.7,11.506t-10.48,4.1q-6.863,0-10.542-4.074t-3.68-11.578q0-7.506,3.7-11.528t10.562-4.021q6.759,0,10.449,4.084T-772.286,5694.5Zm-23.137,0q0,5.6,2.26,8.489a7.974,7.974,0,0,0,6.7,2.892,7.966,7.966,0,0,0,6.665-2.861q2.25-2.861,2.249-8.52,0-5.577-2.228-8.458t-6.645-2.882q-4.458,0-6.727,2.882T-795.423,5694.5Z" fill="#fff"/>
      <path id="Path_757" data-name="Path 757" d="M-745.708,5688.546a8.84,8.84,0,0,1-3.11,7.278q-3.109,2.528-8.852,2.529h-3.151v11.34h-4.956v-30.31h8.729q5.679,0,8.51,2.323T-745.708,5688.546Zm-15.113,5.64h2.632q3.815,0,5.6-1.327a4.832,4.832,0,0,0,1.783-4.147,4.705,4.705,0,0,0-1.6-3.9,7.893,7.893,0,0,0-4.976-1.285h-3.441Z" fill="#fff"/>
    </g>
    <g id="Group_190" data-name="Group 190" transform="translate(1003.299 -5419.708)">
      <path id="Path_758" data-name="Path 758" d="M-875.477,5419.708v32.77a73.531,73.531,0,0,0-52.14,21.59l-23.17-23.17a106.453,106.453,0,0,1,34.55-23.08A106.359,106.359,0,0,1-875.477,5419.708Z" fill="#f9f9f9"/>
      <path id="Path_759" data-name="Path 759" d="M-768.977,5526.208c0,58.42-48.08,106.5-106.5,106.5s-106.5-48.08-106.5-106.5a106.538,106.538,0,0,1,31.19-75.31l23.17,23.17a73.5,73.5,0,0,0-21.6,52.14,73.738,73.738,0,0,0,73.74,73.73,73.73,73.73,0,0,0,73.73-73.73,73.73,73.73,0,0,0-73.73-73.73v-32.77C-817.057,5419.708-768.977,5467.788-768.977,5526.208Z" fill="#e12649"/>
    </g>
  </g>
</svg>
