<svg id="skillXD" xmlns="http://www.w3.org/2000/svg" width="213" height="289.985" viewBox="0 0 213 289.985">
  <g id="Group_198" data-name="Group 198" transform="translate(315.977 -5419.708)">
    <path id="Path_784" data-name="Path 784" d="M-211.934,5709.693h-5.7l-7.588-12.4-7.649,12.4h-5.308l10.055-15.715-9.412-14.6h5.514l7.007,11.465,7.008-11.465h5.349l-9.475,14.678Z" fill="#fff"/>
    <path id="Path_785" data-name="Path 785" d="M-183.2,5694.248q0,7.506-4.167,11.475t-12,3.97h-8.48v-30.31h9.371q7.236,0,11.257,3.9T-183.2,5694.248Zm-5.225.166q0-10.884-10.18-10.884H-202.9v22h3.525Q-188.423,5705.526-188.424,5694.414Z" fill="#fff"/>
  </g>
  <g id="Group_199" data-name="Group 199" transform="translate(315.977 -5419.708)">
    <path id="Path_786" data-name="Path 786" d="M-209.477,5419.708v32.77q-3.255,0-6.43.28l-2.85-32.64c1.54-.14,3.09-.24,4.63-.31S-211.027,5419.708-209.477,5419.708Z" fill="#f9f9f9"/>
    <path id="Path_787" data-name="Path 787" d="M-102.977,5526.208c0,58.42-48.08,106.5-106.5,106.5s-106.5-48.08-106.5-106.5c0-54.93,42.5-101.31,97.22-106.09l2.85,32.64a73.738,73.738,0,0,0-67.3,73.45,73.73,73.73,0,0,0,73.73,73.73,73.73,73.73,0,0,0,73.73-73.73,73.73,73.73,0,0,0-73.73-73.73v-32.77C-151.057,5419.708-102.977,5467.788-102.977,5526.208Z" fill="#fc4"/>
  </g>
</svg>
