<svg id="workIllust" xmlns="http://www.w3.org/2000/svg" width="477.525" height="416.708" viewBox="0 0 477.525 416.708">
  <rect id="Rectangle_61" data-name="Rectangle 61" width="477.525" height="416.708" fill="#ff5f34"/>
  <g id="Group_205" data-name="Group 205" transform="translate(1276.445 -6299.116)">
    <path id="Path_798" data-name="Path 798" d="M-1190.48,6488.443v33.7h-4.35v-33.7Z" fill="#fff"/>
    <path id="Path_799" data-name="Path 799" d="M-1182.881,6488.443h4.351V6518.5h14.4v3.65h-18.751Z" fill="#fff"/>
    <path id="Path_800" data-name="Path 800" d="M-1159.281,6488.443h4.35V6518.5h14.4v3.65h-18.751Z" fill="#fff"/>
    <path id="Path_801" data-name="Path 801" d="M-1133.132,6488.443v19.951c0,7.551,3.351,10.751,7.851,10.751,5,0,8.2-3.3,8.2-10.751v-19.951h4.4v19.651c0,10.351-5.451,14.6-12.751,14.6-6.9,0-12.1-3.95-12.1-14.4v-19.851Z" fill="#fff"/>
    <path id="Path_802" data-name="Path 802" d="M-1105.732,6516.844a15.418,15.418,0,0,0,7.8,2.2c4.451,0,7.051-2.349,7.051-5.75,0-3.15-1.8-4.95-6.351-6.7-5.5-1.95-8.9-4.8-8.9-9.55,0-5.25,4.35-9.151,10.9-9.151a15.3,15.3,0,0,1,7.451,1.651l-1.2,3.549a13.441,13.441,0,0,0-6.4-1.6c-4.6,0-6.35,2.751-6.35,5.051,0,3.15,2.05,4.7,6.7,6.5,5.7,2.2,8.6,4.951,8.6,9.9,0,5.2-3.85,9.7-11.8,9.7a17.419,17.419,0,0,1-8.6-2.15Z" fill="#fff"/>
    <path id="Path_803" data-name="Path 803" d="M-1074.082,6492.143h-10.251v-3.7h24.951v3.7h-10.3v30h-4.4Z" fill="#fff"/>
    <path id="Path_804" data-name="Path 804" d="M-1055.632,6488.893a45.291,45.291,0,0,1,8.35-.7c4.65,0,7.65.851,9.751,2.75a8.394,8.394,0,0,1,2.649,6.4,8.847,8.847,0,0,1-6.35,8.6v.15c2.6.9,4.151,3.3,4.951,6.8,1.1,4.7,1.9,7.951,2.6,9.251h-4.5c-.551-.95-1.3-3.851-2.251-8.051-1-4.65-2.8-6.4-6.75-6.55h-4.1v14.6h-4.35Zm4.35,15.351h4.45c4.65,0,7.6-2.55,7.6-6.4,0-4.349-3.15-6.25-7.75-6.3a17.982,17.982,0,0,0-4.3.4Z" fill="#fff"/>
    <path id="Path_805" data-name="Path 805" d="M-1023.033,6511.544l-3.5,10.6h-4.5l11.451-33.7h5.25l11.5,33.7h-4.65l-3.6-10.6Zm11.05-3.4-3.3-9.7c-.75-2.2-1.25-4.2-1.75-6.15h-.1c-.5,2-1.05,4.049-1.7,6.1l-3.3,9.75Z" fill="#fff"/>
    <path id="Path_806" data-name="Path 806" d="M-995.333,6492.143h-10.251v-3.7h24.952v3.7h-10.3v30h-4.4Z" fill="#fff"/>
    <path id="Path_807" data-name="Path 807" d="M-972.533,6488.443v33.7h-4.35v-33.7Z" fill="#fff"/>
    <path id="Path_808" data-name="Path 808" d="M-936.132,6504.944c0,11.6-7.05,17.751-15.651,17.751-8.9,0-15.151-6.9-15.151-17.1,0-10.7,6.651-17.7,15.651-17.7C-942.082,6487.893-936.132,6494.943-936.132,6504.944Zm-26.152.55c0,7.2,3.9,13.651,10.751,13.651,6.9,0,10.8-6.351,10.8-14,0-6.7-3.5-13.7-10.751-13.7C-958.683,6491.443-962.284,6498.093-962.284,6505.494Z" fill="#fff"/>
    <path id="Path_809" data-name="Path 809" d="M-930.484,6522.145v-33.7h4.75l10.8,17.051a95.4,95.4,0,0,1,6.05,10.951l.1-.05c-.4-4.5-.5-8.6-.5-13.851v-14.1h4.1v33.7h-4.4l-10.7-17.1a107,107,0,0,1-6.3-11.25l-.15.049c.25,4.25.35,8.3.35,13.9v14.4Z" fill="#fff"/>
    <path id="Path_810" data-name="Path 810" d="M-898.185,6516.844a15.422,15.422,0,0,0,7.8,2.2c4.45,0,7.05-2.349,7.05-5.75,0-3.15-1.8-4.95-6.35-6.7-5.5-1.95-8.9-4.8-8.9-9.55,0-5.25,4.35-9.151,10.9-9.151a15.3,15.3,0,0,1,7.45,1.651l-1.2,3.549a13.439,13.439,0,0,0-6.4-1.6c-4.6,0-6.35,2.751-6.35,5.051,0,3.15,2.05,4.7,6.7,6.5,5.7,2.2,8.6,4.951,8.6,9.9,0,5.2-3.851,9.7-11.8,9.7a17.423,17.423,0,0,1-8.6-2.15Z" fill="#fff"/>
  </g>
</svg>
