<svg id="workWeb" xmlns="http://www.w3.org/2000/svg" width="477.525" height="416.708" viewBox="0 0 477.525 416.708">
  <path id="Path_1407" data-name="Path 1407" d="M0,0H477.525V416.708H0Z" fill="#e12649"/>
  <g id="Group_207" data-name="Group 207" transform="translate(702.582 -6299.116)">
    <path id="Path_811" data-name="Path 811" d="M-571.267,6522.145l-8.551-33.7h4.6l4,17.051c1,4.2,1.9,8.4,2.5,11.651h.1c.55-3.351,1.6-7.351,2.75-11.7l4.5-17h4.55l4.1,17.1c.95,4,1.85,8,2.35,11.55h.1c.7-3.7,1.65-7.45,2.7-11.65l4.45-17h4.45l-9.55,33.7h-4.55l-4.251-17.551a101.432,101.432,0,0,1-2.2-11h-.1a105.236,105.236,0,0,1-2.6,11l-4.8,17.551Z" fill="#fff"/>
    <path id="Path_812" data-name="Path 812" d="M-517.017,6506.344h-13.1V6518.5h14.6v3.65h-18.951v-33.7h18.2v3.65h-13.851v10.651h13.1Z" fill="#fff"/>
    <path id="Path_813" data-name="Path 813" d="M-509.869,6488.893a42.166,42.166,0,0,1,7.95-.7c4.351,0,7.151.75,9.251,2.45a7.065,7.065,0,0,1,2.8,5.95c0,3.25-2.15,6.1-5.7,7.4v.1c3.2.8,6.951,3.45,6.951,8.45a9.082,9.082,0,0,1-2.851,6.75c-2.35,2.151-6.15,3.151-11.65,3.151a50.828,50.828,0,0,1-6.751-.4Zm4.35,13.8h3.95c4.6,0,7.3-2.4,7.3-5.65,0-3.951-3-5.5-7.4-5.5a18.694,18.694,0,0,0-3.85.3Zm0,16.151a23.291,23.291,0,0,0,3.651.2c4.5,0,8.65-1.649,8.65-6.549,0-4.6-3.95-6.5-8.7-6.5h-3.6Z" fill="#fff"/>
    <path id="Path_814" data-name="Path 814" d="M-486.619,6524.145l13.95-36.252h3.4l-14,36.252Z" fill="#fff"/>
    <path id="Path_815" data-name="Path 815" d="M-461.27,6488.443v19.951c0,7.551,3.35,10.751,7.851,10.751,5,0,8.2-3.3,8.2-10.751v-19.951h4.4v19.651c0,10.351-5.45,14.6-12.75,14.6-6.9,0-12.1-3.95-12.1-14.4v-19.851Z" fill="#fff"/>
    <path id="Path_816" data-name="Path 816" d="M-428.92,6488.443v33.7h-4.35v-33.7Z" fill="#fff"/>
    <path id="Path_817" data-name="Path 817" d="M-425.171,6524.145l13.951-36.252h3.4l-14,36.252Z" fill="#fff"/>
    <path id="Path_818" data-name="Path 818" d="M-399.821,6488.443v19.951c0,7.551,3.35,10.751,7.851,10.751,5,0,8.2-3.3,8.2-10.751v-19.951h4.4v19.651c0,10.351-5.45,14.6-12.75,14.6-6.9,0-12.1-3.95-12.1-14.4v-19.851Z" fill="#fff"/>
    <path id="Path_819" data-name="Path 819" d="M-353.37,6522.145l-4.3-7.45c-1.75-2.851-2.85-4.7-3.9-6.651h-.1c-.95,1.951-1.9,3.75-3.65,6.7l-4.05,7.4h-5l10.3-17.051-9.9-16.651h5.05l4.451,7.9c1.25,2.2,2.2,3.9,3.1,5.7h.15c.95-2,1.8-3.55,3.05-5.7l4.6-7.9h5l-10.251,16.4,10.5,17.3Z" fill="#fff"/>
  </g>
</svg>
