<svg id="workLogos" xmlns="http://www.w3.org/2000/svg" width="477.525" height="416.708" viewBox="0 0 477.525 416.708">
  <rect id="Rectangle_63" data-name="Rectangle 63" width="477.525" height="416.708" fill="#fc4"/>
  <g id="Group_209" data-name="Group 209" transform="translate(1853.97 -6299.116)">
    <path id="Path_820" data-name="Path 820" d="M-1685.155,6488.443h4.349V6518.5h14.4v3.65h-18.751Z" fill="#fff"/>
    <path id="Path_821" data-name="Path 821" d="M-1634.7,6504.945c0,11.6-7.05,17.75-15.651,17.75-8.9,0-15.151-6.9-15.151-17.1,0-10.7,6.65-17.7,15.651-17.7C-1640.654,6487.894-1634.7,6494.943-1634.7,6504.945Zm-26.152.549c0,7.2,3.9,13.652,10.751,13.652,6.9,0,10.8-6.352,10.8-14,0-6.7-3.5-13.7-10.75-13.7C-1657.255,6491.443-1660.856,6498.093-1660.856,6505.494Z" fill="#fff"/>
    <path id="Path_822" data-name="Path 822" d="M-1603.4,6520.646a31.428,31.428,0,0,1-10.351,1.85c-5.1,0-9.3-1.3-12.6-4.452-2.9-2.8-4.7-7.3-4.7-12.55.05-10.049,6.95-17.4,18.251-17.4a20.815,20.815,0,0,1,8.4,1.551l-1.05,3.549a17.5,17.5,0,0,0-7.451-1.449c-8.2,0-13.551,5.1-13.551,13.55,0,8.551,5.15,13.6,13,13.6a14.192,14.192,0,0,0,5.8-.9v-10.051h-6.851v-3.5h11.1Z" fill="#fff"/>
    <path id="Path_823" data-name="Path 823" d="M-1567.954,6504.945c0,11.6-7.051,17.75-15.652,17.75-8.9,0-15.15-6.9-15.15-17.1,0-10.7,6.65-17.7,15.65-17.7C-1573.9,6487.894-1567.954,6494.943-1567.954,6504.945Zm-26.153.549c0,7.2,3.9,13.652,10.751,13.652,6.9,0,10.8-6.352,10.8-14,0-6.7-3.5-13.7-10.751-13.7C-1590.506,6491.443-1594.107,6498.093-1594.107,6505.494Z" fill="#fff"/>
    <path id="Path_824" data-name="Path 824" d="M-1562.906,6516.845a15.423,15.423,0,0,0,7.8,2.2c4.452,0,7.051-2.349,7.051-5.75,0-3.15-1.8-4.949-6.35-6.7-5.5-1.951-8.9-4.8-8.9-9.551,0-5.25,4.351-9.15,10.9-9.15a15.305,15.305,0,0,1,7.451,1.65l-1.2,3.549a13.449,13.449,0,0,0-6.4-1.6c-4.6,0-6.35,2.75-6.35,5.05,0,3.151,2.049,4.7,6.7,6.5,5.7,2.2,8.6,4.952,8.6,9.9,0,5.2-3.849,9.7-11.8,9.7a17.436,17.436,0,0,1-8.6-2.15Z" fill="#fff"/>
  </g>
</svg>
